<svg width="41.217773" height="57.000000" viewBox="0 0 41.2178 57" fill="none" xmlns="http://www.w3.org/2000/svg" xmlns:xlink="http://www.w3.org/1999/xlink">
	<desc>
			Created with Pixso.
	</desc>
	<defs/>
	<path id="Vector" d="M41.16 36.47C41.16 42.89 38.21 48.63 33.57 52.39C34.29 50.72 34.68 48.89 34.71 46.95C35.03 41.35 30.92 36.42 28.45 33.47C28 32.94 27.39 32.2 27.23 31.93C26.64 30.95 25.98 29.63 25.32 28.09C24.47 26.15 22.56 24.9 20.46 24.9C18.95 24.9 17.52 25.57 16.51 26.68C14.86 28.51 13.72 30.45 13.09 32.41C12.5 34.22 12.13 35.91 11.89 37.45C9.42 37.53 7.3 39.34 6.85 41.78C6.58 43.16 6.45 44.57 6.4 45.92C6.32 48.25 6.85 50.46 7.75 52.47C5.36 50.56 3.43 48.13 2.1 45.37C0.77 42.61 0.07 39.59 0.06 36.53C-0.61 26.28 4.28 18 4.49 17.66C4.86 17.02 5.55 16.62 6.35 16.7C7.09 16.76 7.75 17.21 8.04 17.9C8.42 18.8 8.81 19.62 9.18 20.34C10.03 17.26 11.23 14.95 12.95 12.06C15.66 7.55 18.07 1.31 18.1 1.26C18.31 0.68 18.82 0.23 19.43 0.07C20.04 -0.09 20.67 0.01 21.18 0.41C21.36 0.57 25.85 4.07 29.99 9.06C34.23 14.18 35.19 20.18 35.22 24.56L36.28 23.42C36.75 22.91 37.44 22.7 38.13 22.83C38.8 22.97 39.36 23.44 39.59 24.11C39.67 24.29 41.21 28.59 41.21 36.5L41.16 36.47ZM23.83 34C22.98 32.6 22.21 30.93 21.66 29.68C21.57 29.47 21.43 29.3 21.25 29.16C21.08 29.02 20.87 28.93 20.65 28.9C20.43 28.87 20.21 28.89 20 28.96C19.79 29.04 19.6 29.17 19.45 29.33C18.53 30.37 17.41 31.88 16.85 33.66C15.02 39.36 15.53 43.82 15.53 43.82L12.87 41.73C12.1 41.12 10.94 41.54 10.75 42.5C10.56 43.45 10.41 44.67 10.35 46.05C10.17 51.36 13.88 56.21 19.16 56.9C25.4 57.73 30.73 52.87 30.73 46.79C31.1 41.43 25.08 36.05 23.83 33.95L23.83 34Z" fill="#3C164F" fill-opacity="1.000000" fill-rule="nonzero"/>
</svg>
