<svg width="56.081543" height="56.000000" viewBox="0 0 56.0815 56" fill="none" xmlns="http://www.w3.org/2000/svg" xmlns:xlink="http://www.w3.org/1999/xlink">
	<desc>
			Created with Pixso.
	</desc>
	<defs/>
	<path id="Vector" d="M33.87 11.87L37.16 8.66C37.4 8.43 37.56 8.14 37.64 7.83C37.72 7.51 37.71 7.18 37.61 6.87C37.5 6.55 37.32 6.28 37.07 6.07C36.82 5.86 36.51 5.72 36.19 5.67L31.64 5.01L29.61 0.89C29.45 0.62 29.22 0.39 28.94 0.23C28.67 0.08 28.35 0 28.04 0C27.72 0 27.41 0.08 27.13 0.23C26.86 0.39 26.63 0.62 26.46 0.89L24.43 5.01L19.88 5.67C19.56 5.72 19.26 5.86 19.01 6.07C18.76 6.28 18.57 6.55 18.47 6.87C18.37 7.18 18.36 7.51 18.43 7.83C18.51 8.15 18.68 8.43 18.91 8.66L22.2 11.87L21.43 16.4C21.37 16.72 21.41 17.05 21.53 17.36C21.65 17.66 21.86 17.92 22.12 18.11C22.39 18.3 22.7 18.42 23.03 18.44C23.35 18.47 23.68 18.4 23.97 18.25L28.04 16.11L32.1 18.25C32.39 18.4 32.72 18.47 33.05 18.44C33.37 18.42 33.68 18.31 33.95 18.11C34.21 17.92 34.42 17.66 34.54 17.36C34.67 17.05 34.7 16.72 34.65 16.4L33.87 11.87ZM55.99 12.05C55.89 11.74 55.7 11.46 55.45 11.25C55.2 11.04 54.9 10.9 54.58 10.86L50.03 10.19L47.99 6.07C47.83 5.8 47.6 5.57 47.33 5.41C47.05 5.26 46.74 5.17 46.42 5.17C46.1 5.17 45.79 5.26 45.52 5.41C45.24 5.57 45.01 5.8 44.85 6.07L42.82 10.19L38.27 10.85C37.95 10.9 37.64 11.04 37.39 11.25C37.14 11.46 36.96 11.74 36.85 12.05C36.75 12.36 36.74 12.69 36.82 13.01C36.9 13.33 37.06 13.61 37.3 13.84L40.59 17.05L39.81 21.58C39.76 21.9 39.79 22.23 39.91 22.54C40.04 22.84 40.24 23.1 40.51 23.3C40.77 23.49 41.09 23.6 41.41 23.63C41.74 23.65 42.06 23.58 42.35 23.43L46.42 21.29L50.49 23.43C50.78 23.58 51.11 23.65 51.43 23.63C51.76 23.6 52.07 23.49 52.34 23.3C52.6 23.1 52.81 22.84 52.93 22.54C53.05 22.23 53.09 21.9 53.03 21.58L52.26 17.05L55.55 13.84C55.78 13.62 55.95 13.33 56.02 13.01C56.1 12.69 56.09 12.36 55.99 12.05ZM17.8 10.85L13.26 10.19L11.22 6.07C11.08 5.78 10.85 5.53 10.58 5.36C10.3 5.19 9.98 5.09 9.65 5.09C9.32 5.09 9 5.19 8.72 5.36C8.45 5.53 8.22 5.78 8.08 6.07L6.05 10.19L1.5 10.85C1.17 10.9 0.87 11.04 0.62 11.25C0.37 11.46 0.18 11.74 0.08 12.05C-0.02 12.36 -0.03 12.69 0.05 13.01C0.12 13.33 0.29 13.61 0.52 13.84L3.82 17.05L3.04 21.58C2.98 21.9 3.02 22.23 3.14 22.54C3.27 22.84 3.47 23.1 3.74 23.29C4 23.49 4.31 23.6 4.64 23.62C4.97 23.65 5.29 23.58 5.58 23.43L9.65 21.29L13.72 23.43C14.01 23.58 14.33 23.65 14.66 23.63C14.98 23.6 15.3 23.49 15.56 23.3C15.83 23.1 16.03 22.84 16.16 22.54C16.28 22.23 16.32 21.9 16.26 21.58L15.48 17.05L18.78 13.84C19.01 13.61 19.17 13.33 19.25 13.01C19.33 12.69 19.32 12.36 19.22 12.05C19.12 11.74 18.93 11.46 18.68 11.25C18.43 11.04 18.13 10.9 17.8 10.86L17.8 10.85ZM45.56 26.2L10.51 26.2C9.12 26.2 7.78 26.76 6.79 27.74C5.81 28.73 5.25 30.07 5.25 31.46L5.25 45.48C5.25 46.87 5.81 48.21 6.79 49.2C7.78 50.18 9.12 50.74 10.51 50.74L22.05 50.74L26.8 55.48C27.13 55.81 27.57 56 28.04 56C28.5 56 28.95 55.81 29.28 55.48L34.02 50.74L45.56 50.74C46.96 50.74 48.29 50.18 49.28 49.2C50.26 48.21 50.82 46.87 50.82 45.48L50.82 31.46C50.82 30.07 50.26 28.73 49.28 27.74C48.29 26.76 46.96 26.2 45.56 26.2ZM42.06 43.73L14.02 43.73C13.55 43.73 13.11 43.54 12.78 43.21C12.45 42.89 12.26 42.44 12.26 41.98C12.26 41.51 12.45 41.06 12.78 40.74C13.11 40.41 13.55 40.22 14.02 40.22L42.06 40.22C42.52 40.22 42.97 40.41 43.3 40.74C43.62 41.06 43.81 41.51 43.81 41.98C43.81 42.44 43.62 42.89 43.3 43.21C42.97 43.54 42.52 43.73 42.06 43.73ZM42.06 36.72L14.02 36.72C13.55 36.72 13.11 36.53 12.78 36.2C12.45 35.88 12.26 35.43 12.26 34.96C12.26 34.5 12.45 34.05 12.78 33.73C13.11 33.4 13.55 33.21 14.02 33.21L42.06 33.21C42.52 33.21 42.97 33.4 43.3 33.73C43.62 34.05 43.81 34.5 43.81 34.96C43.81 35.43 43.62 35.88 43.3 36.2C42.97 36.53 42.52 36.72 42.06 36.72Z" fill="#3C164F" fill-opacity="1.000000" fill-rule="nonzero"/>
</svg>
