<svg width="64.104004" height="57.091309" viewBox="0 0 64.104 57.0913" fill="none" xmlns="http://www.w3.org/2000/svg" xmlns:xlink="http://www.w3.org/1999/xlink">
	<desc>
			Created with Pixso.
	</desc>
	<defs/>
	<path id="Vector" d="M64.1 29.04C63.94 25.19 60.73 22.15 56.8 22.23C55.04 22.31 53.44 23.03 52.24 24.15C46.79 20.38 40.3 18.38 33.64 18.22L36.77 3.24L47.11 5.32C47.43 7.96 49.75 9.89 52.4 9.57C55.04 9.25 56.96 6.92 56.64 4.28C56.32 1.63 54 -0.29 51.35 0.03C49.83 0.19 48.47 1.07 47.75 2.35L35.97 0.03C35.17 -0.13 34.37 0.35 34.21 1.15L30.68 17.9C23.95 17.98 17.46 20.06 11.85 23.83C9.04 21.19 4.56 21.27 1.91 24.15C-0.73 26.96 -0.65 31.44 2.23 34.09C2.79 34.57 3.43 35.05 4.15 35.37C4.07 36.09 4.07 36.81 4.15 37.45C4.15 48.27 16.74 57.09 32.28 57.09C47.83 57.09 60.41 48.35 60.41 37.45C60.49 36.73 60.49 36.01 60.41 35.37C62.65 34.25 64.18 31.76 64.1 29.04ZM15.77 33.93C15.77 31.28 17.94 29.12 20.58 29.12C23.23 29.12 25.39 31.28 25.39 33.93C25.39 36.57 23.23 38.74 20.58 38.74C17.94 38.74 15.77 36.57 15.77 33.93ZM43.82 47.23C40.38 49.79 36.21 51.16 31.96 50.92C27.71 51.08 23.47 49.79 20.1 47.23C19.62 46.67 19.7 45.87 20.26 45.39C20.74 44.99 21.38 44.99 21.94 45.39C24.83 47.47 28.36 48.59 31.96 48.43C35.57 48.59 39.09 47.63 42.06 45.47C42.62 44.99 43.42 44.99 43.98 45.47C44.46 46.03 44.46 46.83 43.98 47.39L43.98 47.23L43.82 47.23ZM43.02 38.98C40.38 38.98 38.21 36.81 38.21 34.17C38.21 31.52 40.38 29.36 43.02 29.36C45.66 29.36 47.83 31.52 47.83 34.17C47.91 36.81 45.91 39.06 43.18 39.14L42.94 39.14L43.02 38.98Z" fill="#3C164F" fill-opacity="1.000000" fill-rule="nonzero"/>
</svg>
