<svg width="56.000000" height="56.000000" viewBox="0 0 56 56" fill="none" xmlns="http://www.w3.org/2000/svg" xmlns:xlink="http://www.w3.org/1999/xlink">
	<desc>
			Created with Pixso.
	</desc>
	<defs/>
	<path id="Vector" d="M28 14.1C20.33 14.1 14.1 20.33 14.1 28C14.1 35.67 20.33 41.91 28 41.91C35.67 41.91 41.91 35.67 41.91 28C41.89 20.33 35.66 14.1 28 14.1ZM20.63 12.96C20.85 13.5 21.48 13.76 22.01 13.54C22.55 13.31 22.81 12.69 22.59 12.16L20.07 6.11C19.85 5.58 19.23 5.32 18.69 5.54C18.16 5.76 17.9 6.39 18.12 6.92L20.63 12.96ZM6.11 20.07L12.16 22.57C12.69 22.79 13.3 22.55 13.54 22C13.76 21.47 13.5 20.84 12.96 20.62L6.92 18.13C6.39 17.91 5.76 18.17 5.54 18.7C5.32 19.24 5.58 19.85 6.11 20.07ZM13.52 33.98C13.3 33.44 12.68 33.18 12.14 33.4L6.1 35.92C5.57 36.14 5.31 36.76 5.53 37.3C5.75 37.83 6.37 38.09 6.91 37.87L12.95 35.36C13.5 35.14 13.74 34.51 13.52 33.98ZM22 42.47C21.47 42.25 20.84 42.51 20.62 43.04L18.13 49.08C17.91 49.62 18.17 50.24 18.7 50.46C19.24 50.68 19.85 50.44 20.09 49.89L22.59 43.85C22.79 43.3 22.53 42.68 22 42.47ZM15.44 16.92C15.84 17.32 16.52 17.32 16.92 16.92C17.34 16.5 17.34 15.84 16.92 15.44L9.68 8.2C9.27 7.78 8.6 7.78 8.2 8.2C7.78 8.61 7.78 9.28 8.2 9.68L15.44 16.92ZM12.34 28C12.34 27.42 11.87 26.95 11.28 26.95L1.05 26.95C0.46 26.95 0 27.42 0 28C0 28.59 0.46 29.06 1.05 29.06L11.28 29.06C11.87 29.04 12.34 28.57 12.34 28ZM15.44 39.07L8.2 46.31C7.78 46.72 7.78 47.39 8.2 47.79C8.6 48.2 9.28 48.2 9.68 47.79L16.92 40.55C17.34 40.14 17.34 39.47 16.92 39.07C16.52 38.65 15.85 38.65 15.44 39.07ZM28 43.65C27.42 43.65 26.95 44.12 26.95 44.71L26.95 54.94C26.95 55.53 27.42 56 28 56C28.59 56 29.06 55.53 29.06 54.94L29.06 44.71C29.04 44.12 28.57 43.65 28 43.65ZM28 12.34C28.59 12.34 29.06 11.87 29.06 11.28L29.06 1.05C29.06 0.46 28.59 0 28 0C27.42 0 26.95 0.46 26.95 1.05L26.95 11.28C26.95 11.87 27.42 12.34 28 12.34ZM35.36 43.03C35.14 42.49 34.51 42.23 33.98 42.45C33.44 42.68 33.18 43.3 33.4 43.83L35.92 49.88C36.14 50.41 36.76 50.67 37.3 50.45C37.83 50.23 38.09 49.6 37.87 49.07L35.36 43.03ZM49.88 35.92L43.83 33.42C43.3 33.2 42.68 33.46 42.45 33.99C42.23 34.52 42.49 35.15 43.03 35.37L49.07 37.87C49.6 38.09 50.21 37.84 50.45 37.3C50.67 36.75 50.41 36.14 49.88 35.92ZM42.47 22.01C42.69 22.55 43.31 22.81 43.85 22.59L49.89 20.07C50.42 19.85 50.68 19.23 50.46 18.69C50.24 18.16 49.62 17.9 49.08 18.12L43.04 20.63C42.49 20.85 42.25 21.48 42.47 22.01ZM40.55 39.07C40.14 38.65 39.47 38.65 39.07 39.07C38.65 39.49 38.65 40.15 39.07 40.55L46.31 47.79C46.71 48.2 47.39 48.2 47.79 47.79C48.21 47.38 48.21 46.71 47.79 46.31L40.55 39.07ZM54.94 26.95L44.71 26.95C44.12 26.95 43.65 27.42 43.65 28C43.65 28.59 44.12 29.06 44.71 29.06L54.94 29.06C55.53 29.06 56 28.59 56 28C56 27.42 55.53 26.95 54.94 26.95ZM39.07 16.92C39.47 17.32 40.15 17.32 40.55 16.92L47.79 9.68C48.21 9.27 48.21 8.6 47.79 8.2C47.38 7.78 46.71 7.78 46.31 8.2L39.07 15.44C38.65 15.85 38.65 16.52 39.07 16.92ZM33.99 13.54C34.52 13.76 35.14 13.51 35.37 12.96L37.87 6.92C38.09 6.39 37.83 5.76 37.3 5.54C36.76 5.32 36.14 5.58 35.92 6.11L33.42 12.16C33.2 12.69 33.46 13.31 33.99 13.54Z" fill="#3C164F" fill-opacity="1.000000" fill-rule="evenodd"/>
</svg>
