<svg width="653.935547" height="444.879639" viewBox="0 0 653.936 444.88" fill="none" xmlns="http://www.w3.org/2000/svg" xmlns:xlink="http://www.w3.org/1999/xlink">
	<desc>
			Created with Pixso.
	</desc>
	<defs/>
	<path id="Форма 1" d="M117.62 309.16C117.62 298.94 119.98 292.99 123.8 283.44C125.26 279.96 126.83 275.91 128.63 270.97C135.48 252.09 123.68 238.61 123.57 238.5C123.24 238.16 122.68 238.05 122.23 238.28C121.77 238.5 121.55 238.95 121.55 239.4C121.55 239.51 122.79 249.17 115.48 263.78C109.08 276.36 113.01 298.83 114.7 306.92C112.23 305.12 109.64 303.55 107.17 301.86C104.59 300.18 102 298.49 99.53 296.69C95.15 293.55 91.22 289.84 87.62 285.8C88.18 278.27 96.72 264.23 111.22 247.26C124.58 231.54 113.91 200.98 113.46 199.63C113.24 199.07 112.79 198.84 112.23 198.96C111.67 199.07 111.33 199.52 111.33 200.08C111.67 209.52 103.91 227.83 89.53 251.53C82.23 263.67 82.68 274.9 84.03 281.3C77.85 273.21 73.13 263.78 70.21 253.89C71.22 246.48 79.76 232.1 94.03 213.22C105.93 197.5 95.82 173.68 95.37 172.67C95.15 172.22 94.59 171.88 94.14 171.99C93.58 172.11 93.24 172.56 93.24 173.12C93.24 173.34 93.91 193.68 80.77 209.4C71.67 220.3 68.97 236.03 68.19 245.58C66.84 238.05 66.39 230.41 67.29 222.77C68.97 217.38 74.48 198.39 72.68 176.37C70.66 150.53 65.83 129.19 65.83 129.08C65.72 128.63 65.27 128.18 64.82 128.18C64.25 128.18 63.81 128.52 63.69 128.97C63.58 129.3 54.59 160.08 56.95 182.44C59.31 204.69 64.59 224.01 64.59 224.23C64.59 224.35 64.7 224.57 64.82 224.68C64.14 233.33 64.93 242.21 66.95 250.63C62.91 246.59 55.27 237.6 49.2 223.45C40.33 202.89 11.57 181.09 10.33 180.19C9.88 179.86 9.32 179.86 8.98 180.19C8.53 180.53 8.42 181.09 8.65 181.54C8.76 181.77 19.32 206.71 34.37 229.74C48.08 250.86 64.59 254.45 68.19 255.02C71 264.56 75.6 273.66 81.44 281.64C72.46 276.36 54.48 267.49 37.52 269.28C14.71 271.64 1.46 270.07 1.23 270.07C0.78 269.96 0.22 270.29 0.11 270.74C-0.12 271.19 0 271.75 0.44 272.09C1.57 272.99 27.52 294.11 47.52 294.11C47.74 294.11 48.08 294.11 48.3 294.11C66.05 293.55 82.68 288.6 86.16 287.48C89.76 291.53 93.8 295.23 98.3 298.49C100.77 300.29 103.46 302.09 106.05 303.66C106.83 304.22 107.73 304.78 108.52 305.23C100.32 302.99 86.95 301.64 71.33 308.49C47.07 319.16 27.52 308.6 27.29 308.49C26.84 308.26 26.17 308.38 25.83 308.83C25.5 309.28 25.5 309.84 25.95 310.29C26.17 310.51 41.34 325.79 63.58 325.79C67.74 325.79 72.01 325.23 76.61 323.99C90.32 320.29 96.5 316.47 100.99 313.77C105.71 310.85 108.18 309.39 116.05 310.51C122.34 315.57 126.27 320.96 127.84 326.58C127.95 327.03 128.4 327.36 128.97 327.36C129.08 327.36 129.19 327.36 129.3 327.36C129.86 327.25 130.2 326.58 130.09 326.02C128.29 320.17 124.13 314.44 117.62 309.16Z" fill="#E1B8ED" fill-opacity="1.000000" fill-rule="nonzero"/>
	<path id="Форма 1" d="M391.74 200.42L392.86 199.29C396.23 195.92 399.49 192.44 402.52 189.07C402.86 188.73 403.2 188.28 403.65 187.95C430.16 173.79 447.46 121.1 448.25 118.97C448.47 118.41 448.13 117.73 447.57 117.51C447.01 117.28 446.34 117.62 446.11 118.18C444.87 121.89 442.18 125.26 439.37 128.63C436.56 132 433.42 135.14 430.38 138.07C425.89 142.56 421.17 147.17 417.46 152.67C410.95 162.56 405.55 174.24 401.96 186.37C401.62 186.71 401.29 187.16 400.95 187.5C397.92 190.87 394.66 194.35 391.29 197.72L390.16 198.84C387.35 201.65 384.55 204.46 381.74 207.27C384.66 200.08 388.48 187.61 386.01 176.04C382.41 159.52 386.68 143.57 386.79 143.35C386.91 142.9 386.68 142.33 386.23 142.11C385.78 141.89 385.22 142 384.88 142.33C384.43 142.78 373.65 154.69 375.34 176.37C375.67 180.64 376.01 184.35 376.23 187.5C377.36 200.19 377.81 205.58 376.91 212.1C375.34 213.79 373.65 215.47 372.08 217.16C367.58 221.99 362.53 227.6 357.59 234.12C358.93 227.72 360.51 216.14 359.16 203.45C357.02 184.69 362.86 171.21 362.98 171.09C363.2 170.65 362.98 169.97 362.64 169.75C362.19 169.41 361.63 169.52 361.18 169.86C360.73 170.31 350.17 180.87 350.17 199.52C350.17 210.75 351.63 220.08 352.75 227.49C353.43 231.98 354.1 235.92 354.1 238.84C348.15 247.15 342.53 256.59 338.37 266.81C338.49 260.07 337.81 249.29 334.44 237.94C329.05 219.85 332.42 205.47 332.42 205.36C332.53 204.8 332.31 204.35 331.75 204.12C331.3 203.9 330.62 204.01 330.4 204.46C330.06 205.02 321.52 217.27 324.78 235.58C326.8 246.59 329.84 255.46 332.31 262.65C333.88 267.15 335.23 270.97 335.68 274C335 276.02 334.44 278.16 333.88 280.29C333.77 280.85 334.1 281.53 334.67 281.64C334.78 281.64 334.89 281.64 334.89 281.64C335.45 281.64 335.9 281.3 336.02 280.74C336.46 278.83 337.02 276.92 337.59 275.01C339.83 275.46 345 276.25 351.29 276.25C357.02 276.25 363.76 275.57 370.05 273.21C385.44 267.6 392.75 252.88 392.97 252.21C393.2 251.76 393.09 251.08 392.64 250.75C392.19 250.41 391.51 250.52 391.18 250.86C391.06 250.97 385 257.26 369.49 259.28C357.13 260.86 344.55 267.6 338.93 270.74C342.53 260.74 347.92 250.75 355.45 240.3C358.48 241.42 368.59 245.02 379.94 245.02C382.52 245.02 385.22 244.79 387.92 244.34C404.1 241.53 413.87 228.28 414.21 227.72C414.54 227.27 414.43 226.59 414.09 226.26C413.64 225.92 413.08 225.81 412.63 226.14C412.52 226.14 405.33 231.42 389.71 230.64C377.58 230.07 364.44 234.12 358.15 236.37C362.53 230.52 367.58 224.57 373.43 218.39C374.89 216.82 376.46 215.25 377.92 213.67C379.6 214.46 384.1 216.03 390.84 216.03C396.34 216.03 403.31 214.91 411.4 211.2C431.62 202.1 439.15 191.99 439.48 191.54C439.82 191.09 439.82 190.53 439.37 190.08C439.03 189.63 438.47 189.63 438.02 189.86C437.91 189.86 430.72 194.01 415.1 197.5C403.98 199.97 390.16 205.58 382.64 208.84C385.78 206.37 388.82 203.34 391.74 200.42Z" fill="#E1B8ED" fill-opacity="1.000000" fill-rule="nonzero"/>
	<path id="Форма 1" d="M271.87 126.72C268.38 118.97 260.63 113.8 252.54 111.33C244.45 108.86 235.8 108.86 227.27 108.86C231.87 103.24 239.4 100.99 246.25 98.3C253.1 95.6 260.29 91.33 261.98 84.25C263.1 79.76 261.64 75.04 260.29 70.55C258.27 64.03 255.69 56.73 249.51 53.7C243.22 50.66 235.69 53.25 229.29 55.94C234.46 49.09 239.18 42.12 243.67 34.82C245.02 32.69 246.36 30.22 246.03 27.63C245.47 24.04 241.65 21.9 238.27 20.44C231.98 17.63 224.79 14.71 218.5 17.41C213 19.77 209.85 25.61 207.83 31.34C205.92 37.07 204.57 43.13 200.75 47.85C197.94 37.29 194.01 27.07 189.07 17.41C187.27 13.93 185.02 10.22 181.43 8.65C176.71 6.74 171.43 9.09 166.83 11.57C161.88 14.15 156.71 16.96 154.13 21.9C150.98 27.86 152.67 35.16 155.37 41.23C158.17 47.29 161.99 53.02 163.57 59.42C155.37 56.62 147.17 53.81 138.96 51C136.49 50.1 133.8 49.31 131.21 49.88C126.83 50.89 124.36 55.49 122.56 59.65C119.75 66.17 116.83 73.8 119.86 80.21C122.9 86.84 130.99 89.53 138.29 90.09C145.59 90.66 153.23 89.98 159.97 92.68C150.31 94.7 140.31 96.95 132.67 103.24C125.03 109.53 120.88 121.1 126.04 129.42C129.64 135.26 136.83 138.18 143.68 138.29C150.53 138.4 157.28 136.27 163.79 134.13C154.47 140.42 148.51 151.43 148.29 162.78C148.17 174.02 153.79 185.25 163 191.77C187.61 209.29 221.2 185.36 243.11 173.68C252.09 168.96 260.86 163.34 266.92 155.25C273.33 147.17 276.02 135.93 271.87 126.72ZM209.74 169.07C204.91 141.77 204.8 114.25 191.99 88.86C182.22 69.54 168.29 48.3 171.99 25.61C172.33 23.48 175.59 24.37 175.25 26.51C171.32 50.21 188.28 72.34 197.72 92.79C208.73 116.5 208.51 142.78 213 168.06C213.34 170.31 210.19 171.21 209.74 169.07Z" fill="#E1B8ED" fill-opacity="1.000000" fill-rule="nonzero"/>
	<path id="Форма 1" d="M590.59 79.31C590.7 76.95 589.69 74.93 587.44 73.47C585.19 71.89 582.61 71.45 580.02 72.23C568.12 75.94 557.11 104.36 556.21 106.61C549.8 114.36 544.75 123.01 540.7 131.21C541.15 121.21 541.15 98.07 533.85 92.68C531.94 91.33 529.69 91.11 527.22 92.12C524.64 93.13 522.95 95.04 522.28 97.73C519.02 109.64 536.55 133.8 538.34 136.27C537 139.19 535.76 142 534.64 144.69C532.5 149.75 530.48 155.03 528.57 159.97C527 150.09 522.73 127.28 514.42 123.46C512.28 122.45 510.03 122.67 507.79 124.25C505.43 125.82 504.19 127.95 503.97 130.65C503.07 142.22 522.62 161.21 526.66 164.92C523.74 172.33 520.82 179.75 517.34 186.93C515.99 177.61 511.83 153.34 503.41 149.41C501.27 148.4 499.02 148.63 496.78 150.09C494.42 151.55 493.07 153.79 492.85 156.49C491.84 168.17 511.61 187.61 515.31 191.09C515.09 191.43 514.98 191.88 514.75 192.22C510.71 200.19 505.99 207.72 500.82 214.91C500.26 205.7 497.9 180.87 489.7 176.15C487.68 175.03 485.43 175.03 483.07 176.37C480.6 177.72 479.14 179.75 478.69 182.44C476.89 193.79 494.42 214.01 498.35 218.39C492.28 226.59 485.54 234.46 478.58 241.98C478.69 233 478.13 207.49 470.15 202.21C468.24 200.87 466 200.87 463.52 201.99C460.94 203.11 459.37 205.13 458.81 207.72C456.22 218.95 472.4 240.3 476 244.9C469.59 251.64 462.96 258.05 456.22 264.45C457.68 254.79 460.38 231.2 453.64 225.02C451.84 223.45 449.71 223 447.12 223.78C444.43 224.57 442.52 226.26 441.51 228.84C437.35 239.4 449.59 262.2 452.74 267.82C448.25 271.98 443.75 276.14 439.26 280.29C438.81 280.74 438.81 281.42 439.15 281.87C439.37 282.09 439.71 282.2 439.93 282.2C440.16 282.2 440.49 282.09 440.72 281.87C445.1 277.82 449.59 273.78 454.09 269.51C455.43 269.96 473.19 275.12 486.1 275.12C491.05 275.12 495.2 274.34 497.56 272.32C499.36 270.74 500.04 268.61 499.47 265.91C499.02 263.22 497.56 261.08 495.09 259.85C486.33 255.24 466.89 261.98 458.24 265.46C464.76 259.28 471.28 252.88 477.57 246.25C480.15 246.81 492.85 249.17 503.97 249.17C511.16 249.17 517.79 248.16 520.71 245.13C522.28 243.44 522.84 241.2 522.06 238.61C521.38 235.92 519.7 234.01 517.11 233C508.46 229.4 491.05 236.93 482.17 241.31C488.46 234.46 494.53 227.27 500.04 219.74C501.38 219.85 505.88 220.08 511.38 220.08C522.62 220.08 538.46 218.95 542.84 213.11C544.19 211.2 544.41 208.95 543.4 206.48C542.39 203.9 540.48 202.21 537.78 201.54C528.68 199.07 512.28 208.84 504.08 214.35C508.69 207.72 512.96 200.75 516.66 193.56C516.89 193.11 517.11 192.66 517.34 192.22C518.68 192.33 521.72 192.44 525.54 192.44C536.77 192.44 555.08 191.43 559.58 184.91C560.93 183 561.04 180.76 560.03 178.28C558.9 175.7 556.99 174.02 554.41 173.34C544.86 170.87 527.45 181.99 519.7 187.38C522.95 180.42 525.87 173.23 528.57 166.15C533.52 166.04 564.86 165.14 570.36 155.93C571.6 153.91 571.6 151.66 570.36 149.3C569.13 146.83 567.1 145.25 564.41 144.81C554.52 142.9 537.33 155.82 530.37 161.55C532.39 156.38 534.41 150.99 536.55 145.82C537.67 143.12 538.91 140.2 540.26 137.17C541.83 137.28 544.52 137.28 548.01 137.28C559.24 137.28 577.55 136.27 582.05 129.75C583.39 127.84 583.51 125.6 582.5 123.12C581.37 120.54 579.46 118.85 576.88 118.18C567.55 115.71 550.7 126.38 542.73 131.89C546.66 123.91 551.6 115.6 557.78 108.18C561.15 106.27 589.91 90.32 590.59 79.31Z" fill="#E1B8ED" fill-opacity="1.000000" fill-rule="nonzero"/>
	<path id="Форма 1" d="M653.5 232.88C652.37 228.95 647.32 225.69 643.61 224.68C640.35 223.78 635.18 222.77 636.31 218.17C636.87 215.92 638.78 214.23 640.8 213C642.94 211.65 645.63 210.41 646.08 207.83C646.42 206.03 645.41 204.24 644.4 202.66C641.81 198.62 639.12 194.46 634.96 192.1C631.36 190.08 627.09 189.86 623.5 191.99C620.35 193.9 618.11 198.96 614.06 198.84C610.24 198.73 608.67 194.12 605.86 191.54C600.36 186.49 589.57 189.97 583.84 193C581.71 194.12 570.02 201.09 576.88 203.11C583.28 204.91 589.46 205.47 595.64 208.28C596.54 208.62 597.44 209.18 597.77 209.97C598.56 211.54 596.99 213.45 595.3 213.79C593.62 214.12 591.82 213.45 590.13 212.77C582.05 209.74 572.95 208.95 564.75 211.88C559.58 213.67 552.5 218.05 550.25 223.45C548.79 226.93 549.92 229.63 553.74 229.51C559.46 229.4 564.97 229.74 570.47 231.31C572.5 231.87 577.1 234.68 574.41 237.15C573.06 238.5 567.78 238.5 565.98 238.5C559.35 238.5 551.71 235.02 545.42 238.73C543.29 239.96 541.6 241.98 540.14 244.01C535.54 250.18 531.72 256.81 528.57 263.78C527.11 267.04 525.65 270.74 527 274.23C528.91 279.06 534.08 282.09 538.12 285.01C542.61 288.27 547.22 291.41 552.05 294.34C553.06 294.9 553.96 295.46 554.97 296.02C563.73 301.07 573.06 305.46 582.61 308.71C589.57 311.07 597.21 312.98 604.29 310.96C609.57 309.39 613.84 305.79 617.77 302.09C621.82 298.27 623.95 293.55 626.98 288.72C622.49 287.48 618 286.13 613.61 284.9C611.7 284.34 609.34 283.32 609.23 281.3C609.12 279.39 611.03 278.16 612.83 277.6C617.66 276.02 623.28 277.37 626.98 280.74C628.11 281.75 629.23 283.1 630.69 283.32C632.94 283.66 634.74 281.42 635.86 279.39C638.67 274.79 641.48 269.39 639.9 264.23C638.44 259.17 633.39 256.36 629.23 253.11C628.11 252.21 626.98 251.08 627.09 249.62C627.32 247.71 629.79 247.15 631.7 247.26C635.3 247.49 638.78 248.72 641.7 250.63C643.27 251.64 644.84 252.99 646.64 252.77C648.67 252.43 649.79 250.52 650.58 248.61C652.82 244.45 654.84 237.6 653.5 232.88ZM634.29 205.92C627.43 209.4 622.6 215.92 617.43 221.54C611.48 228.05 605.52 234.46 600.25 241.65C595.08 248.72 590.25 256.03 585.08 263.1C580.47 269.51 574.07 276.02 571.71 283.66C571.04 285.68 567.78 284.9 568.45 282.76C570.92 274.79 577.33 268.16 582.16 261.42C587.66 253.67 592.94 245.92 598.56 238.28C603.73 231.2 609.79 224.91 615.64 218.39C620.8 212.77 625.52 206.48 632.49 203C634.51 201.99 636.31 204.91 634.29 205.92Z" fill="#E1B8ED" fill-opacity="1.000000" fill-rule="nonzero"/>
	<path id="Форма 1" d="M335.45 211.31C334.89 202.44 331.18 193.56 333.09 184.91C336.12 171.21 351.97 162.44 352.98 148.4C353.76 138.07 346.01 129.3 343.43 119.3C340.51 107.85 344.44 95.6 342.64 83.8C340.17 67.85 326.24 56.05 312.42 49.09C298.04 41.79 281.19 39.2 265.35 42.69C240.41 48.08 219.29 68.08 212.55 92.68C210.19 101.33 209.18 111.1 202.66 117.39C195.36 124.58 182.33 125.82 177.95 135.14C172.89 145.93 183.68 158.62 180.42 170.08C176.49 183.79 159.75 186.15 150.42 194.8C141.55 203 138.96 217.16 144.35 227.94C148.06 235.24 154.92 240.75 162.44 244.01C169.97 247.26 178.28 248.61 186.48 249.4C200.64 250.63 214.91 250.3 228.84 248.16C239.85 246.59 251.08 243.89 261.98 246.25C275.68 249.17 285.57 257.6 300.06 254.23C319.5 249.73 336.8 232.1 335.45 211.31Z" fill="#242424" fill-opacity="1.000000" fill-rule="nonzero"/>
	<path id="Форма 1" d="M300.06 254.23C302.2 253.78 304.44 253.11 306.47 252.21C313.21 242.1 317.36 230.3 318.6 217.94C319.72 205.7 317.7 193 313.88 181.43C311.75 174.91 308.94 168.29 304.44 163C299.73 157.5 293.88 156.27 286.81 156.83C274.67 157.84 264.45 158.74 253.89 151.77C247.93 147.84 242.88 141.66 235.69 139.98C227.6 138.18 219.06 141.89 213.44 147.61C208.05 153.01 206.37 160.08 206.14 167.5C206.03 171.77 206.03 176.04 203.9 179.86C200.19 186.71 192.21 188.62 185.02 189.18C176.03 189.97 166.04 187.61 157.16 189.97C154.8 191.43 152.56 192.89 150.53 194.69C141.66 202.89 139.07 217.04 144.47 227.83C148.17 235.13 155.03 240.63 162.55 243.89C170.08 247.15 178.39 248.5 186.6 249.29C200.75 250.52 215.02 250.18 228.95 248.05C239.96 246.48 251.19 243.78 262.09 246.14C275.68 249.06 285.57 257.6 300.06 254.23Z" fill="#000000" fill-opacity="1.000000" fill-rule="nonzero"/>
	<path id="Форма 1" d="M169.52 232.21C176.93 230.19 184.46 228.39 191.99 226.7C206.26 223.45 220.75 220.75 235.24 218.73C241.08 217.94 247.82 219.85 253.55 220.97C260.74 222.44 267.82 224.35 274.9 226.37C285.79 229.51 296.8 232.66 307.48 236.37C312.87 238.28 318.15 240.19 323.43 242.43C328.6 244.68 332.08 247.04 335 252.09C337.81 256.92 339.61 262.32 341.07 267.71C342.53 272.88 344.55 277.82 345.9 283.1C356.12 322.87 362.86 363.31 364.21 404.32C292.31 406.34 219.51 403.42 148.06 396.01C145.7 393.2 143.23 390.5 140.76 387.8C138.74 385.56 135.59 382.97 134.36 380.17C133.35 377.81 133.68 374.55 133.46 372.08C133.12 368.26 133.01 364.55 132.89 360.73C132.56 345.56 133.91 330.4 136.94 315.57C140.87 295.91 142.56 275.8 146.15 256.03C147.05 251.31 147.61 242.21 151.77 239.17C156.6 235.47 163.57 233.78 169.52 232.21Z" fill="#994ABE" fill-opacity="1.000000" fill-rule="nonzero"/>
	<path id="Форма 1" d="M183 383.2C175.47 365.34 183.9 349.16 189.63 332.42C197.16 310.4 203.9 281.86 194.8 259.28C193.22 255.46 190.87 251.87 187.38 249.51C177.83 242.66 158.62 249.29 147.16 248.39C146.6 251.2 146.27 254 145.93 256.03C142.45 275.8 140.65 295.91 136.72 315.57C133.8 330.4 132.45 345.68 132.67 360.73C132.78 364.55 132.89 368.26 133.23 372.08C133.46 374.55 133.12 377.81 134.13 380.17C135.37 382.97 138.51 385.56 140.54 387.8C143.01 390.5 145.48 393.2 147.84 396.01C163.57 397.69 179.41 399.04 195.25 400.27C190.08 395.44 185.81 389.83 183 383.2Z" fill="#8A3BAF" fill-opacity="1.000000" fill-rule="nonzero"/>
	<path id="Форма 1" d="M304 249.51C316.24 265.69 326.91 282.99 334.89 301.64C342.98 320.62 348.26 340.51 354.1 360.17C357.36 371.29 361.07 382.3 363.65 393.65C361.63 356.24 355.11 319.39 345.79 283.1C344.44 277.82 342.42 272.88 340.96 267.71C339.5 262.32 337.7 256.92 334.89 252.09C331.97 247.15 328.49 244.68 323.32 242.43C318.15 240.19 312.76 238.16 307.37 236.37C301.52 234.34 295.57 232.55 289.73 230.75C294.9 236.7 299.5 243.56 304 249.51Z" fill="#B15DDA" fill-opacity="1.000000" fill-rule="nonzero"/>
	<path id="Форма 1" d="M348.26 388.03C339.95 380.95 333.88 371.07 328.71 361.52C322.87 350.73 318.94 339.05 313.66 327.93C311.07 322.31 308.15 316.8 305.01 311.52C302.65 307.59 300.29 303.43 296.81 300.29C299.5 309.05 300.96 318.04 302.76 327.03C304.78 336.69 306.92 346.35 309.28 355.9C311.64 365.56 313.43 375.33 315.23 385.11C316.13 390.16 316.92 395.11 318.15 400.05C318.49 401.62 318.71 403.2 318.71 404.77C333.77 404.77 348.82 404.54 363.87 404.21C363.76 402.07 363.76 399.94 363.65 397.8C358.37 395.11 352.98 391.96 348.26 388.03Z" fill="#8A3BAF" fill-opacity="1.000000" fill-rule="nonzero"/>
	<path id="Форма 1" d="M334.67 111.89C334.78 111.33 334.78 110.65 334.89 110.09C330.4 107.73 326.35 104.14 323.21 100.32C318.71 94.81 312.98 87.29 310.51 79.65C309.84 80.43 309.16 81.22 308.38 82.01C302.76 88.18 296.69 93.91 290.18 99.08C281.08 106.27 269.17 113.24 257.37 116.05C255.69 122 253.44 127.73 248.61 132.9C244.12 137.84 238.61 142.33 232.43 145.48C232.1 147.17 231.76 148.96 231.65 150.65C231.09 155.25 230.97 159.97 231.53 164.69C231.98 169.75 234.34 174.58 234.23 179.63C234.01 185.25 233.78 190.98 233.67 196.6C233.67 199.52 233.67 202.44 233.67 205.47C233.78 207.83 233.22 209.97 233.22 212.32C233.11 218.17 233.44 224.12 234.68 229.96C236.14 236.82 238.95 243.56 243.44 248.84C247.94 254.23 254.34 258.16 261.31 259.06C264.11 259.4 267.15 259.28 269.39 257.6C271.87 255.91 272.99 252.88 273.89 249.96C276.02 243.67 277.82 237.38 279.62 230.97C281.08 225.69 282.88 220.64 284.67 215.47C284.9 214.68 285.24 213.78 285.46 213C285.68 212.44 285.8 211.43 286.25 210.98C286.58 210.53 287.14 210.41 287.71 210.3C292.54 209.07 297.7 207.49 302.09 205.02C303.43 204.24 304.9 203.45 306.24 202.66C314.67 197.27 321.52 189.86 327.14 181.65C331.07 176.04 334.78 169.3 334.44 162.22C334.22 156.15 332.08 150.65 330.73 144.81C329.39 139.19 330.85 133.57 331.86 128.07C333.09 122.67 334.1 117.28 334.67 111.89Z" fill="#FFAA94" fill-opacity="1.000000" fill-rule="nonzero"/>
	<path id="Форма 1" d="M330.96 144.69C329.95 140.54 330.51 136.38 331.3 132.22C330.17 134.25 328.94 136.16 327.7 138.07C325.23 142.22 323.54 146.27 323.54 151.1C323.54 156.15 325.34 160.87 324.78 165.93C323.32 182.1 309.28 194.46 298.72 206.59C299.84 206.03 300.96 205.47 302.09 204.91C303.43 204.12 304.9 203.34 306.24 202.55C314.67 197.16 321.52 189.74 327.14 181.54C331.07 175.93 334.78 169.18 334.44 162.11C334.33 156.15 332.31 150.53 330.96 144.69Z" fill="#FFC2B3" fill-opacity="1.000000" fill-rule="nonzero"/>
	<path id="Форма 1" d="M263.22 196.48C255.02 188.28 247.37 173.68 258.27 164.58C261.76 161.66 265.69 159.75 267.71 155.48C270.29 150.31 267.93 145.7 267.71 140.42C267.48 135.48 270.85 132.22 275.01 129.98C280.52 126.94 286.47 125.48 291.41 121.44C298.6 115.71 303.66 108.07 305.12 98.97C305.35 97.96 306.8 97.4 307.59 97.96C311.75 100.66 314.67 104.47 318.49 107.62C323.1 111.33 329.16 112.23 334.78 110.77C334.78 110.54 334.89 110.32 334.89 109.98C330.4 107.62 326.35 104.03 323.21 100.21C318.71 94.7 312.98 87.17 310.51 79.53C309.84 80.32 309.16 81.11 308.38 81.89C302.76 88.07 296.69 93.8 290.18 98.97C281.08 106.16 269.17 113.13 257.37 115.93C255.69 121.89 253.44 127.62 248.61 132.78C244.12 137.73 238.61 142.22 232.43 145.37C232.1 147.05 231.76 148.85 231.65 150.53C231.09 155.14 230.97 159.86 231.53 164.58C231.98 169.63 234.34 174.46 234.23 179.52C234.01 185.14 233.78 190.87 233.67 196.48C233.67 199.4 233.67 202.33 233.67 205.36C233.78 207.72 233.22 209.85 233.22 212.21C233.11 218.05 233.44 224.01 234.68 229.85C236.14 236.7 238.95 243.44 243.44 248.72C247.94 254.12 254.34 258.05 261.31 258.95C264.11 259.28 267.15 259.17 269.39 257.49C271.87 255.8 272.99 252.77 273.89 249.85C276.02 243.56 277.82 237.26 279.62 230.86C281.08 225.58 282.88 220.53 284.67 215.36C284.9 214.57 285.24 213.67 285.46 212.89C285.68 212.32 285.8 211.31 286.25 210.86C286.58 210.41 287.14 210.3 287.71 210.19C288.04 210.08 288.38 209.97 288.72 209.97C279.28 208.06 270.29 203.45 263.22 196.48Z" fill="#F09C86" fill-opacity="1.000000" fill-rule="nonzero"/>
	<path id="Форма 1" d="M284.45 119.87C286.25 119.75 288.6 119.64 289.28 117.62C289.73 116.16 288.6 114.47 287.48 113.69C284.67 111.78 279.62 113.8 276.92 115.15C273.66 116.83 270.85 119.42 269.17 122.56C268.72 123.35 268.38 124.47 268.94 125.15C269.62 126.04 271.08 125.71 272.09 125.26C274.11 124.36 275.24 123.01 277.15 122C279.39 120.76 281.86 119.98 284.45 119.87Z" fill="#203460" fill-opacity="1.000000" fill-rule="nonzero"/>
	<path id="Форма 1" d="M289.28 137.39C289.28 139.53 287.59 141.21 285.46 141.21C283.32 141.21 281.64 139.53 281.64 137.39C281.64 135.26 283.32 133.57 285.46 133.57C287.59 133.57 289.28 135.26 289.28 137.39Z" fill="#203460" fill-opacity="1.000000" fill-rule="nonzero"/>
	<path id="Форма 1" d="M323.43 137.39C323.43 139.53 321.75 141.21 319.61 141.21C317.48 141.21 315.79 139.53 315.79 137.39C315.79 135.26 317.48 133.57 319.61 133.57C321.75 133.57 323.43 135.26 323.43 137.39Z" fill="#203460" fill-opacity="1.000000" fill-rule="nonzero"/>
	<path id="Форма 1" d="M292.2 152C292.09 154.24 288.16 155.82 283.32 155.7C278.49 155.59 274.68 153.57 274.79 151.32C274.9 149.08 278.83 147.5 283.66 147.61C288.49 147.84 292.31 149.75 292.2 152Z" fill="#FF8484" fill-opacity="1.000000" fill-rule="nonzero"/>
	<path id="Форма 1" d="M332.76 153.79C332.64 155.82 328.93 157.39 324.44 157.16C319.95 156.94 316.35 155.14 316.46 153.12C316.58 151.1 320.28 149.52 324.78 149.75C329.27 149.97 332.87 151.77 332.76 153.79Z" fill="#FF8484" fill-opacity="1.000000" fill-rule="nonzero"/>
	<path id="Форма 1" d="M281.64 167.95C285.91 169.86 294 173.12 303.21 174.46C305.01 174.69 306.13 176.71 305.23 178.28C303.32 181.77 298.94 187.05 289.28 184.24C279.62 181.54 277.93 174.46 277.93 170.31C277.93 168.4 279.95 167.16 281.64 167.95Z" fill="#FFFFFF" fill-opacity="1.000000" fill-rule="nonzero"/>
	<path id="Форма 1" d="M317.81 116.61C317.59 116.83 317.48 116.94 317.36 117.17C316.58 118.29 316.8 119.87 318.04 120.54C319.16 121.21 320.62 120.99 321.86 121.1C325.34 121.66 328.49 123.46 331.29 125.37C331.74 125.6 332.08 125.93 332.53 126.04C332.98 126.16 333.54 126.16 333.88 125.82C334.55 125.26 334.33 124.13 333.88 123.35C332.76 120.88 331.07 118.63 328.82 117.06C325.9 115.04 322.76 113.91 319.27 115.37C318.82 115.82 318.26 116.16 317.81 116.61Z" fill="#203460" fill-opacity="1.000000" fill-rule="nonzero"/>
	<path id="Форма 1" d="M307.03 129.53C306.8 133.35 306.69 137.17 306.8 140.99C306.8 142.9 306.92 144.69 307.59 146.49C308.15 148.29 309.05 149.86 310.29 151.21C310.85 151.88 311.63 152.45 312.42 153.01C313.1 153.68 313.99 154.47 314.22 155.7C314.33 156.27 314.22 156.94 313.99 157.5C313.77 158.06 313.43 158.51 313.1 158.85C312.42 159.64 311.63 160.31 310.85 160.87C307.59 163.23 302.87 163.57 299.5 161.55C299.39 161.43 299.28 161.32 299.39 161.1C299.5 160.98 299.61 160.87 299.73 160.98C301.41 161.66 303.32 161.99 305.12 161.77C306.92 161.55 308.6 160.87 310.06 159.86C310.85 159.3 311.41 158.74 312.09 158.06C312.65 157.39 313.1 156.71 312.87 156.04C312.76 155.37 312.2 154.69 311.52 154.13C310.85 153.57 310.06 152.89 309.39 152.22C308.04 150.76 307.03 148.85 306.47 147.05C306.24 146.04 306.02 145.14 305.91 144.13C305.79 143.12 305.79 142.22 305.79 141.21C305.79 137.39 306.13 133.57 306.58 129.75C306.58 129.64 306.69 129.41 306.92 129.53C306.92 129.19 307.03 129.3 307.03 129.53Z" fill="#C9875A" fill-opacity="1.000000" fill-rule="nonzero"/>
	<path id="Форма 1" d="M237.49 217.38C236.48 216.48 234.79 215.81 233.44 216.03C231.98 216.14 230.52 216.82 229.62 217.94C228.61 219.18 228.27 220.41 228.27 221.99L228.27 222.32C228.27 223.67 229.17 225.24 230.18 226.14C231.2 227.04 232.88 227.72 234.23 227.49C235.69 227.38 237.15 226.7 238.05 225.58C239.06 224.35 239.4 223.11 239.4 221.54L239.4 221.2C239.4 219.85 238.5 218.28 237.49 217.38Z" fill="#FFFFFF" fill-opacity="1.000000" fill-rule="nonzero"/>
	<path id="Форма 1" d="M234.01 229.06C226.82 229.06 227.6 240.3 234.79 240.3C241.98 240.3 241.2 229.06 234.01 229.06Z" fill="#FFFFFF" fill-opacity="1.000000" fill-rule="nonzero"/>
	<path id="Форма 1" d="M238.72 242.32C231.53 242.32 232.32 253.55 239.51 253.55C246.81 253.55 245.91 242.32 238.72 242.32Z" fill="#FFFFFF" fill-opacity="1.000000" fill-rule="nonzero"/>
	<path id="Форма 1" d="M249.4 251.87C242.21 251.87 242.99 263.1 250.18 263.1C257.37 262.99 256.59 251.87 249.4 251.87Z" fill="#FFFFFF" fill-opacity="1.000000" fill-rule="nonzero"/>
	<path id="Форма 1" d="M262.99 255.35C255.8 255.35 256.59 266.59 263.78 266.59C270.97 266.59 270.18 255.35 262.99 255.35Z" fill="#FFFFFF" fill-opacity="1.000000" fill-rule="nonzero"/>
	<path id="Форма 1" d="M274.56 248.84C267.37 248.84 268.16 260.07 275.35 260.07C282.54 260.07 281.75 248.84 274.56 248.84Z" fill="#FFFFFF" fill-opacity="1.000000" fill-rule="nonzero"/>
	<path id="Форма 1" d="M279.28 235.8C272.09 235.8 272.88 247.04 280.07 247.04C287.26 247.04 286.47 235.8 279.28 235.8Z" fill="#FFFFFF" fill-opacity="1.000000" fill-rule="nonzero"/>
	<path id="Форма 1" d="M282.88 221.99C275.69 221.99 276.47 233.22 283.66 233.22C290.85 233.11 290.07 221.99 282.88 221.99Z" fill="#FFFFFF" fill-opacity="1.000000" fill-rule="nonzero"/>
	<path id="Форма 1" d="M284.78 42.69C266.02 45.72 249.4 58.08 238.61 73.47C227.04 89.98 222.32 110.54 222.43 130.76C226.14 128.74 230.07 127.28 234.23 126.49C236.14 113.13 238.5 99.19 244.9 87.17C255.35 67.4 277.15 50.44 300.18 50.32C310.4 50.32 322.53 53.13 329.72 60.77C330.85 62.01 331.97 63.36 332.87 64.82C332.76 64.59 332.76 63.81 332.64 63.47C332.42 63.02 332.31 62.46 332.08 62.01C331.75 61.11 331.41 60.21 330.96 59.31C330.17 57.63 329.16 56.05 328.04 54.59C325.79 51.79 322.98 49.43 319.84 47.63C313.32 43.81 305.57 42.24 298.15 41.9C293.66 41.67 289.17 41.9 284.78 42.69Z" fill="#FFFFFF" fill-opacity="1.000000" fill-rule="nonzero"/>
	<path id="Форма 1" d="M243.78 74.59C240.63 76.39 237.49 78.3 234.34 80.43C225.92 95.6 222.43 113.35 222.55 130.76C226.25 128.74 230.19 127.28 234.34 126.49C236.25 113.13 238.61 99.19 245.02 87.17C248.61 80.32 253.55 73.8 259.51 68.3C254 69.54 248.84 71.67 243.78 74.59Z" fill="#F3F2FC" fill-opacity="1.000000" fill-rule="nonzero"/>
	<path id="Форма 1" d="M236.59 98.97C232.55 101.1 228.61 103.46 224.91 106.16C223.22 114.25 222.43 122.56 222.43 130.76C226.14 128.74 230.07 127.28 234.23 126.49C235.69 116.5 237.38 106.27 240.75 96.72C239.4 97.4 237.94 98.18 236.59 98.97Z" fill="#E6E4F5" fill-opacity="1.000000" fill-rule="nonzero"/>
	<path id="Форма 1" d="M275.91 195.81C275.8 195.81 275.69 195.81 275.57 195.81C268.16 194.57 260.52 193.34 253.22 190.75C244.79 187.83 238.17 183.56 233.33 178.17C227.6 171.77 224.68 163.34 225.69 155.7C225.81 154.47 226.93 153.57 228.17 153.79C229.4 153.91 230.3 155.03 230.08 156.27C229.29 162.67 231.76 169.75 236.59 175.25C240.86 180.08 246.93 183.9 254.57 186.49C261.53 188.96 268.95 190.19 276.25 191.32C277.49 191.54 278.27 192.66 278.05 193.9C277.93 195.02 277.04 195.81 275.91 195.81Z" fill="#706AA6" fill-opacity="1.000000" fill-rule="nonzero"/>
	<path id="Форма 1" d="M235.92 174.24C231.54 168.85 229.4 162.22 230.19 156.27C230.3 155.03 229.51 153.91 228.28 153.79C227.04 153.68 225.92 154.47 225.81 155.7C225.02 161.77 226.7 168.29 230.3 174.02C232.1 174.24 234.01 174.35 235.92 174.24Z" fill="#5C5694" fill-opacity="1.000000" fill-rule="nonzero"/>
	<path id="Форма 1" d="M231.87 167.5C230.3 163.79 229.74 159.86 230.19 156.27C230.3 155.03 229.52 153.91 228.28 153.79C227.04 153.68 225.92 154.47 225.81 155.7C225.36 159.07 225.69 162.56 226.7 165.93C228.39 166.49 230.08 167.16 231.87 167.5Z" fill="#4A4380" fill-opacity="1.000000" fill-rule="nonzero"/>
	<path id="Форма 1" d="M276.25 191.32C273.1 190.75 269.96 190.31 266.7 189.63C266.47 190.98 266.14 192.33 265.69 193.56C265.69 193.68 265.57 193.79 265.57 193.9C268.83 194.57 272.2 195.14 275.46 195.7C275.57 195.7 275.69 195.7 275.8 195.7C276.92 195.7 277.82 194.91 278.05 193.79C278.38 192.66 277.49 191.54 276.25 191.32Z" fill="#5C5694" fill-opacity="1.000000" fill-rule="nonzero"/>
	<path id="Форма 1" d="M285.57 189.18L277.03 188.06C275.01 187.83 273.21 189.18 272.88 191.2L272.43 194.24C272.2 196.26 273.55 198.06 275.57 198.39L284.11 199.52C286.13 199.74 287.93 198.39 288.27 196.37L288.72 193.34C288.94 191.32 287.6 189.41 285.57 189.18Z" fill="#203460" fill-opacity="1.000000" fill-rule="nonzero"/>
	<path id="Форма 1" d="M282.2 196.26C278.38 194.8 276.02 191.77 275.8 188.06C274.34 188.4 273.1 189.52 272.88 191.09L272.43 194.12C272.2 196.15 273.55 197.94 275.57 198.28L284.11 199.4C285.91 199.63 287.6 198.51 288.04 196.82C286.13 197.16 284.22 196.93 282.2 196.26Z" fill="#192A52" fill-opacity="1.000000" fill-rule="nonzero"/>
	<path id="Форма 1" d="M284.67 190.75C282.54 190.75 282.76 194.12 284.9 194.12C287.03 194.12 286.81 190.75 284.67 190.75Z" fill="#38518A" fill-opacity="1.000000" fill-rule="nonzero"/>
	<path id="Форма 1" d="M242.69 129.78C250.41 137.5 250.41 150.02 242.69 157.74C234.97 165.46 222.45 165.46 214.73 157.74C207.01 150.02 207.01 137.5 214.73 129.78C222.45 122.06 234.97 122.06 242.69 129.78Z" fill="#FFFFFF" fill-opacity="1.000000" fill-rule="evenodd"/>
	<path id="Форма 1" d="M214.01 130.65C210.86 134.13 208.95 138.74 208.95 143.8C208.95 154.69 217.83 163.57 228.72 163.57C233.78 163.57 238.5 161.66 241.98 158.51C232.54 149.19 223.33 139.86 214.01 130.65Z" fill="#F3F2FC" fill-opacity="1.000000" fill-rule="nonzero"/>
	<path id="Форма 1" d="M236.89 135.58C241.41 140.1 241.41 147.42 236.89 151.94C232.37 156.46 225.05 156.46 220.53 151.94C216.01 147.42 216.01 140.1 220.53 135.58C225.05 131.06 232.37 131.06 236.89 135.58Z" fill="#96A2E6" fill-opacity="1.000000" fill-rule="evenodd"/>
	<path id="Форма 1" d="M237.6 151.1C239.29 149.08 240.3 146.49 240.3 143.68C240.3 137.28 235.13 132.11 228.73 132.11C225.92 132.11 223.33 133.12 221.31 134.81C226.7 140.31 232.1 145.7 237.6 151.1Z" fill="#ACB5E6" fill-opacity="1.000000" fill-rule="nonzero"/>
	<path id="Форма 1" d="M567.44 183.56L485.32 183.56C484.87 184.01 475.21 193.11 469.82 197.94C468.58 199.07 466.78 197.83 467.12 196.26C469.37 187.83 473.52 172.11 473.52 171.77L473.52 154.8C473.52 148.29 478.8 143.12 485.21 143.12L567.33 143.12C573.85 143.12 579.02 148.4 579.02 154.8L579.02 171.77C579.13 178.4 573.85 183.56 567.44 183.56Z" fill="#FFFFFF" fill-opacity="1.000000" fill-rule="nonzero"/>
	<path id="Форма 1" d="M504.53 163.79C504.53 166.83 502.07 169.3 499.02 169.3C495.99 169.3 493.52 166.83 493.52 163.79C493.52 160.75 495.99 158.29 499.02 158.29C502.07 158.29 504.53 160.75 504.53 163.79Z" fill="#5745A2" fill-opacity="1.000000" fill-rule="evenodd"/>
	<path id="Форма 1" d="M533.4 163.79C533.4 166.83 530.94 169.3 527.9 169.3C524.86 169.3 522.39 166.83 522.39 163.79C522.39 160.75 524.86 158.29 527.9 158.29C530.94 158.29 533.4 160.75 533.4 163.79Z" fill="#5745A2" fill-opacity="1.000000" fill-rule="evenodd"/>
	<path id="Форма 1" d="M562.27 163.79C562.27 166.83 559.81 169.3 556.77 169.3C553.73 169.3 551.27 166.83 551.27 163.79C551.27 160.75 553.73 158.29 556.77 158.29C559.81 158.29 562.27 160.75 562.27 163.79Z" fill="#5745A2" fill-opacity="1.000000" fill-rule="evenodd"/>
	<path id="Форма 1" d="M490.37 76.39L408.25 76.39C405.22 76.39 402.75 73.92 402.75 70.88L402.75 23.92C402.75 20.89 405.22 18.42 408.25 18.42L490.37 18.42C493.41 18.42 495.88 20.89 495.88 23.92L495.88 70.77C495.88 73.8 493.41 76.39 490.37 76.39Z" fill="#F6F5FF" fill-opacity="1.000000" fill-rule="nonzero"/>
	<path id="Форма 1" d="M443.86 63.24L404.54 25.27C402.97 23.81 402.86 21.34 404.32 19.88C405.33 18.87 406.57 18.31 408.03 18.31L490.6 18.31C492.06 18.31 493.41 18.87 494.31 19.88C495.77 21.34 495.65 23.81 494.08 25.27L454.76 63.24C451.84 66.39 446.9 66.39 443.86 63.24Z" fill="#FFFFFF" fill-opacity="1.000000" fill-rule="nonzero"/>
	<path id="Форма 1" d="M508.13 17.86C508.13 27.16 500.58 34.71 491.27 34.71C481.97 34.71 474.42 27.16 474.42 17.86C474.42 8.55 481.97 1.01 491.27 1.01C500.58 1.01 508.13 8.55 508.13 17.86Z" fill="#FFFFFF" fill-opacity="1.000000" fill-rule="evenodd"/>
	<path id="Форма 1" d="M491.27 35.95C481.39 35.95 473.3 27.86 473.3 17.97C473.3 8.08 481.39 0 491.27 0C501.16 0 509.25 8.08 509.25 17.97C509.25 27.86 501.16 35.95 491.27 35.95ZM491.27 2.13C482.62 2.13 475.55 9.21 475.55 17.86C475.55 26.51 482.62 33.59 491.27 33.59C499.93 33.59 507 26.51 507 17.86C507 9.21 499.93 2.13 491.27 2.13Z" fill="#5745A2" fill-opacity="1.000000" fill-rule="nonzero"/>
	<path id="Форма 1" d="M494.08 27.52C494.08 29.07 492.83 30.33 491.27 30.33C489.72 30.33 488.47 29.07 488.47 27.52C488.47 25.97 489.72 24.71 491.27 24.71C492.83 24.71 494.08 25.97 494.08 27.52Z" fill="#5745A2" fill-opacity="1.000000" fill-rule="evenodd"/>
	<path id="Форма 1" d="M490.15 21.79L488.47 8.65C488.24 7.07 489.36 5.72 490.94 5.5C492.51 5.28 493.86 6.4 494.08 7.97C494.08 8.2 494.08 8.42 494.08 8.65L492.4 21.79C492.28 22.46 491.72 22.8 491.16 22.8C490.6 22.69 490.15 22.24 490.15 21.79Z" fill="#5745A2" fill-opacity="1.000000" fill-rule="nonzero"/>
	<path id="Форма 1" d="M291.86 411.96L363.43 411.96C368.14 411.96 372.08 415.78 372.08 420.61C372.08 425.33 368.26 429.26 363.43 429.26L291.86 429.26C287.14 429.26 283.21 425.44 283.21 420.61C283.21 415.78 287.03 411.96 291.86 411.96Z" fill="#8A3BAF" fill-opacity="1.000000" fill-rule="nonzero"/>
	<path id="Форма 1" d="M588.79 429.15L366.46 429.15C358.93 429.15 353.2 422.29 354.55 414.88L379.38 276.58C380.39 270.85 385.44 266.59 391.29 266.59L610.69 266.59C618.11 266.59 623.84 273.21 622.71 280.63L600.69 418.92C599.8 424.88 594.74 429.15 588.79 429.15Z" fill="#F2F3F7" fill-opacity="1.000000" fill-rule="nonzero"/>
	<path id="Форма 1" d="M550.14 429.15L588.67 429.15C594.63 429.15 599.68 424.77 600.69 418.92L622.71 280.63C623.84 273.21 618.22 266.59 610.69 266.59L391.29 266.59C390.16 266.59 389.04 266.7 388.03 267.04L550.14 429.15Z" fill="#FEFEFE" fill-opacity="1.000000" fill-rule="nonzero"/>
	<path id="Форма 1" d="M520.26 347.92C520.26 365.42 506.07 379.6 488.58 379.6C471.08 379.6 456.89 365.42 456.89 347.92C456.89 330.43 471.08 316.24 488.58 316.24C506.07 316.24 520.26 330.43 520.26 347.92Z" fill="#ACB5E6" fill-opacity="1.000000" fill-rule="evenodd"/>
	<path id="Форма 1" d="M509.13 372.08C515.99 366.23 520.37 357.58 520.37 347.92C520.37 330.4 506.21 316.24 488.69 316.24C479.03 316.24 470.38 320.62 464.53 327.48L509.13 372.08Z" fill="#BEC5E9" fill-opacity="1.000000" fill-rule="nonzero"/>
	<path id="Форма 1" d="M261.19 417.91C272.2 412.86 285.12 412.07 296.7 415.55C308.27 419.04 318.49 427.01 324.78 437.35C325.79 438.92 326.69 440.83 325.91 442.52C325.46 443.64 324.33 444.31 323.1 444.65C321.86 444.99 320.74 444.88 319.5 444.76C315.79 444.54 312.2 444.31 308.49 444.09C292.09 443.08 273.67 441.62 257.15 440.72C256.25 440.72 256.03 438.36 256.25 437.35C256.81 433.42 257.49 429.48 258.05 425.55C258.5 422.41 259.4 418.81 262.21 417.46L261.19 417.91Z" fill="#FFAA94" fill-opacity="1.000000" fill-rule="nonzero"/>
	<path id="Форма 1" d="M137.62 256.03C111.22 295.35 90.88 338.94 77.74 384.43C76.16 389.94 74.7 395.78 76.39 401.29C78.3 407.35 83.8 411.51 89.42 414.65C105.6 423.53 124.36 426.45 142.67 429.03C180.76 434.2 218.95 436.56 257.15 440.72C258.95 432.63 260.74 424.43 262.54 416.34C224.79 401.4 185.7 387.69 146.15 379.15C147.95 379.49 159.52 355 160.87 352.42C165.7 342.98 170.42 333.43 175.03 323.77C180.64 312.09 187.16 300.63 191.09 288.16C194.57 276.92 196.71 260.86 189.52 250.52C184.24 242.99 175.03 237.94 166.15 236.59C158.85 235.47 152.67 237.49 147.61 242.88C143.79 246.81 140.65 251.64 137.62 256.03Z" fill="#994ABE" fill-opacity="1.000000" fill-rule="nonzero"/>
	<path id="Форма 1" d="M198.96 429.26C184.35 425.55 169.52 422.52 154.81 418.81C139.3 414.88 118.07 410.61 107.62 397.02C95.94 381.74 102 357.13 108.86 341.07C117.85 319.61 159.75 252.21 164.02 236.37C157.5 235.8 151.88 237.94 147.28 242.88C143.68 246.81 140.42 251.53 137.5 255.91C111.1 295.23 90.77 338.82 77.63 384.32C76.05 389.83 74.59 395.67 76.28 401.17C78.19 407.24 83.69 411.4 89.31 414.54C105.49 423.42 124.25 426.34 142.56 428.92C169.41 432.52 196.37 434.88 223.22 437.35C215.36 434.31 207.27 431.39 198.96 429.26Z" fill="#8A3BAF" fill-opacity="1.000000" fill-rule="nonzero"/>
	<path id="Форма 1" d="M149.19 375.11C152.11 369.38 160.09 353.65 160.76 352.53C165.59 343.09 170.31 333.54 174.92 323.88C180.53 312.2 187.05 300.74 190.98 288.27C194.46 277.03 196.6 260.97 189.41 250.63C188.85 249.73 188.17 248.95 187.5 248.16C187.72 263.67 185.59 273.89 180.76 288.72C172.44 313.54 153.91 349.27 149.19 375.11Z" fill="#B15DDA" fill-opacity="1.000000" fill-rule="nonzero"/>
	<path id="Форма 1" d="M146.38 379.27C139.53 378.03 132.79 377.24 125.93 377.02C131.1 382.52 137.62 386.57 144.47 389.6C152 392.97 159.97 395.11 167.73 397.69C192.89 406.12 217.16 417.01 240.3 430.16C245.69 433.19 250.3 436.11 254.68 440.61C255.58 440.72 256.36 440.83 257.26 440.83C259.06 432.74 260.86 424.54 262.66 416.45C236.71 406.23 210.53 396.68 183.79 388.82C171.43 385.22 158.96 381.63 146.38 379.27Z" fill="#B15DDA" fill-opacity="1.000000" fill-rule="nonzero"/>
	<path id="Форма 1" d="M44.03 422.86L30.66 422.86C24.49 422.86 19.43 417.8 19.43 411.62L19.43 382.19C19.43 376.01 24.49 370.95 30.66 370.95L43.7 370.95C45.83 370.95 47.63 372.75 47.63 374.89C47.63 377.02 45.83 378.82 43.7 378.82L30.66 378.82C28.87 378.82 27.29 380.28 27.29 382.19L27.29 411.62C27.29 413.42 28.75 414.99 30.66 414.99L43.92 414.99C46.06 414.99 47.85 416.79 47.85 418.92C47.97 421.17 46.17 422.86 44.03 422.86Z" fill="#F6F5FF" fill-opacity="1.000000" fill-rule="nonzero"/>
	<path id="Форма 1" d="M33.47 379.04L43.7 379.04C45.83 379.04 47.63 377.24 47.63 375.11C47.63 372.98 45.83 371.18 43.7 371.18L33.25 371.18C33.36 373.76 33.36 376.35 33.47 379.04Z" fill="#DFDDF0" fill-opacity="1.000000" fill-rule="nonzero"/>
	<path id="Форма 1" d="M44.03 414.99L34.15 414.99C34.15 417.58 34.26 420.27 34.26 422.86L44.03 422.86C46.17 422.86 47.97 421.06 47.97 418.92C47.97 416.79 46.17 414.99 44.03 414.99Z" fill="#DFDDF0" fill-opacity="1.000000" fill-rule="nonzero"/>
	<path id="Форма 1" d="M39.31 357.7L39.31 430.61C39.31 432.97 52.12 434.76 67.85 434.76C83.58 434.76 96.38 432.85 96.38 430.61L96.38 357.7L39.31 357.7Z" fill="#FFFFFF" fill-opacity="1.000000" fill-rule="nonzero"/>
	<path id="Форма 1" d="M74.03 403.42C62.91 389.71 54.82 374.55 51.78 357.7L39.31 357.7L39.31 430.61C39.31 432.97 52.12 434.76 67.85 434.76C83.58 434.76 96.38 432.85 96.38 430.61L96.38 424.2C87.96 418.59 80.43 411.4 74.03 403.42Z" fill="#F6F5FF" fill-opacity="1.000000" fill-rule="nonzero"/>
	<path id="Форма 1" d="M96.38 357.7C96.38 359.99 83.61 361.85 67.85 361.85C52.09 361.85 39.31 359.99 39.31 357.7C39.31 355.4 52.09 353.54 67.85 353.54C83.61 353.54 96.38 355.4 96.38 357.7Z" fill="#202960" fill-opacity="1.000000" fill-rule="evenodd"/>
</svg>
