<svg width="285" height="290" viewBox="0 0 285 290" fill="none" xmlns="http://www.w3.org/2000/svg">
<path d="M76.0991 243.933C76.0991 243.933 -8.68815 225.484 0.732653 193.885C10.1535 162.286 60.0052 183.875 60.0052 183.875C60.0052 183.875 16.0415 146.781 54.706 135.201C93.3706 123.621 152.839 176.613 152.839 176.613C152.839 176.613 148.914 149.136 173.84 149.136C198.57 149.136 209.364 243.933 209.364 243.933H76.0991Z" fill="#8F4DCE"/>
<path d="M111.426 237.26C111.426 237.26 75.3131 193.689 24.0875 193.689C24.0875 193.689 64.7147 199.773 111.426 237.26Z" fill="#6C34AD"/>
<path d="M166.186 230.783C166.186 230.783 120.456 156.594 55.4918 156.594C55.4918 156.594 106.914 166.996 166.186 230.783Z" fill="#6C34AD"/>
<path d="M137.725 147.174C137.725 147.174 115.155 123.622 115.155 109.098C115.155 94.574 131.052 94.1815 141.454 104.191C141.454 104.191 154.212 91.0412 167.754 104.191C167.754 104.191 183.652 96.1442 189.736 105.565C199.353 120.678 164.81 147.174 164.81 147.174H137.725Z" fill="#F67DA8"/>
<path d="M137.724 178.38C137.724 178.38 115.153 201.932 115.153 216.456C115.153 230.979 131.051 231.372 141.453 221.362C141.453 221.362 154.21 234.512 167.753 221.362C167.753 221.362 183.65 229.409 189.735 219.989C199.352 205.072 165.005 178.576 165.005 178.576H137.724V178.38Z" fill="#F67DA8"/>
<path d="M139.097 179.558C139.097 179.558 112.994 203.895 96.9 203.895C80.8061 203.895 80.4136 186.623 91.6008 175.632C91.6008 175.632 77.077 161.894 91.6008 147.37C91.6008 147.37 82.5725 130.295 93.1709 123.622C109.854 113.219 139.097 150.51 139.097 150.51V179.558Z" fill="#F67DA8"/>
<path d="M166.183 178.184C166.183 178.184 192.287 200.754 208.381 200.754C224.475 200.754 224.867 184.857 213.68 174.651C213.68 174.651 228.204 161.894 213.68 148.547C213.68 148.547 222.708 132.65 212.11 126.566C195.623 116.556 166.183 151.099 166.183 151.099V178.184Z" fill="#F67DA8"/>
<path d="M152.446 188.193C138.463 188.193 127.127 176.858 127.127 162.875C127.127 148.892 138.463 137.557 152.446 137.557C166.429 137.557 177.764 148.892 177.764 162.875C177.764 176.858 166.429 188.193 152.446 188.193Z" fill="#F993C2"/>
<path d="M152.446 176.613C144.858 176.613 138.707 170.462 138.707 162.875C138.707 155.287 144.858 149.136 152.446 149.136C160.033 149.136 166.184 155.287 166.184 162.875C166.184 170.462 160.033 176.613 152.446 176.613Z" fill="#F471B3"/>
<path d="M303.374 165.819C314.953 126.762 278.251 113.416 266.083 138.341C266.083 138.341 256.858 116.36 273.148 82.9943C289.439 49.6289 263.335 34.1238 246.456 47.2737C246.456 47.2737 251.755 7.03901 222.119 0.562204C192.483 -5.9146 178.548 44.9185 178.94 83.5831C178.94 83.5831 167.361 69.8444 153.229 98.8919C138.902 127.939 181.884 179.754 181.884 179.754C181.884 179.754 158.725 177.791 164.22 193.885C169.716 209.979 193.072 238.83 229.774 256.69C229.774 256.69 204.651 269.644 234.68 284.56C264.709 299.477 344.001 273.766 344.001 273.766C344.001 273.766 281.981 237.652 303.374 165.819Z" fill="#AA75E7"/>
<path d="M324.179 268.466C323.982 268.859 323.394 269.252 323.001 269.055C322.609 269.055 276.682 263.56 244.691 207.624C212.699 152.08 216.624 23.5255 216.624 22.1516C216.624 21.5628 217.213 20.974 217.998 20.974C218.783 20.974 219.176 21.5628 219.176 22.3479C219.176 23.7217 215.251 151.491 246.85 206.446C278.252 261.205 322.805 266.504 323.197 266.7C323.786 266.7 324.375 267.485 324.375 268.074C324.375 268.074 324.179 268.27 324.179 268.466Z" fill="#854CD6"/>
<path d="M258.821 67.0967C254.111 76.3212 244.494 85.1532 235.465 90.0599C228.596 93.5927 222.904 94.574 218.979 92.6114C207.988 87.1159 188.95 58.6572 188.165 57.4796C187.773 56.8908 187.969 56.1057 188.558 55.7132C189.146 55.3207 189.932 55.5169 190.324 56.1057C190.52 56.302 209.754 85.1532 220.157 90.4524C223.101 92.0225 228.4 91.0412 234.288 87.9009C245.082 82.2092 257.644 69.4519 259.017 59.0497C259.017 58.4609 259.802 57.8721 260.391 58.0684C260.98 58.0684 261.569 58.8535 261.373 59.4423C261.176 61.7975 260.195 64.5452 258.821 67.0967Z" fill="#854CD6"/>
<path d="M241.942 140.697C237.624 149.136 232.914 155.809 228.4 157.379C215.642 161.501 165.987 117.733 160.295 112.631C159.706 112.238 159.706 111.453 160.099 110.864C160.491 110.275 161.276 110.275 161.865 110.668C177.174 124.21 217.998 158.164 227.811 155.024C237.624 151.884 250.185 115.771 254.307 102.032C254.503 101.443 255.288 101.051 255.877 101.247C256.466 101.443 256.858 102.228 256.662 102.817C256.27 104.191 249.989 125.192 241.942 140.697Z" fill="#854CD6"/>
<path d="M269.616 199.577C264.513 209.586 258.821 217.829 253.326 219.596C237.625 224.699 180.511 196.044 177.959 194.866C177.371 194.474 177.174 193.885 177.371 193.1C177.763 192.511 178.352 192.315 179.137 192.511C179.726 192.904 237.821 221.951 252.541 217.044C267.065 212.334 284.729 153.258 284.925 152.669C285.121 152.08 285.906 151.688 286.495 151.884C287.084 152.08 287.476 152.865 287.28 153.454C286.691 155.22 279.233 180.735 269.616 199.577Z" fill="#854CD6"/>
<path d="M291.597 255.709C283.354 271.999 235.464 274.943 233.306 274.943C232.52 274.943 231.932 274.551 231.932 273.766C231.932 273.177 232.324 272.392 233.109 272.392C233.502 272.392 281.587 269.448 289.242 254.531C296.896 239.419 285.709 216.063 285.513 215.867C285.12 215.278 285.512 214.493 286.101 214.297C286.69 213.904 287.475 214.297 287.671 214.886C288.457 215.671 299.84 239.419 291.597 255.709Z" fill="#854CD6"/>
<path d="M216.428 210.764C211.128 221.362 193.661 219.988 193.072 219.988C192.287 219.988 191.894 219.4 191.894 218.615C191.894 217.83 192.483 217.437 193.268 217.437C193.464 217.437 209.755 218.615 214.269 209.586C217.998 202.324 199.745 189.175 192.483 184.66C191.894 184.268 191.698 183.483 192.091 182.894C192.483 182.305 193.268 182.109 193.857 182.502C196.605 184.464 221.923 200.166 216.428 210.764Z" fill="#854CD6"/>
<path d="M235.269 217.045C232.522 222.54 221.727 229.409 221.335 229.606C220.746 229.998 219.961 229.802 219.568 229.213C219.176 228.624 219.372 227.839 219.961 227.447C220.157 227.447 230.559 220.774 233.111 215.867C234.877 212.334 229.381 206.642 227.026 204.876C226.437 204.483 226.437 203.698 226.83 203.11C227.223 202.521 228.008 202.521 228.596 202.913C228.989 203.306 238.41 210.96 235.269 217.045Z" fill="#854CD6"/>
<path d="M286.885 196.436C286.885 196.633 286.689 196.633 286.492 196.829C286.1 197.221 274.324 206.642 265.492 205.661C256.267 204.68 250.576 174.455 249.79 170.922C249.594 170.333 250.183 169.548 250.772 169.548C251.361 169.352 252.146 169.94 252.146 170.529C254.305 182.894 259.996 202.521 265.688 203.109C273.539 204.091 284.726 194.866 284.922 194.866C285.511 194.474 286.296 194.474 286.689 195.063C287.081 195.455 287.081 195.848 286.885 196.436Z" fill="#854CD6"/>
<path d="M298.072 161.108C297.876 161.108 297.876 161.108 298.072 161.108C297.679 161.697 289.24 175.632 279.23 174.847C269.025 174.062 265.492 154.043 265.295 153.258C265.099 152.669 265.688 151.884 266.277 151.884C266.866 151.688 267.651 152.276 267.651 152.865C268.632 158.164 272.361 171.903 279.23 172.492C287.67 173.081 295.717 160.127 295.717 159.931C296.109 159.342 296.894 159.146 297.483 159.538C298.072 159.735 298.268 160.52 298.072 161.108Z" fill="#854CD6"/>
<path d="M203.668 146.781C198.762 156.398 175.602 159.342 174.621 159.342C174.032 159.342 173.247 158.95 173.247 158.164C173.247 157.576 173.639 156.791 174.425 156.791C174.621 156.791 197.388 153.847 201.509 145.407C205.827 136.968 201.117 124.21 200.921 124.014C200.724 123.425 200.921 122.64 201.706 122.444C202.294 122.248 203.08 122.444 203.276 123.229C203.668 124.014 208.575 137.164 203.668 146.781Z" fill="#854CD6"/>
<path d="M176.979 124.799C174.035 130.687 164.81 128.332 164.418 128.136C163.829 127.939 163.436 127.351 163.633 126.565C163.829 125.977 164.418 125.584 165.203 125.78C165.203 125.78 172.857 127.743 174.82 123.621C177.175 118.911 176.194 111.453 176.194 111.453C176.194 110.864 176.586 110.079 177.175 110.079C177.764 110.079 178.549 110.472 178.549 111.06C178.745 111.453 179.727 119.304 176.979 124.799Z" fill="#854CD6"/>
<path d="M208.969 82.798C208.773 83.1906 208.381 83.5831 207.988 83.9756C204.259 86.9196 192.483 85.5458 191.109 85.3495C190.52 85.3495 189.932 84.5644 190.128 83.9756C190.128 83.1906 190.913 82.798 191.502 82.9943C196.212 83.5831 204.259 83.9756 206.418 82.2092C206.811 82.013 206.811 81.8167 206.811 81.6204C207.007 77.1063 204.259 62.9751 204.259 62.7788C204.063 62.19 204.652 61.405 205.24 61.405C205.829 61.2087 206.614 61.7975 206.614 62.3863C206.811 62.9751 209.558 76.91 209.166 81.8167C209.362 82.013 209.166 82.4055 208.969 82.798Z" fill="#854CD6"/>
<path d="M263.725 84.7607C263.529 85.1532 263.333 85.3495 262.94 85.3495C262.351 85.5458 246.258 90.0599 239.584 86.7234C232.911 83.3868 239.781 60.6199 241.351 56.1058C241.547 55.517 242.332 55.1244 242.921 55.3207C243.51 55.517 243.902 56.302 243.706 56.8908C240.37 67.293 237.229 82.6018 240.762 84.5644C245.472 86.9196 257.837 84.1719 262.155 82.9943C262.744 82.798 263.529 83.1906 263.725 83.7794C263.725 84.1719 263.725 84.5644 263.725 84.7607Z" fill="#854CD6"/>
<path d="M258.037 131.08C257.841 131.276 257.841 131.472 257.448 131.668C255.878 132.65 247.243 136.968 243.513 135.005C239.784 133.239 238.411 115.967 238.018 108.509C238.018 107.724 238.411 107.135 239.196 107.135C239.981 107.135 240.569 107.528 240.569 108.313C241.158 119.304 242.925 131.668 244.691 132.65C246.654 133.631 252.542 131.276 256.271 129.313C256.86 128.921 257.645 129.313 258.037 129.902C258.233 130.294 258.233 130.687 258.037 131.08Z" fill="#854CD6"/>
<path d="M256.072 146.192C256.072 146.388 255.876 146.585 255.68 146.585C248.811 151.688 238.997 151.491 235.857 149.921C232.717 148.351 232.128 139.715 231.932 137.164C231.932 136.575 232.52 135.986 233.109 135.79C233.894 135.79 234.287 136.379 234.483 136.968C234.679 141.482 235.661 146.977 237.035 147.566C239.193 148.744 248.026 148.94 254.306 144.426C254.895 144.033 255.68 144.23 256.072 144.622C256.269 145.407 256.269 145.8 256.072 146.192Z" fill="#854CD6"/>
<path d="M279.234 276.121C278.646 277.298 278.253 278.083 278.057 278.28C277.664 278.868 276.879 279.065 276.29 278.672C275.702 278.28 275.505 277.495 275.898 276.906C277.468 274.354 281.001 267.092 279.823 263.56C278.842 260.812 264.514 254.924 251.168 250.802C250.579 250.606 250.187 249.821 250.383 249.232C250.579 248.643 251.364 248.251 251.953 248.447C256.664 249.821 280.412 257.475 282.178 262.775C283.552 266.896 281.001 272.98 279.234 276.121Z" fill="#854CD6"/>
<path d="M258.626 276.906C256.859 280.242 254.504 281.616 254.504 281.812C253.915 282.205 253.13 282.009 252.738 281.42C252.345 280.831 252.542 280.046 253.13 279.654C253.327 279.457 257.448 276.906 257.841 270.233C257.841 269.251 257.645 268.466 256.859 267.681C254.112 264.737 246.261 263.756 243.513 263.756C242.728 263.756 242.336 263.167 242.336 262.382C242.336 261.793 242.925 261.204 243.71 261.204C244.102 261.204 254.701 261.597 258.822 265.915C260 267.289 260.589 268.663 260.392 270.429C260 272.98 259.411 275.139 258.626 276.906Z" fill="#854CD6"/>
<path d="M302.394 239.223C302.198 239.419 302.198 239.615 302.002 239.812C301.806 240.008 296.506 242.952 292.777 240.989C289.441 239.419 280.609 229.998 279.627 229.017C279.235 228.428 279.235 227.643 279.627 227.25C280.216 226.858 281.001 226.858 281.394 227.25C284.142 229.998 291.403 237.456 293.955 238.83C296.114 239.812 299.647 238.438 300.628 237.653C301.217 237.26 302.002 237.456 302.394 238.045C302.591 238.438 302.591 238.83 302.394 239.223Z" fill="#854CD6"/>
</svg>
