<svg width="904" height="771" viewBox="0 0 904 771" fill="none" xmlns="http://www.w3.org/2000/svg">
<path d="M618.457 173.309H627.627V180.861H618.457V173.309Z" fill="#918AE9"/>
<path d="M610.635 178.703H635.449V203.517H610.635V178.703Z" fill="#ABA9FF"/>
<path d="M606.321 335.948H639.496C644.62 335.948 648.666 331.902 648.666 326.778V212.688C648.666 207.563 644.62 203.517 639.496 203.517H606.321C601.196 203.517 597.15 207.563 597.15 212.688V326.778C597.15 331.902 601.196 335.948 606.321 335.948Z" fill="#918AE9"/>
<path d="M618.456 165.757H634.1V173.309H602.813V170.342L618.456 165.757Z" fill="#ABA9FF"/>
<path d="M597.15 235.883H648.666V296.03H597.15V235.883Z" fill="#5D5AC1"/>
<path d="M622.775 285.241C614.582 285.241 607.941 276.064 607.941 264.743C607.941 253.422 614.582 244.244 622.775 244.244C630.968 244.244 637.609 253.422 637.609 264.743C637.609 276.064 630.968 285.241 622.775 285.241Z" fill="#BCBCF7"/>
<path d="M669.434 247.481C669.434 247.481 654.6 238.041 648.666 232.107C648.666 232.107 652.173 253.145 661.613 262.585C671.053 272.025 665.119 310.325 665.119 310.325C665.119 310.325 682.381 284.702 682.381 273.913C682.111 263.394 669.434 247.481 669.434 247.481Z" fill="url(#paint0_linear_323_721)"/>
<path d="M693.439 269.867C693.439 269.867 697.215 295.49 698.024 300.345C698.834 305.2 677.526 324.62 677.526 324.62L693.439 269.867Z" fill="url(#paint1_linear_323_721)"/>
<path d="M408.887 615.104C408.887 615.104 503.827 393.128 500.591 374.517C497.354 355.907 537.002 331.363 568.829 332.711C600.655 334.06 618.996 328.935 637.067 322.462C637.067 322.462 663.499 317.607 670.242 295.49L676.445 256.651C676.445 256.651 660.532 228.601 665.657 209.721C665.657 209.721 695.865 250.448 697.213 258.539C698.562 266.631 689.661 313.561 686.695 324.35C683.728 335.139 671.321 339.993 658.105 358.604C644.889 377.214 569.638 402.028 569.638 402.028C569.638 402.028 554.264 420.369 540.239 494.81C526.214 569.252 520.55 639.378 520.55 639.378L408.887 615.104Z" fill="#FFD5C7"/>
<path d="M637.068 322.192C637.068 322.192 649.745 319.765 659.994 330.014C659.994 330.014 635.18 344.039 625.74 347.006C616.3 349.973 581.506 350.243 576.112 361.301C576.112 361.301 603.893 363.459 618.188 359.413C632.483 355.367 666.197 328.666 666.197 328.666C666.197 328.666 656.487 312.752 637.068 322.192Z" fill="url(#paint2_linear_323_721)"/>
<path d="M325.549 79.9873C313.951 64.8832 186.105 22.5378 101.684 116.399C18.342 208.912 83.0739 354.288 62.8452 413.086C42.6165 471.885 0.00131226 478.897 0.00131226 478.897V770.19C0.00131226 770.19 261.896 762.369 343.889 622.925C384.077 554.957 380.301 495.889 310.714 459.747C254.883 430.888 230.609 362.919 235.463 345.388C244.634 311.404 305.32 308.167 305.32 308.167L325.549 79.9873Z" fill="#AD65E5"/>
<path d="M0.00109863 594.066C66.6209 584.086 188.802 560.891 208.492 520.703C235.733 464.872 138.096 354.019 220.089 308.707C237.891 298.997 259.198 301.694 281.585 311.943C263.514 316.259 240.857 325.699 235.463 345.388C230.608 362.919 254.883 430.618 310.714 459.747C380.301 495.889 383.807 554.687 343.889 622.926C261.895 762.369 0.00109863 770.19 0.00109863 770.19V594.066Z" fill="#8F4DCE"/>
<path d="M192.848 267.979C202.019 236.153 231.687 237.232 243.285 255.303C251.646 268.249 262.705 273.643 268.369 275.801C269.448 276.071 252.455 248.56 254.343 231.568C256.232 214.576 282.933 202.438 268.638 159.014C258.929 129.076 284.821 111.814 312.872 91.3154C318.806 87 322.582 83.224 325.279 80.2571C338.225 85.9211 356.026 97.2492 366.545 119.636C390.28 170.342 397.293 197.044 418.87 202.169C433.165 205.675 444.763 206.754 450.966 207.293C454.203 207.563 456.9 209.451 458.518 212.148C460.137 215.385 459.328 219.431 456.361 221.858L435.593 238.041C435.323 238.311 435.323 238.311 435.323 238.58C434.783 241.008 431.547 257.191 452.585 272.565C453.124 272.834 453.124 273.643 452.854 273.913L446.921 282.814C446.651 283.083 446.651 283.623 446.921 284.162C448.539 286.05 453.933 292.793 453.933 295.76C453.933 299.266 444.763 302.233 444.763 314.91C444.763 327.587 455.282 337.027 451.776 348.085C448.269 359.143 425.074 370.741 393.787 370.741C362.769 370.741 312.063 407.962 311.254 458.938C311.254 459.747 310.714 460.017 309.905 460.017C297.498 455.971 200.4 420.369 220.359 324.08C220.359 323.541 220.359 323.271 219.82 323.001C215.235 319.225 184.487 297.648 192.848 267.979Z" fill="#FFD5C7"/>
<path d="M276.732 151.192C276.732 151.192 275.654 150.653 274.035 149.574C267.023 146.068 246.794 137.706 224.947 147.147C224.947 147.147 256.773 142.561 276.732 162.251V151.192Z" fill="#FFD5C7"/>
<path d="M276.73 201.09C276.73 201.09 275.382 200.55 273.224 199.471C263.784 195.965 237.352 187.604 208.762 197.044C208.762 197.044 250.838 192.459 277 212.148V201.09H276.73Z" fill="#FFD5C7"/>
<path d="M322.041 93.2035C322.041 93.2035 321.232 92.3943 319.614 91.3155C313.41 86.4606 295.339 74.5931 272.144 79.448C272.144 79.448 304.509 81.0663 320.153 104.262L322.041 93.2035Z" fill="#FFD5C7"/>
<path d="M378.412 179.512C378.412 179.512 378.142 197.314 390.549 202.708C390.549 202.708 380.03 204.866 368.432 216.194C357.104 227.522 338.494 226.713 332.83 221.318C332.83 221.318 334.718 190.031 378.412 179.512Z" fill="#FF80A1"/>
<path d="M368.164 213.766C375.177 205.405 382.459 201.629 386.235 199.741C387.314 199.202 391.899 201.09 390.551 202.438C390.551 202.438 380.032 204.596 368.434 215.924C357.376 226.982 342.272 227.792 336.068 222.667C343.89 225.904 357.645 225.904 368.164 213.766Z" fill="#5B4945"/>
<path d="M380.841 176.546C380.841 176.546 328.516 182.479 332.562 221.318C332.562 221.318 332.292 192.729 378.683 182.21C383.808 180.861 383.268 176.276 380.841 176.546Z" fill="#5B4945"/>
<path d="M368.162 215.115C368.162 215.115 363.037 219.97 357.104 216.733C357.104 216.733 357.913 220.779 365.195 218.891L368.162 215.115Z" fill="#5B4945"/>
<path d="M363.309 218.621C363.309 218.621 357.645 222.397 352.25 217.542C352.25 217.542 352.52 221.858 359.802 221.588L363.309 218.621Z" fill="#5B4945"/>
<path d="M359.801 220.779C359.801 220.779 354.137 224.555 348.742 219.7C348.742 219.7 349.012 223.746 356.294 223.476L359.801 220.779Z" fill="#5B4945"/>
<path d="M355.486 222.667C355.486 222.667 349.283 225.634 343.889 220.779C343.889 220.779 344.158 224.825 351.441 224.555L355.486 222.667Z" fill="#5B4945"/>
<path d="M349.281 224.555C349.281 224.555 342.808 225.095 338.762 218.621C338.762 218.621 337.953 222.937 344.966 225.095L349.281 224.555Z" fill="#5B4945"/>
<path d="M250.835 299.806C252.993 300.885 254.611 302.233 255.96 304.391C257.038 306.279 257.848 308.437 257.038 311.134C254.881 318.147 235.731 320.844 220.357 308.707C204.983 296.569 193.925 267.17 208.759 258.809C223.594 250.178 256.769 280.117 248.408 287.129C241.125 292.524 242.474 295.76 250.835 299.806Z" fill="#F49E7F"/>
<path d="M217.93 265.012C223.054 262.046 230.337 263.664 237.349 267.44C246.25 274.722 252.184 283.623 247.868 286.859C240.856 292.523 241.935 295.76 250.565 299.536C252.723 300.615 254.342 301.963 255.69 304.121C256.769 306.009 257.578 308.167 256.769 310.864C254.881 316.798 241.125 319.495 227.37 313.022C213.345 300.345 203.905 273.374 217.93 265.012Z" fill="#E2886D"/>
<path d="M418.601 294.412C432.357 291.714 442.606 272.565 452.315 272.025C452.855 272.295 452.855 273.104 452.585 273.374L446.651 282.274C446.382 282.544 446.382 283.084 446.651 283.623C448.27 285.511 453.664 292.254 453.664 295.221C453.664 295.76 453.394 296.3 452.855 297.109C435.593 299.806 418.601 294.412 418.601 294.412Z" fill="#FF80A1"/>
<path d="M310.982 458.399C310.982 459.208 310.442 459.478 309.633 459.478C307.476 458.669 302.89 457.05 296.957 454.623C267.288 410.12 290.483 331.632 290.483 331.632C290.483 331.632 334.177 353.749 380.029 364.268C425.881 374.787 451.504 348.085 451.504 348.085C447.998 359.143 424.802 370.741 393.515 370.741C362.228 370.202 311.791 407.423 310.982 458.399Z" fill="url(#paint3_linear_323_721)"/>
<path d="M219.818 322.192C219.549 321.922 218.739 321.653 218.2 321.113C218.739 321.383 219.279 321.922 219.818 322.192Z" fill="url(#paint4_linear_323_721)"/>
<path d="M220.088 323.271C220.088 322.732 220.089 322.462 219.549 322.192C233.574 334.329 248.678 331.362 248.678 331.362C224.404 361.84 235.732 397.982 250.566 423.875C228.18 402.567 210.379 370.202 220.088 323.271Z" fill="url(#paint5_linear_323_721)"/>
<path d="M62.8455 412.817C83.0742 354.019 18.0727 208.372 101.685 116.129C186.106 22.5378 313.951 64.6135 325.549 79.7176C325.549 79.7176 231.148 21.4589 130.275 122.333C29.6705 222.937 165.877 376.405 150.503 459.478C140.524 512.881 57.7209 539.853 0.271393 552.26V478.897C0.00167847 478.897 42.6168 471.885 62.8455 412.817Z" fill="#BC76FF"/>
<path d="M527.568 135.549C527.568 135.549 516.779 118.826 505.451 116.669C494.393 114.241 505.991 133.121 505.991 133.121C505.991 133.121 497.629 136.897 504.372 143.64C511.385 150.383 520.555 146.877 520.555 146.877C520.555 146.877 507.879 173.309 515.97 174.927C524.062 176.546 518.398 166.836 522.443 164.139C526.489 161.441 528.107 168.994 534.311 164.948C540.784 160.363 527.568 135.549 527.568 135.549Z" fill="#854CD6"/>
<path d="M532.152 133.661C532.152 133.661 528.106 114.241 534.309 104.532C540.513 95.0915 545.638 116.399 545.638 116.399C545.638 116.399 554.268 112.893 553.999 122.603C553.729 132.312 545.098 136.358 545.098 136.358C545.098 136.358 572.879 145.798 568.294 152.811C563.709 159.823 560.742 148.765 556.156 149.844C551.302 150.923 555.617 157.126 548.065 158.744C540.513 160.363 532.152 133.661 532.152 133.661Z" fill="#854CD6"/>
<path d="M527.838 127.188C527.838 126.918 522.444 116.129 527.299 113.432C529.187 112.353 530.535 112.893 531.075 113.432C532.153 114.241 532.423 115.86 532.153 116.938C531.884 117.478 531.614 118.017 530.535 118.017C530.535 118.017 530.265 118.017 530.265 118.287C530.265 118.287 530.265 118.557 530.535 118.557C531.614 118.557 532.153 118.017 532.423 117.208C532.963 116.129 532.423 114.241 531.344 113.432C530.805 112.893 529.187 112.084 527.029 113.432C521.904 115.86 527.299 126.648 527.838 127.188C527.568 127.188 527.568 127.188 527.838 127.188Z" fill="#A369FF"/>
<path d="M525.951 127.997C525.681 127.997 525.681 127.997 525.951 127.997C525.681 127.727 521.905 116.399 516.511 117.748C514.353 118.287 514.084 119.636 513.814 120.445C513.814 121.793 514.353 123.142 515.432 123.681C515.972 123.951 516.511 123.951 517.32 123.142H517.59V123.412C516.781 124.221 515.972 124.221 515.163 123.951C514.084 123.412 513.275 121.793 513.275 120.445C513.275 119.636 513.814 118.017 516.241 117.478C521.905 115.86 525.951 127.188 525.951 127.997Z" fill="#A369FF"/>
<path d="M527.297 128.536C536.737 135.009 535.658 148.765 535.658 148.765C535.658 148.765 525.139 139.864 527.297 128.536Z" fill="#A369FF"/>
<path d="M524.329 129.885C525.138 131.503 527.026 132.312 528.644 131.503C530.263 130.694 531.072 128.806 530.263 127.188C529.453 125.569 527.566 124.76 525.947 125.569C524.329 126.379 523.52 128.267 524.329 129.885Z" fill="#6937B7"/>
<path d="M442.603 52.4763C442.603 52.4763 460.674 24.9652 457.168 6.62456C453.392 -11.9858 432.624 17.9526 432.624 17.9526C432.624 17.9526 421.296 7.43371 415.901 22.2681C410.237 37.1025 421.565 48.7002 421.565 48.7002C421.565 48.7002 373.286 46.5425 375.983 60.0283C378.68 73.5141 389.739 58.41 396.482 62.9952C403.225 67.3107 392.975 74.8627 403.225 81.6056C413.204 88.8879 442.603 52.4763 442.603 52.4763Z" fill="#F67DA8"/>
<path d="M448.537 58.1404C448.537 58.1404 475.239 38.9905 493.849 42.2271C512.46 45.4637 483.331 67.3107 483.331 67.3107C483.331 67.3107 494.119 78.0993 479.554 84.3028C464.99 90.5063 452.853 79.7176 452.853 79.7176C452.853 79.7176 456.629 127.997 442.873 125.569C429.118 123.142 443.952 111.814 439.367 105.071C434.782 98.5977 427.769 109.117 420.487 98.8675C413.204 88.6183 448.537 58.1404 448.537 58.1404Z" fill="#F67DA8"/>
<path d="M455.279 47.3515C455.549 47.3515 455.549 47.3515 455.818 47.3515C455.818 47.0818 468.765 31.9777 475.777 37.372C478.744 39.5298 478.474 41.9572 478.205 43.0361C477.665 45.1938 475.508 46.8121 473.889 46.8121C473.08 46.8121 472.001 46.5424 471.192 44.9241C471.192 44.6544 470.922 44.6544 470.922 44.6544C470.653 44.6544 470.653 44.9241 470.653 44.9241C471.192 46.5424 472.271 47.3515 473.889 47.0818C476.047 47.0818 478.205 45.1938 479.014 42.7664C479.553 41.4178 479.553 38.7206 476.317 36.2932C468.765 30.6291 456.088 45.7332 455.549 46.2727C455.009 47.0818 455.009 47.0818 455.279 47.3515Z" fill="#F993C2"/>
<path d="M452.853 44.9243C452.853 44.6546 452.853 44.6546 452.853 44.3848C453.122 44.3848 467.687 31.1688 462.293 24.1561C460.135 21.1893 457.708 21.459 456.359 21.9984C454.471 22.8076 452.583 24.6956 452.583 26.5836C452.583 27.3927 452.853 28.4716 454.471 29.011C454.741 29.011 454.741 29.2808 454.741 29.2808C454.741 29.5505 454.471 29.5505 454.471 29.5505C452.853 29.011 452.043 27.9322 452.043 26.3139C452.043 24.1561 453.931 21.9984 456.089 21.1893C457.438 20.6498 460.135 20.3801 462.562 23.6167C468.496 31.1688 453.662 44.3848 453.122 44.9243C453.122 45.194 453.122 45.194 452.853 44.9243Z" fill="#F993C2"/>
<path d="M452.852 47.3518C449.076 65.9622 427.768 73.2445 427.768 73.2445C427.768 73.2445 434.241 51.937 452.852 47.3518Z" fill="#F993C2"/>
<path d="M449.076 43.8453C446.918 46.0031 447.188 49.2397 449.076 51.3974C451.233 53.5551 454.47 53.2854 456.628 51.3974C458.785 49.2397 458.516 46.0031 456.628 43.8453C454.47 41.6876 450.964 41.6876 449.076 43.8453Z" fill="#F471B3"/>
<path d="M403.77 635.063L388.397 631.017C382.193 608.631 380.035 580.31 384.081 544.168C405.389 550.102 423.46 557.385 438.294 565.206L435.057 578.962L444.497 568.443C453.128 573.298 460.68 578.692 467.154 583.817L463.108 601.888L476.863 592.717C530.537 646.661 497.362 712.201 497.362 712.201C497.362 712.201 419.144 718.675 391.633 640.996L403.77 635.063Z" fill="#918AE9"/>
<path d="M494.393 707.886C494.933 707.347 495.202 706.538 494.663 705.998L389.204 549.023C388.665 548.484 387.855 548.214 387.316 548.754C386.777 549.293 386.507 550.102 387.046 550.642L492.505 707.347C493.045 708.156 493.854 708.156 494.393 707.886Z" fill="#784BB7"/>
<path d="M483.333 691.433L494.661 659.607C494.93 658.798 494.661 657.989 493.851 657.719C493.042 657.449 492.233 657.719 491.963 658.528L481.445 687.927L439.908 679.566C439.099 679.296 438.56 679.836 438.29 680.645C438.02 681.454 438.56 681.993 439.369 682.263L483.333 691.433Z" fill="#784BB7"/>
<path d="M460.678 657.719L467.151 637.49C467.421 636.681 466.881 635.872 466.342 635.872C465.533 635.602 464.723 636.142 464.723 636.681L458.79 654.752L431.279 652.055C430.47 652.055 429.93 652.594 429.66 653.403C429.66 654.213 430.2 654.752 431.009 655.022L460.678 657.719Z" fill="#784BB7"/>
<path d="M441.798 629.668L457.442 595.684C457.712 594.875 457.442 594.066 456.633 593.796C455.824 593.526 455.014 593.796 454.745 594.605L439.91 626.971L424.806 626.162C423.997 626.162 423.458 626.702 423.458 627.511C423.458 628.32 423.997 628.859 424.806 628.859L441.798 629.668Z" fill="#784BB7"/>
<path d="M426.425 607.012L430.741 595.415C431.01 594.606 430.741 593.796 429.931 593.527C429.122 593.257 428.313 593.527 428.043 594.336L424.537 603.776L395.408 598.651C394.599 598.651 394.059 598.921 393.79 599.73C393.79 600.539 394.059 601.079 394.868 601.348L426.425 607.012Z" fill="#784BB7"/>
<path d="M413.212 587.323L420.764 568.443C421.034 567.634 420.764 566.825 419.955 566.555C419.146 566.285 418.337 566.555 418.067 567.364L411.324 584.087L394.332 580.31C393.523 580.041 392.983 580.58 392.714 581.389C392.444 582.199 392.983 582.738 393.792 583.008L413.212 587.323Z" fill="#784BB7"/>
<path d="M608.753 632.366H702.074L693.713 448.15C693.174 435.203 682.385 424.684 669.169 424.684H644.894C629.79 424.684 617.383 436.552 616.574 451.656L608.753 632.366Z" fill="#AD65E5"/>
<path d="M621.701 390.43H691.018V437.361H621.701V390.43Z" fill="#CA92FF"/>
<path d="M698.566 553.069H612.257L616.303 464.872H694.521L698.566 553.069Z" fill="#CA92FF"/>
<path d="M632.616 531.765C619.976 519.126 619.976 498.633 632.616 485.993C645.255 473.354 665.748 473.354 678.388 485.993C691.027 498.633 691.027 519.126 678.388 531.765C665.748 544.405 645.255 544.405 632.616 531.765Z" fill="#FFF3E7"/>
<path d="M650.018 503.441C650.018 503.441 641.926 495.08 641.926 489.956C641.926 484.831 647.59 484.561 651.096 488.337C651.096 488.337 655.682 483.752 660.267 488.337C660.267 488.337 665.931 485.37 668.089 488.877C671.595 494.271 659.188 503.441 659.188 503.441H650.018Z" fill="#F67DA8"/>
<path d="M650.018 514.5C650.018 514.5 641.926 522.861 641.926 527.986C641.926 533.11 647.59 533.38 651.096 529.604C651.096 529.604 655.682 534.189 660.267 529.604C660.267 529.604 665.931 532.571 668.089 529.064C671.595 523.67 659.188 514.5 659.188 514.5H650.018Z" fill="#F67DA8"/>
<path d="M650.559 515.039C650.559 515.039 641.388 523.67 635.724 523.67C630.06 523.67 629.79 517.467 633.836 513.691C633.836 513.691 628.712 508.836 633.836 503.711C633.836 503.711 630.6 497.777 634.376 495.35C640.309 491.574 650.559 504.79 650.559 504.79V515.039Z" fill="#F67DA8"/>
<path d="M660.268 514.5C660.268 514.5 669.438 522.591 675.102 522.591C680.766 522.591 681.036 516.927 676.99 513.421C676.99 513.421 682.115 508.836 676.99 504.25C676.99 504.25 680.227 498.586 676.451 496.429C670.517 492.922 660.268 505.329 660.268 505.329V514.5Z" fill="#F67DA8"/>
<path d="M646.511 508.836C646.511 513.691 650.557 517.736 655.412 517.736C660.267 517.736 664.312 513.691 664.312 508.836C664.312 503.981 660.267 499.935 655.412 499.935C650.557 499.935 646.511 503.981 646.511 508.836Z" fill="#F993C2"/>
<path d="M650.558 508.836C650.558 511.533 652.716 513.69 655.413 513.69C658.11 513.69 660.268 511.533 660.268 508.836C660.268 506.138 658.11 503.981 655.413 503.981C652.716 503.981 650.558 506.408 650.558 508.836Z" fill="#F471B3"/>
<path d="M479.288 594.875H726.348V705.998H479.288V594.875Z" fill="#AD65E5"/>
<path d="M479.288 625.623V594.875H726.348V625.623C726.348 639.648 479.288 639.648 479.288 625.623Z" fill="#BD86FC"/>
<path d="M479.288 594.875C479.288 599.73 534.58 603.776 602.818 603.776C671.056 603.776 726.348 599.73 726.348 594.875C726.348 590.02 671.056 585.974 602.818 585.974C534.58 585.705 479.288 589.75 479.288 594.875Z" fill="#CA92FF"/>
<path d="M479.288 705.728C479.288 710.583 534.58 714.629 602.818 714.629C671.056 714.629 726.348 710.583 726.348 705.728C726.348 700.873 671.056 696.828 602.818 696.828C534.58 696.828 479.288 700.873 479.288 705.728Z" fill="#AD65E5"/>
<path d="M551.304 694.94C583.94 697.367 616.845 697.367 649.481 694.94C652.178 694.67 654.336 692.512 654.336 689.545V666.08C654.336 663.113 651.908 660.686 648.672 660.955C616.306 663.113 584.21 663.113 551.844 660.955C548.877 660.686 546.18 663.113 546.18 666.08V689.545C546.45 692.512 548.607 694.94 551.304 694.94Z" fill="#7239A8"/>
<path d="M720.952 625.083H721.761C722.301 625.083 722.57 624.814 722.57 624.274V601.618C722.57 601.079 722.301 600.809 721.761 600.809H720.952C720.413 600.809 720.143 601.079 720.143 601.618V624.274C720.143 624.814 720.682 625.083 720.952 625.083Z" fill="#AD65E5"/>
<path d="M714.753 626.432H715.562C716.101 626.432 716.371 626.162 716.371 625.623V602.967C716.371 602.427 716.101 602.157 715.562 602.157H714.753C714.213 602.157 713.944 602.427 713.944 602.967V625.623C713.944 626.162 714.213 626.432 714.753 626.432Z" fill="#AD65E5"/>
<path d="M707.466 627.511H708.275C708.814 627.511 709.084 627.241 709.084 626.702V604.045C709.084 603.506 708.814 603.236 708.275 603.236H707.466C706.926 603.236 706.657 603.506 706.657 604.045V626.702C706.657 627.241 706.926 627.511 707.466 627.511Z" fill="#AD65E5"/>
<path d="M699.643 629.129H700.453C700.992 629.129 701.262 628.859 701.262 628.32V605.664C701.262 605.124 700.992 604.855 700.453 604.855H699.643C699.104 604.855 698.834 605.124 698.834 605.664V628.32C698.834 628.859 699.374 629.129 699.643 629.129Z" fill="#AD65E5"/>
<path d="M691.015 630.478H691.824C692.363 630.478 692.633 630.208 692.633 629.668V607.012C692.633 606.473 692.363 606.203 691.824 606.203H691.015C690.475 606.203 690.205 606.473 690.205 607.012V629.668C690.205 629.938 690.745 630.478 691.015 630.478Z" fill="#AD65E5"/>
<path d="M681.575 631.556H682.384C682.924 631.556 683.193 631.287 683.193 630.747V608.091C683.193 607.552 682.924 607.282 682.384 607.282H681.575C681.036 607.282 680.766 607.552 680.766 608.091V630.747C680.766 631.287 681.036 631.556 681.575 631.556Z" fill="#AD65E5"/>
<path d="M672.136 632.635H672.945C673.484 632.635 673.754 632.366 673.754 631.826V609.17C673.754 608.631 673.484 608.361 672.945 608.361H672.136C671.596 608.361 671.326 608.631 671.326 609.17V631.826C671.596 632.096 671.866 632.635 672.136 632.635Z" fill="#AD65E5"/>
<path d="M663.231 632.635H664.04C664.58 632.635 664.85 632.366 664.85 631.826V609.17C664.85 608.631 664.58 608.361 664.04 608.361H663.231C662.692 608.361 662.422 608.631 662.422 609.17V631.826C662.422 632.096 662.962 632.635 663.231 632.635Z" fill="#AD65E5"/>
<path d="M653.792 633.175H654.601C655.14 633.175 655.41 632.905 655.41 632.366V609.71C655.41 609.17 655.14 608.9 654.601 608.9H653.792C653.252 608.9 652.983 609.17 652.983 609.71V632.366C652.983 632.635 653.252 633.175 653.792 633.175Z" fill="#AD65E5"/>
<path d="M643.815 633.175H644.624C645.164 633.175 645.434 632.905 645.434 632.366V609.71C645.434 609.17 645.164 608.9 644.624 608.9H643.815C643.276 608.9 643.006 609.17 643.006 609.71V632.366C643.006 632.635 643.546 633.175 643.815 633.175Z" fill="#AD65E5"/>
<path d="M634.374 633.175H635.183C635.722 633.175 635.992 632.905 635.992 632.366V609.71C635.992 609.17 635.722 608.9 635.183 608.9H634.374C633.834 608.9 633.565 609.17 633.565 609.71V632.366C633.565 632.635 633.834 633.175 634.374 633.175Z" fill="#AD65E5"/>
<path d="M625.745 633.175H626.554C627.094 633.175 627.363 632.905 627.363 632.366V609.71C627.363 609.17 627.094 608.9 626.554 608.9H625.745C625.206 608.9 624.936 609.17 624.936 609.71V632.366C624.936 632.635 625.206 633.175 625.745 633.175Z" fill="#AD65E5"/>
<path d="M617.112 633.175H617.921C618.461 633.175 618.73 632.905 618.73 632.366V609.71C618.73 609.17 618.461 608.9 617.921 608.9H617.112C616.573 608.9 616.303 609.17 616.303 609.71V632.366C616.303 632.635 616.573 633.175 617.112 633.175Z" fill="#AD65E5"/>
<path d="M608.483 633.175H609.292C609.832 633.175 610.102 632.905 610.102 632.366V609.71C610.102 609.17 609.832 608.9 609.292 608.9H608.483C607.944 608.9 607.674 609.17 607.674 609.71V632.366C607.674 632.635 607.944 633.175 608.483 633.175Z" fill="#AD65E5"/>
<path d="M599.848 633.175H600.658C601.197 633.175 601.467 632.905 601.467 632.366V609.71C601.467 609.17 601.197 608.9 600.658 608.9H599.848C599.309 608.9 599.039 609.17 599.039 609.71V632.366C599.039 632.635 599.309 633.175 599.848 633.175Z" fill="#AD65E5"/>
<path d="M590.952 633.175H591.761C592.301 633.175 592.57 632.905 592.57 632.366V609.71C592.57 609.17 592.301 608.9 591.761 608.9H590.952C590.413 608.9 590.143 609.17 590.143 609.71V632.366C590.413 632.635 590.682 633.175 590.952 633.175Z" fill="#AD65E5"/>
<path d="M486.029 625.083H485.22C484.68 625.083 484.41 624.814 484.41 624.274V601.618C484.41 601.079 484.68 600.809 485.22 600.809H486.029C486.568 600.809 486.838 601.079 486.838 601.618V624.274C486.838 624.814 486.568 625.083 486.029 625.083Z" fill="#AD65E5"/>
<path d="M492.503 626.432H491.694C491.155 626.432 490.885 626.162 490.885 625.623V602.967C490.885 602.427 491.155 602.157 491.694 602.157H492.503C493.043 602.157 493.312 602.427 493.312 602.967V625.623C493.312 626.162 493.043 626.432 492.503 626.432Z" fill="#AD65E5"/>
<path d="M499.789 627.511H498.979C498.44 627.511 498.17 627.241 498.17 626.702V604.045C498.17 603.506 498.44 603.236 498.979 603.236H499.789C500.328 603.236 500.598 603.506 500.598 604.045V626.702C500.598 627.241 500.058 627.511 499.789 627.511Z" fill="#AD65E5"/>
<path d="M507.337 629.129H506.528C505.989 629.129 505.719 628.859 505.719 628.32V605.664C505.719 605.124 505.989 604.855 506.528 604.855H507.337C507.877 604.855 508.146 605.124 508.146 605.664V628.32C508.146 628.859 507.877 629.129 507.337 629.129Z" fill="#AD65E5"/>
<path d="M515.972 630.478H515.163C514.624 630.478 514.354 630.208 514.354 629.668V607.012C514.354 606.473 514.624 606.203 515.163 606.203H515.972C516.512 606.203 516.781 606.473 516.781 607.012V629.668C516.781 629.938 516.512 630.478 515.972 630.478Z" fill="#AD65E5"/>
<path d="M525.679 631.556H524.87C524.331 631.556 524.061 631.287 524.061 630.747V608.091C524.061 607.552 524.331 607.282 524.87 607.282H525.679C526.219 607.282 526.488 607.552 526.488 608.091V630.747C526.488 631.287 525.949 631.556 525.679 631.556Z" fill="#AD65E5"/>
<path d="M534.851 632.635H534.042C533.502 632.635 533.233 632.366 533.233 631.826V609.17C533.233 608.631 533.502 608.361 534.042 608.361H534.851C535.39 608.361 535.66 608.631 535.66 609.17V631.826C535.66 632.096 535.39 632.635 534.851 632.635Z" fill="#AD65E5"/>
<path d="M543.749 632.635H542.94C542.401 632.635 542.131 632.366 542.131 631.826V609.17C542.131 608.631 542.401 608.361 542.94 608.361H543.749C544.289 608.361 544.559 608.631 544.559 609.17V631.826C544.559 632.096 544.289 632.635 543.749 632.635Z" fill="#AD65E5"/>
<path d="M553.458 633.175H552.649C552.11 633.175 551.84 632.905 551.84 632.366V609.71C551.84 609.17 552.11 608.9 552.649 608.9H553.458C553.998 608.9 554.268 609.17 554.268 609.71V632.366C553.998 632.635 553.728 633.175 553.458 633.175Z" fill="#AD65E5"/>
<path d="M563.171 633.175H562.362C561.823 633.175 561.553 632.905 561.553 632.366V609.71C561.553 609.17 561.823 608.9 562.362 608.9H563.171C563.711 608.9 563.98 609.17 563.98 609.71V632.366C563.98 632.635 563.711 633.175 563.171 633.175Z" fill="#AD65E5"/>
<path d="M572.88 633.175H572.071C571.532 633.175 571.262 632.905 571.262 632.366V609.71C571.262 609.17 571.532 608.9 572.071 608.9H572.88C573.42 608.9 573.689 609.17 573.689 609.71V632.366C573.689 632.635 573.15 633.175 572.88 633.175Z" fill="#AD65E5"/>
<path d="M581.509 633.175H580.7C580.161 633.175 579.891 632.905 579.891 632.366V609.71C579.891 609.17 580.161 608.9 580.7 608.9H581.509C582.049 608.9 582.318 609.17 582.318 609.71V632.366C582.318 632.635 582.049 633.175 581.509 633.175Z" fill="#AD65E5"/>
<path d="M625.204 718.944C631.138 716.247 636.802 713.28 642.466 710.313C650.557 705.998 658.649 701.413 666.74 696.558C632.486 679.835 653.794 640.996 653.794 640.996C669.168 657.449 671.325 682.802 671.595 693.591C672.944 692.782 674.292 691.973 675.641 690.894C686.43 683.881 696.949 676.329 706.928 668.238C711.783 664.192 716.638 660.146 721.223 655.831C684.002 639.648 706.119 599.19 706.119 599.19C722.302 616.452 723.92 643.154 723.92 653.134C727.696 649.627 731.472 645.851 735.248 642.075C737.406 639.648 739.833 637.49 741.991 635.063L748.464 627.78C750.622 625.353 752.51 622.925 754.668 620.228C755.747 618.88 756.825 617.801 757.635 616.452L760.601 612.676C761.141 612.137 761.411 611.597 761.68 611.058C713.941 603.506 728.236 551.181 728.236 551.181C752.24 567.094 761.141 599.46 763.299 608.63C765.996 604.585 768.693 600.539 771.39 596.763C773.008 594.066 774.627 591.369 776.515 588.402C777.324 587.053 778.133 585.705 778.942 584.356L781.1 580.041C783.527 575.455 785.955 570.601 788.112 565.746C749.004 560.351 760.601 518.006 760.601 518.006C780.56 530.952 787.303 558.194 788.652 564.397C794.855 550.372 799.71 535.537 803.217 520.433C802.677 517.197 800.25 498.317 811.308 482.943C811.308 482.943 824.254 506.948 803.756 520.703C802.407 527.446 800.789 534.189 798.901 540.662C809.42 523.131 832.076 529.873 832.076 529.873C819.669 543.09 801.598 544.978 797.553 545.247C793.777 557.384 788.922 569.522 782.988 580.85L781.37 583.817C786.224 582.198 802.677 577.074 818.86 583.817C818.86 583.817 798.631 601.078 780.83 585.165V585.435C780.021 586.784 779.212 588.402 778.403 589.75C776.784 592.448 775.166 595.414 773.548 598.112C770.042 603.506 766.535 609.17 762.759 614.295L760.062 618.34C759.253 619.689 758.174 621.037 757.095 622.116C757.095 622.116 757.095 622.116 757.095 622.386C765.996 618.34 784.606 612.407 802.947 624.544C802.947 624.544 776.515 660.146 753.049 627.511C752.51 628.32 751.701 629.129 751.161 629.938L744.688 637.49C742.53 639.918 740.373 642.345 738.215 644.772C733.9 649.358 729.314 653.943 724.729 658.258C734.709 654.752 750.352 652.055 765.996 662.574C765.996 662.574 739.833 697.906 716.638 666.08C714.48 667.968 712.322 670.126 709.895 672.014C703.152 677.678 696.139 683.072 689.127 688.466C696.679 686.848 708.277 685.5 719.874 690.354C719.874 690.354 700.455 706.807 683.193 692.782C681.575 693.861 680.226 694.94 678.608 696.018C667.819 703.57 656.761 710.313 645.433 716.787C639.769 720.023 633.835 722.99 628.171 725.957C622.237 728.924 616.303 731.621 610.1 734.048L607.403 726.766C613.606 724.069 619.54 721.641 625.204 718.944Z" fill="#EF5996"/>
<path d="M618.461 769.921C618.461 769.921 661.346 666.62 749.812 666.62C838.279 666.62 884.401 640.188 892.492 587.053C892.492 587.053 918.385 643.424 892.492 687.927C866.599 732.161 823.984 737.825 823.984 737.825L788.651 732.43L814.814 751.31L785.145 769.921H683.462H618.461Z" fill="#918AE9"/>
<path d="M690.205 770.191C689.396 766.684 691.554 761.29 693.442 756.705C695.6 751.85 698.027 746.995 700.724 742.41C706.119 733.239 712.862 724.878 720.953 718.135C729.045 711.392 738.485 706.268 748.734 703.571C750.082 703.301 751.161 703.031 752.51 702.762L756.556 702.222C759.253 701.952 762.22 701.413 764.917 701.143C770.311 700.334 775.975 699.255 781.369 697.907C802.947 692.512 823.715 684.421 843.134 673.632C852.844 668.238 862.015 661.765 870.106 654.482C874.152 650.706 877.928 646.661 881.434 642.345C884.671 638.03 887.638 633.175 889.256 627.781C885.21 638.03 877.658 646.391 869.297 653.404C860.936 660.416 851.496 666.35 841.786 671.474C822.366 681.724 801.598 688.736 780.291 693.321C774.896 694.4 769.502 695.209 764.108 696.019C761.41 696.288 758.713 696.558 756.016 696.828L751.701 697.367C750.352 697.637 749.004 697.907 747.385 698.176C736.057 700.604 725.538 705.728 716.368 713.011C707.467 720.293 699.915 728.924 693.712 738.364C690.475 743.219 687.778 748.074 685.351 753.198C682.923 758.323 678.068 766.145 678.338 770.46H690.205V770.191Z" fill="#784BB7"/>
<defs>
<linearGradient id="paint0_linear_323_721" x1="704.465" y1="263.61" x2="649.244" y2="272.565" gradientUnits="userSpaceOnUse">
<stop offset="0.255" stop-color="#FFB196"/>
<stop offset="0.4934" stop-color="#FFBCA5"/>
<stop offset="0.8925" stop-color="#FFD5C7"/>
</linearGradient>
<linearGradient id="paint1_linear_323_721" x1="671" y1="266.438" x2="695.894" y2="318.918" gradientUnits="userSpaceOnUse">
<stop offset="0.255" stop-color="#FFB196"/>
<stop offset="0.498" stop-color="#FFBCA5"/>
<stop offset="0.9048" stop-color="#FFD5C7"/>
</linearGradient>
<linearGradient id="paint2_linear_323_721" x1="613.172" y1="319.399" x2="625.112" y2="359.197" gradientUnits="userSpaceOnUse">
<stop offset="0.255" stop-color="#FFB196"/>
<stop offset="0.498" stop-color="#FFBCA5"/>
<stop offset="0.9048" stop-color="#FFD5C7"/>
</linearGradient>
<linearGradient id="paint3_linear_323_721" x1="360.362" y1="394.921" x2="292.756" y2="365.215" gradientUnits="userSpaceOnUse">
<stop offset="0.255" stop-color="#FFB196"/>
<stop offset="0.4934" stop-color="#FFBCA5"/>
<stop offset="0.8925" stop-color="#FFD5C7"/>
</linearGradient>
<linearGradient id="paint4_linear_323_721" x1="219.73" y1="321.724" x2="218.051" y2="321.724" gradientUnits="userSpaceOnUse">
<stop offset="0.2428" stop-color="#FB9062"/>
<stop offset="0.4924" stop-color="#FB9B71"/>
<stop offset="0.9718" stop-color="#FBB698"/>
<stop offset="1" stop-color="#FBB89B"/>
</linearGradient>
<linearGradient id="paint5_linear_323_721" x1="199.461" y1="369.327" x2="241.25" y2="373.804" gradientUnits="userSpaceOnUse">
<stop offset="0.255" stop-color="#FFB196"/>
<stop offset="0.4934" stop-color="#FFBCA5"/>
<stop offset="0.8925" stop-color="#FFD5C7"/>
</linearGradient>
</defs>
</svg>
