<svg width="309" height="452" viewBox="0 0 309 452" fill="none" xmlns="http://www.w3.org/2000/svg">
<path d="M72 338.5C95 353.167 122.333 360.5 154 360.5C182.667 360.5 203.667 371.5 217 393.5L253 451.5L269.5 440.5L238.5 390.5C232.5 380.167 226.667 372.167 221 366.5C215.333 360.833 208.833 356.667 201.5 354C235.167 344.333 261.333 324.333 280 294C299 263.667 308.5 225.5 308.5 179.5C308.5 142.5 302.333 110.667 290 84C277.667 57 259.833 36.3333 236.5 22C213.5 7.33334 186 0 154 0C122 0 94.5 7.33334 71.5 22C48.5 36.3333 30.8333 57 18.5 84C6.16667 110.667 0 142.667 0 180C0 217 6.16667 249 18.5 276C31.1667 303 49 323.833 72 338.5Z" fill="#3D1750"/>
<path d="M195.549 194.3C194.449 192.1 192.949 190.2 191.349 188.4C189.749 186.6 187.949 184.9 186.049 183.4C182.249 180.4 178.049 177.8 173.649 176.4C171.449 175.7 169.249 175.4 167.249 175.7C166.749 175.8 166.349 175.9 165.849 176.1C165.449 176.3 164.949 176.5 164.649 176.8C163.849 177.4 163.249 178.1 162.649 179C161.449 180.8 160.749 183 160.249 185.2C159.749 187.5 159.549 189.9 159.449 192.3C159.349 194.7 159.449 197.1 159.749 199.5C160.049 201.9 160.549 204.3 161.249 206.6C161.649 207.8 161.949 208.9 162.549 210C163.049 211.1 163.649 212.2 164.249 213.3C165.449 215.5 166.549 217.6 167.749 219.8C170.149 224.1 172.549 228.4 175.049 232.6C177.449 236.9 179.849 241.2 182.149 245.5L179.649 244.7L191.949 238.1C193.349 237.4 194.749 236.7 196.049 235.9L208.649 229.6L212.849 227.6L212.049 230.1C211.349 228.6 210.649 227.1 209.949 225.6C209.249 224.1 208.549 222.6 207.949 221.1L203.949 212.1C202.649 209.1 201.249 206.1 199.849 203.1C199.149 201.6 198.449 200.1 197.749 198.7L195.549 194.3ZM195.849 194.1L198.149 198.4C198.949 199.9 199.749 201.3 200.549 202.7C202.149 205.6 203.749 208.4 205.449 211.2L210.449 219.7C211.249 221.1 212.149 222.5 212.949 224C213.749 225.4 214.549 226.8 215.349 228.3L216.249 229.9L214.549 230.8L210.449 233.1L202.249 237.5L198.049 239.6C196.649 240.3 195.249 241 193.849 241.7L189.649 243.8L181.249 247.9L179.549 248.7L178.749 247.1C176.549 242.7 174.449 238.3 172.349 233.8C170.349 229.3 168.249 224.9 166.149 220.4C165.149 218.2 164.049 216 162.949 213.8C162.449 212.7 161.849 211.6 161.349 210.5C160.849 209.3 160.349 208.2 160.049 207C159.249 204.6 158.649 202.2 158.149 199.8C157.649 197.4 157.249 194.9 157.149 192.4C156.949 189.9 156.949 187.3 157.249 184.8C157.549 182.2 158.249 179.6 159.649 177.2C160.349 176 161.349 174.9 162.549 174C163.249 173.5 163.749 173.2 164.549 172.9C165.249 172.6 165.949 172.4 166.649 172.3C169.549 171.8 172.349 172.6 174.749 173.6C177.149 174.6 179.349 176 181.349 177.5C183.349 179 185.249 180.7 186.949 182.5C188.749 184.3 190.349 186.1 191.849 188.1C193.249 189.9 194.749 191.9 195.849 194.1Z" fill="white"/>
<path d="M199.449 289.6C199.249 289.7 199.049 289.8 198.849 289.8C198.649 289.9 198.449 289.9 198.149 289.9C197.749 289.9 197.249 289.9 196.849 289.9C195.949 289.8 195.149 289.6 194.349 289.3L194.649 289C195.449 290.5 196.249 291.9 197.049 293.4C197.849 294.9 198.649 296.3 199.449 297.8C201.049 300.7 202.749 303.6 204.349 306.5L209.349 315.2C210.149 316.6 211.049 318.1 211.849 319.5L214.249 323.9C215.849 326.8 217.349 329.8 218.849 332.7C220.349 335.7 221.849 338.6 223.349 341.6C224.849 344.6 226.249 347.6 227.649 350.6L231.949 359.6L230.549 359.2L236.449 356.4L242.249 353.6C246.149 351.7 249.949 349.7 253.749 347.7C255.649 346.7 257.549 345.7 259.449 344.7C261.349 343.7 263.249 342.7 265.149 341.6L276.449 335.3L275.949 337C272.849 331.3 269.649 325.7 266.649 320L257.549 302.9L248.549 285.7C247.049 282.8 245.649 279.9 244.149 277C242.749 274.1 241.249 271.2 239.849 268.3H243.349C243.049 268.7 242.749 269.1 242.349 269.4C242.149 269.6 241.949 269.7 241.749 269.8C241.549 269.9 241.549 269.9 241.349 270L240.049 270.6L237.349 271.9L231.749 274.5L220.949 279.4L215.549 281.9C213.749 282.7 211.949 283.5 210.149 284.4C208.349 285.3 206.549 286.1 204.749 287L199.449 289.6ZM199.249 289.2L204.449 286.4C206.249 285.5 207.949 284.5 209.649 283.5C211.349 282.6 213.149 281.5 214.849 280.6L219.949 277.6L230.249 271.6L235.449 268.7L239.349 266.6C239.449 266.6 239.649 266.5 239.649 266.4H243.149C244.649 269.2 246.149 272.1 247.649 275C249.149 277.9 250.649 280.7 252.149 283.6L256.549 292.2L269.449 318.3C272.349 324.1 275.049 329.9 277.849 335.8L278.349 336.9L277.249 337.4L265.549 343C263.649 343.9 261.649 344.9 259.749 345.8C257.849 346.8 255.849 347.7 253.949 348.7C250.049 350.6 246.249 352.6 242.449 354.7L236.949 357.9L231.249 361.1L230.449 361.5L229.949 360.6L225.049 351.9C223.449 349 221.749 346.1 220.249 343.2C218.649 340.3 217.149 337.3 215.549 334.4C214.049 331.5 212.549 328.5 211.049 325.5L208.849 321C208.149 319.5 207.449 318 206.749 316.5L202.549 307.4C201.149 304.4 199.749 301.3 198.349 298.3C197.649 296.8 196.949 295.3 196.149 293.8C195.449 292.3 194.749 290.8 193.949 289.3L193.649 288.7L194.249 288.9C195.049 289.2 195.849 289.4 196.649 289.5C197.049 289.5 197.449 289.6 197.849 289.5C198.049 289.5 198.249 289.5 198.449 289.4C198.849 289.4 199.049 289.3 199.249 289.2Z" fill="white"/>
<path d="M228.949 250.7C227.749 248.9 226.549 247.2 225.449 245.4C224.849 244.5 224.349 243.5 223.749 242.6C223.149 241.7 222.649 240.7 222.049 239.8C220.949 237.9 219.849 236 218.749 234.1C217.649 232.2 216.649 230.3 215.649 228.3L218.049 229.1C214.749 230.9 211.349 232.6 207.849 234.1C204.349 235.7 200.849 237.1 197.449 238.6C196.549 239 195.749 239.4 194.849 239.8C193.949 240.2 193.149 240.6 192.249 241C190.549 241.8 188.849 242.7 187.249 243.6C185.549 244.5 183.949 245.4 182.249 246.3C180.649 247.2 178.949 248.2 177.349 249.2L177.849 247.7L181.249 253.4C182.349 255.3 183.449 257.2 184.549 259.1C186.649 262.9 188.749 266.8 190.849 270.7L187.949 269.9C188.849 269.4 189.749 268.9 190.549 268.5L193.049 267.2C194.749 266.3 196.449 265.5 198.149 264.6C201.549 262.9 204.949 261.3 208.349 259.7L213.549 257.3L218.749 255C222.049 253.4 225.449 252 228.949 250.7ZM229.349 250.9C226.149 253 222.949 255 219.749 257L214.849 259.9L209.949 262.7C206.649 264.6 203.349 266.4 200.049 268.2C198.349 269.1 196.749 270 195.049 270.8L188.049 274.3L187.149 272.5C185.249 268.6 183.349 264.6 181.449 260.7C180.449 258.7 179.549 256.7 178.649 254.7L175.949 248.7L175.449 247.6L176.349 247.2C178.049 246.4 179.849 245.7 181.549 244.9C183.249 244.1 184.949 243.3 186.649 242.4C188.349 241.6 190.049 240.7 191.649 239.8C192.449 239.4 193.349 238.9 194.149 238.4C194.949 237.9 195.849 237.5 196.649 237C199.949 235.1 203.149 233.1 206.449 231.2C209.749 229.3 213.049 227.5 216.449 225.8L218.049 225L218.849 226.6C219.849 228.6 220.749 230.5 221.749 232.5C222.649 234.5 223.649 236.5 224.549 238.5C225.049 239.5 225.449 240.5 225.849 241.5C226.249 242.5 226.749 243.5 227.149 244.5C227.949 246.5 228.849 248.6 229.549 250.7L229.649 250.9H229.349Z" fill="white"/>
<path d="M231.149 250C231.149 250 230.649 250.3 229.749 250.8C228.849 251.3 227.449 252 225.749 253C224.049 254 221.949 255.2 219.649 256.7C217.349 258.2 214.649 259.9 211.749 261.6C208.849 263.3 205.549 265.1 202.049 266.8C198.549 268.5 194.749 270.1 190.849 271.8L190.449 272L190.149 272.2L189.449 272.5C189.049 272.7 188.549 273 188.149 273.2C187.349 273.7 186.549 274.4 186.449 275.1C186.349 275.3 186.449 275.4 186.449 275.6C186.449 275.7 186.549 275.8 186.549 275.9L186.749 276.3L187.449 277.8C187.949 278.8 188.449 279.8 188.949 280.8C189.449 281.8 189.949 282.8 190.549 283.8C191.049 284.8 191.649 285.7 192.149 286.7C192.349 286.9 192.449 287.2 192.649 287.4C192.849 287.5 192.949 287.6 193.149 287.8C193.549 288 194.049 288.3 194.449 288.5C195.449 288.9 196.449 289.1 197.349 289C197.849 289 198.249 288.9 198.549 288.8C198.649 288.8 198.649 288.7 198.749 288.7L199.149 288.5L199.849 288.1L202.749 286.4C204.749 285.3 206.649 284.2 208.649 283.1C212.549 281 216.449 278.9 220.149 276.8C223.849 274.8 227.549 272.9 231.049 271.2C232.849 270.4 234.549 269.5 236.149 268.7C236.949 268.3 237.749 267.9 238.649 267.6L239.249 267.3L239.549 267.2L239.649 267.1H239.749C239.849 267.1 239.349 267.3 239.549 267.2L239.849 267L239.949 266.5C239.949 266.5 240.049 266.4 240.049 266.5C240.049 266.5 239.949 266.5 239.949 266.6C239.949 266.6 239.949 266.6 239.949 266.7C240.049 266.5 239.849 267 239.849 266.9V266.8L239.949 266.5L240.049 266.4C240.049 266.4 240.049 266.4 240.049 266.3C240.049 266.2 240.049 266 240.049 265.9V265.4C239.949 264.7 239.749 264 239.549 263.4C239.349 262.7 239.049 262 238.749 261.3C238.449 260.6 238.249 260 237.949 259.3C236.949 256.7 235.949 254.5 235.149 252.7C234.749 251.8 234.349 251 234.049 250.4C233.949 250.2 233.849 250.1 233.749 250L233.549 249.8L233.349 249.7C233.149 249.6 232.849 249.6 232.649 249.6C232.149 249.7 231.849 249.9 231.549 250C231.349 249.9 231.149 250 231.149 250ZM231.049 249.6C231.049 249.6 231.149 249.5 231.449 249.4C231.649 249.3 232.049 249.1 232.649 248.9C232.949 248.8 233.349 248.8 233.649 249C233.749 249 233.849 249.1 233.949 249.1L234.149 249.3C234.349 249.4 234.449 249.6 234.549 249.8C235.049 250.5 235.449 251.2 235.949 252.1C236.949 253.8 238.249 255.9 239.649 258.2C240.049 258.8 240.449 259.4 240.749 260C241.149 260.6 241.549 261.2 241.949 262C242.349 262.7 242.749 263.5 243.049 264.4L243.249 265.1C243.249 265.4 243.349 265.6 243.349 265.9C243.349 266.2 243.349 266.6 243.249 267C243.249 267.1 243.249 267.2 243.249 267.3V267.5L243.149 267.8V267.9C243.149 267.9 242.949 268.4 243.049 268.2C242.949 268.3 242.949 268.4 242.849 268.5C242.749 268.7 242.549 268.9 242.349 269.1C242.249 269.2 242.249 269.2 242.149 269.3L242.049 269.4L241.749 269.6L240.949 270.1L240.349 270.4C239.549 270.8 238.749 271.3 238.049 271.7C236.449 272.6 234.749 273.5 233.049 274.4C229.649 276.2 225.949 278.1 222.149 280C218.349 281.9 214.349 283.8 210.349 285.7C208.349 286.7 206.349 287.6 204.249 288.5C203.249 289 202.149 289.4 201.149 289.9L200.349 290.2L199.949 290.5L199.349 290.7C198.549 290.9 197.849 290.9 197.249 290.9C195.949 290.8 194.749 290.4 193.649 289.8C193.049 289.5 192.549 289.2 192.049 288.8C191.749 288.6 191.549 288.3 191.249 288C191.049 287.8 190.949 287.5 190.749 287.3C190.249 286.3 189.749 285.2 189.249 284.2C188.749 283.2 188.249 282.2 187.749 281.2C187.249 280.2 186.749 279.2 186.249 278.2L185.449 276.7L185.249 276.3C185.149 276.1 185.049 276 185.049 275.8C184.949 275.4 184.849 275.1 184.949 274.7C185.049 273.9 185.449 273.3 185.749 272.9C186.149 272.4 186.549 272 187.049 271.6C187.549 271.2 187.949 270.9 188.449 270.6C188.949 270.3 189.349 270 189.849 269.7C193.449 267.5 196.949 265.3 200.449 263.5C203.849 261.6 207.149 260 210.249 258.6C213.349 257.2 216.249 256.1 218.849 255C221.449 254 223.649 253 225.449 252.2C227.249 251.4 228.649 250.7 229.549 250.2C230.549 249.9 231.049 249.6 231.049 249.6Z" fill="white"/>
<path d="M161.049 207C161.049 207 161.449 207.2 162.149 207.5C162.849 207.8 163.749 208.2 164.849 208.6C165.449 208.8 166.049 209 166.649 209.2C167.249 209.4 167.949 209.6 168.649 209.8C169.349 210 170.049 210.1 170.749 210.3C171.449 210.4 172.249 210.6 172.949 210.6L174.049 210.7C174.449 210.7 174.749 210.7 175.149 210.7C175.849 210.7 176.549 210.6 177.249 210.5C177.949 210.5 178.649 210.2 179.249 210.1C179.949 210 180.449 209.8 181.049 209.6C181.349 209.5 181.549 209.4 181.849 209.3C182.149 209.2 182.349 209.1 182.549 209C182.949 208.8 183.349 208.6 183.749 208.5C184.449 208.2 184.849 208.1 184.849 208.1C184.849 208.1 184.649 208.4 184.149 209C183.949 209.3 183.649 209.6 183.249 210C182.849 210.4 182.349 210.7 181.849 211.1C181.549 211.3 181.349 211.5 181.049 211.7C180.749 211.9 180.449 212 180.049 212.2C179.349 212.5 178.649 212.9 177.849 213.1C177.049 213.3 176.249 213.6 175.349 213.6C174.949 213.6 174.449 213.7 174.049 213.7L172.749 213.6C171.849 213.6 170.949 213.3 170.149 213.2C169.749 213.1 169.349 212.9 168.949 212.8C168.549 212.7 168.149 212.5 167.749 212.4C167.049 212.1 166.249 211.7 165.649 211.3C165.049 210.9 164.449 210.5 163.949 210.1C162.949 209.3 162.249 208.5 161.749 208C161.249 207.4 161.049 207 161.049 207Z" fill="white"/>
<path d="M164.7 79.6C166 78.6 167.2 77.6 168.5 76.6L172.3 73.6C173.6 72.6 174.8 71.6 176.1 70.6L179.9 67.7C182.5 65.7 185.1 63.8 187.6 61.9L195.4 56.2L196.6 55.3L197.6 56.5L208.3 68.8C210.1 70.8 211.9 72.9 213.6 75C215.4 77.1 217.1 79.1 218.9 81.2L224.1 87.4L229.3 93.7L239.6 106.3C243 110.5 246.4 114.7 249.9 118.9C251.6 121 253.4 123.1 255.1 125.1L260.4 131.3C263.9 135.4 267.5 139.5 271.1 143.6C274.7 147.7 278.3 151.7 281.9 155.8L282.6 156.6L281.7 157.3L268.9 166.7C264.6 169.9 260.4 173 256.1 176.1L230.3 194.7L228.6 195.9L227.5 194L219.3 179.9C216.6 175.2 213.9 170.5 211.2 165.8C208.5 161.1 205.9 156.3 203.2 151.6C200.5 146.9 197.9 142.1 195.3 137.4C192.7 132.7 190.1 127.9 187.5 123.1C184.9 118.3 182.3 113.6 179.8 108.8C177.2 104 174.6 99.2 172.1 94.4C169.6 89.6 167 84.8 164.6 80L164.5 79.8L164.7 79.6ZM165.1 79.8C168 84.3 170.8 88.9 173.6 93.5C176.5 98.1 179.2 102.8 182 107.4C184.8 112 187.6 116.7 190.4 121.4C193.2 126.1 195.9 130.7 198.7 135.4C201.5 140.1 204.2 144.8 206.9 149.5C209.6 154.2 212.4 158.9 215 163.6C217.7 168.3 220.4 173 223 177.8L230.9 192L228.1 191.4L254.3 173.4C258.7 170.4 263 167.4 267.5 164.5L280.7 155.6L280.5 157.1C277 152.9 273.6 148.7 270.1 144.6C266.6 140.4 263.1 136.3 259.6 132.2L254.3 126C252.5 123.9 250.7 121.9 248.9 119.9C245.3 115.8 241.7 111.8 238 107.8L227.2 95.5L216.4 83.3C214.6 81.3 212.8 79.2 211.1 77.1C209.3 75 207.6 73 205.8 70.9L195.3 58.5L197.5 58.8L189.5 64.2C186.8 66 184.1 67.8 181.4 69.5L177.3 72.1C175.9 73 174.6 73.8 173.2 74.7L169.1 77.3C167.8 78.2 166.4 79 165.1 79.8Z" fill="white"/>
<path d="M235.3 203.1C236.3 202.2 237.3 201.4 238.3 200.5L241.5 197.8L244.7 195.2L248 192.7C249.1 191.8 250.2 191 251.3 190.2C252.4 189.4 253.5 188.5 254.6 187.7C256.8 186.1 259 184.4 261.3 182.9C262.4 182.1 263.6 181.3 264.7 180.6C265.8 179.8 267 179.1 268.2 178.4C270.5 176.9 272.9 175.5 275.2 174.1L278.7 171.9L282.2 169.6L285.6 167.3L289 164.9L288.8 165.8L287.1 163.5C286.5 162.7 286 162 285.4 161.2L281.9 156.7L283.4 157C281.2 158.7 279.1 160.4 276.9 162.1C274.7 163.8 272.5 165.4 270.3 167.1L263.7 172C261.5 173.6 259.3 175.3 257 176.9L253.6 179.3C252.5 180.1 251.3 180.9 250.2 181.6L246.8 183.9C245.7 184.7 244.5 185.4 243.4 186.2C241.1 187.7 238.8 189.2 236.5 190.7C235.3 191.4 234.2 192.2 233 192.9L229.5 195.1L229.8 193.5C230.8 195.1 231.8 196.7 232.7 198.4C233.5 200 234.4 201.5 235.3 203.1ZM235.1 203.6C233.8 202.2 232.6 200.7 231.4 199.2C230.2 197.7 229 196.3 227.8 194.8L227.1 194L228 193.2L231.2 190.6C232.3 189.7 233.4 188.9 234.5 188.1C236.7 186.4 238.9 184.7 241.1 183.1C242.2 182.3 243.3 181.4 244.4 180.6L247.7 178.2C248.8 177.4 249.9 176.6 251 175.8L254.4 173.4C256.6 171.8 259 170.3 261.2 168.8L268 164.2C270.3 162.7 272.6 161.2 274.9 159.7C277.2 158.2 279.6 156.8 281.9 155.3L282.9 154.7L283.5 155.6L286.6 160.4C287.1 161.2 287.6 162 288.1 162.8L289.7 165.2L290.1 165.7L289.6 166.1L286.2 168.4L282.9 170.8L279.6 173.3L276.4 175.9C274.2 177.6 272.1 179.4 269.9 181.1C268.8 182 267.7 182.8 266.6 183.6C265.5 184.4 264.4 185.2 263.3 186C261.1 187.6 258.8 189.1 256.5 190.7C255.4 191.5 254.2 192.2 253.1 193C251.9 193.8 250.8 194.5 249.6 195.3L242.6 199.7L239 201.8C237.8 202.5 236.6 203.2 235.4 203.8L235.2 203.9L235.1 203.6Z" fill="white"/>
<path d="M284.5 168.1C284.5 168.1 284.3 168 284 167.9C283.7 167.8 283.3 167.6 282.9 167.3C282.1 166.8 281.1 165.9 280.4 164.9C279.7 163.9 279.2 162.7 278.9 161.7C278.8 161.2 278.7 160.8 278.7 160.5C278.7 160.2 278.7 160 278.7 160C278.7 160 278.9 160.1 279.2 160.2C279.5 160.3 279.9 160.5 280.3 160.8C281.2 161.3 282.1 162.2 282.8 163.2C283.5 164.2 284 165.4 284.2 166.4C284.3 166.9 284.4 167.3 284.4 167.6C284.5 167.9 284.5 168.1 284.5 168.1Z" fill="white"/>
<path d="M279.4 171.7C279.4 171.7 279.2 171.6 278.9 171.5C278.6 171.4 278.2 171.2 277.8 170.9C277 170.4 276 169.5 275.3 168.5C274.6 167.5 274.1 166.3 273.8 165.3C273.7 164.8 273.6 164.4 273.6 164.1C273.6 163.8 273.6 163.6 273.6 163.6C273.6 163.6 273.8 163.7 274.1 163.8C274.4 163.9 274.8 164.1 275.2 164.4C276.1 164.9 277 165.8 277.7 166.8C278.4 167.8 278.9 169 279.1 170C279.2 170.5 279.3 170.9 279.3 171.2C279.4 171.5 279.4 171.7 279.4 171.7Z" fill="white"/>
<path d="M274.4 175.3C274.4 175.3 274.2 175.2 273.9 175.1C273.6 175 273.2 174.8 272.8 174.5C272 174 271 173.1 270.3 172.1C269.6 171.1 269.1 169.9 268.8 168.9C268.7 168.4 268.6 168 268.6 167.7C268.6 167.4 268.6 167.2 268.6 167.2C268.6 167.2 268.8 167.3 269.1 167.4C269.4 167.5 269.8 167.7 270.2 168C271.1 168.5 272 169.4 272.7 170.4C273.4 171.4 273.9 172.6 274.1 173.6C274.2 174.1 274.3 174.5 274.3 174.8C274.4 175.1 274.4 175.3 274.4 175.3Z" fill="white"/>
<path d="M269.3 178.8C269.3 178.8 269.1 178.7 268.8 178.6C268.5 178.5 268.1 178.3 267.7 178C266.9 177.5 265.9 176.6 265.2 175.6C264.5 174.6 264 173.4 263.7 172.4C263.6 171.9 263.5 171.5 263.5 171.2C263.5 170.9 263.5 170.7 263.5 170.7C263.5 170.7 263.7 170.8 264 170.9C264.3 171 264.7 171.2 265.1 171.5C266 172 266.9 172.9 267.6 173.9C268.3 174.9 268.8 176.1 269 177.1C269.1 177.6 269.2 178 269.2 178.3C269.3 178.6 269.3 178.8 269.3 178.8Z" fill="white"/>
<path d="M264.2 182.4C264.2 182.4 264 182.3 263.7 182.2C263.4 182.1 263 181.9 262.6 181.6C261.8 181.1 260.8 180.2 260.1 179.2C259.4 178.2 258.9 177 258.6 176C258.5 175.5 258.4 175.1 258.4 174.8C258.4 174.5 258.4 174.3 258.4 174.3C258.4 174.3 258.6 174.4 258.9 174.5C259.2 174.6 259.6 174.8 260 175.1C260.9 175.6 261.8 176.5 262.5 177.5C263.2 178.5 263.7 179.7 263.9 180.7C264 181.2 264.1 181.6 264.1 181.9C264.2 182.2 264.2 182.4 264.2 182.4Z" fill="white"/>
<path d="M259.1 186C259.1 186 258.9 185.9 258.6 185.8C258.3 185.7 257.9 185.5 257.5 185.2C256.7 184.7 255.7 183.8 255 182.8C254.3 181.8 253.8 180.6 253.5 179.6C253.4 179.1 253.3 178.7 253.3 178.4C253.3 178.1 253.3 177.9 253.3 177.9C253.3 177.9 253.5 178 253.8 178.1C254.1 178.2 254.5 178.4 254.9 178.7C255.8 179.2 256.7 180.1 257.4 181.1C258.1 182.1 258.6 183.3 258.8 184.3C258.9 184.8 259 185.2 259 185.5C259.1 185.8 259.1 186 259.1 186Z" fill="white"/>
<path d="M254 189.6C254 189.6 253.8 189.5 253.5 189.4C253.2 189.3 252.8 189.1 252.4 188.8C251.6 188.3 250.6 187.4 249.9 186.4C249.2 185.4 248.7 184.2 248.4 183.2C248.3 182.7 248.2 182.3 248.2 182C248.2 181.7 248.2 181.5 248.2 181.5C248.2 181.5 248.4 181.6 248.7 181.7C249 181.8 249.4 182 249.8 182.3C250.7 182.8 251.6 183.7 252.3 184.7C253 185.7 253.5 186.9 253.7 187.9C253.8 188.4 253.9 188.8 253.9 189.1C254.1 189.4 254 189.6 254 189.6Z" fill="white"/>
<path d="M249 193.1C249 193.1 248.8 193 248.5 192.9C248.2 192.8 247.8 192.6 247.4 192.3C246.6 191.8 245.6 190.9 244.9 189.9C244.2 188.9 243.7 187.7 243.4 186.7C243.3 186.2 243.2 185.8 243.2 185.5C243.2 185.2 243.2 185 243.2 185C243.2 185 243.4 185.1 243.7 185.2C244 185.3 244.4 185.5 244.8 185.8C245.7 186.3 246.6 187.2 247.3 188.2C248 189.2 248.5 190.4 248.7 191.4C248.8 191.9 248.9 192.3 248.9 192.6C249 192.9 249 193.1 249 193.1Z" fill="white"/>
<path d="M243.9 196.7C243.9 196.7 243.7 196.6 243.4 196.5C243.1 196.4 242.7 196.2 242.3 195.9C241.5 195.4 240.5 194.5 239.8 193.5C239.1 192.5 238.6 191.3 238.3 190.3C238.2 189.8 238.1 189.4 238.1 189.1C238.1 188.8 238.1 188.6 238.1 188.6C238.1 188.6 238.3 188.7 238.6 188.8C238.9 188.9 239.3 189.1 239.7 189.4C240.6 189.9 241.5 190.8 242.2 191.8C242.9 192.8 243.4 194 243.6 195C243.7 195.5 243.8 195.9 243.8 196.2C243.9 196.5 243.9 196.7 243.9 196.7Z" fill="white"/>
<path d="M238.8 200.3C238.8 200.3 238.6 200.2 238.3 200.1C238 200 237.6 199.8 237.2 199.5C236.4 199 235.4 198.1 234.7 197.1C234 196.1 233.5 194.9 233.2 193.9C233.1 193.4 233 193 233 192.7C233 192.4 233 192.2 233 192.2C233 192.2 233.2 192.3 233.5 192.4C233.8 192.5 234.2 192.7 234.6 193C235.5 193.5 236.4 194.4 237.1 195.4C237.8 196.4 238.3 197.6 238.5 198.6C238.6 199.1 238.7 199.5 238.7 199.8C238.8 200.1 238.8 200.3 238.8 200.3Z" fill="white"/>
<path d="M260.6 143.4C257.8 145.8 254.9 148.1 252 150.4L247.6 153.8L243.2 157.1C240.3 159.3 237.3 161.5 234.4 163.7L225.5 170.1L223.9 171.3L222.9 169.6C221.3 166.7 219.6 163.9 218 160.9C216.4 158 214.8 155.1 213.3 152.1C210.2 146.2 207.1 140.3 203.9 134.5C203.1 133 202.3 131.6 201.5 130.2L199 125.9C197.3 123 195.7 120.2 193.9 117.3C192.2 114.4 190.4 111.6 188.7 108.8L183.4 100.3L182.8 99.4L183.8 98.7C185.8 97.2 187.7 95.7 189.7 94.2C191.7 92.7 193.7 91.2 195.6 89.8L207.5 81.1L209 80L210.3 81.4C212.5 83.9 214.7 86.4 216.8 88.9C219 91.4 221.1 93.9 223.3 96.5L229.7 104.1L242.3 119.5L248.5 127.3C250.5 129.9 252.6 132.5 254.6 135.2C256.6 137.8 258.7 140.5 260.7 143.1L260.8 143.3L260.6 143.4ZM260.2 143.2C257.9 140.9 255.7 138.5 253.5 136.2C251.2 133.8 249 131.3 246.7 128.9L233.3 114.1L226.7 106.7L220.1 99.2C217.9 96.7 215.8 94.2 213.6 91.6C211.4 89.1 209.3 86.5 207.2 84L209.9 84.3L197.7 92.6C195.6 94 193.6 95.4 191.5 96.7C189.4 98.1 187.4 99.4 185.3 100.7L185.7 99L190.4 107.8C192 110.7 193.5 113.7 195.2 116.5C196.8 119.4 198.5 122.3 200.1 125.2L202.6 129.5C203.4 130.9 204.3 132.4 205.2 133.8C208.6 139.5 212.2 145.1 215.8 150.7C217.6 153.5 219.3 156.3 221 159.2C222.7 162 224.4 164.9 226.1 167.8L223.5 167.2L232.6 161C235.7 159 238.7 156.9 241.8 154.9L246.4 151.9L251.1 148.9C254 146.9 257.1 145 260.2 143.2Z" fill="white"/>
<path d="M158.5 70.4C159.6 69.2 160.8 68.1 162.1 67L163.9 65.4C164.5 64.9 165.1 64.4 165.8 63.8C167 62.7 168.3 61.8 169.6 60.8C170.9 59.8 172.2 58.8 173.5 57.9C176.1 56 178.9 54.3 181.8 52.7C183.2 51.9 184.6 51.1 186 50.3C187.4 49.4 188.8 48.6 190.1 47.7L190.6 47.3L190.9 47.8C191.4 48.5 191.9 49.2 192.4 49.9C192.9 50.6 193.4 51.3 194 51.9C195.1 53.3 196.2 54.6 197.3 55.9L197.9 56.7L197 57.5L193.3 60.6C192 61.6 190.8 62.6 189.5 63.6C186.9 65.6 184.3 67.5 181.7 69.5C179.1 71.4 176.4 73.3 173.7 75L169.6 77.6C168.2 78.4 166.8 79.3 165.4 80.1L164.1 80.9L163.4 79.8C162.5 78.3 161.7 76.8 160.9 75.3C160.1 73.8 159.3 72.3 158.5 70.7L158.4 70.5L158.5 70.4ZM159 70.6C160.2 71.8 161.3 73 162.4 74.2C163.5 75.5 164.7 76.8 165.8 78.1L163.8 77.8C165 76.7 166.3 75.7 167.6 74.7L171.4 71.7C174 69.7 176.6 67.8 179.3 66C182 64.2 184.7 62.4 187.4 60.7C188.8 59.8 190.1 59 191.5 58.1L195.7 55.6L195.4 57.1C194.5 55.6 193.7 54.1 192.7 52.7C192.2 52 191.8 51.2 191.3 50.5C190.8 49.8 190.3 49.1 189.8 48.4L190.6 48.5C189.3 49.4 188 50.4 186.7 51.5C185.5 52.5 184.2 53.6 183 54.7C180.6 56.9 178 58.9 175.4 60.7C174.1 61.6 172.7 62.5 171.4 63.4C170 64.3 168.7 65.2 167.3 66C166.6 66.4 165.9 66.8 165.2 67.2L163.1 68.4C161.8 69.2 160.4 69.9 159 70.6Z" fill="white"/>
<path d="M140.2 56.7C141.8 55.2 143.5 53.8 145.1 52.4C145.9 51.7 146.8 51 147.6 50.3C148.4 49.6 149.3 48.9 150.1 48.3C151.8 47 153.5 45.6 155.2 44.3C156.9 43 158.7 41.7 160.4 40.4C162.2 39.1 163.9 37.9 165.7 36.7C167.5 35.5 169.3 34.3 171.1 33.2C172.9 32 174.8 30.9 176.6 29.8C178.5 28.7 180.3 27.6 182.1 26.4L182.8 26L183.2 26.6C184.1 28.1 185.1 29.5 186.1 31C187.1 32.4 188.1 33.9 189.2 35.3C190.3 36.7 191.3 38.1 192.4 39.5C193.5 40.9 194.6 42.3 195.7 43.6L196.3 44.4L195.4 45.1C192 47.8 188.6 50.5 185.2 53.1C181.7 55.7 178.3 58.3 174.8 60.8C171.3 63.4 167.8 65.9 164.2 68.3C162.4 69.5 160.6 70.7 158.8 71.9C157 73.1 155.2 74.3 153.4 75.4L151.9 76.4L151 75C150.1 73.5 149.1 72 148.2 70.6C147.3 69.1 146.3 67.6 145.4 66.1C143.6 63.1 141.8 60.1 140.1 57L140 56.8L140.2 56.7ZM140.6 56.9C142.9 59.5 145.1 62.1 147.3 64.8C148.4 66.2 149.5 67.5 150.6 68.9C151.7 70.3 152.8 71.7 153.8 73.1L151.4 72.7C153.1 71.4 154.8 70.1 156.6 68.8C158.3 67.5 160.1 66.2 161.8 64.9C165.3 62.4 168.8 59.9 172.4 57.5C176 55.1 179.6 52.7 183.2 50.3C186.8 47.9 190.5 45.7 194.2 43.4L193.9 44.9C193 43.4 192.1 41.9 191.1 40.4C190.2 38.9 189.2 37.5 188.2 36C187.2 34.6 186.2 33.1 185.2 31.7C184.2 30.3 183.1 28.9 182.1 27.5L183.1 27.7C181.4 29 179.7 30.4 178 31.7C176.3 33.1 174.6 34.4 172.9 35.8C171.2 37.2 169.5 38.5 167.7 39.7C166 41 164.2 42.2 162.4 43.4C160.6 44.6 158.8 45.8 157 47C155.2 48.2 153.4 49.4 151.5 50.5C150.6 51.1 149.7 51.6 148.7 52.2C147.8 52.8 146.9 53.3 145.9 53.9C144.3 54.9 142.5 55.9 140.6 56.9Z" fill="white"/>
<path d="M190.7 47.9C190.7 47.9 190.4 47.7 189.9 47.3C189.4 46.9 188.7 46.3 188 45.5C186.5 44 184.6 41.8 183 39.5C181.4 37.2 179.9 34.7 179 32.7C178.5 31.7 178.2 30.9 178 30.3C177.8 29.7 177.7 29.3 177.7 29.3C177.7 29.3 178 29.5 178.5 29.9C179 30.3 179.7 30.9 180.5 31.7C182 33.2 183.9 35.4 185.5 37.7C187.1 40 188.6 42.5 189.5 44.5C190 45.5 190.3 46.3 190.5 46.9C190.7 47.6 190.7 47.9 190.7 47.9Z" fill="white"/>
<path d="M185.4 51.7C185.4 51.7 185.1 51.5 184.6 51.1C184.1 50.7 183.4 50.1 182.7 49.3C181.2 47.8 179.3 45.6 177.7 43.3C176.1 41 174.6 38.5 173.7 36.5C173.2 35.5 172.9 34.7 172.7 34.1C172.5 33.5 172.4 33.1 172.4 33.1C172.4 33.1 172.7 33.3 173.2 33.7C173.7 34.1 174.4 34.7 175.2 35.5C176.7 37 178.6 39.2 180.2 41.5C181.8 43.8 183.3 46.3 184.2 48.3C184.7 49.3 185 50.1 185.2 50.7C185.3 51.4 185.4 51.7 185.4 51.7Z" fill="white"/>
<path d="M180 55.5C180 55.5 179.7 55.3 179.2 54.9C178.7 54.5 178 53.9 177.3 53.1C175.8 51.6 173.9 49.4 172.3 47.1C170.7 44.8 169.2 42.3 168.3 40.3C167.8 39.3 167.5 38.5 167.3 37.9C167.1 37.3 167 36.9 167 36.9C167 36.9 167.3 37.1 167.8 37.5C168.3 37.9 169 38.5 169.8 39.3C171.3 40.8 173.2 43 174.8 45.3C176.4 47.6 177.9 50.1 178.8 52.1C179.3 53.1 179.6 53.9 179.8 54.5C179.9 55.2 180 55.5 180 55.5Z" fill="white"/>
<path d="M174.6 59.3C174.6 59.3 174.3 59.1 173.8 58.7C173.3 58.3 172.6 57.7 171.9 56.9C170.4 55.4 168.5 53.2 166.9 50.9C165.3 48.6 163.8 46.1 162.9 44.1C162.4 43.1 162.1 42.3 161.9 41.7C161.7 41.1 161.6 40.7 161.6 40.7C161.6 40.7 161.9 40.9 162.4 41.3C162.9 41.7 163.6 42.3 164.4 43.1C165.9 44.6 167.8 46.8 169.4 49.1C171 51.4 172.5 53.9 173.4 55.9C173.9 56.9 174.2 57.7 174.4 58.3C174.5 59 174.6 59.3 174.6 59.3Z" fill="white"/>
<path d="M169.2 63.1C169.2 63.1 168.9 62.9 168.4 62.5C167.9 62.1 167.2 61.5 166.5 60.7C165 59.2 163.1 57 161.5 54.7C159.9 52.4 158.4 49.9 157.5 47.9C157 46.9 156.7 46.1 156.5 45.5C156.3 44.9 156.2 44.5 156.2 44.5C156.2 44.5 156.5 44.7 157 45.1C157.5 45.5 158.2 46.1 159 46.9C160.5 48.4 162.4 50.6 164 52.9C165.6 55.2 167.1 57.7 168 59.7C168.5 60.7 168.8 61.5 169 62.1C169.1 62.8 169.2 63.1 169.2 63.1Z" fill="white"/>
<path d="M163.8 66.9C163.8 66.9 163.5 66.7 163 66.3C162.5 65.9 161.8 65.3 161.1 64.5C159.6 63 157.7 60.8 156.1 58.5C154.5 56.2 153 53.7 152.1 51.7C151.6 50.7 151.3 49.9 151.1 49.3C150.9 48.7 150.8 48.3 150.8 48.3C150.8 48.3 151.1 48.5 151.6 48.9C152.1 49.3 152.8 49.9 153.6 50.7C155.1 52.2 157 54.4 158.6 56.7C160.2 59 161.7 61.5 162.6 63.5C163.1 64.5 163.4 65.3 163.6 65.9C163.7 66.6 163.8 66.9 163.8 66.9Z" fill="white"/>
<path d="M158.4 70.7C158.4 70.7 158.1 70.5 157.6 70.1C157.1 69.7 156.4 69.1 155.7 68.3C154.2 66.8 152.3 64.6 150.7 62.3C149.1 60 147.6 57.5 146.7 55.5C146.2 54.5 145.9 53.7 145.7 53.1C145.5 52.5 145.4 52.1 145.4 52.1C145.4 52.1 145.7 52.3 146.2 52.7C146.7 53.1 147.4 53.7 148.2 54.5C149.7 56 151.6 58.2 153.2 60.5C154.8 62.8 156.3 65.3 157.2 67.3C157.7 68.3 158 69.1 158.2 69.7C158.3 70.4 158.4 70.7 158.4 70.7Z" fill="white"/>
<path d="M71.0343 142.367C71.0343 142.367 70.7332 142.518 70.2061 142.894C69.6791 143.271 68.9263 143.722 68.0228 144.475C66.1406 145.906 63.5056 148.39 61.0964 152.004C59.8918 153.811 58.7625 155.994 57.6332 158.479C56.5792 160.888 55.6004 163.673 54.697 166.685C53.7935 169.696 52.9654 172.934 52.1372 176.322C51.2338 179.785 50.3303 183.399 49.2763 187.163C47.2436 194.616 44.985 202.747 42.7263 211.33C40.3171 219.913 37.6821 228.872 34.8965 238.283C34.2189 240.617 33.5413 242.951 32.7884 245.36C32.4873 246.565 32.0356 247.769 31.8097 248.898C31.5838 250.028 31.5838 251.232 31.5838 252.437C31.5838 253.039 31.5838 253.642 31.6591 254.319V255.072C31.6591 255.223 31.6591 255.223 31.7344 255.298C31.8097 255.373 31.8097 255.524 31.885 255.599C32.4873 256.502 33.5413 257.255 34.4447 258.008L35.9505 259.213C36.4022 259.514 36.9292 259.89 37.5315 260.191C38.5855 260.794 39.7149 261.321 40.9194 261.773C45.5872 263.73 50.6315 264.859 55.6004 265.913C60.6447 267.043 65.6889 267.871 70.8084 269.075C75.7774 270.431 80.8216 271.71 85.7906 272.764C90.8348 273.894 95.8038 274.948 100.697 275.475C101.902 275.625 103.182 275.701 104.311 275.625C105.516 275.625 106.645 275.55 107.398 275.249C107.473 275.174 107.624 275.174 107.624 275.174C107.699 275.098 107.774 275.023 107.774 275.023C107.774 275.023 108 274.797 108.076 274.722C108.377 274.421 108.603 274.044 108.904 273.593C109.355 272.689 109.807 271.635 110.184 270.506C110.56 269.377 110.861 268.172 111.238 267.043C111.539 265.838 111.84 264.633 112.141 263.429C112.743 261.02 113.421 258.686 114.099 256.352C116.658 247.016 119.143 237.906 121.552 229.324C123.886 220.666 126.22 212.61 128.177 205.081C129.231 201.317 130.21 197.778 131.113 194.315C131.565 192.659 132.092 190.927 132.469 189.346C132.694 188.518 132.845 187.765 133.146 187.012C133.297 186.26 133.523 185.431 133.673 184.678C134.2 181.742 134.501 178.881 134.501 176.171C134.426 173.536 134.125 171.127 133.673 168.868C132.845 164.426 131.565 161.189 130.662 158.93C130.21 157.876 129.758 156.973 129.532 156.446C129.231 155.844 129.156 155.618 129.156 155.618L129.532 155.392C129.532 155.392 129.683 155.693 130.059 156.22C130.436 156.747 130.812 157.575 131.415 158.629C132.544 160.812 134.125 164.05 135.33 168.567C136.609 173.009 137.362 178.731 136.384 185.281C136.308 186.109 136.158 186.862 135.932 187.69C135.781 188.593 135.555 189.271 135.405 190.174C135.028 191.755 134.652 193.487 134.276 195.219C133.523 198.682 132.619 202.296 131.791 206.135C130.059 213.739 127.951 221.87 125.768 230.528C124.639 234.82 123.585 239.186 122.23 243.854C120.95 248.296 119.745 252.964 118.239 257.632C117.562 259.966 116.884 262.3 116.131 264.709C115.83 265.913 115.454 267.043 115.153 268.247C114.851 269.452 114.475 270.732 114.023 271.936C113.572 273.141 113.045 274.421 112.292 275.776C111.915 276.454 111.464 277.056 110.861 277.658C110.56 277.959 110.259 278.26 109.732 278.486L109.054 278.712C108.828 278.787 108.603 278.863 108.377 278.938C106.72 279.54 105.29 279.465 103.935 279.465C102.58 279.465 101.224 279.314 99.9446 279.239C94.6745 278.637 89.6302 277.508 84.586 276.378C79.5417 275.249 74.4222 273.894 69.4533 272.539C64.5596 271.108 59.5154 269.678 54.5464 268.021C49.6528 266.44 44.6838 264.784 39.9407 262.751C38.7361 262.3 37.6068 261.622 36.4022 261.02C35.7999 260.719 35.2729 260.342 34.7459 259.966L33.2402 258.761C32.1861 258.008 31.1321 257.255 30.304 256.126C30.1534 255.975 30.1534 255.825 30.0028 255.674C29.8522 255.524 29.7769 255.147 29.7769 254.997L29.7769 254.846C29.7017 254.771 29.7769 254.846 29.7769 254.696L29.7017 254.47L29.7017 254.018C29.6264 253.34 29.6264 252.738 29.6264 252.136C29.5511 250.856 29.6264 249.576 29.7769 248.221C30.0028 246.941 30.304 245.736 30.6051 244.532C31.2074 242.123 31.7344 239.789 32.2614 237.304C34.52 227.818 36.4775 218.633 38.7361 210.05C40.9947 201.468 43.3286 193.261 45.512 185.808C46.6413 182.119 47.6953 178.505 48.674 175.117C49.6527 171.729 50.6315 168.492 51.6855 165.48C53.7935 159.457 56.3533 154.338 59.2895 150.649C62.0751 146.96 65.0866 144.701 67.1947 143.496C68.2487 142.894 69.0768 142.367 69.6038 142.141C70.2061 141.84 70.432 141.765 70.432 141.765L71.0343 142.367Z" fill="white"/>
<path d="M131.338 153.886C131.338 153.886 131.263 154.112 131.113 154.413C131.113 154.564 130.887 154.79 130.811 155.015C130.661 155.317 130.435 155.542 130.209 155.768C129.682 156.295 128.854 156.822 127.8 156.973C127.273 157.048 126.671 157.048 126.068 156.898C125.466 156.747 124.864 156.596 124.262 156.446C123.057 156.145 121.551 155.844 120.045 155.542C118.54 155.241 116.808 154.865 115.001 154.564C111.463 153.886 107.397 153.133 103.106 152.155C98.7392 151.251 94.0714 150.046 89.1777 148.616C86.6932 147.938 84.2087 147.11 81.649 146.357C80.3691 145.981 79.0892 145.454 77.8093 145.078C77.1317 144.852 76.4542 144.626 75.8519 144.475L75.626 144.4H75.4754C75.2496 144.325 75.4001 144.325 75.2496 144.325L75.1743 144.249L74.6473 144.024C74.3461 143.873 73.8191 143.497 73.4427 143.271C72.8404 142.668 72.3134 141.84 72.0122 141.087C71.7864 140.259 71.7111 139.28 71.9369 138.452C72.3887 137.097 72.7651 135.667 73.2168 134.311C73.6685 132.956 74.045 131.526 74.4214 130.095C74.7978 128.665 75.2496 127.31 75.626 125.879C76.3789 123.018 77.0565 120.233 77.734 117.297C78.4116 114.36 79.0892 111.424 79.7668 108.488L79.9927 107.961C80.0679 107.886 79.9927 107.81 80.1432 107.66L80.3691 107.283C80.595 106.756 80.9714 106.38 81.2725 106.079C81.9501 105.401 82.9289 104.874 83.8323 104.724C84.0582 104.648 84.3593 104.648 84.5852 104.573C84.8863 104.573 85.1122 104.498 85.338 104.573L86.0909 104.724L86.6179 104.799L88.8013 105.326C91.6622 105.928 94.5984 106.606 97.384 107.283C103.031 108.714 108.602 110.069 114.022 111.424C116.733 112.026 119.368 112.855 121.928 113.457C124.563 114.135 127.047 114.812 129.456 115.565C131.941 116.243 134.275 116.92 136.609 117.598C137.06 117.748 136.759 117.598 136.834 117.673L136.91 117.748L137.136 117.824C137.286 117.824 137.361 117.899 137.587 117.974C138.039 118.275 138.566 118.501 138.867 118.802C139.168 119.103 139.469 119.405 139.695 119.781L140.072 120.308C140.147 120.534 140.298 120.684 140.373 120.91C140.749 121.739 140.825 122.567 140.825 123.47C140.825 123.922 140.749 124.298 140.599 124.75C140.524 125.126 140.448 125.352 140.373 125.578C139.018 129.794 137.587 133.634 136.383 137.097C135.78 138.753 135.178 140.41 134.726 141.915C134.275 143.421 133.823 144.776 133.371 145.981C132.543 148.465 132.091 150.423 131.64 151.778L131.338 153.886ZM130.962 153.811C130.962 153.66 131.188 152.983 131.489 151.778C131.79 150.423 132.393 148.465 132.844 145.906C133.145 144.701 133.447 143.195 133.748 141.69C134.049 140.184 134.425 138.452 134.726 136.645C135.404 133.107 136.157 129.041 137.06 124.675C137.136 124.449 137.211 124.072 137.211 123.922C137.211 123.771 137.211 123.621 137.211 123.47C137.211 123.169 137.06 122.868 136.985 122.642L136.91 122.416C136.834 122.341 136.834 122.341 136.759 122.266C136.684 122.19 136.533 122.04 136.458 121.964C136.383 121.889 136.307 121.964 136.307 121.814C136.232 121.739 136.082 121.739 135.856 121.663L135.63 121.588L135.555 121.513C135.63 121.588 135.329 121.437 135.705 121.513C133.371 120.986 130.962 120.383 128.478 119.706C125.993 119.028 123.433 118.426 120.874 117.673C118.239 116.995 115.679 116.243 112.968 115.49C107.623 113.909 102.127 112.328 96.4805 110.747C93.6949 109.918 90.834 109.015 88.0484 108.187L85.8651 107.509L85.338 107.283C85.1875 107.283 85.1122 107.208 84.9616 107.208C84.8863 107.133 84.7357 107.133 84.5852 107.133C84.4346 107.133 84.3593 107.058 84.284 107.133C83.8323 107.133 83.3053 107.359 82.9289 107.735C82.7783 107.886 82.5524 108.112 82.4771 108.187L82.4018 108.262C82.3266 108.337 82.3266 108.488 82.3266 108.488L82.1007 109.015C81.2725 111.801 80.3691 114.662 79.4657 117.372C78.6375 120.157 77.8093 123.094 77.0565 125.804C76.68 127.234 76.3036 128.665 76.0024 130.02C75.626 131.451 75.3249 132.806 74.9484 134.236C74.6473 135.591 74.2708 137.022 74.045 138.302C73.9697 138.829 74.045 139.356 74.2708 139.883C74.4967 140.41 74.7978 140.711 75.2496 141.012C75.7013 141.464 77.4329 141.69 78.7881 141.991C80.1432 142.292 81.4231 142.518 82.7783 142.819C85.4133 143.346 87.9731 143.948 90.4576 144.626C95.4265 145.83 100.019 147.11 104.31 148.541C108.526 149.896 112.441 151.251 115.905 152.456C117.561 153.058 119.217 153.66 120.723 154.112C122.229 154.564 123.584 155.015 124.864 155.392C125.466 155.542 126.144 155.768 126.595 155.919C127.198 156.069 127.574 156.145 128.101 156.069C129.08 155.994 129.833 155.542 130.284 155.091C130.811 154.564 130.887 153.736 130.962 153.811Z" fill="white"/>
<path d="M89.9306 107.509C89.9306 107.509 90.2317 105.251 91.0599 101.411C91.4363 99.5288 91.888 97.1196 92.4903 94.4093C93.0926 91.6989 93.6949 88.6874 94.4478 85.3748C95.2007 82.0622 96.0288 78.5237 97.0828 74.7593C97.9863 70.9949 99.0403 67.08 100.17 62.9392C100.471 61.8852 100.697 60.9065 100.998 59.8524L101.073 59.6266L101.073 59.476L101.148 59.4007C101.224 59.3254 101.299 58.949 101.449 58.7984C101.675 58.422 101.901 58.0456 102.202 57.7444C102.805 57.1421 103.633 56.7657 104.536 56.6151C104.913 56.5398 105.364 56.5398 105.741 56.6151C106.117 56.6904 106.569 56.841 106.795 56.9162L108.301 57.5186C109.355 57.9703 110.333 58.3467 111.463 58.7231C115.679 60.2289 120.045 61.1323 124.563 61.8852C126.746 62.2616 129.005 62.5628 131.263 63.0145C133.522 63.4662 135.63 63.918 137.813 64.445C138.942 64.6708 139.997 64.972 141.051 65.1226L142.632 65.499L142.857 65.5743L143.159 65.7249C143.159 65.7249 143.61 65.8754 143.836 65.9507C144.363 66.1766 144.664 66.4777 145.116 66.7789C145.794 67.4565 146.396 68.3599 146.546 69.2633C146.697 69.7151 146.697 70.1668 146.697 70.7691C146.622 70.9949 146.622 71.2961 146.622 71.4467L146.547 71.8231L146.471 72.049C146.17 73.103 145.869 74.157 145.643 75.1357C144.438 79.2012 143.384 83.1162 142.255 86.8053C141.126 90.4943 139.997 94.0328 139.018 97.2702C136.985 103.67 135.178 109.09 133.974 112.855C132.694 116.544 131.865 118.727 131.865 118.727L131.489 118.652C131.489 118.652 131.866 116.468 132.618 112.553C133.371 108.639 134.501 103.143 136.006 96.5173C136.759 93.2047 137.587 89.6662 138.491 85.9018C139.394 82.1375 140.373 78.1472 141.427 74.0817C141.728 73.0277 141.954 72.049 142.255 70.9949L142.33 70.7691C142.33 70.7691 142.33 70.7691 142.406 70.6938L142.406 70.5432C142.33 70.4679 142.33 70.3174 142.255 70.2421L142.18 70.1668C142.18 70.1668 142.33 70.1668 142.105 70.0915L142.029 70.0162C142.029 70.0162 141.879 70.0162 142.105 70.0915L140.298 69.4892C139.244 69.1881 138.19 68.8869 137.06 68.5105C134.877 67.8329 132.844 67.1553 130.661 66.4777C128.553 65.7248 126.445 64.972 124.261 64.1438C120.045 62.4875 115.679 61.1323 111.387 60.3042C110.258 60.0783 109.204 59.9277 108.15 59.7772L106.569 59.5513C106.193 59.476 106.193 59.476 106.042 59.476C105.891 59.476 105.816 59.5513 105.666 59.5513C105.44 59.6266 105.289 59.7772 105.214 60.003C105.139 60.0783 105.139 60.2289 105.063 60.3042C105.063 60.3042 105.139 60.2289 105.063 60.4547L104.612 60.9065C104.31 61.9605 104.085 62.9392 103.859 64.0685C102.805 68.134 101.675 72.1243 100.697 75.8133C99.6426 79.5777 98.5886 83.0409 97.6098 86.2782C96.6311 89.5156 95.7277 92.5271 94.8242 95.0868C93.9961 97.7219 93.2432 99.9805 92.5656 101.863C91.2857 105.552 90.4576 107.735 90.4576 107.735L89.9306 107.509Z" fill="white"/>
<path d="M33.2397 239.036C33.2397 239.036 33.315 239.111 33.4656 239.111C33.6161 239.262 33.842 239.337 34.1432 239.337C34.6702 239.563 35.5736 239.864 36.6276 240.316C37.6816 240.767 39.1121 241.144 40.5426 241.671C42.1236 242.198 43.8552 242.725 45.6621 243.478C47.5443 244.155 49.6523 244.758 51.7603 245.661C52.8144 246.113 53.8684 246.565 54.9977 247.092C56.127 247.619 57.2563 248.146 58.3856 248.673C59.5149 249.2 60.6442 249.727 61.9241 250.254C63.1287 250.705 64.4086 251.082 65.6885 251.458C68.2482 252.211 70.8833 252.738 73.5183 253.115C76.1534 253.491 78.8637 253.792 81.4235 254.394C84.0585 254.921 86.543 255.298 89.0275 255.825C91.4367 256.277 93.7706 256.804 96.0292 257.255C97.1585 257.481 98.2125 257.782 99.2665 257.933C100.321 258.234 101.299 258.46 102.353 258.611C103.332 258.836 104.235 258.987 105.139 259.288C106.042 259.439 106.871 259.665 107.623 259.815C109.204 260.041 110.56 260.493 111.764 260.643C112.366 260.794 112.818 260.794 113.27 260.944C113.722 260.944 114.098 261.02 114.399 261.17C114.7 261.17 114.926 261.246 115.077 261.246C115.227 261.246 115.303 261.321 115.303 261.321L115.378 261.697C115.378 261.697 115.303 261.773 115.152 261.773C115.002 261.773 114.776 261.848 114.399 261.923C114.023 261.998 113.646 262.074 113.27 262.149C112.743 262.224 112.291 262.224 111.689 262.375C110.484 262.525 109.054 262.601 107.398 262.601C105.666 262.676 103.859 262.525 101.826 262.45C99.7936 262.375 97.6102 261.998 95.2763 261.773C93.0177 261.471 90.5332 260.944 88.0487 260.267C85.6396 259.665 83.0045 258.987 80.52 258.159C77.9603 257.406 75.4758 256.427 72.916 255.524C70.3563 254.47 67.8718 253.491 65.312 252.889C64.0322 252.512 62.7523 252.136 61.4724 251.91C60.2678 251.609 58.9126 251.308 57.708 251.157C56.4281 250.931 55.2236 250.63 54.019 250.48C53.4167 250.329 52.8144 250.178 52.2874 250.103C51.6851 249.953 51.158 249.727 50.5557 249.576C49.4264 249.2 48.3724 248.898 47.3184 248.447C46.3397 248.07 45.3609 247.694 44.3822 247.167C42.5753 246.263 40.8437 245.435 39.4133 244.607C38.6604 244.155 37.9828 243.779 37.4558 243.403C37.1546 243.252 36.9288 243.026 36.5523 242.8C36.2512 242.65 36.0253 242.424 35.7995 242.198C35.2725 241.52 34.896 241.144 34.5196 240.918C34.2184 240.617 33.9173 240.316 33.6914 240.09C33.2397 239.638 33.0891 239.337 33.0891 239.337L33.2397 239.036Z" fill="white"/>
<path d="M51.8365 169.546C51.8365 169.546 52.2129 169.621 52.8152 169.772C53.4175 169.922 54.3209 170.223 55.4502 170.449C56.5795 170.675 57.9347 171.127 59.4404 171.579C60.9462 172.03 62.8284 172.407 64.6353 173.009C66.5174 173.536 68.5502 174.214 70.7335 175.042C71.7875 175.493 72.8416 175.945 73.9709 176.322C75.1002 176.849 76.2295 177.225 77.3588 177.752C79.6927 178.731 82.1019 179.634 84.5864 180.312C87.0708 180.989 89.7812 181.592 92.3409 182.043C94.976 182.42 97.6863 182.721 100.246 183.323C102.806 183.775 105.366 184.377 107.775 184.829C110.259 185.356 112.518 185.958 114.777 186.41C116.96 186.937 118.993 187.464 120.95 187.916C121.929 188.142 122.832 188.443 123.66 188.669C124.489 188.895 125.392 189.196 126.145 189.346C127.726 189.723 129.006 190.099 130.21 190.4C130.813 190.551 131.264 190.701 131.716 190.852C132.168 191.003 132.544 191.078 132.845 191.078C133.448 191.228 133.824 191.304 133.824 191.304V191.756C133.824 191.756 133.448 191.831 132.845 191.831C132.544 191.831 132.168 191.906 131.641 191.981C131.189 191.981 130.662 192.057 130.06 192.057C128.855 192.057 127.425 192.132 125.768 191.981C124.112 191.981 122.305 191.68 120.272 191.454C118.24 191.229 116.132 190.927 113.798 190.551C111.464 190.174 109.205 189.572 106.721 188.895C104.312 188.142 101.827 187.464 99.2673 186.711C96.7076 185.958 94.2231 184.98 91.6634 184.076C89.1036 183.022 86.6944 182.119 84.1346 181.366C81.6502 180.538 79.0904 180.086 76.6059 179.71C75.326 179.484 74.1214 179.333 72.9168 179.183C72.3146 179.032 71.7875 178.957 71.11 178.881C70.5077 178.731 69.9054 178.58 69.4536 178.43C67.2703 177.752 65.1623 176.999 63.3554 176.246C61.4732 175.418 59.8169 174.816 58.3111 174.063C56.8054 173.31 55.6008 172.557 54.5468 171.955C53.4928 171.353 52.8152 170.826 52.2882 170.449C51.7612 170.073 51.5353 169.847 51.5353 169.847L51.8365 169.546Z" fill="white"/>
<path d="M93.4679 108.488C93.4679 108.488 93.242 107.509 93.242 105.853C93.1667 105.025 93.242 104.046 93.4679 102.917C93.6184 101.863 93.8443 100.583 94.2207 99.3028C94.2207 99.1523 94.3713 99.0017 94.3713 98.8511C94.4466 98.6253 94.5219 98.3994 94.5972 98.3241L94.823 97.9477C94.8983 97.7218 94.9736 97.6465 95.1242 97.496C95.2748 97.1948 95.5006 96.9689 95.7265 96.7431C96.7052 95.9149 98.1357 95.5385 99.265 95.9149L99.4908 95.9902L99.6414 95.9902L99.9426 96.1408L100.47 96.3667C100.846 96.5925 101.222 96.6678 101.599 96.8937C102.352 97.1948 103.18 97.5712 103.933 97.8724C107.17 99.0017 110.709 99.8299 114.398 100.206C116.205 100.507 118.087 100.733 119.818 100.959C121.625 101.26 123.282 101.712 125.013 102.088C125.841 102.314 126.67 102.39 127.498 102.615C127.874 102.691 128.326 102.841 128.702 102.917L129.305 103.067L129.53 103.142L129.907 103.218C131.488 103.745 132.542 104.949 132.918 106.38C133.144 107.057 133.144 107.81 132.918 108.488L132.843 108.714V108.864L132.617 109.542C132.165 110.897 131.638 112.026 131.187 113.08C130.735 114.134 130.208 114.963 129.832 115.64C129.003 117.071 128.401 117.823 128.401 117.823L128.025 117.748C128.025 117.748 127.799 116.769 127.799 115.113C127.724 114.285 127.799 113.306 127.874 112.177C127.949 111.048 128.1 109.843 128.326 108.413L128.401 107.886L128.476 107.66V107.509C126.971 107.057 125.465 106.606 123.884 106.079C122.303 105.552 120.571 105.025 118.915 104.422C117.259 103.82 115.527 103.142 113.795 102.465C110.407 101.034 106.869 99.9051 103.556 99.3028C102.653 99.1523 101.825 99.077 101.072 98.9264C100.695 98.8511 100.244 98.8511 99.8673 98.7758H98.8133C98.5121 98.7758 98.2862 99.0017 98.211 99.2276C98.211 99.2276 98.1357 99.3028 98.211 99.3781L98.211 99.5287L98.1357 99.604C98.1357 99.604 98.0604 99.6793 98.211 99.5287L98.211 99.6793L98.1357 99.9051C98.1357 100.056 98.0604 100.282 98.0604 100.432C97.7592 101.787 97.3075 102.992 96.9311 103.971C96.4794 105.025 96.0276 105.928 95.6512 106.606C94.823 108.036 94.0702 108.789 94.0702 108.789L93.4679 108.488Z" fill="white"/>
<path d="M98.9664 97.7218C98.9664 97.7218 99.0417 96.2914 99.4181 93.8069C99.5687 92.6023 99.8699 91.0966 100.171 89.4402C100.472 87.7839 100.849 85.9017 101.3 83.7937C101.677 81.761 102.279 79.5024 102.806 77.1684C103.107 75.9639 103.408 74.7593 103.71 73.5547C103.86 72.9524 104.011 72.3501 104.237 71.6725L104.764 70.0915V69.7903L104.839 69.715C105.291 68.5104 106.345 67.607 107.549 67.4564C108.151 67.3058 108.754 67.4564 109.281 67.5317C109.732 67.6823 109.883 67.8328 110.259 67.9081C111.464 68.5104 112.744 69.0374 114.099 69.4892C116.659 70.3926 119.445 70.9196 122.305 71.2208C123.661 71.3713 125.166 71.5219 126.446 71.7478C127.877 71.9736 129.232 72.2748 130.512 72.5006C131.867 72.8018 133.222 73.1029 134.502 73.3288L135.029 73.4041L135.255 73.4794H135.405L135.631 73.5547L135.782 73.5547L136.083 73.7052C136.309 73.7805 136.459 73.9311 136.61 73.9311C136.911 74.0817 137.212 74.3828 137.438 74.6087C138.417 75.5874 138.944 77.1684 138.492 78.5236C138.266 79.2012 138.116 79.8035 137.89 80.4811C137.739 81.0834 137.513 81.761 137.288 82.288C136.986 83.4926 136.535 84.6972 136.158 85.8265C135.481 88.1604 134.728 90.2684 134.05 92.3012C132.695 96.2161 131.49 99.5287 130.512 101.863C129.608 104.121 129.006 105.476 129.006 105.476L128.63 105.401C128.63 105.401 128.78 104.046 129.157 101.561C129.458 99.1523 130.06 95.6891 130.888 91.5483C131.265 89.5155 131.716 87.2569 132.243 84.923C132.544 83.7184 132.77 82.5891 132.996 81.3092C133.297 80.1046 133.599 78.9 133.9 77.6954C133.824 77.7707 133.9 77.846 133.975 77.9213C133.975 77.9213 133.975 77.9213 134.05 77.9966L134.126 78.0719L133.975 78.0719L133.147 77.846C131.867 77.4696 130.512 77.0179 129.307 76.5661C127.952 76.1144 126.672 75.738 125.392 75.211C124.112 74.684 122.832 74.157 121.477 73.5547C118.842 72.4254 116.282 71.5219 113.572 70.9196C112.217 70.6185 110.862 70.4679 109.431 70.3926C109.13 70.3926 108.754 70.3173 108.453 70.3173C108.302 70.3173 108.227 70.3926 108.151 70.4679C108.001 70.6185 108.001 70.769 108.076 70.8443C108.076 70.6938 108.076 70.8443 108.151 70.769L108.151 70.9196L107.926 71.5972L107.7 72.5759C107.549 73.1782 107.399 73.7805 107.248 74.3828C106.947 75.5874 106.646 76.792 106.269 77.9213C105.592 80.2552 104.914 82.4385 104.312 84.396C103.634 86.4288 103.032 88.2357 102.505 89.8167C101.903 91.473 101.376 92.7529 100.924 93.9575C100.02 96.2161 99.4181 97.5713 99.4181 97.5713L98.9664 97.7218Z" fill="white"/>
<path d="M122.983 84.2454C122.983 84.2454 122.907 84.3207 122.907 84.4713C122.832 84.6971 122.832 84.8477 122.681 85.2994C122.606 85.5253 122.606 85.6759 122.456 85.977C122.38 86.2029 122.23 86.504 122.154 86.7299C122.004 87.031 121.853 87.3322 121.627 87.558C121.402 87.7839 121.1 88.0851 120.799 88.3862C120.046 88.8379 119.068 89.0638 118.164 88.7626L117.788 88.6873L117.336 88.5368C117.186 88.3862 117.11 88.3109 116.96 88.1603L116.433 87.6333C116.207 87.4075 116.056 87.2569 115.906 86.9557C115.379 86.1276 115.153 85.2994 114.776 84.4713C114.626 84.0195 114.55 83.6431 114.4 83.1914C114.325 82.9655 114.249 82.7397 114.249 82.4385L114.174 82.0621V81.7609C114.174 81.7609 114.099 81.8362 114.174 81.6104C114.174 81.1586 114.099 80.9328 114.325 80.2552C114.55 79.5776 114.852 79.1259 115.228 78.7495C116.056 77.9213 116.96 77.319 118.089 77.0931C119.218 76.8673 120.348 76.9425 121.251 77.3943C121.477 77.4696 122.004 77.846 122.531 78.2224C122.907 78.5989 123.133 78.9753 123.359 79.3517C123.51 79.8035 123.585 80.1799 123.66 80.5563C123.66 81.0081 123.66 81.3092 123.66 81.6104C123.66 81.9115 123.51 82.2127 123.51 82.5138C123.434 82.7397 123.359 82.9655 123.359 83.1161C123.284 83.4925 123.133 83.7937 123.133 83.9443C122.983 84.0948 122.983 84.2454 122.983 84.2454ZM122.531 84.0948C122.531 84.0948 122.531 83.9443 122.531 83.7937C122.531 83.6431 122.606 83.4172 122.456 83.1161C122.456 82.9655 122.305 82.815 122.154 82.6644C122.004 82.5138 121.853 82.3632 121.703 82.2127C121.552 82.0621 121.326 81.9868 121.1 81.9115C120.875 81.8362 120.649 81.7609 120.498 81.7609C120.348 81.7609 120.122 81.6856 119.971 81.6856C119.896 81.7609 119.971 81.6856 119.519 81.5351C119.143 81.4598 118.992 81.4598 118.616 81.3845C118.315 81.3845 117.863 81.3845 117.562 81.5351C117.411 81.6856 117.11 81.6857 117.035 81.7609C116.809 81.6857 116.508 82.1374 116.207 82.4385C116.282 82.2127 116.207 82.2879 116.207 82.2879L115.906 82.5891C115.755 82.7397 115.755 82.8902 115.755 83.0408C115.604 83.342 115.68 83.7184 115.755 83.9443C115.906 84.5465 116.508 84.9983 117.11 84.9983C117.261 84.9983 117.411 84.9983 117.487 84.923L117.637 84.923C117.637 84.923 117.788 84.923 117.938 84.923C118.089 84.923 118.24 84.923 118.465 84.9983C118.465 84.9983 118.164 84.8477 118.315 84.9983L118.39 84.923L118.541 84.923C118.917 84.8477 119.143 84.923 119.519 84.9983C119.67 84.9983 119.896 85.0736 120.122 85.1489C120.272 85.1489 120.573 85.1488 120.799 85.2241C121.025 85.1488 121.176 85.1489 121.402 85.0736C121.627 84.9983 121.703 84.923 121.853 84.7724C122.154 84.6218 122.23 84.2454 122.305 84.1701C122.456 84.1701 122.531 84.0948 122.531 84.0948Z" fill="white"/>
</svg>
