<svg width="272" height="277" viewBox="0 0 272 277" fill="none" xmlns="http://www.w3.org/2000/svg">
<g clip-path="url(#clip0_300_60095)">
<path d="M246.969 188.416C244.488 185.779 244.488 185.779 236.396 185.348C236.665 184.81 237.043 184.38 237.043 183.895C237.097 183.196 236.881 182.442 236.719 181.689C236.018 181.85 234.993 181.743 234.615 182.173C233.105 183.788 231.702 185.564 230.354 187.34C228.951 189.169 227.602 191.107 226.2 192.99C225.93 193.313 225.606 193.636 224.743 193.69C225.283 192.183 225.876 190.73 226.361 189.223C227.44 186.102 228.735 182.98 227.656 179.536C226.847 176.953 225.498 174.854 223.233 173.562C220.643 179.052 219.133 184.595 220.751 190.838C216.975 182.98 210.879 179.805 202.841 181.904C194.641 184.057 191.512 190.084 192.537 198.426C192.267 198.48 191.997 198.588 191.728 198.641C190.649 196.919 189.516 195.197 188.545 193.421C187.52 191.484 186.279 190.73 184.067 192.022C184.121 192.883 184.175 193.852 184.229 195.089C180.399 194.659 176.892 195.251 174.195 198.211C177.27 201.978 177.432 202.032 181.909 200.74C185.416 199.718 188.329 201.009 191.728 202.893C189.624 203.162 188.113 203.27 186.657 203.593C182.017 204.561 178.996 207.414 177.701 211.934C176.73 215.11 178.403 218.554 181.154 219.092C182.071 219.307 183.528 219.146 184.067 218.554C184.714 217.854 184.607 216.455 184.768 215.379C184.768 215.325 184.714 215.217 184.661 215.11C183.797 213.226 182.017 211.235 184.121 209.243C186.549 206.983 189.57 206.553 192.699 207.629C197.554 209.297 200.035 215.11 198.093 220.33C195.989 225.981 191.889 229.694 186.387 231.901C169.232 238.789 144.632 230.34 143.391 204.131C142.798 191.43 147.491 180.612 157.148 172.163C165.132 165.221 174.519 164.467 184.553 165.974C190.379 166.835 196.367 167.696 202.193 167.373C208.883 167.05 211.418 162.53 209.584 155.964C209.098 154.349 208.559 152.735 207.966 151.12C207.156 148.914 207.858 147.568 209.962 146.653C214.871 144.555 215.194 142.079 211.418 138.796C212.875 136.912 214.385 135.136 215.626 133.145C216.705 131.531 216.112 130.4 214.169 129.701C211.148 128.624 210.663 124.588 213.252 122.651C214.331 121.843 215.626 121.359 216.759 120.606C218 119.745 219.294 118.883 220.265 117.753C222.261 115.439 222.154 114.309 219.564 112.533C213.9 108.604 209.26 103.653 205.43 97.8945C202.463 93.3738 201.492 88.6379 202.463 83.3099C203.65 77.0132 202.679 70.8242 200.575 64.7966C192.267 40.9015 177.324 23.034 153.102 14.1541C119.493 1.88364 84.9668 15.661 67.9735 47.5749C60.5828 61.4599 56.6447 76.3136 54.3249 91.7593C51.0881 113.071 50.8184 134.491 52.275 155.91C53.5157 174.262 57.1302 192.076 64.5748 209.082C74.0155 230.824 89.4443 246.808 110.645 257.249C116.741 260.263 122.945 263.061 129.797 266.344C128.286 266.452 127.369 266.613 126.506 266.613C98.1298 265.322 72.4511 256.549 49.9013 239.166C29.941 223.828 16.6161 203.754 8.30828 180.182C1.56493 160.807 -1.51004 140.68 0.701777 120.067C4.85568 81.9106 21.6871 50.4273 52.4908 26.8551C70.6169 13.0239 90.9548 4.1978 113.666 1.184C140.478 -2.31415 166.049 1.99127 189.785 15.0152C225.229 34.4434 248.264 63.6126 257.327 103.169C264.016 132.338 261.535 160.7 249.289 188.093C248.264 190.461 246.807 192.668 245.297 194.766C244.811 195.466 243.732 196.112 242.923 196.112C238.23 196.22 233.59 196.166 228.897 196.166C231.217 193.098 234.561 191.699 238.499 191.699C241.844 191.753 244.595 190.623 246.969 188.416ZM241.305 165.49C240.226 166.512 239.471 167.373 238.553 168.019C237.528 168.719 236.342 169.203 235.317 169.903C233.375 171.248 232.673 173.993 233.482 176.415C234.184 178.46 235.586 179.159 237.636 178.998C240.28 178.783 241.898 177.33 242.492 174.746C242.653 174.154 242.707 173.508 242.599 172.916C242.222 170.495 241.79 168.181 241.305 165.49ZM182.718 177.114C182.125 179.913 181.424 182.227 181.208 184.541C180.938 187.393 183.258 189.654 185.901 189.6C188.275 189.546 189.947 187.34 189.462 184.38C189.246 183.088 188.491 181.689 187.574 180.774C186.333 179.428 184.661 178.514 182.718 177.114Z" fill="white"/>
<path d="M88.4184 224.259C89.6591 224.958 90.846 225.658 92.0867 226.357C117.334 241.319 143.552 254.235 172.036 261.985C186.008 265.806 200.196 267.69 214.708 266.506C224.257 265.752 233.266 263.33 241.142 257.518C250.96 250.253 255.384 237.874 252.039 227.111C249.018 217.585 241.358 211.558 232.295 211.719C226.253 211.827 221.613 214.571 218.268 219.523C215.571 223.559 213.09 227.703 210.554 231.847C206.238 238.897 201.275 245.301 193.83 249.338C182.879 255.365 171.281 255.581 159.574 252.244C154.072 250.683 148.623 248.692 143.444 246.216C125.426 237.713 107.516 228.887 90.6841 218.177C77.8987 210.051 69.9146 198.426 67.8646 183.303C66.0844 170.01 69.8606 158.278 79.3553 148.591C80.5961 147.299 81.729 145.2 84.2105 146.277C83.5631 147.784 83.1855 149.56 82.1605 150.797C77.0895 157.04 73.1514 163.714 72.2883 171.894C70.6159 187.985 77.8448 201.548 92.3025 208.921C96.4564 211.019 100.826 212.688 105.196 214.302C117.873 218.984 130.011 224.689 140.747 233.139C143.93 235.668 147.274 237.874 150.673 240.027C165.94 249.714 184.066 247.508 196.258 234.215C200.358 229.748 203.487 224.366 207.371 219.738C211.04 215.325 214.6 210.697 219.078 207.252C237.743 192.937 264.393 201.171 270.543 223.021C274.319 236.421 270.327 248.1 260.886 257.841C250.798 268.282 237.851 273.502 223.663 275.655C202.03 278.937 181.045 275.601 160.33 269.466C143.93 264.568 128.123 258.218 113.45 249.338C103.685 243.418 95.8091 235.56 88.742 226.788C88.3105 226.25 88.0947 225.496 87.7171 224.851C87.9868 224.689 88.2026 224.474 88.4184 224.259ZM240.387 206.014C243.3 207.36 247.723 208.651 251.23 211.235C263.907 220.545 265.58 238.628 255.384 251.652C251.068 257.141 245.781 261.447 239.362 264.676C239.793 264.783 239.955 264.891 240.117 264.837C256.679 259.563 265.418 246.97 264.393 229.748C263.638 216.724 252.147 205.961 240.387 206.014Z" fill="white"/>
<path d="M114.098 86.8619C110.969 92.3513 106.761 96.9258 100.396 98.6479C94.893 100.155 89.1207 100.801 83.5102 101.931C81.4063 102.361 79.2484 102.846 77.3064 103.599C67.1643 107.636 64.521 119.368 71.8038 127.44C77.3064 133.576 84.5892 135.298 92.3575 134.813C106.599 134.006 117.335 126.848 125.049 115.224C128.664 109.788 131.469 103.868 134.382 98.0021C138.212 90.1986 143.014 83.1484 149.433 77.1747C153.587 73.3536 157.687 69.4249 161.625 65.3886C168.045 58.6614 172.63 51.0192 172.684 41.332C172.684 40.5786 173.332 39.8251 173.655 39.0717C174.357 39.7713 175.598 40.5248 175.598 41.1706C175.436 45.3145 175.705 49.6738 174.411 53.5487C173.062 57.6926 170.526 61.5675 167.991 65.1733C165.671 68.4562 162.812 71.3623 159.899 74.1609C151.483 82.2335 145.118 91.7055 140.316 102.254C136.486 110.703 132.386 118.991 125.481 125.449C112.803 137.343 98.0759 142.509 80.7589 138.365C77.7919 137.666 74.8248 136.267 72.1814 134.544C65.1683 130.024 61.2841 123.512 62.2012 115.062C63.1183 106.613 68.0814 100.747 76.0116 98.1098C80.8668 96.4952 86.1536 96.0647 91.3325 95.3651C98.6154 94.3963 105.359 92.2975 111.023 87.5077C111.778 86.8619 112.803 86.5928 113.667 86.1622C113.828 86.4313 113.99 86.6466 114.098 86.8619Z" fill="white"/>
<path d="M108.758 199.449C115.771 199.395 121.975 197.942 127.585 194.282C128.34 193.798 129.581 194.013 130.606 193.959C130.121 194.928 129.959 196.22 129.203 196.812C124.402 200.794 118.63 202.409 112.534 203.054C95.7024 204.83 81.6223 194.444 78.6552 178.298C75.85 162.637 87.8262 146.492 103.687 144.393C110.754 143.478 117.281 144.608 123.269 148.483C136.27 156.879 137.619 176.146 125.751 185.671C119.547 190.622 112.534 191.484 105.197 188.524C98.8853 185.994 95.2708 180.236 95.3787 173.508C95.4866 166.62 98.7774 161.346 104.388 159.193C108.326 157.686 112.156 157.686 115.555 160.538C117.389 162.045 118.414 164.037 117.929 166.458C117.551 168.557 115.231 169.634 113.936 168.127C111.779 165.705 109.405 165.382 106.708 166.674C103.525 168.18 101.744 170.818 101.475 174.262C100.881 181.527 108.38 186.963 116.202 185.025C127.099 182.335 132.332 169.203 126.56 159.085C121.273 149.829 109.836 146.223 98.7234 150.69C89.1748 154.511 84.2657 162.099 83.2946 172.002C82.2157 182.604 87.2328 190.461 96.0261 196.058C100.018 198.588 104.388 199.772 108.758 199.449Z" fill="white"/>
<path d="M167.18 31.2681C167.612 32.3983 168.259 33.5285 168.367 34.7124C169.015 42.3008 167.019 49.2971 162.325 55.1094C158.063 60.3835 153.208 65.1733 148.191 69.8016C140.369 76.9594 131.953 83.4713 126.289 92.6204C123.376 97.3563 121.056 102.415 118.089 107.097C115.391 111.403 112.64 115.762 109.188 119.475C104.171 124.857 97.4811 127.01 90.1443 126.633C89.1733 126.579 88.2023 125.718 87.2852 125.234C88.0944 124.534 88.7417 123.512 89.6588 123.135C92.2483 122.166 95.0535 121.682 97.589 120.552C102.822 118.184 106.652 114.094 109.134 108.927C111.615 103.761 113.989 98.5403 116.255 93.2662C120.894 82.5564 128.069 73.9456 137.132 66.6802C143.174 61.8904 149 56.8315 154.719 51.6112C160.275 46.5524 164.267 40.4709 165.778 32.9903C165.886 32.5059 166.155 32.0216 166.317 31.5372C166.533 31.4296 166.857 31.3757 167.18 31.2681Z" fill="white"/>
<path d="M144.253 17.8137C144.738 18.89 145.763 20.074 145.602 21.0966C145.116 24.1103 144.253 27.1241 143.336 30.0841C142.796 31.8063 141.825 33.4208 141.016 35.0354C141.232 35.2506 141.448 35.4121 141.663 35.6273C143.929 33.5823 146.249 31.591 148.461 29.4383C149.755 28.2005 150.673 26.586 151.913 25.3482C152.345 24.9176 153.532 24.5947 153.963 24.8638C154.449 25.1867 154.557 26.2092 154.557 26.9627C154.503 27.6623 154.179 28.3619 153.801 28.9539C147.004 40.5248 137.186 47.9516 123.591 49.2971C120.3 49.62 116.578 48.7589 113.395 47.4673C105.411 44.2382 101.851 34.8201 105.249 27.0703C108.594 19.4282 118.412 15.2304 126.019 18.2442C129.525 19.6435 132.169 21.9576 132.439 25.7787C132.546 27.5547 131.467 29.5998 130.496 31.2681C130.227 31.8063 128.393 31.9677 127.637 31.591C126.882 31.2143 126.019 29.815 126.181 29.0616C126.774 26.586 126.396 24.8638 123.969 23.7336C121.11 22.442 118.412 22.4958 115.877 24.4333C113.126 26.586 111.507 30.6223 112.532 33.4746C113.881 37.2419 116.686 39.5022 120.678 40.0404C125.425 40.6862 129.525 39.1255 133.086 36.0579C137.456 32.3445 140.261 27.6085 141.933 22.1729C142.365 20.8275 142.796 19.482 143.228 18.1366C143.552 17.9751 143.875 17.8675 144.253 17.8137Z" fill="white"/>
<path d="M154.827 39.3408C154.504 40.3633 154.504 41.6011 153.91 42.3546C150.835 46.2833 147.976 50.5349 144.308 53.7639C135.353 61.729 125.912 69.2096 116.687 76.9056C107.678 84.4401 97.6978 89.4451 85.6676 89.3913C78.3308 89.3375 71.4796 87.4538 64.952 84.2248C63.4415 83.4713 61.8231 82.2873 62.7942 80.5652C63.4415 79.435 65.2757 78.3048 66.5165 78.3587C69.6994 78.4663 72.8822 79.2736 76.0651 79.8117C88.9044 82.0183 100.449 78.8968 111.023 71.6314C121.057 64.6889 131.145 57.8541 141.017 50.6425C145.71 47.252 149.864 43.108 154.288 39.3408C154.45 39.3408 154.666 39.3408 154.827 39.3408Z" fill="white"/>
<path d="M214.385 203.377C209.853 196.22 201.707 197.35 199.441 204.723C195.234 199.987 194.964 192.614 198.848 188.308C202.462 184.326 208.181 183.572 212.497 186.532C217.514 189.977 218.269 196.381 214.385 203.377Z" fill="white"/>
<path d="M86.4773 73.6227C84.5891 74.7529 83.4023 73.8918 82.3234 72.4925C79.3563 68.7253 80.1116 62.5901 84.1036 58.8766C87.5023 55.7014 91.6022 54.8941 96.0798 55.7552C101.097 56.6701 106.114 57.585 111.185 58.3384C112.642 58.5537 114.206 58.3923 115.716 58.3923C115.77 58.4999 115.932 58.7152 115.878 58.8228C111.778 63.9893 106.815 67.918 100.072 69.0482C99.2627 69.1558 98.3995 68.7253 97.5903 68.5638C97.8061 67.8104 97.914 66.9493 98.2916 66.3035C99.6403 64.2046 98.7232 62.6977 97.1048 61.4061C94.7311 59.4686 90.6312 59.361 87.9878 61.0293C85.2905 62.7515 84.2115 65.6038 85.1286 68.9944C85.5062 70.5551 85.9918 72.062 86.4773 73.6227Z" fill="white"/>
<path d="M108.109 52.1494C104.441 51.396 100.772 50.5887 97.1037 49.9967C87.1775 48.3283 78.2763 52.6876 75.471 61.2984C74.3382 64.8504 74.9316 68.9405 74.7697 73.0307C73.2053 73.4074 71.1553 72.3849 70.8316 69.6402C70.454 66.6264 70.4 63.3435 71.1553 60.3835C73.8526 50.0505 85.6131 43.7 96.834 46.1756C101.042 47.1444 104.98 48.7589 108.379 51.4498C108.217 51.665 108.163 51.9341 108.109 52.1494Z" fill="white"/>
<path d="M231.971 238.628C227.547 238.574 224.311 235.345 224.311 230.986C224.311 226.465 227.925 222.859 232.349 222.967C236.556 223.075 240.063 226.573 240.063 230.771C240.063 235.399 236.664 238.682 231.971 238.628Z" fill="white"/>
<path d="M72.8273 143.317C72.126 144.393 71.5326 145.577 70.7234 146.546C67.0011 151.013 64.8432 156.287 63.1709 161.776C62.7932 162.96 61.4446 164.951 61.1748 164.844C59.1248 164.09 60.2038 162.314 60.4196 160.969C61.3906 154.834 63.8182 149.344 68.4576 145.039C69.5366 144.07 70.8852 143.37 72.126 142.563C72.3418 142.886 72.6116 143.101 72.8273 143.317Z" fill="white"/>
<path d="M100.881 27.8776C99.7478 28.7387 98.507 29.4383 97.5899 30.4608C95.2702 32.9365 93.1123 35.5735 90.9005 38.103C90.3071 38.7488 89.7676 39.6099 88.9584 39.879C88.1492 40.2019 86.9624 40.3095 86.2611 39.879C85.7755 39.6099 85.6137 38.2644 85.7755 37.511C86.6926 33.2056 95.7018 26.8551 100.881 27.8776Z" fill="white"/>
<path d="M209.315 206.337C209.369 208.974 207.804 211.342 206.455 210.75C205.322 210.212 204.19 208.705 204.028 207.467C203.812 205.799 204.244 203.593 206.563 203.431C208.667 203.216 209.099 204.992 209.315 206.337Z" fill="white"/>
<path d="M91.1692 115.923C90.0363 116.623 88.8495 117.915 87.7166 117.861C86.7456 117.807 85.8285 116.246 84.8574 115.385C85.8285 114.417 86.6916 112.748 87.8245 112.587C88.7955 112.425 90.0363 113.878 91.1692 114.632C91.1692 115.062 91.1692 115.493 91.1692 115.923Z" fill="white"/>
<path d="M63.7105 89.6066C64.8974 91.1673 66.1921 92.1898 66.0842 92.9971C65.9224 93.9658 64.6276 94.7731 63.8184 95.6342C63.0632 94.8269 61.8224 94.0196 61.7145 93.1585C61.6066 92.2436 62.6856 91.2211 63.7105 89.6066Z" fill="white"/>
</g>
<defs>
<clipPath id="clip0_300_60095">
<rect width="272" height="277" fill="white"/>
</clipPath>
</defs>
</svg>
