<svg width="59" height="77" viewBox="0 0 59 77" fill="none" xmlns="http://www.w3.org/2000/svg">
<path d="M56.0561 75.3741C57.2161 71.8641 58.0561 68.3441 58.6061 64.6841C58.7561 63.7041 57.5761 63.1241 56.9761 63.9941C56.1161 65.2541 55.4161 66.5341 54.8161 67.8641C52.6261 61.5941 50.2861 55.3141 46.8261 49.6241C45.4261 47.3341 43.6961 44.7541 41.6561 42.4841C41.8261 42.0441 41.9761 41.5941 42.0961 41.1341C43.7461 34.8541 41.1461 28.3741 37.5161 23.3141C28.9861 11.4541 14.7461 3.47413 0.56609 0.704129C-0.00391006 0.594129 -0.243912 1.44413 0.326088 1.57413C9.82609 3.85413 18.6761 7.80413 26.3461 13.9141C33.3361 19.4841 41.1861 27.6041 41.0361 37.1841C41.0161 38.5341 40.8261 39.9041 40.4361 41.2141C38.3461 39.1541 35.9561 37.4941 33.2961 36.7841C23.2961 34.1141 21.9161 49.2341 31.8661 49.6741C35.7961 49.8441 38.9461 47.5541 40.7761 44.3541C41.1461 44.7741 41.5061 45.1941 41.8561 45.6241C47.7761 52.8641 50.8861 61.9241 53.8861 70.6341C54.1561 71.4141 55.1361 71.4641 55.5161 70.8041C55.3261 71.5341 55.1261 72.2641 54.9161 72.9841C53.4761 70.8841 51.7161 69.2341 49.4261 67.8241C48.4461 67.2141 47.5361 68.7641 48.5261 69.3741C51.1161 70.9741 52.9561 72.9141 54.4261 75.5841C54.8061 76.2941 55.8261 76.0841 56.0561 75.3741ZM26.6961 44.1641C25.7861 40.3441 27.8261 38.4541 32.8161 38.4941C34.5661 39.0741 36.1261 39.9641 37.5161 41.1641C38.2661 41.7741 38.9861 42.4541 39.6661 43.1641C39.2261 44.0541 38.6661 44.8741 37.9661 45.6041C34.9361 48.6941 28.2261 49.4741 26.6961 44.1641Z" fill="#3C164F"/>
</svg>
