<svg width="236" height="279" viewBox="0 0 236 279" fill="none" xmlns="http://www.w3.org/2000/svg">
<path opacity="0.2" fill-rule="evenodd" clip-rule="evenodd" d="M154.81 268.608C154.053 268.175 153.403 267.904 152.808 267.579C149.777 266.118 146.854 264.441 144.472 262.06C141.982 259.57 139.655 256.919 137.273 254.321C136.137 253.131 135.108 251.832 133.972 250.641C131.211 247.611 127.855 245.338 124.121 243.606C123.218 243.173 122.298 242.776 121.36 242.416C117.842 241.009 114.54 239.223 111.347 237.275C108.965 235.814 106.475 234.407 103.986 233.162C99.3307 230.835 94.4593 230.348 89.3714 231.376C83.4175 232.567 77.7342 234.569 72.4839 237.599C68.8575 239.764 65.3392 242.037 61.7128 244.31C61.2798 244.58 60.7926 244.851 60.3596 245.23C59.4395 245.987 58.5193 246.096 57.3826 245.554C54.6222 244.31 51.6994 243.769 48.7224 243.606C48.2353 243.552 47.8023 243.498 47.3151 243.444C47.261 243.444 47.2069 243.39 47.1527 243.336C47.7481 242.47 47.7481 242.47 48.56 242.091C50.8333 241.009 53.1608 240.035 55.3258 238.79C58.6276 236.788 61.8751 234.569 65.1227 232.35C66.0429 231.701 66.8007 230.727 67.6126 229.915C68.5868 228.887 69.507 227.859 70.5895 226.885C74.1077 223.692 78.3296 222.285 83.0386 222.501C86.1779 222.609 89.2631 223.313 92.2942 224.125C98.7533 225.892 105.248 225.965 111.78 224.341C113.187 223.962 114.648 223.583 116.056 223.205C120.602 221.906 124.824 219.904 129.263 218.28C129.425 218.226 129.587 218.01 129.912 217.793C129.587 217.631 129.371 217.414 129.1 217.36C126.719 216.765 124.554 215.737 122.497 214.384C122.172 214.167 121.847 213.951 121.523 213.734C116.381 210.488 110.914 209.838 105.122 211.407C100.9 212.544 97.0573 214.438 93.3767 216.657C91.4282 217.847 89.4796 219.02 87.5311 220.174C86.9357 220.553 86.2862 220.824 85.5284 220.661C80.7112 219.85 76.2187 220.878 71.9968 223.151C71.9427 223.205 71.8344 223.151 71.6179 223.151C71.672 222.826 71.672 222.555 71.8344 222.285C75.1903 216.603 77.5177 210.488 79.4662 204.21C80.7653 200.206 82.2267 196.201 83.634 192.251C84.067 190.844 84.8789 189.707 85.9073 188.733C92.9979 181.915 101.333 178.235 111.347 178.83C114.215 178.992 117.084 179.425 119.899 180.129C122.93 180.832 125.961 181.698 128.992 182.347C131.969 182.997 135 183.646 137.977 184.025C140.142 184.35 142.361 184.35 144.526 184.296C149.578 184.223 154.215 182.762 158.437 179.912C160.927 178.289 163.362 176.665 165.906 175.096C169.424 173.04 173.213 171.849 177.219 171.47C179.005 171.254 180.791 171.146 182.577 170.983C186.204 170.604 189.668 169.847 192.969 168.332C195.513 167.141 197.787 165.626 199.844 163.84C202.387 161.621 204.823 159.348 207.313 157.075C210.073 154.586 213.05 152.476 216.19 150.528C221.656 147.118 227.502 144.575 233.618 142.518C234.322 142.302 235.08 141.977 235.783 141.707C235.838 141.707 235.892 141.598 236 141.436C235.296 141.382 234.701 141.274 234.106 141.274C230.75 141.22 227.394 141.111 223.984 141.111C217.489 141.111 211.318 139.758 205.473 136.728C202.658 135.213 199.735 133.86 196.758 132.669C189.722 129.801 182.361 129.314 174.891 130.559C172.564 130.938 170.345 131.858 168.234 132.832C167.043 133.427 165.852 133.968 164.607 134.509C161.251 136.025 157.733 136.999 154.053 137.54C151.13 137.919 148.207 138.46 145.284 139.055C141.874 139.704 138.681 140.949 135.595 142.464C131.644 144.467 128.342 147.335 125.257 150.473C119.466 156.264 115.027 163.082 111.238 170.334C110.102 172.39 109.073 174.501 107.937 176.665C104.256 177.098 100.521 177.477 97.0032 178.938C93.5932 180.399 90.4539 182.347 87.1522 184.674C87.1522 183.538 87.5852 182.943 87.8559 182.347C91.6988 174.338 96.5702 166.979 102.578 160.431C105.447 157.238 108.424 154.153 111.184 150.852C113.187 148.471 115.027 145.874 116.705 143.276C120.44 137.54 125.582 133.643 131.807 131.154C135.325 129.747 138.951 128.881 142.74 128.557C145.609 128.34 148.477 128.015 151.4 127.745C152.375 127.691 153.403 127.528 154.431 127.474C159.249 126.987 163.471 125.039 167.097 121.9C171.211 118.437 175.216 114.811 179.275 111.24C180.647 110.049 182 108.859 183.335 107.668C183.551 107.506 183.714 107.235 184.039 106.856C183.606 106.694 183.335 106.532 183.118 106.532C179.113 106.207 175.108 106.261 171.211 107.181C168.234 107.884 165.203 108.263 162.171 108.48C160.385 108.642 158.599 108.913 156.813 109.183C152.591 109.887 149.073 111.943 145.879 114.757C141.766 118.437 138.356 122.658 135.704 127.691C130.345 129.26 125.203 131.425 120.711 135.537C120.765 134.942 120.711 134.618 120.765 134.347C121.956 131.1 123.092 127.853 124.391 124.714C126.069 120.71 128.721 117.463 132.077 114.757C134.387 112.917 136.75 111.131 139.168 109.4C143.66 106.099 148.099 102.798 152.104 98.9013C157.3 93.9226 161.63 88.4028 164.607 81.8007C167.801 74.9281 168.721 67.7848 167.205 60.3169C166.177 55.1218 164.607 50.1431 162.929 45.2186C161.143 39.8612 159.303 34.5579 157.625 29.2004C155.406 21.8948 154.323 14.4269 154.053 6.7966C153.944 4.52374 153.782 2.30501 153.674 0.0862683C153.024 -0.184309 152.862 0.248615 152.645 0.465077C147.882 5.98486 144.093 12.0458 141.333 18.7561C140.088 21.7866 138.789 24.8171 137.652 27.9017C135.541 33.8544 132.077 38.833 127.476 43.1622C125.203 45.2728 122.984 47.4915 120.927 49.8726C115.677 55.9876 112.321 63.0227 111.617 71.1941C111.13 76.6598 112.429 81.7466 115.027 86.5088C116.976 90.0263 119.195 93.3274 121.631 96.5202C123.525 99.0636 125.311 101.715 126.773 104.583C127.693 106.315 128.451 108.155 128.775 110.049C128.992 111.131 128.992 112.214 129.046 113.35C129.082 114.216 128.775 114.974 128.126 115.623C124.878 118.762 122.876 122.604 121.306 126.717C120.711 128.34 120.061 129.909 119.574 131.587C117.247 139.38 112.971 146.036 107.504 151.989C104.689 155.127 101.82 158.212 99.0059 161.405C92.2401 169.197 87.2063 178.072 83.2551 187.597C81.0359 192.846 79.1415 198.257 77.4636 203.723C76.0563 208.323 74.4325 212.923 72.2133 217.252C69.6152 222.447 66.4218 227.209 62.1999 231.322C59.5477 233.865 56.5166 235.976 53.2149 237.599C49.3178 239.548 45.2583 241.279 41.253 243.065C41.0365 243.173 40.7117 243.227 40.1704 243.444C40.3869 242.957 40.3869 242.632 40.5493 242.47C44.3923 238.628 46.6115 233.974 48.127 228.887C48.8848 226.398 49.6967 223.962 50.4545 221.473C52.0241 216.603 54.3516 212.111 57.545 208.052C61.1715 203.507 64.9062 198.961 68.5868 194.361C70.5895 191.872 72.5381 189.328 74.1077 186.514C75.3526 184.296 76.5434 181.969 77.5177 179.588C80.5488 172.12 80.7653 164.543 77.7883 156.967C76.3269 153.233 74.7031 149.608 73.1335 145.928C72.2133 143.709 71.239 141.49 70.373 139.217C68.7492 134.942 67.8832 130.505 67.8291 125.959C67.8291 124.011 67.8832 122.063 67.8832 120.115C67.8832 117.409 67.8832 114.757 67.7749 112.105C67.6667 106.261 65.7722 100.958 62.9577 95.8708C60.6844 91.8662 58.411 87.8617 56.4625 83.6948C55.1635 80.9349 53.8103 78.175 52.1324 75.6316C51.7535 74.9822 51.2663 74.3869 50.8333 73.7916C50.5627 73.954 50.3462 74.0081 50.3462 74.1163C49.6967 78.7162 47.694 82.7748 45.2042 86.617C43.7428 88.8358 42.119 90.9463 40.6034 93.1109C38.709 95.8708 36.7063 98.5766 34.9743 101.445C30.6442 108.588 28.5874 116.381 28.9121 124.714C29.1286 129.314 30.3194 133.643 31.9432 137.919C32.9175 140.408 33.7835 142.897 34.3248 145.495C35.0825 149.066 35.1908 152.638 34.2706 156.21C33.5129 159.168 32.7551 162.126 31.9973 165.085C30.0488 172.39 30.8607 179.479 34.2165 186.244C35.1908 188.246 36.2192 190.194 37.41 191.98C40.9282 197.175 44.5547 202.262 48.0729 207.403C48.9389 208.648 49.8049 209.838 50.5627 211.137C51.3746 212.49 51.4829 213.734 50.7251 215.304C49.4802 218.172 48.5059 221.148 47.4775 224.071C46.828 225.91 46.2867 227.805 45.7455 229.699C44.1758 235.002 41.0365 239.331 37.0311 243.119C34.5413 245.392 31.8891 247.394 28.858 248.91C27.2342 249.667 25.7728 250.695 24.2572 251.561C23.7701 251.291 23.9325 250.966 24.0949 250.695C24.2031 250.425 24.3655 250.154 24.5279 249.884C26.4223 246.258 27.559 242.362 27.7213 238.249C27.8837 234.677 28.1543 231.214 28.9662 227.75C29.5616 225.261 30.2112 222.772 30.9148 220.282C31.5102 218.01 32.1597 215.737 32.7551 213.464C33.8918 208.972 34.2165 204.372 33.9459 199.719C33.8918 198.312 33.6211 196.959 33.1881 195.606C32.701 193.982 32.268 192.305 31.7808 190.681C31.6726 190.248 31.3478 189.87 31.0772 189.382C30.6983 189.815 30.4818 190.086 30.2653 190.411C28.9662 192.413 27.3425 194.091 25.6104 195.714C21.8215 199.177 19.44 203.561 18.141 208.485C16.896 213.356 16.6795 218.334 17.5456 223.367C18.1951 226.885 18.9528 230.402 20.0895 233.811C20.6849 235.759 21.2262 237.708 21.7674 239.656C22.7417 243.119 22.5252 246.474 21.1179 249.775C19.5482 253.564 17.3291 256.919 14.3521 259.733C9.37246 264.549 4.98822 269.798 1.30762 275.697C0.820482 276.4 0.441597 277.158 0.0627114 277.915C-0.099668 278.348 0.0627114 278.781 0.441597 278.944C0.658103 279.052 1.09111 278.998 1.30762 278.835C1.63238 278.565 1.95714 278.132 2.17364 277.753C6.10683 271.8 10.6174 266.317 15.7053 261.302C21.3885 255.674 27.8296 251.291 35.1367 247.99C36.2192 247.557 37.3017 247.124 38.3301 246.583C39.575 245.933 40.8199 245.663 42.1731 245.663C44.0134 245.663 45.7996 245.609 47.5858 245.609C52.5113 245.663 56.9496 247.124 61.0632 249.83C62.8494 251.074 64.5815 252.373 66.4218 253.618C68.9657 255.241 71.5097 256.919 74.1619 258.434C78.2213 260.815 82.7138 261.789 87.4228 261.681C89.4796 261.627 91.4823 261.464 93.5391 261.356C96.0289 261.194 98.5188 261.031 101.009 260.869C105.663 260.544 110.21 261.248 114.594 262.926C118.275 264.278 121.901 265.685 125.582 266.984C129.75 268.554 134.08 269.744 138.518 270.285C141.712 270.664 144.905 270.718 148.099 270.177C149.777 269.906 151.454 269.582 153.187 269.311C153.728 269.203 154.215 269.041 154.81 268.608ZM25.6645 233.92C25.6645 233.883 25.6465 233.829 25.6104 233.757C25.6104 233.757 25.6284 233.739 25.6645 233.703C25.6645 233.739 25.6645 233.775 25.6645 233.811C25.6645 233.847 25.6645 233.883 25.6645 233.92ZM25.3398 233.216C24.6361 228.346 24.4737 223.421 24.8526 218.497C24.9068 217.739 25.2315 217.144 25.8269 216.711C27.5048 215.412 28.9662 213.897 30.2112 212.219C30.3194 212.003 30.59 211.895 30.9148 211.678C30.8065 212.273 30.8065 212.76 30.6983 213.139C30.2653 214.979 29.7781 216.819 29.2369 218.605C27.8296 223.259 26.6388 227.913 26.0434 232.783C25.9893 233.108 25.7728 233.433 25.6645 233.703C25.5022 233.541 25.3398 233.378 25.3398 233.216ZM25.7728 234.298C25.7006 234.298 25.6284 234.28 25.5563 234.244C25.5924 234.136 25.6284 234.028 25.6645 233.92C25.7006 234.028 25.7367 234.154 25.7728 234.298ZM63.4448 102.798C64.6897 104.746 65.1227 106.369 65.5016 109.291C65.8805 112.701 65.9346 116.11 65.8805 119.573C65.8444 122.604 65.8625 125.652 65.9346 128.719C65.9888 129.747 65.8805 130.667 65.3392 131.587C62.4164 136.674 60.7385 142.194 59.7642 147.93C59.2229 150.744 58.5734 153.558 57.9239 156.372C57.3826 158.753 56.4625 161.026 55.1093 163.028C54.8928 163.299 54.5681 163.461 54.1892 163.786C53.5397 161.729 53.0525 159.835 52.403 157.995C51.0498 154.099 49.6967 150.203 48.2353 146.306C47.8023 145.17 47.694 144.034 47.9105 142.897C48.127 141.869 48.2894 140.841 48.6142 139.921C49.5343 137.486 50.4003 135.05 51.537 132.778C52.9443 129.855 54.6763 127.041 56.3001 124.173C57.9239 121.359 59.656 118.545 60.9009 115.515C62.4705 111.781 63.4448 107.939 63.3907 103.88C63.3907 103.501 63.4448 103.176 63.4448 102.798ZM71.5097 147.443C72.105 148.796 72.5381 149.662 72.9711 150.582C74.3784 153.72 75.6774 156.913 76.7058 160.214C78.2213 165.301 78.2213 170.334 76.7599 175.421C75.8217 178.668 74.5047 181.752 72.8087 184.674C71.1849 187.543 69.2905 190.248 67.2337 192.792C62.6329 198.528 57.7615 204.048 53.5397 210.055C53.4855 210.055 53.269 210.001 52.9984 209.946C54.3516 202.208 56.5166 194.578 56.8414 186.785C56.9496 186.568 57.0038 186.514 57.0579 186.46C57.527 186.063 58.0141 185.667 58.5193 185.27C63.7696 181.157 67.3419 175.854 68.9657 169.306C69.8859 165.572 70.4812 161.838 70.5354 157.941C70.5895 155.777 70.5895 153.612 70.6436 151.393C70.6978 150.257 70.7519 149.066 71.5097 147.443ZM54.6222 165.463C57.8698 160.431 58.2487 159.511 59.6018 153.342C60.1972 150.69 60.6844 147.984 61.2256 145.332C62.0375 141.22 63.3907 137.323 65.2851 133.643C65.5016 133.265 65.7722 132.886 66.2053 132.236C66.4218 132.94 66.53 133.265 66.5841 133.643C67.1976 136.566 68.0997 139.38 69.2905 142.085C69.7235 143.114 70.0482 144.142 70.5354 145.116C70.8601 145.819 70.8601 146.469 70.5895 147.172C69.94 148.633 69.7776 150.149 69.7235 151.718C69.6874 153.847 69.6513 155.957 69.6152 158.05C69.5611 161.838 68.9657 165.518 68.0456 169.143C66.53 175.312 63.2283 180.291 58.3569 184.241C58.0322 184.512 57.7074 184.945 57.0038 184.729C56.7873 183.159 56.9496 181.536 56.7873 179.912C56.679 178.289 56.5707 176.665 56.3542 175.042C56.1377 173.418 55.8671 171.795 55.5965 170.171C55.2717 168.548 54.947 166.979 54.6222 165.463ZM140.954 81.8549C140.088 80.5561 139.492 79.6361 138.843 78.7703C136.84 76.1186 134.242 74.1163 131.644 72.1141C129.912 70.8153 128.18 69.4624 126.556 68.0013C125.203 66.8107 123.904 65.5661 123.092 63.9426C121.523 60.8039 120.927 57.4488 121.035 53.9854C121.035 53.1195 121.306 52.4701 121.901 51.8748C123.417 50.3055 124.878 48.682 126.394 47.1127C126.935 46.5715 127.476 46.0304 128.126 45.4892C128.451 45.7598 128.721 45.9763 128.884 46.1927C130.074 47.9244 131.59 49.3855 133.214 50.7384C134.08 51.5321 134.946 52.3258 135.812 53.1195C138.464 55.7171 140.142 58.8016 140.413 62.5897C140.521 63.8885 140.575 65.2414 140.737 66.5402C141.008 69.5165 141.387 72.4388 142.848 75.0904C143.065 75.4692 143.173 76.0645 143.065 76.4433C142.578 78.1209 142.036 79.7985 140.954 81.8549ZM130.075 162.92C132.402 161.729 134.405 160.539 136.516 159.511C139.06 158.32 141.658 157.184 144.201 155.993C145.555 155.398 146.908 155.344 148.261 155.831C149.452 156.21 150.643 156.588 151.779 157.184C153.349 157.941 154.973 158.807 156.434 159.835C158.437 161.188 160.385 162.649 162.28 164.165C165.148 166.329 168.017 168.494 171.481 169.63C171.698 169.684 171.86 169.847 172.239 170.117C171.698 170.334 171.265 170.55 170.886 170.713C169.641 171.2 168.342 171.578 167.151 172.174C165.798 172.823 164.391 173.256 162.875 173.256C161.197 173.256 159.465 173.202 157.787 172.985C154.919 172.607 152.32 171.578 149.777 170.334C147.557 169.251 145.338 168.061 143.065 166.979C139.168 165.139 135.162 163.678 130.778 163.353C130.67 163.353 130.562 163.191 130.075 162.92ZM140.359 88.1323C140.196 88.024 140.088 87.9158 140.142 87.8617C140.25 87.4288 140.359 86.9958 140.521 86.5629C143.119 80.2855 145.446 73.8999 147.178 67.2978C147.449 66.2696 148.044 65.7284 148.965 65.3496C150.913 64.5379 152.591 63.2932 154.161 61.8321C155.352 60.6416 156.651 59.5051 157.895 58.3146C159.249 57.0699 160.71 56.0959 162.388 55.3924C162.767 55.23 163.2 55.1759 163.633 55.0677C164.553 57.3405 165.744 62.5897 165.69 64.7543C165.69 65.2414 165.581 65.8367 165.419 66.3237C163.633 71.3564 160.439 75.3069 155.893 78.0668C154.053 79.1491 152.212 80.1773 150.372 81.2055C147.341 82.8831 144.364 84.7771 141.766 87.1582C141.333 87.5911 140.792 87.8617 140.359 88.1323ZM150.534 6.36367C150.679 6.39975 150.823 6.45387 150.967 6.52602C150.859 6.95894 150.751 7.39187 150.643 7.82479C148.153 15.6174 147.124 23.5183 148.099 31.6897C148.477 34.612 148.64 37.5883 148.856 40.5647C149.668 50.6843 148.153 60.5333 145.122 70.1659C145.013 70.4906 144.851 70.8153 144.472 71.627C144.31 70.6529 144.201 70.22 144.201 69.8412C144.31 68.0554 144.418 66.2155 144.58 64.4297C144.743 62.1027 145.013 59.7757 145.122 57.4487C145.176 54.5265 144.526 51.7125 143.335 49.0067C142.578 47.239 141.766 45.4712 140.9 43.7034C139.547 40.8353 138.464 37.9672 138.139 34.7743C138.031 33.6379 137.977 32.5015 138.464 31.3651C140.088 27.4687 141.603 23.5183 143.227 19.622C144.58 16.2668 146.204 13.074 148.099 9.98941C148.856 8.74476 149.722 7.55421 150.534 6.36367ZM223.118 143.384C222.198 143.871 221.332 143.925 220.52 144.088C215.378 145.008 210.344 146.415 205.527 148.525C202.604 149.824 199.681 151.285 196.812 152.584C189.776 155.831 182.469 156.101 174.999 154.64C174.783 154.586 174.566 154.478 174.35 154.316C174.296 153.396 174.837 152.692 175.324 151.989C177.76 148.363 181.278 146.306 185.392 145.224C187.34 144.737 189.397 144.575 191.4 144.304C193.89 143.98 196.379 143.817 198.815 143.438C201.143 143.114 203.199 142.194 205.04 140.841C205.581 140.408 206.176 140.029 206.555 139.813C209.424 140.678 211.968 141.598 214.62 142.194C217.38 142.789 220.141 143.005 223.118 143.384ZM139.276 86.4006C138.735 87.8617 138.193 89.2687 137.652 90.6757C137.057 92.0827 136.786 93.6521 135.92 95.0049C135.487 95.0049 135.108 95.1132 134.729 95.0591C134.026 95.0049 133.322 94.9508 132.673 94.7885C127.476 93.4897 122.822 91.3251 118.924 87.5911C117.409 86.148 116.254 84.4885 115.46 82.6125C113.782 78.8244 113.241 74.8198 113.728 70.7071C113.782 70.3282 113.782 69.9495 114.324 69.8412C114.648 70.3283 115.027 70.8694 115.352 71.3564C116.814 73.7375 118.816 75.5775 121.198 76.9845C122.443 77.6339 123.742 78.2832 125.041 78.7703C127.206 79.6361 129.425 80.3937 131.59 81.2055C132.943 81.6925 134.242 82.1796 135.487 82.8289C137.003 83.5866 138.464 84.5606 139.276 86.4006ZM44.5547 132.994C44.4464 132.236 44.3382 131.695 44.284 131.208C43.7428 126.446 44.0134 121.792 45.2042 117.246C45.9078 114.324 46.8821 111.51 47.7481 108.696C48.8848 105.016 50.1297 101.391 51.2122 97.7107C52.5654 93.0568 53.4314 88.2946 53.3232 83.4242C53.269 83.1536 53.4314 82.8831 53.5397 82.396C54.6763 84.7771 55.7588 86.9417 56.7331 89.1605C57.112 89.9722 57.4909 90.8922 57.7074 91.758C58.6276 96.0331 58.4652 100.308 57.7615 104.583C56.7331 110.698 54.2433 116.218 50.8333 121.359C48.5059 124.877 46.2867 128.502 45.0418 132.561C44.9877 132.615 44.9336 132.669 44.5547 132.994ZM33.3505 169.414C33.7294 169.955 33.9459 170.171 34.0541 170.388C35.1367 172.823 36.7063 174.988 38.2219 177.152C42.3355 182.997 47.5316 187.651 53.702 191.168C54.1892 191.439 54.6222 191.709 55.0552 191.926C54.8928 194.848 53.5938 201.829 52.1324 207.944C52.0783 208.106 51.9159 208.269 51.8076 208.539C51.537 208.323 51.3746 208.269 51.2122 208.106C46.7739 202.424 42.7685 196.472 38.8714 190.465C37.41 188.246 36.2192 185.865 35.1908 183.43C33.4587 179.533 32.8092 175.367 33.0799 171.091C33.134 170.659 33.2422 170.226 33.3505 169.414ZM166.61 152.8C164.282 152.53 161.955 152.259 159.628 152.097C157.3 151.935 154.919 152.043 152.645 152.476C150.372 152.963 148.153 153.504 145.771 153.991C145.879 153.666 145.879 153.396 145.988 153.233C147.395 150.906 148.802 148.525 150.21 146.252C151.021 144.954 151.779 143.655 152.699 142.518C154.107 140.841 155.839 139.434 158.004 138.947C161.63 138.081 164.986 136.674 168.288 135.05C170.182 134.185 172.131 133.265 174.188 132.832C174.512 132.778 174.837 132.886 175.216 132.94C174.999 133.211 174.945 133.373 174.837 133.481C174.729 133.589 174.566 133.643 174.458 133.752C172.293 135.7 170.904 138.099 170.29 140.949C170.02 142.302 169.803 143.709 169.533 145.062C169.262 146.523 168.991 147.984 168.613 149.391C168.234 150.69 167.747 151.935 166.61 152.8ZM49.3719 153.287C49.6967 153.937 49.9673 154.424 50.1297 154.911C50.671 156.426 51.1581 157.887 51.5911 159.402C53.0525 164.111 54.2974 168.819 55.0011 173.743C55.0552 174.23 55.38 174.825 54.7304 175.204C48.0188 173.527 39.3585 166.6 35.6238 159.781C36.0027 157.779 36.5439 155.723 36.8146 153.666C37.0311 151.502 36.9228 149.337 36.977 147.01C37.3558 147.281 37.6806 147.443 37.9512 147.713C38.709 148.417 39.3585 149.175 40.1163 149.824C42.6602 152.205 45.4748 153.937 49.3719 153.287ZM73.0252 247.557C77.1388 246.691 80.8194 246.096 84.4459 245.23C86.8816 244.689 89.1008 244.905 91.3741 245.663C95.6501 247.07 99.6554 248.964 103.174 251.778C106.042 254.105 108.695 256.594 111.455 258.975C111.617 259.137 111.617 259.354 111.78 259.733C111.184 259.679 110.697 259.624 110.264 259.516C107.774 258.921 105.176 258.704 102.578 258.759C101.063 258.813 99.4931 258.921 97.9234 258.975C96.8409 258.975 95.7042 258.921 94.6758 258.759C91.6988 258.38 88.8843 257.352 86.3403 255.728C84.7706 254.754 83.201 253.726 81.6854 252.644C79.2497 250.912 76.7599 249.288 73.9995 248.152C73.783 248.098 73.6206 247.935 73.0252 247.557ZM34.1083 107.993C35.0825 108.371 35.5155 109.075 35.8403 109.778C36.2733 110.698 36.6522 111.618 36.977 112.593C37.5724 114.162 38.0595 115.839 38.709 117.409C39.3585 119.032 40.2787 120.439 41.686 121.522C42.119 121.846 42.4979 122.225 42.9309 122.604C42.9309 123.037 42.985 123.416 42.9309 123.794C42.552 129.152 43.2015 134.401 44.7712 139.488C45.7455 142.627 46.8821 145.711 47.9105 148.796C48.0729 149.391 48.2353 149.932 48.4518 150.798C47.8564 150.473 47.4775 150.311 47.2069 150.095C45.0418 148.363 43.2015 146.361 41.9566 143.871C40.7117 141.382 39.575 138.784 38.4384 136.241C36.7063 132.236 34.9202 128.232 31.5643 125.201C30.9148 124.714 30.9689 124.011 30.9689 123.307C30.8607 118.221 31.8891 113.35 33.6752 108.642C33.7835 108.48 33.9459 108.263 34.1083 107.993ZM162.334 174.338C162.37 174.483 162.406 174.627 162.442 174.771C161.414 175.475 160.331 176.178 159.357 176.882C158.329 177.694 157.192 178.126 155.947 178.343C152.483 179.101 149.073 178.83 145.771 177.639C143.66 176.828 141.603 175.854 139.547 174.934C137.598 174.068 135.758 173.094 133.755 172.282C129.046 170.388 124.175 169.468 119.087 170.658C118.924 170.713 118.708 170.55 118.275 170.388C120.819 168.494 123.255 166.87 125.799 165.355C127.043 164.598 128.342 164.273 129.804 164.273C132.023 164.273 134.134 164.706 136.245 165.355C139.33 166.275 142.253 167.628 145.122 169.035C147.341 170.171 149.614 171.254 151.887 172.282C154.81 173.527 157.841 174.176 161.035 174.23C161.468 174.23 161.901 174.284 162.334 174.338ZM55.0552 190.681C54.5681 190.519 54.2974 190.411 54.0268 190.248C53.269 189.815 52.5293 189.382 51.8076 188.95C43.9593 183.863 38.2219 176.882 34.0541 168.548C33.6752 167.844 33.567 167.087 33.7835 166.329C34.1624 164.976 34.4871 163.569 34.866 162.216C34.9202 162 35.1367 161.784 35.4614 161.351C37.8971 165.085 40.7117 168.169 44.1758 170.658C47.5858 173.094 51.1581 175.312 55.1635 176.449C55.9212 180.129 55.8671 187.759 55.0552 190.681ZM151.563 8.96122C151.707 8.9973 151.851 9.03337 151.996 9.06945C152.104 9.82707 152.212 10.5847 152.266 11.3423C152.699 16.9703 153.619 22.4901 155.135 27.9017C156.109 31.3651 157.192 34.7743 158.329 38.1836C158.599 39.1036 158.599 39.8071 158.058 40.5647C157.138 41.9717 156.705 43.5411 156.326 45.1645C156.055 46.4092 155.839 47.5997 155.514 48.7903C154.648 51.8748 153.132 54.5806 150.643 56.637C150.372 56.8535 150.155 57.2323 149.56 56.9617C149.614 56.4747 149.614 55.9335 149.668 55.3924C150.155 51.6584 150.372 47.9244 150.155 44.1904C149.939 39.8071 149.722 35.4778 149.235 31.1486C148.477 24.2759 149.235 17.5656 150.913 10.9635C151.13 10.26 151.346 9.61061 151.563 8.96122ZM196.596 134.942C195.73 135.862 195.08 136.566 194.431 137.161C192.428 138.947 190.101 139.921 187.611 140.678C185.175 141.382 182.794 142.085 180.466 143.005C176.136 144.683 172.943 147.659 171.265 152.097C171.048 152.584 170.832 153.071 170.615 153.558C169.641 153.666 168.829 153.45 168.071 153.071C169.803 148.958 169.803 148.958 170.669 144.034C170.886 142.735 171.156 141.436 171.481 140.137C172.023 138.081 173.159 136.295 174.729 134.78C176.244 133.319 178.031 132.128 180.25 132.02C185.283 131.858 190.263 132.399 195.026 134.13C195.405 134.293 195.784 134.563 196.596 134.942ZM148.965 154.749C149.127 154.586 149.181 154.424 149.344 154.424C152.645 153.504 156.055 153.071 159.519 153.287C161.684 153.396 163.687 153.991 165.527 155.073C167.151 156.047 168.667 157.13 170.182 158.266C171.752 159.402 173.267 160.647 174.783 161.838C177.868 164.273 181.386 165.734 185.229 166.329C186.474 166.546 187.719 166.654 188.964 166.816C189.289 166.816 189.614 166.979 190.317 167.141C187.773 168.115 185.554 168.548 183.335 168.819C181.062 169.089 178.842 169.197 176.569 169.468C175.432 169.63 174.404 169.522 173.322 169.197C170.796 168.548 168.468 167.466 166.339 165.95C164.661 164.814 163.092 163.515 161.468 162.271C157.787 159.402 153.944 156.751 149.452 155.181C149.289 155.073 149.127 154.911 148.965 154.749ZM162.28 81.4761C162.117 82.6666 161.522 83.4783 161.035 84.3442C157.571 90.5675 152.808 95.7084 147.503 100.362C143.065 104.205 138.139 107.452 133.484 110.969C133.268 111.131 132.997 111.185 132.618 111.294C132.618 110.861 132.618 110.644 132.673 110.428C133.972 106.856 135.054 103.176 136.028 99.4424C136.191 98.7389 136.624 98.0354 137.057 97.386C138.843 94.6261 141.387 92.7321 144.364 91.3792C146.367 90.4592 148.423 89.7016 150.48 88.944C154.702 87.3746 158.545 85.2641 161.63 81.8549C161.738 81.6925 161.955 81.6384 162.28 81.4761ZM154.053 179.804C153.457 180.183 153.187 180.453 152.862 180.616C150.697 181.427 148.423 181.969 146.042 182.185C142.506 182.51 139.005 182.329 135.541 181.644C132.402 181.049 129.263 180.291 126.177 179.533C121.523 178.397 116.922 177.098 112.159 176.828C111.888 176.774 111.617 176.611 111.076 176.449C112.105 175.529 112.971 174.717 113.782 173.96C114.161 173.635 114.54 173.364 114.919 173.094C115.1 172.985 115.298 172.877 115.514 172.769C118.87 171.47 122.226 170.713 125.853 171.2C128.721 171.578 131.536 172.282 134.188 173.472C135.758 174.176 137.273 174.934 138.843 175.637C140.629 176.503 142.361 177.315 144.202 178.072C146.908 179.155 149.722 179.804 152.645 179.696C153.024 179.696 153.403 179.75 154.053 179.804ZM119.953 54.7971C120.061 55.4465 120.115 55.7712 120.169 56.15C120.332 57.4488 120.44 58.8016 120.711 60.1004C121.36 62.9685 122.605 65.512 124.77 67.6225C126.665 69.4624 128.775 71.0859 130.832 72.7093C132.727 74.2246 134.621 75.7398 136.407 77.3633C137.923 78.8244 139.168 80.5561 140.142 82.4501C140.575 83.316 140.467 84.0736 139.547 84.7771C137.273 82.1796 134.188 81.0431 131.049 80.0149C130.399 79.7985 129.75 79.582 129.046 79.3114C127.26 78.6079 125.42 77.9585 123.633 77.2009C119.899 75.4692 116.976 72.8717 115.027 69.1918C114.432 68.0013 114.27 66.919 114.648 65.6202C115.677 62.0486 117.192 58.7475 119.195 55.6088C119.303 55.3924 119.574 55.1759 119.953 54.7971ZM101.604 234.461C101.009 234.677 100.846 234.731 100.738 234.785C97.0032 234.948 93.7015 236.192 90.6704 238.303C88.5054 239.818 86.2862 241.333 84.1211 242.849C82.3891 244.039 80.4946 244.959 78.3296 245.284C76.814 245.5 75.2985 245.879 73.7288 246.15C70.2106 246.745 66.6383 247.124 63.0118 247.016C62.7412 247.016 62.4705 246.853 61.9293 246.691C62.5788 246.204 62.9577 245.825 63.4448 245.554C66.1511 243.877 68.8575 242.199 71.5638 240.468C75.1902 238.249 79.0332 236.463 83.0386 235.11C86.0697 234.136 89.1549 233.324 92.4025 233C95.4336 232.675 98.4105 233.054 101.604 234.461ZM137.003 35.0449C137.544 37.913 138.41 40.5647 139.655 43.1081C140.232 44.4069 140.828 45.6876 141.441 46.9503C143.444 51.009 144.526 55.2841 144.147 59.8298C143.967 61.5615 143.768 63.2752 143.552 64.9708C143.119 67.6225 143.065 70.2741 143.714 72.8717C143.823 73.2505 143.823 73.6293 143.823 74.0081C143.335 73.7375 143.011 73.4128 142.902 72.9799C142.469 71.2482 142.036 69.5165 141.82 67.7307C141.549 65.8908 141.495 63.9967 141.333 62.1568C141.008 59.0722 139.926 56.3664 137.869 54.0936C136.516 52.5784 135 51.2255 133.539 49.8185C132.402 48.682 131.211 47.5456 130.074 46.3551C129.533 45.868 129.154 45.2728 129.208 44.3528C132.023 41.5929 134.675 38.5624 137.003 35.0449ZM114.757 247.557C117.247 246.528 119.628 246.15 122.064 246.204C124.121 246.204 126.069 246.637 127.747 247.99C128.775 248.801 129.912 249.559 130.832 250.479C132.889 252.589 134.892 254.808 136.84 256.973C140.196 260.653 143.552 264.224 147.774 266.876C147.936 266.984 148.044 267.146 148.369 267.471C147.828 267.471 147.557 267.471 147.287 267.417C143.065 266.497 139.06 265.036 135.433 262.601C133.16 261.086 130.941 259.516 128.83 257.785C124.445 254.375 120.169 250.858 115.352 248.098C115.244 248.044 115.136 247.881 114.757 247.557ZM59.1688 93.7062C61.1715 96.5202 62.3623 99.0636 62.4705 102.094C62.5247 105.395 62.254 108.642 61.2798 111.781C60.2513 115.028 58.7899 118.058 57.112 120.98C55.7588 123.253 54.4057 125.526 53.0525 127.799C50.7792 131.804 48.7224 135.97 47.4775 140.462C47.3692 140.787 47.2069 141.111 47.0445 141.49C46.828 141.328 46.6115 141.22 46.5573 141.111C46.2867 140.246 46.0161 139.326 45.6913 138.46C45.0418 136.782 45.2042 135.105 45.7455 133.427C46.828 129.964 48.3976 126.771 50.4003 123.74C51.7535 121.684 52.9984 119.628 54.1892 117.517C57.978 110.59 59.656 103.122 59.1688 95.1673C59.1147 94.8967 59.1147 94.572 59.1688 93.7062ZM176.136 111.077C176.136 111.185 176.154 111.294 176.19 111.402C173.917 113.404 171.644 115.407 169.316 117.355C167.855 118.653 166.339 119.844 164.77 121.089C161.414 123.794 157.517 125.201 153.186 125.526C148.965 125.905 144.797 126.338 140.575 126.717C140.304 126.771 140.034 126.663 139.547 126.554C141.17 124.66 142.957 123.253 144.905 122.171C147.503 120.71 150.155 119.411 152.97 118.545C157.3 117.192 161.684 115.894 165.96 114.541C168.667 113.729 171.319 112.755 173.971 111.889C174.675 111.618 175.378 111.348 176.136 111.077ZM143.173 141.761C142.794 142.41 142.686 142.681 142.524 142.951C141.82 144.304 140.954 145.603 140.304 147.064C139.655 148.525 139.222 150.149 138.626 151.664C137.923 153.45 137.165 155.29 136.407 157.075C135.92 158.158 135.108 158.97 133.972 159.511C131.915 160.593 129.858 161.729 127.747 162.812C127.368 163.028 126.989 163.407 126.448 163.028C126.015 162.054 125.907 160.972 126.015 159.889C126.123 157.941 126.34 155.993 126.61 154.045C126.881 152.151 127.639 150.473 129.371 149.391C129.696 149.175 129.966 148.85 130.237 148.633C133.917 145.441 138.031 143.168 143.173 141.761ZM173.646 156.101C178.139 156.372 182.415 156.913 186.691 156.534C191.129 156.101 195.189 154.586 199.086 152.963C200.06 153.287 200.872 153.612 201.684 153.829C202.55 153.991 203.416 154.099 204.228 154.207C205.04 154.37 205.96 154.153 206.88 154.64C204.715 156.643 202.55 158.428 200.601 160.431C199.519 161.513 198.328 162.054 196.867 162.162C195.622 162.216 194.377 162.325 193.132 162.271C189.235 162.108 185.392 161.459 181.603 160.268C179.059 159.457 176.677 158.32 174.458 156.805C174.188 156.643 173.917 156.318 173.646 156.101ZM145.284 268.283C141.549 268.554 137.869 268.337 134.296 267.471C133.936 267.363 133.575 267.237 133.214 267.092C128.559 265.361 124.283 262.98 120.602 259.624C119.303 258.398 118.022 257.135 116.759 255.836C113.674 252.644 110.805 249.288 107.233 246.583C107.125 246.474 107.071 246.312 106.854 245.825C107.504 246.041 107.937 246.204 108.37 246.366C110.805 247.178 113.187 248.26 115.406 249.505C118.383 251.237 121.144 253.239 123.85 255.403C126.232 257.243 128.559 259.192 130.995 261.031C135.162 264.116 139.601 266.714 144.689 268.012C144.905 268.066 145.068 268.175 145.284 268.283ZM43.6345 117.625C43.3639 117.084 43.0933 116.759 43.0391 116.381C42.8226 115.082 42.552 113.783 42.552 112.484C42.6061 110.698 42.7685 108.913 42.985 107.127C43.3098 104.854 43.7969 102.635 44.1758 100.417C44.6088 97.8731 44.717 95.3296 44.1758 92.7321C44.0675 92.4615 44.1217 92.1368 44.0675 91.9745C45.4748 89.864 46.9362 87.8617 48.127 85.8053C49.3178 83.7489 50.2921 81.5843 51.4829 79.095C52.0241 80.8808 52.0782 82.3419 52.1324 83.803C52.1865 87.4288 51.7535 91.0004 50.8333 94.4638C49.7508 98.3601 48.5059 102.256 47.3692 106.099C46.2867 109.616 45.1501 113.134 44.0675 116.597C44.0134 116.868 43.851 117.138 43.6345 117.625ZM165.419 68.8671C165.69 71.4647 165.527 74.0081 164.391 76.281C162.334 80.2314 159.357 83.3701 155.46 85.643C153.295 86.8876 150.967 87.8076 148.586 88.6734C144.905 89.9181 141.387 91.5957 138.41 94.1932C138.248 94.3014 138.031 94.3014 137.598 94.4097C137.869 93.7603 138.031 93.3274 138.248 92.9485C140.034 89.7557 142.578 87.2123 145.609 85.2641C148.748 83.2078 151.996 81.3137 155.243 79.4738C159.411 77.0927 162.875 74.0081 164.932 69.6247C165.094 69.3542 165.257 69.0836 165.419 68.8671ZM125.041 264.603C124.121 264.278 123.579 264.062 122.984 263.9C121.144 263.196 119.357 262.438 117.517 261.789C116.056 261.302 114.811 260.544 113.674 259.624C112.213 258.326 110.697 257.027 109.29 255.728C104.364 251.074 98.8976 247.232 92.4025 244.959C92.2401 244.905 92.1318 244.743 91.8071 244.418C92.2942 244.364 92.5649 244.256 92.8896 244.256C95.0547 244.328 97.2378 244.4 99.4389 244.472C100.954 244.526 102.362 244.959 103.661 245.663C104.96 246.366 106.259 247.124 107.45 247.99C109.831 249.775 111.834 251.994 113.891 254.159C117.192 257.568 120.44 261.086 124.391 263.737C124.554 263.9 124.662 264.116 125.041 264.603ZM91.3741 259.408C85.1495 260.111 79.5745 259.354 74.3242 256.269C70.4813 254.051 66.8548 251.453 63.3366 248.801C63.2283 248.747 63.2283 248.531 63.1742 248.314C64.6897 248.206 66.2053 248.26 67.6126 248.044C69.5611 247.773 71.4014 248.098 73.1335 248.855C74.4325 249.451 75.7315 249.992 76.9223 250.695C78.7085 251.778 80.4947 252.968 82.2267 254.159C84.933 255.999 87.6393 257.839 90.8328 258.867C90.9411 258.921 91.0493 259.083 91.3741 259.408ZM84.933 243.769C85.2037 243.39 85.3119 243.173 85.4743 243.065C87.8559 241.388 90.1833 239.71 92.619 238.195C95.9207 236.138 99.5472 235.381 103.39 235.705C104.419 235.814 105.393 236.03 106.259 236.571C108.153 237.762 109.994 238.844 111.888 240.035C112.05 240.089 112.105 240.359 112.267 240.576C111.942 240.63 111.672 240.684 111.455 240.684C107.72 240.522 104.202 241.333 100.792 242.957C100.197 243.227 99.6554 243.282 99.0059 243.227C94.7299 242.849 90.4539 243.065 86.1779 243.769C85.8532 243.823 85.4743 243.769 84.933 243.769ZM148.153 64.5379C148.153 64.1591 148.099 63.8344 148.153 63.5638C148.369 62.4815 148.64 61.4533 148.856 60.371C149.019 59.3969 149.452 58.6934 150.264 58.0981C153.565 55.8253 155.514 52.5783 156.488 48.7361C156.813 47.6538 156.975 46.4633 157.246 45.3269C157.535 44.2085 157.877 43.0901 158.274 41.9717C158.383 41.647 158.707 41.4305 159.032 40.9435C160.277 43.1081 160.764 45.3269 161.468 47.4374C162.171 49.5479 163.092 51.6043 163.308 53.8771C162.929 54.1477 162.604 54.3642 162.226 54.5265C160.061 55.4465 158.166 56.7452 156.488 58.4228C155.135 59.7216 153.728 60.9663 152.32 62.2109C151.13 63.2391 149.831 64.0509 148.153 64.5379ZM141.333 122.874C141.82 122.117 142.036 121.792 142.253 121.467C143.985 119.249 146.096 117.409 148.207 115.515C150.588 113.404 153.349 111.997 156.488 111.402C158.599 110.969 160.818 110.698 162.983 110.482C165.798 110.211 168.558 109.887 171.319 109.237C172.997 108.913 174.675 108.75 176.407 108.534C176.732 108.48 177.11 108.588 177.814 108.696C177.002 109.183 176.569 109.508 176.082 109.724C172.618 111.185 169.1 112.484 165.527 113.512C161.45 114.667 157.408 115.894 153.403 117.192C151.563 117.733 149.722 118.491 147.99 119.303C145.879 120.331 143.877 121.522 141.333 122.874ZM34.4871 106.748C36.5981 102.094 39.5209 98.1978 42.2814 94.2473C42.4979 93.9768 42.8226 93.7603 43.2556 93.3815C43.418 93.9768 43.5263 94.3556 43.5804 94.7344C43.7969 96.6825 43.5263 98.6307 43.2015 100.525C42.7144 103.285 42.2272 106.045 41.8483 108.859C41.3612 112.376 41.5236 115.839 42.985 119.195C43.1474 119.519 43.2556 119.898 43.2556 120.277C43.2556 120.602 43.0933 120.872 42.985 121.197C41.1988 119.952 40.3869 119.086 39.6292 117.301C39.2322 116.29 38.8714 115.262 38.5466 114.216C37.6806 111.51 36.7605 108.859 34.4871 106.748ZM171.698 153.72C172.293 151.826 173.105 150.149 174.242 148.633C175.92 146.415 178.139 144.845 180.737 143.871C183.281 142.951 185.933 142.14 188.531 141.328C191.021 140.57 193.294 139.38 195.243 137.648C196.001 136.944 196.704 136.079 197.462 135.321C199.952 136.025 203.903 138.027 205.364 139.271C205.04 139.921 204.444 140.246 203.849 140.624C201.954 141.815 199.898 142.464 197.678 142.735C195.297 143.005 192.915 143.222 190.48 143.438C188.315 143.601 186.15 143.925 184.093 144.629C179.438 146.198 175.757 148.85 173.538 153.287C173.43 153.45 173.376 153.558 173.322 153.72C172.889 154.261 172.401 154.207 171.698 153.72ZM137.436 157.617C138.626 154.261 139.655 151.339 140.737 148.417C141.17 147.281 141.658 146.09 142.307 145.062C142.902 143.98 143.714 143.005 144.526 142.031C145.068 141.382 145.825 140.949 146.691 140.841C148.748 140.462 150.859 140.083 152.916 139.759C153.241 139.704 153.565 139.704 153.674 140.083C152.808 141.111 151.833 142.031 151.076 143.06C150.264 144.196 149.614 145.441 148.91 146.685C148.369 147.605 147.882 148.633 147.287 149.499C146.276 151.087 145.194 152.62 144.039 154.099C143.606 154.64 143.065 155.127 142.469 155.398C140.954 156.156 139.33 156.805 137.436 157.617ZM135.704 96.1414C134.242 100.849 133.43 105.666 131.265 110.211C131.049 109.887 130.832 109.724 130.832 109.508C129.966 105.72 128.126 102.365 125.961 99.226C124.175 96.5743 122.334 93.9767 120.494 91.3251C120.223 90.9463 120.007 90.4592 119.79 90.0804C124.608 93.3274 129.804 95.492 135.704 96.1414ZM48.3977 152.259C46.6115 152.692 45.2583 152.259 44.0675 151.556C42.8767 150.852 41.7401 149.986 40.6576 149.066C39.4668 148.092 38.4384 146.902 37.2476 145.874C36.6522 145.332 36.3274 144.737 36.0568 143.98C35.3712 141.743 34.6495 139.524 33.8917 137.323C32.8092 134.239 31.7808 131.1 31.2937 127.853C31.2396 127.474 31.3478 127.041 31.3478 126.5C33.2422 128.178 34.1083 129.26 35.0284 131.208C36.544 134.455 38.0054 137.756 39.4668 141.003C40.8199 143.925 42.2814 146.794 44.6629 149.012C45.7455 150.095 46.9362 151.069 48.3977 152.259ZM125.69 164.002C121.035 166.979 116.651 169.955 112.592 173.418C112.538 173.472 112.483 173.472 112.375 173.472C112.321 173.472 112.267 173.418 112.213 173.364C113.566 168.656 122.172 155.831 125.69 153.504C125.095 157.021 124.716 160.431 125.69 164.002ZM196.758 163.136C196.596 163.623 196.596 163.786 196.488 163.84C194.972 165.193 193.24 165.95 191.183 165.95C185.175 165.95 179.6 164.543 174.783 160.755C172.185 158.699 169.479 156.697 166.826 154.64C166.826 154.586 166.826 154.478 166.826 154.261C168.613 154.532 170.29 154.749 171.752 155.993C174.458 158.266 177.543 159.944 180.899 161.026C185.608 162.541 190.426 163.407 195.405 163.191C195.784 163.136 196.163 163.136 196.758 163.136ZM23.3912 221.798C21.1179 219.417 19.9813 216.657 19.44 213.626C19.3859 213.247 19.3859 212.814 19.44 212.436C19.8189 209.568 20.5766 206.754 21.9298 204.156C22.0922 203.94 22.2004 203.561 22.7417 203.723C23.0123 204.589 23.2288 205.563 23.5536 206.537C23.8784 207.565 24.3114 208.593 24.6903 209.568C24.9609 210.217 24.8526 210.812 24.6903 211.408C23.9866 214.384 23.6619 217.414 23.5536 220.445C23.4995 220.932 23.4453 221.365 23.3912 221.798ZM31.4019 195.443C31.8891 198.636 31.8891 201.342 31.9973 204.048C32.1056 207.295 30.9689 209.946 28.9121 212.327C28.1002 213.302 27.2342 214.167 26.3682 215.087C26.0975 215.304 25.881 215.683 25.2315 215.412C25.2856 214.925 25.2856 214.384 25.3939 213.897C25.9893 211.57 26.4223 209.189 27.2342 206.916C28.425 203.236 29.8864 199.61 31.4019 195.443ZM102.416 243.336C105.014 242.145 107.341 241.766 109.777 241.604C113.566 241.333 117.03 242.524 120.332 244.202C120.765 244.418 121.36 244.418 121.523 245.176C118.924 245.338 116.489 245.825 114.107 246.691C113.404 246.961 112.754 246.853 112.105 246.528C109.29 245.302 106.385 244.4 103.39 243.823C103.174 243.769 103.011 243.606 102.416 243.336ZM221.061 145.765C220.159 146.198 219.239 146.613 218.301 147.01C215.27 148.471 212.455 150.365 209.749 152.367C209.099 152.854 208.395 153.341 207.475 153.396C205.527 153.45 203.578 153.396 201.684 152.854C201.359 152.746 201.143 152.476 200.818 152.259C206.014 149.066 216.46 145.441 221.061 145.765ZM101.496 219.417C105.014 218.226 118.816 218.064 121.468 219.092C121.252 219.254 121.035 219.417 120.873 219.525C118.383 220.282 115.947 221.04 113.458 221.744C112.862 221.906 112.213 221.96 111.617 221.96C108.37 221.852 105.23 221.202 102.253 219.958C102.037 219.85 101.82 219.633 101.496 219.417ZM19.3317 217.36C19.6024 217.847 19.7106 218.118 19.873 218.334C20.7932 219.958 21.6592 221.635 22.6334 223.205C23.1747 224.016 23.4453 224.828 23.4995 225.802C23.716 228.616 23.9866 231.43 24.2031 234.19C24.3475 235.922 24.4737 237.635 24.582 239.331C24.582 239.71 24.7444 240.143 24.2031 240.359C23.2288 237.148 22.2546 233.938 21.2803 230.727C21.0638 229.915 20.7931 229.049 20.6308 228.237C20.1436 225.532 19.6565 222.88 19.2235 220.174C19.0611 219.362 18.9528 218.497 19.3317 217.36ZM25.2856 208.106C25.0691 207.728 24.7444 207.457 24.6903 207.132C24.3294 205.87 24.0047 204.589 23.716 203.29C23.3912 201.991 23.6618 200.801 24.582 199.827C26.314 197.987 27.9378 196.093 29.6158 194.253C29.6699 194.199 29.8864 194.307 29.9946 194.307C29.7781 197.067 27.5048 203.669 25.2856 208.106ZM107.666 222.609C107.287 223.313 106.692 223.205 106.205 223.259C101.983 223.692 97.761 223.421 93.6474 222.393C92.8896 222.176 92.0777 222.122 91.1576 221.365C93.8098 220.553 96.2455 220.012 98.6811 219.633C99.1683 219.579 99.7637 219.85 100.197 220.066C102.308 221.094 104.527 221.852 106.854 222.285C107.125 222.339 107.341 222.501 107.666 222.609ZM104.96 217.306C105.285 216.603 105.447 216.116 105.663 215.629C106.746 213.464 108.424 212.382 110.914 212.652C112.592 212.814 114.324 212.869 115.947 213.464C115.569 214.222 114.973 214.113 114.432 214.222C112.862 214.709 111.293 215.196 109.939 216.17C108.532 217.252 107.017 217.523 104.96 217.306ZM103.607 217.577C101.82 217.901 100.197 218.172 98.5729 218.388C96.9491 218.659 95.3253 219.254 93.2144 219.146C97.3821 216.657 101.225 214.546 105.88 213.41C105.068 214.979 104.364 216.224 103.607 217.577ZM110.968 217.198C113.079 215.358 115.514 214.763 118.113 214.546C118.437 214.492 118.87 214.6 119.195 214.763C120.332 215.412 121.468 216.061 122.605 216.765C122.767 216.873 122.93 217.036 123.092 217.144C122.93 217.306 122.876 217.468 122.767 217.468C118.834 217.396 114.901 217.306 110.968 217.198Z" fill="#BD9BD8"/>
</svg>
