<svg width="385" height="384" viewBox="0 0 385 384" fill="none" xmlns="http://www.w3.org/2000/svg">
<path opacity="0.2" fill-rule="evenodd" clip-rule="evenodd" d="M219.472 383.469C220.19 382.234 220.888 381.318 221.465 380.369C224.559 375.813 227.322 371.038 228.741 365.705C230.224 360.13 231.345 354.457 232.586 348.817C233.219 346.195 233.61 343.507 234.243 340.885C235.665 334.319 238.553 328.344 242.422 322.828C243.344 321.474 244.322 320.158 245.355 318.878C249.183 314 252.394 308.761 255.319 303.38C257.493 299.355 259.865 295.319 262.37 291.513C267.053 284.398 273.554 279.722 281.605 277.023C291.015 273.846 300.709 272.045 310.633 272.06C317.547 272.171 324.396 272.525 331.398 272.791C332.233 272.821 333.145 272.808 334.07 272.992C335.995 273.317 337.387 272.718 338.553 271.019C341.441 266.992 345.137 263.833 349.221 261.167C349.866 260.692 350.435 260.261 351.081 259.786C351.158 259.741 351.19 259.62 351.222 259.499C349.668 258.755 349.668 258.755 348.207 258.88C344.099 259.201 340.002 259.719 335.914 259.72C329.594 259.574 323.173 259.076 316.751 258.577C314.915 258.407 313.042 257.641 311.226 257.151C309.002 256.486 306.855 255.777 304.522 255.278C296.918 253.616 289.783 255.068 283.29 259.227C278.932 261.948 275.14 265.471 271.513 269.104C263.814 276.9 254.673 282.314 244.09 285.347C241.785 285.959 239.404 286.616 237.1 287.228C229.594 289.1 221.97 289.706 214.351 291.028C214.077 291.084 213.669 290.909 213.031 290.867C213.358 290.37 213.487 289.886 213.826 289.587C216.711 286.793 218.934 283.561 220.737 279.956C221.019 279.382 221.301 278.809 221.584 278.236C226.202 269.415 233.412 264.021 242.904 261.516C249.817 259.678 256.815 259.228 263.85 259.373C267.587 259.472 271.309 259.545 275.017 259.593C276.171 259.644 277.313 259.498 278.253 258.647C284.411 253.554 291.618 251.342 299.464 251.12C299.585 251.153 299.694 250.987 300 250.81C299.657 250.393 299.435 250.008 298.983 249.756C289.566 244.423 281.25 237.633 273.337 230.302C268.21 225.671 262.853 221.173 257.618 216.708C255.849 215.062 253.767 214.11 251.51 213.567C235.87 209.672 221.043 211.257 207.348 220.292C203.418 222.869 199.71 225.83 196.3 229.132C192.584 232.611 189.002 236.321 185.241 239.723C181.557 243.081 177.797 246.483 173.891 249.456C171.091 251.688 167.948 253.503 164.836 255.196C157.622 259.225 149.854 260.94 141.535 260.341C136.676 260.069 131.893 259.753 127.002 259.602C120.33 259.556 113.986 260.962 108.002 263.699C105.294 264.852 102.675 266.159 100.012 267.389C94.5643 269.816 89.0357 271.572 83.1152 272.118C78.5346 272.506 74.0709 272.211 69.6917 271.354C64.2672 270.28 58.9516 269.041 53.5593 267.846C47.606 266.564 41.657 265.999 35.6112 265.796C25.0694 265.42 14.7016 266.585 4.35025 268.663C3.17589 268.931 1.83603 269.089 0.617246 269.28C0.540575 269.324 0.375049 269.215 0.0884795 269.072C1.04075 268.42 1.79527 267.779 2.63862 267.292C7.34762 264.471 12.0122 261.573 16.8423 258.784C26.0425 253.472 33.6723 246.503 39.4651 237.414C42.2081 232.958 45.2378 228.644 48.4773 224.517C56.0901 214.685 66.1172 207.973 77.7191 203.634C81.3267 202.269 85.2252 201.762 89.0148 201.421C91.1901 201.293 93.321 201.089 95.5285 200.84C101.526 200.25 107.309 198.757 112.966 196.517C117.417 194.665 122.001 193.044 126.63 191.5C131.993 189.635 137.538 188.792 143.152 188.423C150.392 188.039 157.423 189.416 164.369 191.355C177.326 194.851 189.209 200.915 200.528 208.125C203.826 210.119 207.015 212.278 210.401 214.426C215.97 212.032 221.571 209.516 227.754 208.716C233.783 208.004 239.829 208.207 246.416 208.815C245.483 207.199 244.381 206.707 243.509 206.082C231.492 197.839 218.551 191.36 204.666 186.964C197.982 184.771 191.234 182.82 184.614 180.385C179.823 178.638 175.084 176.45 170.576 174.129C160.577 169.028 150.096 167.694 139.236 169.246C133.097 170.123 127.25 171.858 121.617 174.494C117.375 176.533 113.046 178.417 108.683 180.423C107.259 181.143 105.669 181.753 104.168 182.517C96.9446 185.764 89.3655 186.447 81.6525 184.951C72.983 183.391 64.3336 181.512 55.6519 179.754C52.7325 179.183 49.8386 178.597 46.9702 177.997C46.5303 177.943 46.0782 177.691 45.3073 177.418C45.7874 176.833 46.0375 176.381 46.3441 176.204C51.7511 172.467 57.469 169.268 63.7442 167.389C68.5383 165.955 73.1427 164.014 77.6138 161.843C80.2771 160.613 83.0292 159.537 85.7814 158.461C92.3389 156.009 99.0102 156.055 105.843 157.444C114.691 159.311 122.985 162.523 130.873 167.509C139.751 165.358 148.811 164.23 158.55 166.403C157.985 165.601 157.795 165.095 157.497 164.755C153.145 161.113 148.87 157.426 144.453 154.027C138.79 149.706 132.368 147.259 125.394 146.156C120.612 145.429 115.799 144.823 110.953 144.339C101.88 143.32 92.8837 142.256 84.0122 139.993C72.5657 137.164 61.9016 132.858 52.2659 125.907C42.1015 118.748 34.935 109.345 30.9521 97.4892C28.1448 89.2626 26.2817 80.9011 24.6164 72.528C22.7492 63.4508 21.003 54.4064 18.9824 45.4178C16.1295 33.217 11.5332 21.7149 5.6537 10.646C3.94151 7.32625 2.35038 4.03921 0.682609 0.796412C1.38054 -0.119428 1.96588 0.363249 2.45022 0.493926C13.7276 4.44585 24.0692 9.96384 33.487 17.2461C37.7377 20.5363 42.0651 23.7822 46.207 27.2378C54.0829 33.9742 63.0761 38.2191 73.1463 40.6113C78.0987 41.7526 83.0632 43.092 87.9309 44.795C100.387 49.1948 110.915 56.4517 118.618 67.4932C123.795 74.8651 126.13 83.1592 126.358 92.054C126.485 98.6482 126.052 105.156 125.222 111.687C124.626 116.852 124.273 122.082 124.557 127.355C124.675 130.569 125.112 133.805 126.206 136.763C126.788 138.479 127.676 140.018 128.532 141.677C129.192 142.938 130.248 143.764 131.701 144.156C138.878 145.962 144.868 149.787 150.467 154.35C152.643 156.171 154.851 157.871 156.918 159.858C166.611 169.033 178.131 174.999 190.76 178.99C197.323 181.151 203.919 183.19 210.526 185.427C226.506 190.973 240.92 199.473 254.334 209.782C261.786 215.43 268.911 221.574 275.774 227.972C281.543 233.36 287.619 238.572 294.315 242.912C302.26 248.172 310.692 252.331 320.048 254.725C325.892 256.172 331.918 256.694 337.927 256.302C345.046 255.884 352.218 255.026 359.357 254.289C359.752 254.266 360.257 254.078 361.201 253.943C360.495 253.427 360.228 252.966 359.865 252.868C351.268 250.548 344.305 245.747 337.983 239.755C334.866 236.835 331.717 234.037 328.601 231.118C322.38 225.478 315.396 220.996 307.542 217.837C298.674 214.341 289.653 210.932 280.664 207.403C275.784 205.502 270.936 203.48 266.403 200.763C262.818 198.627 259.222 196.292 255.887 193.704C245.464 185.566 238.939 174.972 236.938 161.767C235.943 155.264 235.267 148.781 234.47 142.266C233.952 138.359 233.511 134.408 232.872 130.469C231.663 123.063 229.248 116.046 225.593 109.54C223.994 106.77 222.319 104.045 220.72 101.275C218.499 97.4285 216.322 93.6588 214.299 89.8005C209.655 81.4032 207.986 72.3145 207.797 62.781C207.731 55.2289 207.664 47.6767 207.004 40.1593C206.578 35.1734 206.23 30.1432 206.519 25.1551C206.523 23.9221 206.724 22.6774 206.849 21.477C207.365 21.4865 207.717 21.3864 207.805 21.5403C212.501 27.5484 218.669 31.6806 225.349 35.1067C229.24 37.0658 233.273 38.7383 237.196 40.5762C242.145 42.9506 247.202 45.1594 252.01 47.8205C264.007 54.4345 273.316 63.8308 279.696 75.9441C283.165 82.6605 285.032 89.789 286.241 97.1946C286.904 101.53 287.72 105.777 289.086 109.913C290.944 115.61 293.722 120.776 297.957 125.101C301.459 128.687 304.96 132.273 308.462 135.859C317.218 144.652 321.887 155.394 322.685 167.755C322.949 171.398 323.091 175.009 322.87 178.522C322.151 188.784 321.189 198.982 320.426 209.168C320.22 211.645 319.971 214.046 319.964 216.512C319.924 219.1 320.792 220.958 323.154 222.569C327.271 225.628 331.094 229.063 334.949 232.376C337.38 234.461 339.701 236.711 342.022 238.961C348.599 245.217 356.599 248.804 365.381 250.914C370.774 252.109 376.174 252.786 381.711 252.462C384.633 252.211 387.547 252.477 390.404 252.469C390.872 251.686 390.376 251.357 389.924 251.105C389.548 250.809 389.096 250.557 388.644 250.305C382.985 246.7 378.176 242.09 374.571 236.376C371.409 231.431 368.183 226.729 364.19 222.469C361.304 219.417 358.341 216.41 355.301 213.446C352.592 210.702 349.806 208.002 347.097 205.257C341.801 199.802 337.565 193.528 334.129 186.69C333.051 184.646 332.323 182.501 331.826 180.224C331.184 177.517 330.42 174.778 329.778 172.072C329.576 171.368 329.725 170.564 329.708 169.65C330.6 169.956 331.129 170.163 331.702 170.448C335.186 172.232 338.863 173.289 342.649 174.18C350.858 176.006 357.829 180.29 363.711 186.228C369.472 192.134 373.865 199.035 376.77 206.898C378.737 212.43 380.55 218.05 381.739 223.826C382.494 227.083 383.327 230.295 384.159 233.507C385.622 239.228 388.682 243.821 393.385 247.363C398.718 251.464 404.615 254.419 411.142 255.985C422.148 258.76 432.667 262.637 442.722 268.013C443.989 268.615 445.148 269.382 446.306 270.149C446.892 270.632 447.017 271.38 446.613 271.921C446.396 272.252 445.738 272.529 445.298 272.475C444.616 272.356 443.8 272.006 443.183 271.645C432.726 266.399 421.836 262.291 410.513 259.323C397.843 255.97 385.122 255.006 372.062 256.288C370.174 256.558 368.285 256.828 366.384 256.9C364.088 256.995 362.102 257.628 360.186 258.735C357.579 260.24 355.004 261.623 352.474 263.084C345.542 267.189 340.454 272.896 336.848 280.107C335.34 283.337 333.953 286.6 332.367 289.874C330.097 294.263 327.87 298.728 325.357 303.051C321.561 309.756 315.997 314.815 309.238 318.512C306.281 320.117 303.311 321.524 300.308 323.052C296.648 324.858 292.988 326.663 289.328 328.468C282.468 331.814 276.606 336.532 271.773 342.502C267.669 347.436 263.688 352.402 259.54 357.258C254.925 362.897 249.769 368.131 243.926 372.53C239.713 375.68 235.234 378.369 230.267 380.211C227.668 381.198 225.025 382.109 222.349 383.141C221.494 383.43 220.67 383.597 219.472 383.469ZM373.931 228.54C373.901 228.488 373.882 228.397 373.874 228.264C373.874 228.264 373.834 228.254 373.753 228.232C373.783 228.283 373.812 228.334 373.842 228.386C373.872 228.437 373.901 228.488 373.931 228.54ZM373.813 227.274C370.812 219.774 367 212.641 362.422 205.95C361.723 204.917 360.775 204.336 359.576 204.208C356.133 203.733 352.82 202.774 349.679 201.408C349.348 201.188 348.876 201.256 348.238 201.214C348.88 201.971 349.28 202.664 349.744 203.114C351.868 205.375 354.068 207.593 356.301 209.689C362.114 215.154 367.62 220.797 372.461 227.234C372.804 227.651 373.378 227.936 373.753 228.232C373.85 227.868 373.947 227.505 373.813 227.274ZM374.088 229.167C374.191 229.108 374.278 229.023 374.351 228.913C374.211 228.788 374.071 228.664 373.931 228.54C373.968 228.723 374.021 228.932 374.088 229.167ZM212.793 73.0269C212.629 76.8145 213.348 79.4767 215.21 83.9409C217.471 89.0976 220.193 93.9886 223.112 98.8681C225.651 103.147 228.127 107.495 230.542 111.914C231.309 113.42 232.218 114.639 233.74 115.505C242.055 120.346 248.962 126.821 255.05 134.179C258.127 137.737 261.357 141.206 264.586 144.676C267.307 147.618 270.476 150.097 274.036 151.837C274.565 152.044 275.158 152.01 275.962 152.161C275.194 148.707 274.329 145.616 273.739 142.469C272.458 135.823 271.176 129.177 270.048 122.443C269.729 120.473 268.949 118.769 267.71 117.331C266.559 116.046 265.485 114.717 264.27 113.675C260.968 110.965 257.743 108.211 254.267 105.91C249.875 102.906 245.112 100.322 240.458 97.5726C235.848 94.9 231.085 92.3159 226.834 89.0258C221.546 85.001 217.013 80.3355 213.758 74.5213C213.447 73.9827 213.104 73.5654 212.793 73.0269ZM238.014 143.092C238.281 145.502 238.378 147.087 238.52 148.749C239.103 154.362 239.883 159.964 241.136 165.498C243.165 173.969 247.295 181.124 253.541 187.16C257.535 191.009 261.932 194.317 266.733 197.085C271.387 199.834 276.291 202.132 281.292 204.065C292.517 208.458 303.948 212.321 314.859 217.408C314.935 217.364 315.197 217.11 315.536 216.812C307.268 206.917 297.938 197.84 291.082 187.027C290.751 186.808 290.63 186.775 290.509 186.742C289.519 186.562 288.503 186.396 287.462 186.245C276.649 184.692 267.236 180.074 259.562 172.093C255.194 167.537 251.285 162.715 248.011 157.22C246.157 154.187 244.381 151.11 242.483 148C241.473 146.429 240.42 144.78 238.014 143.092ZM276.725 154.9C267.994 150.402 266.702 149.404 259.722 141.74C256.702 138.457 253.792 135.009 250.848 131.682C246.323 126.499 241.208 122.066 235.504 118.384C234.886 118.022 234.192 117.705 233.046 117.136C233.317 118.313 233.43 118.863 233.664 119.446C235.194 124.102 236.226 128.84 236.76 133.661C236.99 135.477 237.374 137.204 237.484 138.987C237.601 140.253 238.134 141.176 239.095 141.955C241.214 143.501 242.688 145.522 244.053 147.709C245.851 150.706 247.634 153.677 249.403 156.622C252.589 161.963 256.453 166.707 260.732 171.11C267.942 178.641 276.705 183.018 286.848 184.651C287.53 184.77 288.345 185.12 289.164 184.236C288.183 181.828 286.62 179.653 285.518 177.212C284.339 174.816 283.16 172.419 282.134 169.934C281.108 167.449 280.159 164.92 279.209 162.39C278.337 159.817 277.509 157.32 276.725 154.9ZM85.8144 106.64C85.975 104.086 86.0633 102.291 86.2726 100.529C86.9329 95.1214 88.9696 90.1501 91.0062 85.1789C92.3935 81.9161 93.7365 78.5763 94.8373 75.1711C95.7768 72.372 96.5952 69.5402 96.4127 66.5682C96.0599 60.8224 94.1494 55.5657 91.1533 50.7305C90.4426 49.4995 89.5263 48.7976 88.1944 48.4383C84.7595 47.4466 81.357 46.3338 77.9222 45.3421C76.7113 45.0154 75.5004 44.6887 74.1362 44.4506C73.8983 45.1008 73.6927 45.6299 73.6403 46.0704C73.375 49.5061 72.4275 52.8227 71.2379 56.074C70.6627 57.9106 70.0874 59.7471 69.5122 61.5837C67.8875 67.4455 68.0426 73.2029 70.7685 78.8095C71.6811 80.7444 72.7149 82.712 73.5509 84.6912C75.6105 89.1439 77.4724 93.6081 77.5788 98.573C77.5831 99.2886 77.9183 100.223 78.3826 100.673C80.4495 102.66 82.5931 104.602 85.8144 106.64ZM167.762 212.989C163.488 213.2 159.674 213.145 155.84 213.41C151.26 213.798 146.647 214.307 142.066 214.695C139.661 214.955 137.7 215.985 136.183 217.784C134.807 219.296 133.431 220.809 132.31 222.584C130.708 224.945 129.119 227.504 127.893 230.161C126.166 233.722 124.606 237.393 123.166 241.096C120.879 246.519 118.593 251.943 114.619 256.391C114.356 256.645 114.26 257.009 113.945 257.703C114.889 257.568 115.68 257.522 116.35 257.443C118.513 257.117 120.664 256.594 122.84 256.466C125.289 256.283 127.638 255.747 129.785 254.508C132.161 253.136 134.57 251.642 136.769 249.962C140.522 247.078 143.358 243.491 145.94 239.641C148.195 236.288 150.361 232.78 152.693 229.383C156.703 223.58 161.177 218.227 167.121 214.18C167.274 214.092 167.294 213.772 167.762 212.989ZM91.8101 115.078C91.9513 114.791 92.0158 114.549 91.8947 114.516C91.3861 113.989 90.8774 113.462 90.2921 112.979C81.4596 106.18 72.9215 99.0052 65.0492 91.0358C63.822 89.7954 62.5345 89.5129 60.9202 89.7269C57.4938 90.1664 54.0955 89.7691 50.6729 88.9756C48.009 88.2569 45.2362 87.7036 42.4956 87.0292C39.5573 86.3663 36.6878 86.1767 33.7336 86.5488C33.0637 86.6278 32.4059 86.905 31.7038 87.1052C32.2659 91.0889 34.8877 99.5253 36.7411 102.558C37.1409 103.251 37.7828 104.008 38.4125 104.568C45.0734 110.262 52.8393 113.267 61.5447 113.472C65.0398 113.506 68.4904 113.462 71.9411 113.419C77.6115 113.325 83.3828 113.583 89.0173 114.844C89.9859 115.105 90.9747 115.047 91.8101 115.078ZM10.2818 7.15332C10.107 7.32265 9.94692 7.51763 9.8017 7.73824C10.3104 8.26518 10.8191 8.79212 11.3277 9.31905C21.2506 18.3613 29.1922 28.7525 34.5192 41.1662C36.3811 45.6304 38.594 49.9946 40.7303 54.4029C47.8863 69.4534 58.117 82.2159 70.3168 93.4312C70.7366 93.8042 71.2331 94.133 72.436 94.9772C71.8665 93.4596 71.6645 92.7556 71.3536 92.2171C69.7345 89.7668 68.071 87.2396 66.3752 84.8336C64.2353 81.6583 61.942 78.5714 59.8787 75.3519C57.4035 71.2417 56.0138 66.71 55.4796 61.8895C55.102 58.7567 54.801 55.5796 54.5768 52.3582C54.1394 47.1741 53.3186 42.2114 51.158 37.4067C50.3785 35.7026 49.5224 34.0427 47.8997 32.8255C42.4016 28.6143 37.0124 24.2375 31.5143 20.0263C26.8437 16.363 21.923 13.1519 16.7078 10.3159C14.6129 9.16619 12.409 8.18188 10.2818 7.15332ZM19.9346 261.307C21.6377 261.247 22.9088 260.616 24.192 260.182C32.2306 257.285 40.5157 255.169 49.0714 254.23C54.2775 253.686 59.6169 253.373 64.7463 252.873C77.3782 251.735 87.9505 246.144 97.3315 237.958C97.5937 237.704 97.8116 237.373 97.985 236.965C97.3066 235.613 95.9624 235.056 94.695 234.454C88.269 231.291 81.5976 231.245 74.8825 233.07C71.7227 233.971 68.6761 235.423 65.6173 236.676C61.824 238.25 58.164 240.056 54.403 241.509C50.8398 242.951 47.1713 243.325 43.4541 242.907C42.3321 242.734 41.1778 242.682 40.4635 242.684C37.1108 246.261 34.2624 249.65 30.9943 252.665C27.5728 255.769 23.8404 258.334 19.9346 261.307ZM91.9222 111.731C93.8881 113.365 95.8096 114.923 97.7312 116.48C99.7294 117.994 101.401 120.003 103.738 121.219C104.351 120.864 104.977 120.708 105.469 120.322C106.421 119.669 107.374 119.017 108.16 118.255C114.455 112.159 119.271 105.275 121.727 96.7797C122.689 93.4887 122.962 90.1851 122.547 86.8689C121.814 80.1114 119.294 73.9757 115.229 68.5271C114.841 68.0329 114.53 67.4943 113.675 67.7831C113.614 68.7411 113.522 69.8203 113.461 70.7783C113.346 75.3585 112.019 79.612 109.801 83.5599C108.57 85.5012 107.263 87.4867 105.823 89.2415C103.467 92.243 100.945 95.1349 98.545 98.0595C97.028 99.8585 95.5877 101.613 94.3574 103.554C92.8325 105.871 91.562 108.451 91.9222 111.731ZM264.335 100.507C263.867 99.3417 263.576 98.4839 263.253 97.7472C260.111 90.5344 255.907 84.1395 250.49 78.6509C247.094 75.072 243.405 71.8682 239.868 68.5759C235.238 64.274 230.498 60.1376 225.945 55.7914C220.208 50.2817 215.073 44.2198 211.228 37.2073C211.083 36.7784 210.631 36.5265 210.078 35.9227C210.422 40.2373 210.665 44.1999 211.107 48.1509C211.236 49.6148 211.455 51.2325 211.859 52.6405C214.064 59.4707 217.803 65.4156 222.309 70.9179C228.785 78.7703 236.842 84.5814 245.892 89.1014C252.076 92.1986 258.195 95.5383 263.29 100.29C263.411 100.323 263.532 100.356 264.335 100.507ZM310.098 143.121C310.006 144.2 309.877 144.685 309.901 145.081C310.367 149.428 309.92 153.789 309.55 158.106C308.52 169.779 304.98 180.644 299.127 190.691C298.659 191.474 298.268 192.213 297.832 192.875C300.461 196.897 308.03 205.759 315.12 213.257C315.33 213.443 315.693 213.541 316.068 213.838C316.274 213.309 316.459 213.099 316.556 212.735C318.179 201.028 318.967 189.289 319.556 177.563C319.805 173.213 319.538 168.854 318.996 164.551C318.251 157.596 315.751 151.141 311.859 145.284C311.427 144.713 310.918 144.186 310.098 143.121ZM107.705 228.481C110.78 226.193 113.854 223.905 117.018 221.771C120.181 219.637 123.643 217.843 127.219 216.599C130.839 215.433 134.426 214.387 138.199 213.132C137.779 212.759 137.557 212.374 137.271 212.232C133.368 210.075 129.42 207.84 125.561 205.76C123.345 204.578 121.205 203.351 118.969 202.488C115.599 201.254 111.991 200.67 108.524 201.748C102.677 203.483 96.7685 204.227 90.7592 204.619C87.3652 204.938 83.85 205.223 80.5813 206.29C80.0768 206.479 79.7057 206.898 79.2134 207.285C79.7422 207.492 79.9521 207.679 80.1942 207.744C80.4364 207.81 80.7108 207.754 80.953 207.819C85.6188 208.818 89.5558 211.093 92.764 214.643C94.2578 216.345 95.7193 218.168 97.2131 219.87C98.7957 221.726 100.378 223.582 102.07 225.272C103.673 226.809 105.384 228.18 107.705 228.481ZM274.168 133.297C274.241 134.486 274.257 135.399 274.427 136.225C274.904 138.821 275.414 141.297 276.044 143.805C277.838 151.693 279.939 159.405 282.984 166.981C283.307 167.718 283.336 168.83 284.567 168.837C292.697 160.963 299.278 144.033 298.972 131.286C296.792 128.749 294.337 126.268 292.266 123.566C290.183 120.666 288.559 117.5 286.573 114.236C286.258 114.931 285.931 115.427 285.77 116.033C285.274 117.653 284.976 119.261 284.436 120.804C282.787 126.269 280.221 131.033 274.168 133.297ZM318.039 286.658C311.502 288.791 305.8 290.955 299.952 292.69C296.058 293.912 293.092 296.035 290.494 298.971C285.592 304.468 281.473 310.436 278.8 317.314C276.646 322.968 274.933 328.676 272.977 334.319C272.88 334.682 273.058 334.99 273.139 335.661C273.938 335.098 274.583 334.622 275.108 334.114C278.146 331.232 281.648 328.799 285.373 326.752C287.564 325.589 289.876 324.459 292.144 323.253C293.677 322.367 295.243 321.361 296.566 320.289C300.472 317.316 303.615 313.552 305.886 309.164C307.31 306.496 308.689 303.75 309.947 300.972C311.976 296.518 314.17 292.174 317.148 288.301C317.41 288.047 317.507 287.684 318.039 286.658ZM258.611 56.4211C257.542 57.7564 257.506 59.1107 257.624 60.3764C257.765 62.0384 257.984 63.6561 258.323 65.3065C258.768 68.0245 259.455 70.8078 259.823 73.57C260.235 76.4092 260.087 79.1619 258.982 81.8515C258.635 82.6672 258.409 83.5156 258.107 84.4082C258.462 85.0237 258.697 85.6065 259.084 86.1008C264.018 93.4073 267.407 101.401 269.358 109.916C270.555 115.175 271.476 120.49 272.551 125.716C272.81 126.695 273.024 127.597 273.428 129.005C274.005 128.057 274.409 127.516 274.614 126.987C276.26 122.755 277.223 118.403 276.943 113.846C276.663 109.289 276.141 104.667 275.664 100.121C274.83 93.0119 274.073 85.8581 276.339 78.8055C276.86 77.5819 276.205 76.626 275.628 75.6259C271.606 68.3056 266.152 62.2227 259.758 56.9902C259.471 56.8479 259.063 56.673 258.611 56.4211ZM131.44 255.604C131.507 255.838 131.574 256.073 131.642 256.308C133.676 256.467 135.787 256.582 137.744 256.785C139.867 257.098 141.833 256.784 143.774 256.074C149.302 254.318 153.91 251.144 157.61 246.752C159.934 243.871 162.047 240.805 164.206 237.815C166.255 234.99 168.062 232.1 170.233 229.309C175.348 222.765 181.493 217.473 189.677 215.005C189.952 214.949 190.125 214.541 190.605 213.956C185.447 213.344 180.665 213.028 175.818 212.954C173.432 212.895 171.326 213.496 169.256 214.691C166.112 216.506 163.478 218.848 161.021 221.497C157.406 225.328 154.376 229.642 151.467 233.988C149.257 237.419 146.925 240.816 144.549 244.137C141.43 248.297 137.67 251.699 133.191 254.388C132.578 254.742 132.009 255.173 131.44 255.604ZM296.81 191.105C297.367 190.476 297.662 190.101 297.912 189.649C298.63 188.414 299.322 187.193 299.989 185.988C306.931 172.338 309.328 157.721 308.391 142.465C308.35 141.155 307.882 139.99 306.953 139.09C305.306 137.476 303.691 135.741 302.044 134.128C301.79 133.864 301.305 133.734 300.49 133.384C300.105 140.684 298.65 147.371 295.786 153.743C292.955 159.994 289.716 166.069 284.975 170.961C286.922 176.812 293.262 187.615 296.81 191.105ZM10.9571 11.6872C10.7823 11.8565 10.6075 12.0258 10.4326 12.1951C10.9011 13.3607 11.3696 14.5263 11.9148 15.6476C15.9209 24.0028 19.1481 32.6025 21.4431 41.5352C22.9058 47.2557 24.1707 52.9878 25.359 58.7642C25.7308 60.2933 26.3082 61.2935 27.6967 61.9279C30.1549 63.1757 32.0564 65.0526 33.9256 67.0508C35.3305 68.5989 36.6144 70.1144 38.0516 71.5413C41.81 75.2183 46.1776 77.8255 51.3922 78.7128C51.9533 78.7992 52.5708 79.1607 53.1921 78.2891C52.7157 77.641 52.2715 76.8717 51.7507 76.1466C47.9959 71.2366 44.6244 66.1053 41.8662 60.6198C38.5751 54.2112 35.3284 47.8794 32.465 41.3264C27.8974 30.9362 21.3162 22.0162 13.5206 14.0025C12.6365 13.1794 11.7968 12.4333 10.9571 11.6872ZM50.5729 227.616C52.5547 228.215 54.0521 228.684 55.4607 228.999C59.7632 229.9 63.8595 229.382 68.0081 228.423C72.0356 227.431 75.9864 226.483 80.0382 225.888C87.5486 224.732 94.515 226.352 100.534 231.288C101.24 231.803 101.947 232.319 102.653 232.834C104.122 232.191 105.094 231.219 105.857 230.061C100.028 225.631 100.028 225.631 94.7591 219.338C93.3864 217.669 91.9371 216.043 90.411 214.463C87.9565 211.982 84.8807 210.373 81.4136 209.502C78.0676 208.664 74.5604 208.433 71.3282 210.093C64.0648 213.979 57.4555 218.821 52.13 225.178C51.7266 225.719 51.412 226.413 50.5729 227.616ZM134.298 216.821C133.934 216.723 133.725 216.536 133.495 216.669C128.063 218.061 122.877 220.234 118.148 223.375C115.17 225.299 112.822 227.783 111.104 230.827C109.603 233.54 108.345 236.318 107.131 239.173C105.84 242.072 104.715 245.081 103.546 248.013C101.174 253.998 97.3902 258.952 92.4353 262.941C90.8496 264.267 89.1751 265.439 87.545 266.688C87.085 266.954 86.7582 267.45 85.8948 268.256C90.2977 267.561 93.7964 266.361 97.1619 264.931C100.604 263.457 103.836 261.796 107.278 260.321C109.022 259.623 110.39 258.628 111.656 257.281C114.701 254.292 117.11 250.85 118.882 246.955C120.326 243.967 121.483 240.837 122.761 237.739C125.621 230.652 128.888 223.739 133.963 217.834C134.104 217.548 134.201 217.184 134.298 216.821ZM55.2962 123.542C56.5034 125.102 58.0129 125.769 59.4136 126.601C69.4284 132.616 80.3949 136.029 91.7283 138.308C101.169 140.14 110.811 140.728 120.291 141.922C120.731 141.976 121.159 141.831 121.784 141.675C121.429 141.06 121.251 140.752 120.997 140.489C116.225 136.473 111.672 132.127 107.227 127.616C106.419 126.748 105.229 126.102 104.082 125.533C99.2869 123.07 94.1289 122.458 88.8017 122.969C85.2099 123.299 81.6747 123.904 78.1394 124.509C70.8712 125.731 63.6955 125.873 56.5271 123.549C56.2405 123.407 55.8894 123.507 55.2962 123.542ZM147.656 256.602C148.81 256.653 149.416 256.817 150.009 256.782C153.742 256.165 157.406 255.075 160.957 253.436C166.233 251.005 171.043 247.886 175.387 244.079C179.345 240.665 183.17 237.021 186.918 233.421C192.579 227.998 198.03 222.389 204.554 218.11C204.893 217.811 205.143 217.359 205.777 216.686C203.565 216.219 201.672 215.773 199.9 215.36C199.097 215.208 198.338 215.133 197.58 215.059C197.235 215.052 196.865 215.061 196.47 215.084C190.65 215.982 185.275 217.649 180.538 221.307C176.785 224.192 173.376 227.494 170.597 231.355C168.951 233.639 167.426 235.956 165.78 238.239C163.96 240.931 162.173 243.502 160.188 246.084C157.243 249.835 153.79 253.06 149.561 255.297C149.024 255.607 148.532 255.993 147.656 256.602ZM93.3529 50.9992C93.7326 52.0109 93.9225 52.5168 94.1567 53.0996C94.9927 55.0787 95.9498 57.0906 96.6325 59.1583C98.0666 63.767 98.3909 68.4009 97.0564 73.1719C95.8832 77.3369 94.2257 81.3712 92.6448 85.3612C91.2051 89.0646 89.7654 92.768 88.5679 96.5367C87.6204 99.8533 87.2784 103.333 87.453 106.823C87.5503 108.408 88.3255 109.396 90.2063 109.644C91.2943 104.092 94.7316 99.9533 98.3345 95.9243C99.0768 95.0854 99.8192 94.2465 100.594 93.2864C102.546 90.8255 104.62 88.3973 106.528 85.8595C110.397 80.3434 112.405 74.2603 112.145 67.4353C112.011 65.2559 111.353 63.5845 109.75 62.0479C105.362 57.8113 100.506 54.3578 95.0926 51.5335C94.7616 51.3143 94.2005 51.2279 93.3529 50.9992ZM266.809 291.412C267.83 291.233 268.105 291.177 268.303 291.165C273.726 288.342 279.424 287.411 285.45 287.933C289.76 288.316 294.147 288.656 298.458 289.039C301.888 289.315 305.327 289.074 308.66 287.765C310.985 286.833 313.442 286.132 315.888 285.233C321.36 283.202 326.731 280.819 331.779 277.7C332.162 277.479 332.412 277.026 333.046 276.353C331.726 276.192 330.878 275.963 329.966 275.977C324.756 275.805 319.545 275.633 314.291 275.385C307.333 275.196 300.423 275.8 293.64 277.152C288.547 278.246 283.51 279.615 278.644 281.81C274.084 283.827 270.178 286.8 266.809 291.412ZM52.9901 36.8618C54.5775 41.382 55.5273 45.8599 55.8515 50.4938C56.0998 52.8124 56.3076 55.1201 56.4751 57.4168C56.9697 64.8246 58.9453 71.7876 63.2131 77.9402C64.89 80.2545 66.5777 82.5284 68.2761 84.7619C71.0659 88.1775 73.319 91.903 74.531 96.127C74.6886 96.754 74.9995 97.2925 75.3104 97.8311C75.7784 97.048 75.9719 96.3209 75.7699 95.6169C74.9618 92.8009 74.1538 89.9849 72.9947 87.269C71.8679 84.432 70.39 81.6951 69.1098 78.9465C67.038 74.2958 66.3505 69.5638 67.3983 64.6506C68.0713 61.3898 69.1076 58.2271 70.0228 55.0317C70.7001 52.4865 71.454 49.8971 72.0869 47.275C72.4538 46.14 72.5019 44.9839 71.6701 43.7203C65.4181 42.0984 59.1739 39.9591 52.9901 36.8618ZM258.928 320.786C254.557 321.36 250.873 322.77 247.467 324.838C244.554 326.52 242.149 328.729 240.883 332.025C240.092 334.02 239.104 336.027 238.556 338.087C237.375 342.769 236.359 347.561 235.376 352.232C233.643 360.208 231.821 368.03 228.017 375.252C227.876 375.539 227.856 375.858 227.663 376.586C228.429 376.143 228.813 375.922 229.152 375.623C234.377 370.863 238.851 365.51 241.989 359.082C243.965 355.069 245.82 351.023 247.389 346.835C250.801 338.403 253.971 329.905 258.529 322.042C258.638 321.877 258.658 321.557 258.928 320.786ZM211.388 56.6052C210.861 62.2435 211.261 66.8332 213.595 71.23C216.228 75.9672 219.277 80.3619 223.233 84.0272C227.355 87.8022 231.912 90.9153 236.687 93.6975C240.47 95.8221 244.252 97.9467 248.034 100.071C254.541 103.905 260.875 108.147 266.325 113.514C266.744 113.887 267.241 114.216 267.782 114.622C267.955 114.214 268.173 113.883 268.161 113.685C267.834 112.233 267.462 110.704 267.211 109.207C266.754 106.291 265.147 104.039 263.004 102.097C258.628 98.0582 253.784 94.8028 248.459 92.1323C244.855 90.3155 241.404 88.4101 237.985 86.3835C226.932 79.6345 218.426 70.39 212.587 58.6824C212.441 58.2535 212.175 57.7919 211.388 56.6052ZM59.9654 176.956C60.0542 177.11 60.1175 177.279 60.1552 177.462C65.0188 178.45 69.8823 179.437 74.778 180.303C77.9141 180.954 81.038 181.408 84.283 181.893C91.2573 182.996 97.9322 181.809 104.332 178.729C110.623 175.815 116.882 173.022 123.173 170.108C123.601 169.964 123.895 169.589 124.497 169.036C120.642 167.672 116.957 167.132 113.309 167.187C108.429 167.234 103.606 167.557 98.909 168.628C91.6651 170.246 84.389 171.985 77.2218 173.558C72.7221 174.617 68.1658 175.402 63.6984 176.34C62.4796 176.53 61.2608 176.721 59.9654 176.956ZM131.841 193.62C132.911 194.234 133.286 194.53 133.738 194.782C135.845 196.13 138.138 197.268 140.257 198.814C142.377 200.36 144.323 202.314 146.41 203.981C148.872 205.944 151.456 207.94 153.995 209.859C155.573 211 157.389 211.49 159.444 211.329C163.245 211.186 167.091 211.12 170.97 210.932C171.684 210.93 172.532 211.159 172.988 210.177C172.801 208.438 172.066 206.811 171.025 205.361C169.272 202.68 167.367 200.088 165.384 197.539C163.446 195.068 160.996 193.303 157.654 193.18C157.017 193.138 156.367 192.898 155.806 192.812C147.972 191.283 140.279 191.415 131.841 193.62ZM100.447 238.929C94.3061 242.987 88.6934 247.253 82.3257 250.212C75.6836 253.226 68.6898 254.392 61.8372 255.271C60.7236 256.529 59.8401 257.655 58.8678 258.626C57.7743 259.565 56.6365 260.427 55.5753 261.245C54.5585 262.14 53.0775 262.585 52.1739 264.03C56.884 265.106 61.4166 265.874 65.8201 267.127C68.2418 267.78 70.3727 267.576 72.5315 266.535C74.3393 265.593 76.1915 264.729 77.9104 263.634C83.2973 260.216 88.2078 256.15 92.5974 251.359C95.5345 248.125 97.9751 244.562 99.8749 240.593C100.125 240.14 100.242 239.458 100.447 238.929ZM232.699 375.217C238.211 372.547 243.247 369.229 247.596 365.077C248.019 364.628 248.426 364.153 248.819 363.653C253.991 357.384 258.093 350.503 260.553 342.723C261.386 339.916 262.164 337.074 262.887 334.195C264.637 327.132 265.946 320.017 268.785 313.248C268.85 313.006 268.793 312.731 268.7 311.862C267.958 312.7 267.478 313.285 266.998 313.87C264.214 317.016 261.729 320.502 259.607 324.087C256.812 328.983 254.545 334.087 252.488 339.378C250.625 343.941 248.927 348.614 246.987 353.222C243.616 361.015 239.461 368.338 233.32 374.345C233.058 374.599 232.917 374.886 232.699 375.217ZM253.024 77.9058C252.963 76.9151 253.08 76.2322 252.846 75.6494C252.086 73.626 251.404 71.5582 250.338 69.7118C248.795 67.2173 247.099 64.8113 245.327 62.4496C243.001 59.484 240.49 56.7281 238.132 53.8837C235.431 50.6219 233.19 47.0946 231.825 42.9592C231.756 42.486 231.413 42.0686 231.357 41.7936C227.631 39.944 223.917 38.2926 220.543 36.343C217.168 34.3934 214.012 32.1128 210.282 29.5477C210.981 32.5291 212.103 34.6506 213.226 36.772C216.125 41.9708 219.67 46.6943 223.816 50.8655C228.548 55.5194 233.509 60.0406 238.273 64.5733C242.693 68.6886 247.19 72.7597 251.567 76.7982C251.865 77.1386 252.317 77.3905 253.024 77.9058ZM40.5001 108.184C42.2489 112.098 44.5665 115.581 48.042 117.883C54.1979 121.817 60.9909 123.844 68.3765 123.889C72.4648 123.887 76.5167 123.292 80.6007 122.575C86.8358 121.335 93.1962 120.842 99.545 122.101C99.8638 122.122 100.17 121.945 100.873 121.745C99.9563 121.043 99.3709 120.56 98.7534 120.198C93.6027 117.12 87.9117 115.585 82.0192 115.294C75.8846 114.938 69.7299 114.901 63.6196 114.941C55.7618 114.964 48.3232 113.412 41.812 108.863C41.3599 108.611 40.9078 108.359 40.5001 108.184ZM258.352 353.43C259.389 352.216 259.978 351.466 260.688 350.748C262.718 348.243 264.626 345.705 266.7 343.277C268.37 341.389 269.511 339.294 270.366 337.057C271.37 334.015 272.451 330.929 273.378 327.932C276.535 317.288 281.125 307.355 288.46 298.812C288.646 298.602 288.666 298.283 288.859 297.556C288.125 297.877 287.652 297.945 287.192 298.21C284.185 300.083 281.152 301.971 278.093 303.874C275.991 305.19 274.353 306.957 273.09 309.019C271.828 311.082 270.61 313.221 269.634 315.426C267.726 319.912 266.71 324.704 265.574 329.464C263.695 337.011 261.982 344.667 258.562 351.668C258.465 352.032 258.489 352.428 258.352 353.43ZM301.776 318.512C311.17 314.422 318.445 308.786 323.35 300.107C326.973 293.81 329.977 287.151 332.784 280.504C332.893 280.339 332.716 280.031 332.615 279.679C330.379 280.765 328.277 282.081 326.106 282.924C323.124 284.133 320.783 286.099 318.952 288.593C317.6 290.502 316.205 292.333 315.095 294.307C313.454 297.307 311.901 300.46 310.425 303.569C308.101 308.398 305.778 313.227 302.099 317.3C301.99 317.466 301.97 317.785 301.776 318.512ZM298.063 291.011C297.369 290.694 297.038 290.475 296.719 290.453C291.969 290.016 287.295 289.535 282.601 289.372C276.236 289.149 270.478 291.038 265.301 294.642C263.933 295.637 262.731 296.741 261.948 298.219C260.242 301.461 258.524 304.504 256.817 307.746C256.632 307.956 256.777 308.385 256.725 308.825C257.229 308.637 257.657 308.492 257.964 308.315C263.121 305.03 268.77 303.307 274.933 302.826C275.998 302.724 276.809 302.358 277.685 301.75C283.431 297.715 289.665 294.526 296.3 292.029C296.804 291.84 297.296 291.454 298.063 291.011ZM61.4039 87.9089C61.093 87.3704 60.9032 86.8645 60.6044 86.5241C59.4094 85.1625 58.1821 83.9221 56.9871 82.5605C55.9576 81.3085 54.7668 80.6625 53.1282 80.4802C46.5859 79.9491 41.1608 76.9266 36.6271 72.2611C35.2788 70.988 34.0716 69.4283 32.7555 68.0341C31.4286 66.6802 30.0251 65.3706 28.5449 64.1052C28.125 63.7322 27.4874 63.69 26.6276 63.2632C26.6409 67.3586 27.772 70.9112 28.5076 74.4871C29.2432 78.0629 29.6277 81.7389 31.1866 85.1471C31.9453 85.2219 32.583 85.2641 33.253 85.185C37.0748 84.7223 40.8242 85.0194 44.5779 86.0322C47.5606 86.772 50.5755 87.3906 53.5905 88.0092C56.1211 88.4971 58.6275 88.5887 61.4039 87.9089ZM118.946 165.266C117.634 164.587 117.061 164.302 116.488 164.018C112.213 162.28 107.713 161.391 103.168 160.424C98.0628 159.372 92.9979 159.629 88.0625 161.35C84.7171 162.461 81.3516 163.891 78.1072 165.354C73.8984 167.271 69.7218 169.067 65.2787 170.401C62.6355 171.312 60.1255 172.453 57.4944 173.562C56.99 173.75 56.5422 174.214 55.6343 174.943C57.1841 174.972 58.064 175.079 58.9317 174.989C65.0377 174.233 71.0872 173.202 76.9912 171.742C83.7144 170.049 90.4458 168.488 97.1852 167.059C100.236 166.323 103.465 165.895 106.584 165.633C110.418 165.368 114.232 165.423 118.946 165.266ZM257.053 54.9615C250.243 50.0716 242.905 46.9227 235.752 43.564C235.223 43.3564 234.586 43.3143 233.662 43.1299C233.92 44.1089 234.078 44.736 234.312 45.3188C235.604 48.2654 237.587 50.8137 239.601 53.2408C242.557 56.766 245.512 60.2912 248.358 63.9819C251.935 68.5842 254.548 73.6407 255.232 79.6057C255.268 80.2001 255.426 80.8271 255.737 81.3657C256.003 81.8273 256.456 82.0791 256.875 82.4522C258.384 79.222 258.823 77.3271 258.431 74.1686C258.164 72.4079 257.831 70.6511 257.432 68.8982C256.438 64.3433 255.565 59.821 257.053 54.9615ZM101.253 233.95C98.8552 231.744 96.3282 230.023 93.4745 228.799C89.2767 227.017 84.8452 226.6 80.3656 227.34C76.0071 228.113 71.5841 229.128 67.2377 230.098C63.0891 231.058 58.8919 231.224 54.7105 230.356C53.0597 229.975 51.3523 229.32 49.6571 228.863C46.7078 231.899 42.7545 237.977 41.706 240.941C42.699 241.599 43.8089 241.574 44.9632 241.625C48.6238 241.768 52.0701 241.01 55.4356 239.579C59.0311 238.016 62.5822 236.377 66.2099 234.692C69.4099 233.153 72.7432 231.844 76.234 231.162C84.1156 229.586 91.5054 230.346 98.2911 234.839C98.5777 234.982 98.7432 235.091 98.9531 235.278C100.011 235.693 100.656 235.218 101.253 233.95ZM152.982 211.47C148.542 207.674 144.686 204.36 140.754 201.091C139.208 199.83 137.541 198.536 135.777 197.605C134.046 196.553 132.096 195.832 130.146 195.112C128.847 194.631 127.418 194.635 126.103 195.19C122.878 196.333 119.577 197.521 116.397 198.741C115.893 198.93 115.433 199.196 115.59 199.823C117.661 200.576 119.796 201.087 121.714 201.929C123.796 202.881 125.738 204.119 127.756 205.313C129.278 206.179 130.812 207.242 132.366 207.986C135.1 209.416 137.892 210.711 140.742 211.869C141.799 212.285 142.966 212.534 144.031 212.432C146.8 212.27 149.633 211.865 152.982 211.47ZM104.977 122.657C110.912 128.155 116.015 134.338 122.813 139.03C122.853 138.391 123.026 137.984 122.849 137.676C120.966 131.582 120.819 125.307 121.309 119.075C121.663 113.844 122.138 108.646 122.568 103.372C122.64 102.612 122.547 101.742 122.543 101.027C118.385 109.582 112.801 116.909 104.977 122.657ZM274.704 131.038C277.59 130.193 279.151 128.471 280.26 126.497C281.369 124.523 282.269 122.363 283.047 120.169C283.934 117.811 284.414 115.277 285.257 112.842C285.656 111.586 285.627 110.474 285.389 109.175C284.524 105.435 283.725 101.69 282.992 97.9419C281.994 92.6714 280.874 87.3683 278.899 82.3539C278.665 81.7711 278.156 81.2441 277.712 80.4748C276.406 84.409 276.067 86.6559 276.363 90.178C276.881 96.0334 277.521 101.921 278.116 107.733C278.597 112.994 278.882 118.266 277.329 123.368C276.684 125.792 275.797 128.151 274.704 131.038ZM174.86 210.942C183.897 211.367 192.55 212.013 201.143 213.617C201.264 213.65 201.341 213.605 201.494 213.517C201.571 213.472 201.603 213.351 201.635 213.23C195.854 207.644 173.137 196.448 166.244 196.017C169.974 200.531 173.309 205.068 174.86 210.942ZM73.4844 267.831C74.1141 268.39 74.2474 268.621 74.4451 268.61C77.7023 269.294 80.7775 268.954 83.6909 267.272C92.2011 262.359 98.9431 255.799 102.657 246.474C104.65 241.426 106.839 236.366 108.908 231.274C108.864 231.197 108.775 231.043 108.597 230.735C106.29 232.581 104.09 234.261 103.042 237.225C101.074 242.67 98.081 247.578 94.2159 251.861C88.7895 257.866 82.6766 263.036 75.4455 266.801C74.8644 267.034 74.3277 267.344 73.4844 267.831ZM367.201 209.447C368.467 204.203 367.812 199.35 366.091 194.599C365.857 194.016 365.501 193.401 365.114 192.907C362.223 189.139 358.84 185.758 354.791 183.172C354.384 182.997 353.919 182.547 353.286 183.221C353.613 184.673 354.106 186.235 354.446 187.885C354.83 189.612 355.06 191.428 355.323 193.123C355.473 194.267 356.115 195.025 356.833 195.739C360.273 199.394 363.22 203.437 365.861 207.657C366.337 208.305 366.769 208.876 367.201 209.447ZM334.223 178.532C336.154 183.469 338.375 187.316 340.442 191.251C342.954 195.956 346.74 198.796 351.608 200.499C353.558 201.22 355.495 201.743 357.477 202.342C358.038 202.429 358.655 202.79 359.353 201.874C358.877 201.226 358.433 200.457 357.88 199.853C355.126 197.032 352.559 194.001 349.543 191.434C344.836 187.176 339.79 183.216 334.223 178.532ZM272.944 304.693C268.287 305.125 264.679 306.49 261.096 308.251C255.507 310.965 251.577 315.49 248.277 320.575C247.842 321.237 246.998 321.724 247.39 322.934C251.203 321.04 255.053 319.741 259.137 319.024C260.356 318.833 261.187 318.148 261.841 317.155C264.821 313.11 268.195 309.452 271.963 306.182C272.226 305.928 272.323 305.564 272.944 304.693ZM24.8023 263.01C26.4355 262.888 28.0794 262.725 29.734 262.522C35.2267 262.12 40.7681 262.511 46.2449 263.145C47.5647 263.306 48.9611 263.423 50.3089 262.747C53.1134 261.231 55.829 259.56 58.0682 257.242C58.4394 256.822 58.524 256.26 58.8063 255.687C48.8255 255.397 31.0526 258.786 24.8023 263.01ZM254.615 269.936C248.654 271.121 228.97 282.177 226.058 285.808C226.497 285.862 226.937 285.915 227.256 285.936C231.405 284.977 235.477 284.063 239.581 283.026C240.557 282.77 241.522 282.316 242.365 281.829C246.877 279.02 250.79 275.529 253.985 271.325C254.203 270.994 254.332 270.509 254.615 269.936ZM369.309 199.819C369.326 200.733 369.394 201.206 369.342 201.646C369.371 204.707 369.521 207.8 369.43 210.828C369.329 212.425 369.612 213.8 370.335 215.229C372.338 219.407 374.264 223.628 376.223 227.729C377.44 230.309 378.667 232.848 379.906 235.348C380.217 235.886 380.342 236.634 381.286 236.499C380.031 231.138 378.776 225.777 377.52 220.415C377.161 219.084 376.833 217.632 376.397 216.345C374.866 212.1 373.38 207.932 371.772 203.731C371.336 202.444 370.779 201.125 369.309 199.819ZM353.28 191.533C353.276 190.817 353.514 190.167 353.324 189.661C352.799 187.571 352.208 185.484 351.551 183.402C350.945 181.29 349.584 179.819 347.481 179.186C343.518 177.987 339.663 176.622 335.776 175.379C335.655 175.346 335.437 175.677 335.284 175.766C337.856 179.512 346.495 187.039 353.28 191.533ZM248.495 279.521C249.609 280.211 250.364 279.571 251.098 279.249C257.434 276.412 263.192 272.575 268.174 267.749C269.07 266.821 270.176 266.081 270.857 264.251C266.434 265.266 262.54 266.489 258.779 267.942C258.045 268.263 257.423 269.135 256.988 269.797C254.842 272.985 252.32 275.877 249.379 278.396C249.04 278.694 248.866 279.102 248.495 279.521ZM247.976 269.768C246.938 269.034 246.308 268.474 245.602 267.959C242.292 265.767 239.027 265.6 235.722 268.021C233.479 269.624 231.07 271.118 229.258 273.292C230.417 274.059 231.171 273.418 232.027 273.13C234.65 272.538 237.273 271.947 239.989 272.225C242.871 272.613 245.24 271.758 247.976 269.768ZM250.114 269.047C252.911 268.047 255.433 267.104 257.911 266.084C260.433 265.141 263.222 264.659 266.123 262.779C258.176 262.648 251 262.791 243.474 264.982C245.912 266.549 247.931 267.743 250.114 269.047ZM239.377 274.528C234.876 273.638 230.938 274.784 227.08 276.601C226.575 276.79 226.051 277.298 225.724 277.794C224.647 279.647 223.57 281.5 222.538 283.429C222.396 283.716 222.3 284.08 222.158 284.366C222.522 284.464 222.732 284.651 222.885 284.562C228.397 281.243 233.894 277.898 239.377 274.528Z" fill="#BD9BD8"/>
</svg>
