<svg width="56" height="58" viewBox="0 0 56 58" fill="none" xmlns="http://www.w3.org/2000/svg">
<path d="M55.3072 32.1765H54.9673V23.634C54.9673 23.2745 54.6732 22.9804 54.3137 22.9804H53.3791V21.8366C53.3791 21.4771 53.085 21.183 52.7255 21.183H51.7124L52.8039 0.69281C52.8105 0.51634 52.7516 0.339869 52.6274 0.20915C52.5033 0.0784315 52.3333 0.0065361 52.1503 0.0065361H31.366C31.1895 0.0065361 31.0131 0.0784315 30.8889 0.20915C30.7647 0.339869 30.6993 0.51634 30.7124 0.69281L32.6993 38.0458H26.0523V17.1373C26.0523 13.7712 24.1242 10.9477 21.5294 10.1373V0.653595C21.5294 0.294118 21.2353 0 20.8758 0H14.281C13.9216 0 13.6275 0.294118 13.6275 0.653595V10.1307C11.0327 10.9412 9.10458 13.7712 9.10458 17.1307V29.7582H5.31372C4.63399 29.7582 4.09804 30.2092 4.09804 30.7843V35.1634H4.01961C3.24183 35.1634 2.60131 35.7974 2.60131 36.5817V40.9216H1.18954C0.535948 40.9216 0 41.4575 0 42.1111V56.8105C0 57.4641 0.535948 58 1.18954 58H12.9608C13.1046 58 13.2353 57.9739 13.366 57.9216C13.4575 57.9673 13.549 58 13.6536 58H55.3072C55.6667 58 55.9608 57.7059 55.9608 57.3464V32.8301C55.9608 32.4706 55.6667 32.1765 55.3072 32.1765ZM53.6601 32.1765H49.4641V24.2876H53.6601V32.1765ZM52.0719 22.9804H51.0523V22.4902H52.0719V22.9804ZM51.4575 1.30719L51.281 4.66013H32.2353L32.0588 1.30719H51.4575ZM32.3007 5.96732H51.2092L50.3987 21.183C50.0392 21.183 49.7451 21.4771 49.7451 21.8366V22.9804H48.8105C48.451 22.9804 48.1569 23.2745 48.1569 23.634V32.1765H47.817C47.4575 32.1765 47.1634 32.4706 47.1634 32.8301V48.4444H40.2092V40.3595C40.2092 39.085 39.1699 38.0458 37.8954 38.0458H34.0065L32.3007 5.96732ZM47.1569 56.6863H40.2092V49.7516H47.1569V56.6863ZM37.8954 39.3464C38.451 39.3464 38.902 39.7974 38.902 40.3529V43.8562H19.0654V40.3529C19.0654 39.7974 19.5163 39.3464 20.0719 39.3464H37.8954ZM14.9346 9.88889V1.30719H20.2157V9.88889H15.1503H14.9346ZM5.40523 31.0719L9.10458 31.0784V35.1699H5.40523V31.0719ZM4.01961 36.4706H10.4902C10.549 36.4706 10.6013 36.5163 10.6013 36.5817V38.0458H3.9085V36.5817C3.9085 36.5229 3.96078 36.4706 4.01961 36.4706ZM3.9085 39.3464H10.5948V40.915H3.9085V39.3464ZM12.8431 56.6863H1.30719V42.2288H12.8431V56.6863ZM11.9085 40.9216V36.5817C11.9085 35.8039 11.2745 35.1634 10.4902 35.1634L10.4118 17.1307C10.4118 13.8562 12.5359 11.1961 15.1503 11.1961H20.0065C22.6209 11.1961 24.7451 13.8627 24.7451 17.1307V38.0392H20.0719C18.7974 38.0392 17.7582 39.0784 17.7582 40.3529V56.6863H14.1438V42.1111C14.1438 41.4575 13.6078 40.9216 12.9542 40.9216H11.9085ZM19.0654 56.6863V45.1634H38.902V56.6863H19.0654ZM54.6536 56.6863H48.4641V33.4837H54.6536V56.6863Z" fill="#3C164F"/>
</svg>
