<svg width="61" height="59" viewBox="0 0 61 59" fill="none" xmlns="http://www.w3.org/2000/svg">
<path d="M57.6287 14.3559C56.3529 14.3559 55.3149 13.3179 55.3149 12.0421V11.6437H57.2899C57.7759 11.6437 58.1714 11.2483 58.1714 10.7622V4.31239C58.1714 2.27095 56.5105 0.610107 54.4691 0.610107H34.0427C32.0013 0.610107 30.3405 2.27095 30.3405 4.31239V10.7622C30.3405 11.2482 30.7359 11.6437 31.2219 11.6437H33.1969V12.0421C33.1969 13.3179 32.1589 14.3559 30.8831 14.3559C30.0574 14.3559 29.2629 14.6574 28.6459 15.205C28.4274 15.3989 28.4075 15.7332 28.6014 15.9516C28.7059 16.0694 28.8512 16.1295 28.9972 16.1295C29.122 16.1295 29.2473 16.0855 29.348 15.9962C29.7713 15.6205 30.3165 15.4137 30.8831 15.4137C32.7422 15.4137 34.2547 13.9012 34.2547 12.0421V11.6437H54.2571V12.0421C54.2571 13.9012 55.7696 15.4137 57.6287 15.4137C58.9046 15.4137 59.9425 16.4517 59.9425 17.7275V20.8094H34.3905C34.0984 20.8094 33.8616 21.0462 33.8616 21.3383C33.8616 21.6304 34.0984 21.8672 34.3905 21.8672H59.9425V52.2199H52.6099C52.3178 52.2199 52.081 52.4567 52.081 52.7488C52.081 53.0408 52.3178 53.2777 52.6099 53.2777H59.9425V54.6687C59.9425 56.4725 58.4751 57.94 56.6713 57.94H52.7607C52.4686 57.94 52.2318 58.1768 52.2318 58.4689C52.2318 58.7609 52.4686 58.9977 52.7607 58.9977H56.6713C57.8276 58.9977 58.9147 58.5475 59.7324 57.7298C60.55 56.9122 61.0003 55.825 61.0003 54.6687V17.7275C61.0003 15.8684 59.4878 14.3559 57.6287 14.3559ZM31.3982 4.31239C31.3982 2.85422 32.5845 1.66792 34.0427 1.66792H54.4691C55.9272 1.66792 57.1135 2.85422 57.1135 4.31239V10.5859H52.5019V7.23472C52.5019 6.94261 52.2651 6.70582 51.973 6.70582C51.6809 6.70582 51.4441 6.94263 51.4441 7.23472V10.5859H44.7848V4.73944C44.7848 4.44733 44.548 4.21054 44.2559 4.21054C43.9638 4.21054 43.727 4.44735 43.727 4.73944V10.5859H37.0677V7.23472C37.0677 6.94261 36.8309 6.70582 36.5388 6.70582C36.2467 6.70582 36.0099 6.94263 36.0099 7.23472V10.5859H31.3982V4.31239ZM13.7454 33.0648C13.5981 32.8126 13.2742 32.7276 13.0219 32.875C11.3009 33.8805 8.91959 33.5597 7.23113 32.095C7.01048 31.9036 6.67643 31.9273 6.48503 32.1479C6.31046 32.3492 6.3149 32.6447 6.48442 32.8404L5.66254 33.3301C5.41161 33.4796 5.32941 33.8042 5.47891 34.0552C5.57788 34.2213 5.75353 34.3134 5.93377 34.3134C6.02587 34.3134 6.11916 34.2894 6.204 34.2388L7.39642 33.5283C7.70419 33.7204 8.02727 33.8868 8.36237 34.0258L7.8872 34.8408C7.74008 35.0932 7.82539 35.417 8.07774 35.5641C8.1584 35.6113 8.25017 35.6362 8.34362 35.6362C8.52561 35.6362 8.70276 35.5422 8.80104 35.3736L9.3945 34.3556C9.59342 34.4012 9.7944 34.4373 9.99675 34.4638C10.2595 34.4984 10.5243 34.5157 10.7893 34.5159C11.1434 34.5159 11.4934 34.4843 11.8361 34.4212C12.4524 34.3078 13.0309 34.0949 13.5555 33.7883C13.8078 33.6409 13.8928 33.3171 13.7454 33.0648ZM14.8063 40.6889H14.8044C14.585 40.6889 14.4507 40.5677 14.3902 40.4953C14.3294 40.4227 14.2334 40.2685 14.273 40.0515L14.6965 37.7334C14.749 37.4461 14.5586 37.1706 14.2712 37.1181C13.9839 37.0657 13.7084 37.256 13.6559 37.5433L13.2325 39.8614C13.1468 40.3302 13.2731 40.8086 13.5788 41.1741C13.8835 41.5382 14.33 41.7468 14.8029 41.7467H14.808C15.0045 41.7467 15.2318 41.8114 15.4726 41.8798C15.7429 41.9566 16.0223 42.036 16.3092 42.036C16.596 42.036 16.8755 41.9566 17.1457 41.8798C17.3886 41.8108 17.6182 41.7457 17.8138 41.7467C18.2883 41.7467 18.7349 41.5382 19.0395 41.1741C19.3452 40.8086 19.4715 40.3302 19.3859 39.8614L18.9624 37.5433C18.91 37.256 18.6344 37.0656 18.3471 37.1181C18.0598 37.1706 17.8694 37.4461 17.9219 37.7334L18.3453 40.0515C18.3849 40.2685 18.2889 40.4227 18.2282 40.4953C18.1676 40.5677 18.0334 40.6889 17.8123 40.6889H17.8103C17.4665 40.6889 17.1425 40.781 16.8566 40.8623C16.6468 40.9219 16.4486 40.9782 16.3092 40.9782C16.1697 40.9782 15.9716 40.9219 15.7618 40.8623C15.4759 40.781 15.1518 40.6889 14.8063 40.6889ZM18.8426 46.1548C18.504 46.4695 17.8721 46.8878 16.3007 46.8878C14.7294 46.8878 14.0974 46.4695 13.7588 46.1548C13.5448 45.956 13.2101 45.9683 13.0113 46.1823C12.8125 46.3963 12.8248 46.7309 13.0388 46.9297C13.7847 47.6228 14.8212 47.9456 16.3007 47.9456C17.7803 47.9456 18.8168 47.6228 19.5627 46.9297C19.7767 46.7309 19.7889 46.3963 19.5901 46.1823C19.3913 45.9683 19.0566 45.956 18.8426 46.1548ZM7.06157 30.4058C7.0744 30.4013 8.36249 29.9478 9.84793 29.7628C11.1362 29.6023 12.8323 29.6142 13.5962 30.5818C13.7006 30.7141 13.8554 30.783 14.0117 30.783C14.1264 30.783 14.242 30.7458 14.3391 30.6692C14.5683 30.4882 14.6075 30.1557 14.4265 29.9264C13.9398 29.3099 13.2057 28.9079 12.2447 28.7315C11.5269 28.5998 10.6765 28.5936 9.71721 28.7131C8.11844 28.9122 6.76441 29.3888 6.70756 29.409C6.4323 29.5068 6.28841 29.8092 6.38616 30.0844C6.48391 30.3597 6.78627 30.5036 7.06157 30.4058ZM26.1333 32.1479C25.9419 31.9273 25.6078 31.9036 25.3872 32.095C23.6987 33.5597 21.3174 33.8805 19.5964 32.875C19.3442 32.7276 19.0203 32.8126 18.8729 33.0648C18.7255 33.3171 18.8105 33.6409 19.0628 33.7883C19.5874 34.0948 20.1659 34.3078 20.7822 34.4212C21.1249 34.4843 21.4749 34.5159 21.829 34.5159C22.0914 34.5159 22.356 34.4985 22.6215 34.4638C22.8239 34.4373 23.0249 34.4012 23.2238 34.3556L23.8173 35.3736C23.9156 35.5422 24.0927 35.6362 24.2747 35.6362C24.3651 35.6362 24.4568 35.613 24.5406 35.5641C24.7929 35.417 24.8782 35.0932 24.7311 34.8408L24.2559 34.0258C24.591 33.8868 24.9141 33.7204 25.2219 33.5283L26.4143 34.2388C26.496 34.2876 26.5894 34.3134 26.6845 34.3134C26.8647 34.3134 27.0404 34.2212 27.1394 34.0552C27.2889 33.8042 27.2067 33.4796 26.9557 33.3301L26.1339 32.8403C26.3034 32.6447 26.3078 32.3492 26.1333 32.1479ZM18.2792 30.6692C18.3724 30.743 18.4878 30.7831 18.6066 30.783C18.7629 30.783 18.9177 30.714 19.0221 30.5818C19.7835 29.6173 21.4716 29.6029 22.7536 29.7607C24.2405 29.9437 25.5439 30.4013 25.5567 30.4058C25.832 30.5035 26.1344 30.3597 26.2321 30.0844C26.3299 29.8091 26.186 29.5068 25.9107 29.409C25.8539 29.3888 24.4999 28.9122 22.9011 28.7131C21.9418 28.5936 21.0914 28.5998 20.3736 28.7315C19.4126 28.9079 18.6785 29.3099 18.1918 29.9264C18.0108 30.1556 18.05 30.4882 18.2792 30.6692Z" fill="#3C164F"/>
<path d="M47.7311 46.9754C47.6462 46.8972 47.56 46.8204 47.4726 46.745L40.4747 38.1868C40.2383 37.3663 39.9892 36.5584 39.7267 35.766C38.7048 32.6805 37.4831 29.8086 36.0954 27.2301C32.9079 21.3073 28.8499 16.8977 24.0343 14.1238C23.4933 13.7964 22.9498 13.5083 22.419 13.2673C22.4158 13.2659 22.4126 13.2645 22.4095 13.2631C22.3975 13.2573 22.3854 13.2519 22.373 13.2468C20.4455 12.3837 18.4054 11.946 16.3094 11.946C14.6319 11.946 12.9817 12.2273 11.4047 12.7821C9.88106 13.3181 8.44934 14.1002 7.14927 15.1068C5.86672 16.0999 4.73961 17.2899 3.79922 18.6437C2.85065 20.0094 2.11286 21.5124 1.60626 23.1113C1.59764 23.1361 1.58983 23.1613 1.58283 23.1866C1.58103 23.193 1.57931 23.1995 1.57722 23.2059C1.57577 23.2102 1.57439 23.2145 1.57307 23.2189C1.45227 23.6152 1.34698 24.0044 1.26011 24.3755C0.815292 26.1111 0.33187 28.5528 0.116446 33.4946C-0.122438 38.9751 0.0054269 46.5624 0.507398 56.69C0.521407 56.9729 0.755126 57.1928 1.03522 57.1928C1.04404 57.1928 1.05292 57.1925 1.06183 57.1921C1.35358 57.1776 1.57836 56.9294 1.5639 56.6377C0.498359 35.1398 1.2813 28.5509 2.2861 24.633C2.28704 24.6293 2.28794 24.6256 2.2888 24.6219C2.37024 24.2734 2.46928 23.9071 2.5832 23.5329C2.59038 23.5108 2.59599 23.491 2.6002 23.4763C2.60163 23.4713 2.60296 23.4663 2.60443 23.4615C2.60699 23.4545 2.6094 23.4474 2.61165 23.4403C4.52913 17.3757 9.77945 13.2445 15.7799 13.0141V17.95C15.7799 18.9319 15.038 19.7657 14.054 19.8893C11.2496 20.2415 8.87502 21.278 6.99624 22.9699C6.14548 23.7361 5.39768 24.6391 4.77359 25.654C4.6315 25.8852 4.4965 26.1208 4.36877 26.3602C3.77106 27.4802 3.36792 28.6937 3.15936 29.9459C2.99017 30.962 2.77624 32.3815 2.71055 33.4134C2.56774 35.6573 2.59392 38.0527 2.78625 40.3406C3.1359 44.5001 4.20117 50.2863 7.27355 54.4906C7.23441 54.5494 7.19461 54.6077 7.15416 54.6656C6.11044 56.1585 4.20392 57.9378 1.04631 57.9422C0.751193 57.9426 0.501391 58.1839 0.505715 58.479C0.509942 58.7674 0.745108 59 1.03455 59C4.65471 59 6.83202 56.9725 8.02108 55.2717C9.21 53.5711 9.79004 51.6916 9.97879 50.2749C11.261 51.2612 12.6687 52.0358 14.1744 52.5823C14.4142 52.6693 14.6721 52.7409 14.9629 52.8011C15.4137 52.8943 15.8643 52.941 16.3117 52.941C16.7654 52.941 17.2159 52.893 17.6597 52.7971C17.9545 52.7334 18.2156 52.6594 18.4578 52.5708C19.9323 52.0321 21.3182 51.2712 22.5771 50.3094C22.5966 50.2946 22.6158 50.2793 22.6351 50.2643C22.7907 51.4521 23.2221 52.9584 24.0663 54.429C23.0909 55.7152 21.897 56.9419 20.4348 58.0469C20.2017 58.223 20.1556 58.5547 20.3317 58.7877C20.4357 58.9254 20.5939 58.9978 20.7541 58.9978C20.8651 58.9978 20.9771 58.9629 21.0725 58.8908C22.633 57.7115 23.9828 56.3426 25.1162 54.7929C25.125 54.7818 25.1333 54.7704 25.1411 54.7588C26.5593 52.811 27.6368 50.5788 28.3616 48.0791C29.423 44.4187 29.4686 41.0147 29.4705 39.4022C30.2288 38.5633 30.8255 37.6066 31.2449 36.5546C31.6917 35.434 31.9182 34.2545 31.9182 33.0489V32.377C31.9182 31.7721 31.7377 31.1897 31.3962 30.693C31.0634 30.2088 30.6001 29.8366 30.0566 29.6166C29.697 29.4711 29.4307 29.2175 29.2956 28.8965C29.2917 28.8607 29.2842 28.8253 29.2731 28.791C28.9088 27.659 28.4281 26.6036 27.8441 25.654C27.22 24.6391 26.4722 23.736 25.6215 22.9699C23.7427 21.278 21.3681 20.2415 18.5637 19.8892C17.5798 19.7656 16.8378 18.9319 16.8378 17.9499V13.0139C18.6024 13.0811 20.3203 13.4849 21.9519 14.2172C21.9543 14.2183 21.9568 14.2194 21.9593 14.2205C21.9681 14.2247 21.9798 14.2302 21.9938 14.236C22.4847 14.4594 22.9884 14.727 23.4914 15.0317C23.4947 15.0337 23.4981 15.0357 23.5015 15.0376C34.7523 21.5147 39.1761 35.8183 40.8471 44.2176C40.7864 44.2165 40.7256 44.2159 40.6649 44.2159H34.4384C33.333 44.2159 32.2577 44.6711 31.4884 45.4648C31.2578 45.7027 31.1333 46.0179 31.1394 46.35C31.1453 46.6769 31.2867 46.9857 31.5168 47.218C31.5926 47.2946 31.6713 47.3677 31.7526 47.4377C30.9284 47.5736 30.1593 47.9468 29.5362 48.5219C29.2829 48.7557 29.1377 49.0874 29.1377 49.4321C29.1377 49.7768 29.283 50.1086 29.5362 50.3424C30.0998 50.8625 30.7829 51.2172 31.5181 51.3808C31.4655 51.4203 31.4137 51.4608 31.3628 51.5023C31.0788 51.7342 30.8991 52.0741 30.8882 52.4406C30.8768 52.824 31.041 53.1869 31.3348 53.4309C32.015 53.9959 32.8398 54.3583 33.7083 54.4821C33.4915 54.7119 33.3707 55.0159 33.3708 55.3319C33.3707 55.5101 33.4091 55.6862 33.4834 55.8482C33.5577 56.0102 33.666 56.1542 33.8011 56.2704C34.4912 56.8646 35.3715 57.1914 36.2821 57.1916H41.068C41.7688 57.1916 42.3396 57.7588 42.3453 58.4583C42.3476 58.7509 42.5791 58.9963 42.8717 58.9977C43.1649 58.9991 43.4031 58.7618 43.4031 58.4688C43.4031 57.1813 42.3556 56.1338 41.068 56.1338H36.2821C35.6249 56.1337 34.9895 55.8977 34.4914 55.4689C34.4367 55.4218 34.4286 55.3628 34.4286 55.3319C34.4286 55.3009 34.4367 55.2419 34.4914 55.1948C34.9895 54.766 35.6249 54.5301 36.2821 54.53H42.8632C43.1514 54.53 43.395 54.3041 43.4029 54.016C43.4111 53.7171 43.1712 53.4722 42.8742 53.4722H34.3781C33.5152 53.4722 32.6745 53.1685 32.0107 52.6172C31.9539 52.57 31.9454 52.5098 31.9454 52.4781C31.9454 52.4464 31.9539 52.3862 32.0107 52.339C32.6745 51.7876 33.5152 51.484 34.3781 51.484H42.8632C43.1514 51.484 43.395 51.2581 43.4029 50.97C43.4111 50.6711 43.1712 50.4262 42.8742 50.4262H32.4565C31.6377 50.4262 30.8553 50.1204 30.2536 49.565C30.203 49.5183 30.1954 49.4617 30.1954 49.4321C30.1954 49.4025 30.203 49.3459 30.2536 49.2992C30.8553 48.7438 31.6377 48.438 32.4565 48.438H41.9168C42.205 48.438 42.4486 48.2121 42.4565 47.924C42.4647 47.6251 42.2249 47.3802 41.9278 47.3802H34.4383C33.6175 47.3802 32.8191 47.0422 32.2479 46.4529C32.215 46.4192 32.1966 46.374 32.1966 46.327C32.1966 46.2799 32.215 46.2347 32.2479 46.2011C32.8191 45.6117 33.6175 45.2737 34.4383 45.2737H40.6648C42.899 45.2737 45.0395 46.0634 46.7336 47.505C46.7467 47.5173 46.7604 47.529 46.7746 47.5399C46.8557 47.6097 46.9356 47.6808 47.0143 47.7533C48.9335 49.522 50.0342 52.0332 50.0342 54.6431V58.4579C50.0342 58.7461 50.2601 58.9897 50.5482 58.9976C50.8471 59.0058 51.092 58.766 51.092 58.4689V54.6431C51.092 53.1933 50.7969 51.785 50.2149 50.4572C49.6329 49.1293 48.7972 47.9579 47.7311 46.9754ZM23.6261 49.4354C24.3911 48.7424 25.1046 47.9672 25.7566 47.1194C26.7466 45.8323 27.5939 44.3798 28.2712 42.8198C27.9941 45.8148 27.1741 49.8127 24.7484 53.4681C23.9701 51.9469 23.657 50.4221 23.6261 49.4354ZM16.5407 19.9464C17.0289 20.4945 17.7005 20.8469 18.4318 20.9388C24.5601 21.7086 27.1407 25.7154 28.2264 28.9935C28.2293 29.0362 28.2374 29.0784 28.2505 29.1192C28.4637 29.7822 28.9773 30.321 29.6597 30.5972C30.3891 30.8924 30.8604 31.5911 30.8604 32.3771V33.049C30.8604 35.207 30.0425 37.261 28.5573 38.8328C28.5564 38.8337 28.5556 38.8348 28.5547 38.8357C28.5484 38.8425 28.5422 38.8494 28.5363 38.8565C28.5357 38.8572 28.535 38.8579 28.5344 38.8586C28.5277 38.8667 28.5213 38.875 28.5151 38.8835C28.5139 38.885 28.5129 38.8866 28.5118 38.8882C28.5065 38.8955 28.5015 38.9029 28.4966 38.9105C28.4956 38.912 28.4947 38.9134 28.4938 38.9149C28.4762 38.9428 28.4613 38.9723 28.4493 39.003L28.449 39.0038C28.4406 39.0253 28.4336 39.0472 28.4281 39.0696C26.9286 45.0852 23.0658 49.761 18.0948 51.5773C17.8985 51.6491 17.6831 51.7099 17.4363 51.7632C16.6998 51.9223 15.9398 51.923 15.1772 51.7653C14.9367 51.7155 14.7268 51.6576 14.5353 51.5881C11.3539 50.4333 8.63446 48.1606 6.67085 45.0156C6.51616 44.7678 6.18992 44.6924 5.94211 44.8471C5.69432 45.0018 5.61888 45.328 5.77359 45.5758C6.6947 47.0511 7.77548 48.3524 8.98974 49.4494C8.95442 50.5292 8.59634 52.0451 7.85942 53.4878C5.13661 49.5145 4.16798 44.1504 3.84029 40.2521C3.44902 35.5974 3.82227 31.0637 4.3935 28.9868C5.48042 25.71 8.06166 21.7081 14.1858 20.9389C14.9171 20.847 15.5888 20.4946 16.077 19.9465C16.1603 19.8528 16.2378 19.754 16.3088 19.6507C16.3799 19.754 16.4573 19.8528 16.5407 19.9464ZM41.9398 44.2937C41.7013 43.0679 41.4347 41.8588 41.1406 40.6722L44.7039 45.03C44.6223 44.9957 44.5403 44.9625 44.4578 44.9303C43.643 44.612 42.8001 44.3993 41.9398 44.2937ZM45.3631 32.9314L46.8396 37.3886C46.8746 37.4941 46.9419 37.5859 47.032 37.651C47.1222 37.7161 47.2305 37.7512 47.3417 37.7512C47.4529 37.7512 47.5612 37.7161 47.6514 37.651C47.7415 37.5859 47.8088 37.4941 47.8438 37.3886L49.3203 32.9314L53.7775 31.4548C53.883 31.4199 53.9748 31.3526 54.0399 31.2624C54.105 31.1723 54.1401 31.064 54.1401 30.9528C54.1401 30.8416 54.105 30.7333 54.0399 30.6431C53.9748 30.553 53.883 30.4857 53.7775 30.4507L49.3203 28.9742L47.8438 24.517C47.8088 24.4115 47.7415 24.3197 47.6513 24.2546C47.5612 24.1895 47.4529 24.1545 47.3417 24.1545C47.2305 24.1545 47.1222 24.1895 47.0321 24.2546C46.9419 24.3197 46.8746 24.4115 46.8396 24.517L45.3631 28.9742L40.9059 30.4507C40.8004 30.4857 40.7086 30.553 40.6435 30.6431C40.5784 30.7333 40.5434 30.8416 40.5434 30.9528C40.5434 31.064 40.5784 31.1723 40.6435 31.2624C40.7086 31.3526 40.8004 31.4199 40.9059 31.4548L45.3631 32.9314ZM45.9479 29.8948C46.0262 29.8688 46.0973 29.825 46.1556 29.7667C46.2139 29.7084 46.2578 29.6373 46.2837 29.559L47.3417 26.3652L48.3997 29.559C48.4256 29.6373 48.4695 29.7084 48.5278 29.7667C48.5861 29.825 48.6572 29.8688 48.7354 29.8948L51.9292 30.9528L48.7354 32.0107C48.6572 32.0367 48.5861 32.0805 48.5278 32.1388C48.4695 32.1971 48.4256 32.2682 48.3997 32.3465L47.3417 35.5403L46.2837 32.3465C46.2578 32.2682 46.2139 32.1971 46.1556 32.1388C46.0973 32.0805 46.0262 32.0367 45.9479 32.0107L42.7542 30.9528L45.9479 29.8948ZM52.7663 45.8732C52.8774 45.8732 52.9858 45.8382 53.0759 45.7731C53.166 45.708 53.2334 45.6162 53.2683 45.5106L54.226 42.6195L57.1171 41.6618C57.2227 41.6269 57.3145 41.5596 57.3796 41.4694C57.4447 41.3793 57.4797 41.2709 57.4797 41.1598C57.4797 41.0486 57.4447 40.9402 57.3796 40.8501C57.3145 40.76 57.2227 40.6927 57.1171 40.6577L54.226 39.7L53.2683 36.8089C53.2334 36.7034 53.166 36.6115 53.0759 36.5464C52.9858 36.4813 52.8774 36.4463 52.7663 36.4463C52.6551 36.4463 52.5467 36.4813 52.4566 36.5464C52.3665 36.6115 52.2991 36.7034 52.2642 36.8089L51.3065 39.7L48.4154 40.6577C48.3099 40.6927 48.218 40.76 48.1529 40.8501C48.0878 40.9402 48.0528 41.0486 48.0528 41.1598C48.0528 41.2709 48.0878 41.3793 48.1529 41.4694C48.218 41.5596 48.3099 41.6269 48.4154 41.6618L51.3065 42.6195L52.2642 45.5106C52.2992 45.6162 52.3665 45.708 52.4566 45.7731C52.5467 45.8382 52.6551 45.8732 52.7663 45.8732ZM51.8913 41.699L50.2636 41.1597L51.8913 40.6205C51.9696 40.5946 52.0407 40.5507 52.099 40.4925C52.1573 40.4342 52.2011 40.363 52.2271 40.2848L52.7663 38.6571L53.3055 40.2848C53.3314 40.363 53.3753 40.4342 53.4336 40.4925C53.4918 40.5508 53.563 40.5946 53.6412 40.6205L55.2689 41.1597L53.6412 41.699C53.563 41.7249 53.4918 41.7687 53.4336 41.827C53.3753 41.8853 53.3314 41.9564 53.3055 42.0347L52.7663 43.6624L52.2271 42.0347C52.2011 41.9564 52.1573 41.8853 52.099 41.827C52.0407 41.7687 51.9696 41.7249 51.8913 41.699Z" fill="#3C164F"/>
</svg>
