<svg width="63" height="58" viewBox="0 0 63 58" fill="none" xmlns="http://www.w3.org/2000/svg">
<path d="M54.6109 41.9007H50.3897C50.4261 41.6836 50.4443 41.4639 50.4443 41.2403V33.0203C50.4443 26.2719 44.9544 20.782 38.206 20.782H36.3054C39.8713 18.9633 42.3193 15.2582 42.3193 10.989C42.3193 4.92964 37.3896 0 31.3303 0C25.2709 0 20.3413 4.92964 20.3413 10.989C20.3413 15.2582 22.7905 18.9646 26.3551 20.782H24.4545C17.7062 20.782 12.2162 26.2719 12.2162 33.0203V41.2403C12.2162 41.4639 12.2344 41.6836 12.2708 41.9007H8.04967C3.61143 41.9007 0 45.5121 0 49.9503C0 54.3886 3.61143 58 8.04967 58H54.6109C59.0491 58 62.6605 54.3886 62.6605 49.9503C62.6605 45.5108 59.0491 41.9007 54.6109 41.9007ZM21.9013 10.9877C21.9013 5.78895 26.1315 1.55871 31.3303 1.55871C36.529 1.55871 40.7593 5.78895 40.7593 10.9877C40.7593 16.1864 36.529 20.4167 31.3303 20.4167C26.1315 20.4167 21.9013 16.1864 21.9013 10.9877ZM13.7762 41.2403V33.0203C13.7762 27.1325 18.5668 22.342 24.4545 22.342H38.2047C44.0925 22.342 48.883 27.1325 48.883 33.0203V41.2403C48.883 41.4665 48.8492 41.6862 48.7894 41.9007H39.9948V34.4763C39.9948 34.046 39.6451 33.6963 39.2148 33.6963C38.7845 33.6963 38.4348 34.046 38.4348 34.4763V41.9007H24.2257V34.4763C24.2257 34.046 23.876 33.6963 23.4457 33.6963C23.0154 33.6963 22.6657 34.046 22.6657 34.4763V41.9007H13.8711C13.81 41.6862 13.7762 41.4665 13.7762 41.2403ZM54.6109 56.44H8.04967C4.47074 56.44 1.56001 53.5293 1.56001 49.9503C1.56001 46.3714 4.47074 43.4607 8.04967 43.4607H54.6109C58.1898 43.4607 61.1005 46.3714 61.1005 49.9503C61.1005 53.5293 58.1898 56.44 54.6109 56.44ZM16.7415 48.0549L13.5929 47.8846L12.458 44.9427C12.3423 44.6424 12.0524 44.4435 11.73 44.4435C11.4076 44.4435 11.119 44.6424 11.002 44.9427L9.86709 47.8846L6.71846 48.0549C6.56108 48.0632 6.40993 48.1191 6.28503 48.2152C6.16014 48.3113 6.06738 48.4431 6.01905 48.5931C5.91895 48.8999 6.01905 49.2366 6.26865 49.4394L8.71528 51.4284L7.90407 54.4757C7.86364 54.6279 7.87019 54.7889 7.92285 54.9374C7.97551 55.0858 8.07183 55.2149 8.19917 55.3077C8.33567 55.4065 8.49687 55.4572 8.65808 55.4572C8.80498 55.4572 8.95318 55.4156 9.08188 55.3324L11.7287 53.6203L14.3755 55.3324C14.5079 55.4179 14.663 55.4613 14.8205 55.4572C14.978 55.453 15.1306 55.4013 15.2582 55.309C15.5195 55.1192 15.6365 54.789 15.5533 54.477L14.7421 51.4297L17.1887 49.4407C17.4384 49.2379 17.5385 48.9012 17.4384 48.5944C17.3421 48.2863 17.0639 48.0731 16.7415 48.0549ZM13.3693 50.5353C13.2528 50.6302 13.1661 50.7568 13.1197 50.8998C13.0734 51.0428 13.0693 51.1961 13.108 51.3413L13.5292 52.9222L12.1551 52.033C12.0288 51.9515 11.8816 51.9081 11.7313 51.9081C11.581 51.9081 11.4338 51.9515 11.3075 52.033L9.93339 52.9222L10.3546 51.3413C10.4339 51.0449 10.3312 50.729 10.0933 50.5353L8.82318 49.5031L10.4573 49.4147C10.6073 49.4065 10.7517 49.3551 10.8733 49.2668C10.9948 49.1785 11.0883 49.057 11.1424 48.9168L11.7313 47.3906L12.3202 48.9168C12.4307 49.2028 12.6985 49.3978 13.0053 49.4147L14.6394 49.5031L13.3693 50.5353ZM29.808 48.0549L26.6593 47.8846L25.5244 44.9427C25.4087 44.6424 25.1188 44.4435 24.7964 44.4435C24.474 44.4435 24.1854 44.6424 24.0684 44.9427L22.9335 47.8846L19.7849 48.0549C19.6275 48.0632 19.4763 48.1191 19.3514 48.2152C19.2265 48.3113 19.1338 48.4431 19.0855 48.5931C18.9854 48.8999 19.0855 49.2366 19.3351 49.4394L21.7817 51.4284L20.9705 54.4757C20.9298 54.628 20.9362 54.789 20.9889 54.9376C21.0415 55.0862 21.138 55.2153 21.2656 55.3079C21.3931 55.4006 21.5458 55.4524 21.7033 55.4565C21.8609 55.4606 22.0161 55.4169 22.1483 55.3311L24.7951 53.619L27.4419 55.3311C27.5706 55.4143 27.7188 55.4559 27.8657 55.4559C28.0269 55.4559 28.1881 55.4065 28.3246 55.3064C28.5859 55.1166 28.7029 54.7864 28.6197 54.4744L27.8085 51.4271L30.2552 49.4381C30.5048 49.2353 30.6049 48.8986 30.5048 48.5918C30.4086 48.2863 30.1304 48.0731 29.808 48.0549ZM26.4357 50.5353C26.3192 50.6302 26.2325 50.7568 26.1861 50.8998C26.1398 51.0428 26.1357 51.1961 26.1744 51.3413L26.5956 52.9222L25.2202 52.0343C25.0915 51.9511 24.9446 51.9095 24.7964 51.9095C24.6482 51.9095 24.5013 51.9511 24.3726 52.0343L22.9985 52.9235L23.4197 51.3426C23.499 51.0462 23.3963 50.7303 23.1584 50.5366L21.8883 49.5044L23.5224 49.416C23.6724 49.4078 23.8169 49.3564 23.9384 49.2681C24.0599 49.1798 24.1534 49.0583 24.2075 48.9181L24.7964 47.3919L25.3853 48.9181C25.4958 49.2041 25.7636 49.3991 26.0704 49.416L27.7045 49.5044L26.4357 50.5353ZM42.8744 48.0549L39.7257 47.8846L38.5908 44.9427C38.4751 44.6424 38.1852 44.4435 37.8628 44.4435C37.5404 44.4435 37.2518 44.6424 37.1348 44.9427L35.9999 47.8846L32.8513 48.0549C32.6939 48.0632 32.5428 48.1191 32.4179 48.2152C32.293 48.3113 32.2002 48.4431 32.1519 48.5931C32.0518 48.8999 32.1519 49.2366 32.4015 49.4394L34.8481 51.4284L34.0369 54.4757C33.9965 54.6279 34.003 54.7889 34.0557 54.9374C34.1083 55.0858 34.2047 55.2149 34.332 55.3077C34.4685 55.4065 34.6297 55.4572 34.7909 55.4572C34.9378 55.4572 35.086 55.4156 35.2147 55.3324L37.8615 53.6203L40.5084 55.3324C40.6407 55.4179 40.7958 55.4613 40.9533 55.4572C41.1108 55.453 41.2634 55.4013 41.3911 55.309C41.6524 55.1192 41.7694 54.789 41.6862 54.477L40.875 51.4297L43.3216 49.4407C43.5712 49.2379 43.6713 48.9012 43.5712 48.5944C43.475 48.2863 43.1968 48.0731 42.8744 48.0549ZM39.5021 50.5353C39.3856 50.6302 39.2989 50.7568 39.2526 50.8998C39.2062 51.0428 39.2021 51.1961 39.2408 51.3413L39.662 52.9222L38.2879 52.033C38.1616 51.9515 38.0145 51.9081 37.8641 51.9081C37.7138 51.9081 37.5667 51.9515 37.4403 52.033L36.0662 52.9222L36.4874 51.3413C36.5667 51.0449 36.464 50.729 36.2261 50.5353L34.956 49.5031L36.5901 49.4147C36.7401 49.4065 36.8846 49.3551 37.0061 49.2668C37.1276 49.1785 37.2211 49.057 37.2752 48.9168L37.8641 47.3906L38.453 48.9168C38.5635 49.2028 38.8313 49.3978 39.1381 49.4147L40.7723 49.5031L39.5021 50.5353ZM55.9421 48.0549L52.7935 47.8846L51.6585 44.9427C51.5428 44.6424 51.2529 44.4435 50.9305 44.4435C50.6081 44.4435 50.3195 44.6424 50.2025 44.9427L49.0676 47.8846L45.919 48.0549C45.7616 48.0632 45.6105 48.1191 45.4856 48.2152C45.3607 48.3113 45.2679 48.4431 45.2196 48.5931C45.1195 48.8999 45.2196 49.2366 45.4692 49.4394L47.9158 51.4284L47.1046 54.4757C47.0639 54.628 47.0703 54.789 47.123 54.9376C47.1757 55.0862 47.2722 55.2153 47.3997 55.3079C47.5273 55.4006 47.6799 55.4524 47.8375 55.4565C47.9951 55.4606 48.1502 55.4169 48.2824 55.3311L50.9292 53.619L53.5761 55.3311C53.7048 55.4143 53.853 55.4559 53.9999 55.4559C54.1611 55.4559 54.3223 55.4065 54.4588 55.3064C54.7201 55.1166 54.8371 54.7864 54.7539 54.4744L53.9427 51.4271L56.3893 49.4381C56.6389 49.2353 56.739 48.8986 56.6389 48.5918C56.5414 48.2863 56.2632 48.0731 55.9421 48.0549ZM52.5686 50.5353C52.452 50.6302 52.3653 50.7568 52.319 50.8998C52.2726 51.0428 52.2685 51.1961 52.3073 51.3413L52.7285 52.9222L51.3543 52.033C51.2256 51.9497 51.0787 51.9081 50.9305 51.9081C50.7823 51.9081 50.6354 51.9497 50.5067 52.033L49.1326 52.9222L49.5538 51.3413C49.6331 51.0449 49.5304 50.729 49.2925 50.5353L48.0224 49.5031L49.6565 49.4147C49.8065 49.4065 49.951 49.3551 50.0725 49.2668C50.194 49.1785 50.2875 49.057 50.3416 48.9168L50.9305 47.3906L51.5194 48.9168C51.6299 49.2028 51.8978 49.3978 52.2046 49.4147L53.8387 49.5031L52.5686 50.5353Z" fill="#3C164F"/>
</svg>
