<svg width="56" height="58" viewBox="0 0 56 58" fill="none" xmlns="http://www.w3.org/2000/svg">
<path fill-rule="evenodd" clip-rule="evenodd" d="M32.6788 40.394C32.5027 40.394 32.3338 40.324 32.2092 40.1995C32.0847 40.0749 32.0147 39.906 32.0147 39.7299V34.6672C32.0147 34.58 32.0318 34.4936 32.0652 34.413C32.0985 34.3325 32.1474 34.2593 32.2091 34.1976C32.2708 34.136 32.344 34.0871 32.4246 34.0538C32.5052 34.0204 32.5916 34.0033 32.6788 34.0034C32.766 34.0033 32.8524 34.0205 32.9331 34.0538C33.0137 34.0871 33.0869 34.1361 33.1486 34.1977C33.2103 34.2594 33.2592 34.3327 33.2925 34.4133C33.3259 34.4939 33.343 34.5803 33.3429 34.6675V39.7299C33.3429 40.0966 33.0455 40.394 32.6788 40.394ZM7.5922 40.6709C7.41604 40.6709 7.24709 40.6009 7.12248 40.4764C6.99788 40.3519 6.92783 40.1829 6.92773 40.0068V34.5531C6.92773 34.377 6.9977 34.2081 7.12224 34.0835C7.24679 33.959 7.4157 33.889 7.59183 33.889C7.76796 33.889 7.93688 33.959 8.06142 34.0835C8.18596 34.2081 8.25593 34.377 8.25593 34.5531V40.0068C8.25593 40.3735 7.95891 40.6709 7.5922 40.6709Z" fill="#3C164F"/>
<path fill-rule="evenodd" clip-rule="evenodd" d="M10.4877 45.7459H9.20348C9.0312 45.7401 8.8679 45.6676 8.74807 45.5437C8.62824 45.4198 8.56126 45.2542 8.56126 45.0818C8.56126 44.9094 8.62824 44.7438 8.74807 44.6199C8.8679 44.496 9.0312 44.4235 9.20348 44.4177H9.8236V42.9281C9.8236 41.6898 8.81702 40.6832 7.57864 40.6832C6.34026 40.6832 5.33405 41.6898 5.33405 42.9281V44.4177H5.96684C6.14297 44.4177 6.31189 44.4877 6.43643 44.6122C6.56097 44.7368 6.63094 44.9057 6.63094 45.0818C6.63094 45.2579 6.56097 45.4268 6.43643 45.5514C6.31189 45.6759 6.14297 45.7459 5.96684 45.7459H4.66996C4.49386 45.7458 4.325 45.6758 4.20048 45.5513C4.07596 45.4268 4.00596 45.2579 4.00586 45.0818V42.9278C4.00586 40.9575 5.60834 39.355 7.57864 39.355C9.54931 39.355 11.1518 40.9575 11.1518 42.9281V45.0818C11.1519 45.169 11.1348 45.2554 11.1014 45.336C11.0681 45.4167 11.0192 45.4899 10.9575 45.5516C10.8958 45.6133 10.8226 45.6622 10.7419 45.6955C10.6613 45.7289 10.5749 45.746 10.4877 45.7459ZM32.6783 40.394C32.1466 40.3946 31.6369 40.606 31.2608 40.9818C30.8848 41.3577 30.6731 41.8673 30.6722 42.3989C30.6729 42.9308 30.8845 43.4406 31.2605 43.8167C31.6366 44.1928 32.1465 44.4043 32.6783 44.405C33.2101 44.4044 33.7201 44.1929 34.0961 43.8168C34.4722 43.4407 34.6838 42.9308 34.6844 42.3989C34.6835 41.8673 34.4718 41.3577 34.0957 40.9818C33.7197 40.606 33.21 40.3946 32.6783 40.394ZM32.6783 45.7332C30.8407 45.7332 29.344 44.2381 29.344 42.3989C29.344 40.5613 30.8403 39.0658 32.6783 39.0658C34.5174 39.0658 36.0126 40.5613 36.0126 42.3989C36.0126 44.2381 34.5174 45.7332 32.6783 45.7332Z" fill="#3C164F"/>
<path fill-rule="evenodd" clip-rule="evenodd" d="M32.9544 43.063H32.4137C32.2414 43.0573 32.0781 42.9848 31.9583 42.8609C31.8385 42.7369 31.7715 42.5713 31.7715 42.3989C31.7715 42.2266 31.8385 42.0609 31.9583 41.937C32.0781 41.8131 32.2414 41.7406 32.4137 41.7348H32.9544C33.0417 41.7348 33.1281 41.7519 33.2087 41.7852C33.2893 41.8185 33.3626 41.8675 33.4243 41.9291C33.4859 41.9908 33.5349 42.0641 33.5682 42.1447C33.6015 42.2253 33.6186 42.3117 33.6185 42.3989C33.6185 42.7668 33.3219 43.063 32.9544 43.063ZM38.786 20.5207C35.9369 20.5207 33.6185 22.8383 33.6185 25.687C33.6185 28.536 35.9369 30.8548 38.786 30.8548C41.635 30.8548 43.9523 28.536 43.9523 25.687C43.9523 22.8379 41.635 20.5207 38.786 20.5207ZM38.786 32.1826C35.205 32.1826 32.2903 29.2694 32.2903 25.687C32.2903 22.106 35.2046 19.1925 38.786 19.1925C42.3673 19.1925 45.2805 22.106 45.2805 25.687C45.2805 29.2694 42.367 32.1826 38.786 32.1826Z" fill="#3C164F"/>
<path fill-rule="evenodd" clip-rule="evenodd" d="M46.1406 33.7057C45.971 33.7057 45.8003 33.6412 45.671 33.5119L42.4336 30.2756C42.3098 30.1508 42.2402 29.982 42.2402 29.8061C42.2402 29.6302 42.3098 29.4614 42.4336 29.3365C42.4954 29.2748 42.5686 29.2258 42.6492 29.1924C42.7299 29.159 42.8163 29.1418 42.9036 29.1418C42.9909 29.1418 43.0773 29.159 43.1579 29.1924C43.2385 29.2258 43.3118 29.2748 43.3735 29.3365L46.6098 32.5724C46.6715 32.6341 46.7205 32.7074 46.7539 32.788C46.7873 32.8686 46.8045 32.9551 46.8045 33.0423C46.8045 33.1296 46.7873 33.216 46.7539 33.2967C46.7205 33.3773 46.6715 33.4506 46.6098 33.5123C46.4805 33.6412 46.3098 33.7057 46.1406 33.7057Z" fill="#3C164F"/>
<path fill-rule="evenodd" clip-rule="evenodd" d="M45.4199 34.7044L51.2447 40.5062C51.3981 40.6629 51.5811 40.7875 51.7832 40.8726C51.9853 40.9577 52.2023 41.0016 52.4216 41.0018C52.6441 41.004 52.8648 40.9613 53.0705 40.8764C53.2761 40.7914 53.4626 40.6659 53.6186 40.5073C53.7753 40.354 53.8998 40.1711 53.9849 39.9691C54.07 39.7672 54.114 39.5503 54.1143 39.3311C54.1152 39.1088 54.0718 38.8884 53.9867 38.683C53.9016 38.4776 53.7765 38.2911 53.6186 38.1345L47.8042 32.319L45.4199 34.7044ZM52.4276 42.33H52.4171C52.0237 42.3299 51.6343 42.2514 51.2715 42.0992C50.9087 41.947 50.5798 41.7241 50.3041 41.4434L44.0112 35.1751C43.949 35.1138 43.8996 35.0407 43.866 34.9601C43.8323 34.8794 43.815 34.7929 43.8152 34.7056C43.8152 34.5293 43.8853 34.3597 44.0097 34.2353L47.3351 30.9099C47.4595 30.7855 47.6276 30.7161 47.8042 30.7161C47.9805 30.7161 48.149 30.7855 48.2734 30.9099L54.5581 37.195C54.8403 37.4753 55.0639 37.8089 55.2157 38.1765C55.3675 38.5441 55.4446 38.9383 55.4425 39.336C55.4422 39.7295 55.3636 40.119 55.2111 40.4818C55.0587 40.8446 54.8356 41.1734 54.5548 41.449C54.276 41.7291 53.9445 41.9512 53.5794 42.1024C53.2142 42.2537 52.8228 42.331 52.4276 42.33ZM38.7871 29.8273C38.611 29.8272 38.4422 29.7572 38.3177 29.6327C38.1931 29.5082 38.1231 29.3393 38.123 29.1632V22.1995C38.1229 22.1123 38.1401 22.0259 38.1734 21.9453C38.2067 21.8647 38.2557 21.7914 38.3173 21.7297C38.379 21.668 38.4523 21.6191 38.5329 21.5858C38.6135 21.5524 38.6999 21.5353 38.7871 21.5354C38.8744 21.5353 38.9608 21.5524 39.0414 21.5858C39.122 21.6191 39.1953 21.668 39.2569 21.7297C39.3186 21.7914 39.3675 21.8647 39.4009 21.9453C39.4342 22.0259 39.4513 22.1123 39.4512 22.1995V29.1632C39.4512 29.5299 39.1538 29.8273 38.7871 29.8273Z" fill="#3C164F"/>
<path fill-rule="evenodd" clip-rule="evenodd" d="M42.2627 26.3511H35.3106C35.1383 26.3453 34.975 26.2728 34.8552 26.1489C34.7354 26.025 34.6684 25.8593 34.6684 25.687C34.6684 25.5146 34.7354 25.349 34.8552 25.2251C34.975 25.1011 35.1383 25.0286 35.3106 25.0229H42.2627C42.4389 25.0229 42.6078 25.0928 42.7323 25.2174C42.8569 25.3419 42.9268 25.5108 42.9268 25.687C42.9268 25.8631 42.8569 26.032 42.7323 26.1566C42.6078 26.2811 42.4389 26.3511 42.2627 26.3511ZM20.0133 1.31589C16.9138 1.31589 13.8135 2.25241 11.563 4.1247C9.16263 6.12035 5.94463 10.7519 10.5322 19.6963C12.1339 16.8186 14.0696 12.6853 13.7558 11.2729C13.7292 11.1521 13.7369 11.0264 13.7778 10.9097C13.8188 10.7931 13.8914 10.6902 13.9876 10.6125C14.0836 10.5345 14.1996 10.485 14.3223 10.4697C14.4451 10.4544 14.5697 10.4739 14.6819 10.526C18.7205 12.3808 21.309 12.3808 25.335 10.526C25.4473 10.4739 25.572 10.4543 25.6949 10.4695C25.8178 10.4846 25.934 10.5338 26.0303 10.6116C26.1267 10.6894 26.1993 10.7926 26.2401 10.9095C26.2808 11.0264 26.2879 11.1524 26.2607 11.2732C25.9484 12.6771 27.884 16.8152 29.4869 19.6963C34.0778 10.753 30.862 6.12146 28.4639 4.12619C26.2137 2.25353 23.1131 1.31627 20.0133 1.31627V1.31589ZM10.5128 21.7292H10.5042C10.3877 21.7282 10.2735 21.6963 10.1733 21.6368C10.073 21.5773 9.99037 21.4923 9.93368 21.3905C7.65443 17.3217 6.65009 13.598 6.94748 10.3211C7.21058 7.42916 8.51306 4.93339 10.7129 3.10359C13.0857 1.13068 16.4755 0 20.0125 0H20.0136C23.5521 0 26.9416 1.13217 29.3136 3.10471C31.5123 4.93451 32.813 7.43065 33.0742 10.3222C33.3708 13.5987 32.3643 17.3228 30.0835 21.3905C30.0265 21.4923 29.9436 21.5773 29.8433 21.6369C29.7429 21.6964 29.6286 21.7284 29.5119 21.7296C29.3951 21.7306 29.2801 21.701 29.1784 21.6437C29.0766 21.5865 28.9917 21.5035 28.932 21.4031C28.5235 20.71 25.3428 15.2452 24.9481 12.1427C21.3996 13.5942 18.6277 13.5942 15.0698 12.1427C14.6781 15.25 11.4937 20.7115 11.0841 21.4043C11.0252 21.5034 10.9416 21.5855 10.8413 21.6425C10.7411 21.6994 10.6281 21.7293 10.5128 21.7292ZM13.3086 34.1093C13.1324 34.1093 12.9635 34.0393 12.839 33.9148C12.7144 33.7902 12.6445 33.6213 12.6445 33.4452V29.3142C12.6445 29.138 12.7144 28.9691 12.839 28.8446C12.9635 28.72 13.1324 28.6501 13.3086 28.6501C13.4847 28.6501 13.6536 28.72 13.7782 28.8446C13.9027 28.9691 13.9727 29.138 13.9727 29.3142V33.4452C13.9727 33.8119 13.6753 34.1093 13.3086 34.1093ZM26.7209 34.1093C26.5448 34.1093 26.3759 34.0393 26.2513 33.9148C26.1268 33.7902 26.0568 33.6213 26.0568 33.4452V29.3142C26.0568 29.138 26.1268 28.9691 26.2513 28.8446C26.3759 28.72 26.5448 28.6501 26.7209 28.6501C26.8971 28.6501 27.066 28.72 27.1905 28.8446C27.3151 28.9691 27.385 29.138 27.385 29.3142V33.4452C27.385 33.8119 27.0876 34.1093 26.7209 34.1093Z" fill="#3C164F"/>
<path fill-rule="evenodd" clip-rule="evenodd" d="M20.0209 32.6615C16.4895 32.6615 13.8238 31.3746 12.098 28.8357C10.8123 26.9451 10.0606 24.3439 9.86232 21.1065C9.85612 20.9334 9.91779 20.7647 10.0342 20.6363C10.1506 20.508 10.3124 20.4302 10.4854 20.4195C10.6583 20.4088 10.8285 20.4661 10.9598 20.5791C11.0911 20.6921 11.1731 20.8519 11.1883 21.0245C11.3716 24.0208 12.0473 26.3984 13.197 28.0899C14.6806 30.2723 16.9125 31.3333 20.0205 31.3333C23.1305 31.3333 25.3624 30.2723 26.8452 28.0899C27.9949 26.3984 28.6713 24.0211 28.8539 21.0245C28.8766 20.6593 29.1893 20.3798 29.5568 20.4033C29.6439 20.4083 29.7292 20.4306 29.8077 20.4687C29.8862 20.5069 29.9564 20.5601 30.0143 20.6255C30.0721 20.6908 30.1165 20.7669 30.1449 20.8495C30.1732 20.932 30.185 21.0194 30.1795 21.1065C29.9824 24.3439 29.2292 26.9451 27.9439 28.8357C26.2191 31.3746 23.5538 32.6615 20.0209 32.6615ZM39.3904 57.9996H0.664096C0.487997 57.9995 0.319139 57.9295 0.194618 57.805C0.0700975 57.6805 9.87379e-05 57.5116 0 57.3355V45.384C0 38.4352 5.65414 32.7811 12.6029 32.7811H13.3084C13.4807 32.7869 13.644 32.8594 13.7638 32.9833C13.8836 33.1072 13.9506 33.2728 13.9506 33.4452C13.9506 33.6176 13.8836 33.7832 13.7638 33.9071C13.644 34.031 13.4807 34.1035 13.3084 34.1093H12.6029C6.38606 34.1093 1.32819 39.1675 1.32819 45.384V56.6714H38.7263V45.384C38.7263 39.1675 33.6625 34.1093 27.4389 34.1093H26.7338C26.5577 34.1093 26.3888 34.0393 26.2642 33.9148C26.1397 33.7902 26.0697 33.6213 26.0697 33.4452C26.0697 33.2691 26.1397 33.1002 26.2642 32.9756C26.3888 32.8511 26.5577 32.7811 26.7338 32.7811H27.4393C34.3962 32.7811 40.0549 38.4352 40.0549 45.384V57.3355C40.0549 57.7022 39.7571 57.9996 39.3904 57.9996Z" fill="#3C164F"/>
<path fill-rule="evenodd" clip-rule="evenodd" d="M7.13908 57.9996C6.96292 57.9996 6.79396 57.9297 6.66936 57.8051C6.54476 57.6806 6.47471 57.5117 6.47461 57.3355V49.7428C6.47451 49.6555 6.49162 49.5691 6.52496 49.4885C6.5583 49.4079 6.60721 49.3346 6.6689 49.273C6.73059 49.2113 6.80384 49.1623 6.88445 49.129C6.96507 49.0957 7.05147 49.0786 7.13871 49.0787C7.22594 49.0786 7.31235 49.0957 7.39296 49.129C7.47358 49.1623 7.54683 49.2113 7.60851 49.273C7.6702 49.3346 7.71911 49.4079 7.75245 49.4885C7.78579 49.5691 7.8029 49.6555 7.8028 49.7428V57.3359C7.8028 57.7026 7.50541 57.9996 7.13908 57.9996ZM32.8935 57.9996C32.7174 57.9995 32.5485 57.9295 32.424 57.805C32.2995 57.6805 32.2295 57.5116 32.2294 57.3355V49.7428C32.2293 49.6555 32.2464 49.5691 32.2798 49.4885C32.3131 49.4079 32.362 49.3346 32.4237 49.273C32.4854 49.2113 32.5586 49.1623 32.6392 49.129C32.7199 49.0957 32.8063 49.0786 32.8935 49.0787C32.9807 49.0786 33.0671 49.0957 33.1478 49.129C33.2284 49.1623 33.3016 49.2113 33.3633 49.273C33.425 49.3346 33.4739 49.4079 33.5072 49.4885C33.5406 49.5691 33.5577 49.6555 33.5576 49.7428V57.3359C33.5576 57.7026 33.2598 57.9996 32.8935 57.9996ZM14.8913 36.6181L20.0219 54.8789L25.1409 36.6229L20.5511 42.6632C20.489 42.7444 20.4091 42.8102 20.3176 42.8556C20.226 42.901 20.1252 42.9246 20.023 42.9248H20.0219C19.9197 42.9248 19.8188 42.9012 19.7272 42.8558C19.6356 42.8104 19.5557 42.7445 19.4938 42.6632L14.8913 36.6181ZM20.0219 57.9996C19.8771 57.9997 19.7363 57.9523 19.621 57.8649C19.5056 57.7774 19.4221 57.6546 19.3831 57.5152L12.6706 33.6256C12.6289 33.4767 12.6402 33.318 12.7027 33.1767C12.7652 33.0353 12.8749 32.9201 13.0131 32.8508C13.1515 32.782 13.3095 32.7636 13.4599 32.7987C13.6104 32.8339 13.7439 32.9204 13.8374 33.0435L20.0219 41.1647L26.1933 33.0435C26.2868 32.9203 26.4203 32.8337 26.5708 32.7984C26.7214 32.7632 26.8795 32.7816 27.0179 32.8504C27.1563 32.9193 27.2664 33.0342 27.3291 33.1755C27.3919 33.3168 27.4034 33.4756 27.3616 33.6244L20.6618 57.5155C20.6225 57.655 20.5387 57.7778 20.4232 57.8653C20.3077 57.9527 20.1668 57.9997 20.0219 57.9996Z" fill="#3C164F"/>
</svg>
