<svg width="216" height="158" viewBox="0 0 216 158" fill="none" xmlns="http://www.w3.org/2000/svg">
<path d="M195.282 0.383034C194.677 0.0185264 194.124 0.971839 194.73 1.33635C211.085 11.2618 215.303 32.1025 213.529 49.8915C211.625 69.0187 203.325 88.5291 187.895 100.572C184.509 103.212 180.431 105.451 176.053 107.104C177.883 101.902 178.576 96.319 177.691 90.4603C176.289 81.1721 170.701 72.4891 161.624 69.2051C153.853 66.3871 144.217 67.541 138.403 73.7858C132.568 80.0529 132.337 89.4348 135.596 96.9862C139.557 106.162 148.149 111.666 157.995 112.598C162.663 113.039 167.124 112.643 171.357 111.597C165.928 121.511 156.206 129.711 146.45 134.47C134.075 140.52 119.365 142.678 105.86 139.606C112.693 133.724 118.221 126.581 121.406 118.412C128.524 100.212 112.221 78.126 92.1128 83.2065C72.5481 88.1549 66.7035 111.095 78.7367 126.132C84.4319 133.252 92.0848 137.988 100.531 140.639C89.8224 148.827 76.6282 153.962 63.4309 155.226C42.231 157.235 21.2678 148.737 6.49592 133.764C11.8504 134.261 17.0371 135.345 22.2269 137.048C23.6826 137.526 24.2686 135.236 22.8292 134.749C16.6915 132.73 10.5186 131.579 4.11472 131.205C3.65918 130.688 3.17118 130.19 2.73187 129.663C1.87224 128.641 0.0707689 130.009 0.87162 131.097C0.992334 131.266 1.11641 131.422 1.23712 131.591C0.96223 131.958 0.866239 132.482 1.14229 132.897C4.68684 138.204 8.62601 143.106 13.0554 147.711C13.9609 148.662 15.726 147.382 14.9156 146.277C13.6889 144.611 12.4656 142.932 11.2389 141.265C26.6512 153.689 46.7712 159.948 66.6856 157.232C79.3462 155.498 92.8058 149.98 103.55 141.499C115.552 144.533 128.807 143.628 140.173 139.647C153.951 134.802 168.21 124.291 174.614 110.653C193.41 104.336 207.087 84.8208 212.448 66.2973C218.892 43.9539 217.425 13.6638 195.282 0.383034ZM91.7332 134.135C83.0485 129.087 75.1415 120.442 74.3714 110.002C73.6883 100.751 79.4746 91.7811 87.5254 87.4946C96.4263 82.7445 106.91 84.9144 113.872 92.0224C122.475 100.795 122.611 112.606 116.514 122.867C112.92 128.925 108.205 134.278 102.77 138.81C98.9506 137.7 95.2296 136.163 91.7332 134.135ZM136.411 92.0392C133.896 81.5948 139.907 71.5585 150.883 70.2752C161.548 69.0206 170.666 75.7736 174.099 85.7037C176.794 93.519 176.014 101.165 173.039 108.113C158.007 112.656 140.712 109.937 136.411 92.0392Z" fill="#3C164F"/>
</svg>
