<svg width="58" height="62" viewBox="0 0 58 62" fill="none" xmlns="http://www.w3.org/2000/svg">
<path d="M58.0001 32.5659C58.0001 40.2918 54.9914 47.5555 49.5284 53.0184C44.0653 58.4815 36.8017 61.4902 29.0758 61.4902C21.3498 61.4902 14.0862 58.4816 8.62315 53.0184C3.16009 47.5555 0.151367 40.2918 0.151367 32.5659C0.151367 24.9416 3.09221 17.7465 8.43211 12.3061C8.50969 12.2253 8.60252 12.1608 8.70522 12.1161C8.80792 12.0715 8.91845 12.0476 9.03042 12.046C9.14239 12.0443 9.25358 12.0649 9.35754 12.1065C9.46151 12.1481 9.55619 12.21 9.63611 12.2884C9.71603 12.3668 9.7796 12.4603 9.82315 12.5635C9.86669 12.6667 9.88934 12.7775 9.88979 12.8895C9.89024 13.0014 9.86848 13.1124 9.82577 13.2159C9.78305 13.3194 9.72023 13.4134 9.64094 13.4925C4.61382 18.6143 1.84514 25.388 1.84514 32.5659C1.84514 47.5809 14.0607 59.7963 29.0756 59.7963C44.0906 59.7963 56.306 47.5809 56.306 32.5659C56.306 25.388 53.5375 18.6143 48.5102 13.4925C48.4323 13.4132 48.3708 13.3192 48.3292 13.2161C48.2876 13.113 48.2667 13.0026 48.2677 12.8914C48.2688 12.7802 48.2917 12.6703 48.3352 12.568C48.3787 12.4656 48.442 12.3728 48.5213 12.2949C48.6007 12.217 48.6946 12.1554 48.7978 12.1138C48.9009 12.0722 49.0113 12.0513 49.1225 12.0523C49.2337 12.0533 49.3437 12.0763 49.446 12.1198C49.5484 12.1634 49.6412 12.2267 49.719 12.3061C55.0589 17.7465 57.9998 24.9416 57.9998 32.5659H58.0001ZM37.4791 11.5973C37.2902 11.1726 37.3616 10.6906 37.6655 10.339L39.065 8.71972L38.4451 6.67096C38.3105 6.22631 38.4413 5.75673 38.7864 5.44566C39.1323 5.13459 39.613 5.05365 40.0408 5.23332L42.014 6.06418L43.7709 4.84167C44.1523 4.57597 44.6393 4.55564 45.042 4.78795C45.4446 5.02062 45.6703 5.45256 45.6312 5.9156L45.4507 8.04846L47.1564 9.34163C47.5269 9.62245 47.697 10.0796 47.6001 10.5341C47.5037 10.9887 47.1622 11.337 46.7092 11.4427L44.6255 11.9301L43.9229 13.9519C43.7702 14.3911 43.3882 14.694 42.9259 14.7425C42.8831 14.747 42.8404 14.7493 42.7981 14.7493C42.3843 14.7493 42.0047 14.5372 41.7865 14.1763L40.679 12.3449L38.539 12.3013C38.0742 12.292 37.6679 12.0222 37.4789 11.5974L37.4791 11.5973ZM39.6529 10.6298L41.1797 10.6609C41.3225 10.6638 41.4623 10.7028 41.586 10.7742C41.7097 10.8456 41.8133 10.9472 41.8872 11.0694L42.6775 12.3761L43.1788 10.9336C43.2257 10.7987 43.3059 10.6778 43.4121 10.5823C43.5182 10.4867 43.6468 10.4195 43.7859 10.387L45.2729 10.0391L44.056 9.11658C43.9421 9.0303 43.852 8.91664 43.7939 8.78616C43.7358 8.65568 43.7116 8.51263 43.7236 8.3703L43.8524 6.84869L42.5989 7.72093C42.4817 7.80258 42.3457 7.85324 42.2036 7.86818C42.0616 7.88311 41.918 7.86184 41.7864 7.80635L40.379 7.21373L40.8212 8.67544C40.8626 8.81214 40.8687 8.95709 40.839 9.0968C40.8093 9.23651 40.7448 9.36643 40.6514 9.47448L39.6529 10.6298ZM24.3042 5.43901C23.9651 5.12116 23.8437 4.64905 23.9874 4.20682C24.131 3.76471 24.5068 3.454 24.9682 3.39617L27.0917 3.12914L28.0018 1.1918C28.1995 0.77111 28.6111 0.509766 29.0759 0.509766C29.5406 0.509766 29.9521 0.77111 30.1498 1.19168C30.3475 1.61225 31.0599 3.12914 31.0599 3.12914L33.1837 3.39617C33.6448 3.45412 34.0206 3.76471 34.1642 4.20682C34.308 4.64893 34.1865 5.12116 33.8473 5.43913L32.2863 6.90338L32.6887 9.00551C32.7761 9.46201 32.5968 9.91537 32.221 10.1886C31.8444 10.4618 31.3579 10.4923 30.951 10.2683L29.0759 9.23588L27.2007 10.2682C27.0252 10.3655 26.8278 10.4168 26.6271 10.4171C26.3768 10.4166 26.1332 10.3367 25.9313 10.1888C25.5549 9.91513 25.3757 9.46189 25.463 9.00551L25.8653 6.90326L24.3042 5.43901ZM26.2505 4.94221L27.3643 5.98698C27.4685 6.08468 27.5463 6.20714 27.5904 6.34298C27.6345 6.47881 27.6436 6.6236 27.6167 6.76388L27.3296 8.2637L28.6674 7.52722C28.7925 7.45822 28.933 7.42204 29.0759 7.42204C29.2187 7.42204 29.3593 7.45822 29.4844 7.52722L30.8222 8.2637L30.535 6.76388C30.5082 6.62359 30.5173 6.47878 30.5614 6.34293C30.6055 6.20708 30.6833 6.08459 30.7874 5.98686L31.9013 4.94209L30.3862 4.75165C30.2445 4.73382 30.1096 4.68044 29.9941 4.59648C29.8785 4.51252 29.7861 4.4007 29.7254 4.27143L29.076 2.88921L28.4266 4.27143C28.3659 4.4007 28.2735 4.51251 28.1579 4.59647C28.0424 4.68043 27.9075 4.73381 27.7658 4.75165L26.2507 4.94209L26.2505 4.94221ZM10.5514 10.5341C10.4549 10.0796 10.6247 9.62281 10.9949 9.34187L12.7011 8.04858L12.5207 5.91572C12.4814 5.45268 12.7071 5.02049 13.1098 4.78807C13.5121 4.55576 13.9992 4.57609 14.381 4.84179L16.1378 6.0643L18.1104 5.23368C18.5394 5.05352 19.0198 5.13459 19.365 5.44542C19.7107 5.75625 19.8417 6.22619 19.7066 6.67156L19.0868 8.71972L20.4864 10.3392C20.7903 10.6908 20.8618 11.1732 20.6727 11.5978C20.4836 12.0223 20.0774 12.292 19.6126 12.3013L17.4727 12.3449L16.365 14.1765C16.1466 14.5372 15.767 14.7492 15.3534 14.7492C15.3111 14.7492 15.2686 14.747 15.2257 14.7425C14.7628 14.6935 14.3812 14.3905 14.2286 13.9517L13.526 11.9301L11.4418 11.4425C10.9892 11.3367 10.6481 10.9886 10.5514 10.5341ZM12.8788 10.0393L14.3658 10.3871C14.5049 10.4197 14.6335 10.4868 14.7397 10.5824C14.8458 10.678 14.9261 10.7988 14.973 10.9338L15.4742 12.3761L16.2646 11.0695C16.3385 10.9473 16.4421 10.8457 16.5658 10.7743C16.6895 10.7029 16.8292 10.6639 16.972 10.6611L18.4988 10.63L17.5004 9.47448C17.407 9.36642 17.3424 9.2365 17.3127 9.0968C17.283 8.95709 17.2891 8.81215 17.3305 8.67544L17.7727 7.21385L16.3655 7.80647C16.2339 7.86202 16.0903 7.88332 15.9482 7.86838C15.8062 7.85345 15.6702 7.80276 15.553 7.72105L14.2996 6.84881L14.4284 8.37042C14.4404 8.51275 14.4163 8.65581 14.3582 8.7863C14.3 8.91678 14.2099 9.03044 14.096 9.1167L12.8791 10.0393H12.8788ZM10.2395 30.1536C10.2395 28.2553 11.0575 26.7516 12.7403 25.5565C13.9483 24.6984 14.5218 23.3141 14.2742 21.8532C13.9292 19.8186 14.4141 18.1768 15.7564 16.8345C17.0987 15.4922 18.7401 15.0072 20.7752 15.3521C22.2364 15.5991 23.6207 15.0262 24.4785 13.8181C25.6737 12.1353 27.1775 11.3173 29.0756 11.3173C30.9738 11.3173 32.4776 12.1356 33.6728 13.8181C34.5307 15.0261 35.9152 15.5996 37.376 15.3522C39.4105 15.0071 41.0523 15.4918 42.3947 16.8345C43.7367 18.1764 44.2216 19.818 43.8772 21.8531C43.6296 23.3141 44.203 24.6986 45.411 25.5565C47.0939 26.7516 47.9119 28.2553 47.9119 30.1536C47.9119 32.0518 47.0939 33.5554 45.411 34.7507C44.203 35.6087 43.6295 36.9929 43.877 38.4538C44.2221 40.4884 43.7372 42.1303 42.3949 43.4726C41.6425 44.2249 40.7961 44.7077 39.8389 44.9262L43.6225 52.9421C43.6863 53.0772 43.7132 53.2269 43.7004 53.3758C43.6876 53.5247 43.6357 53.6676 43.5499 53.79C43.4642 53.9125 43.3475 54.01 43.2118 54.0727C43.0761 54.1354 42.9262 54.161 42.7773 54.1468L38.431 53.7383L35.642 57.0968C35.5465 57.2118 35.4223 57.2995 35.282 57.3509C35.1417 57.4024 34.9902 57.4158 34.8431 57.3898C34.6959 57.3637 34.5582 57.2992 34.444 57.2028C34.3298 57.1064 34.2432 56.9814 34.1929 56.8407L31.2363 48.5631C30.5793 48.8471 29.8617 48.9897 29.0755 48.9897C28.3111 48.9897 27.6116 48.8547 26.9695 48.5862L24.0121 56.866C23.9619 57.0068 23.8753 57.1318 23.7611 57.2282C23.6469 57.3247 23.5092 57.3893 23.362 57.4153C23.2148 57.4413 23.0633 57.4279 22.923 57.3764C22.7826 57.3249 22.6584 57.2372 22.563 57.1221L19.774 53.7637L15.4278 54.1722C15.279 54.186 15.1292 54.1604 14.9935 54.0977C14.8578 54.0351 14.7411 53.9377 14.6551 53.8155C14.5693 53.6931 14.5174 53.5502 14.5046 53.4013C14.4919 53.2523 14.5187 53.1027 14.5825 52.9675L18.3723 44.9385C17.3908 44.7268 16.5243 44.2408 15.7563 43.4727C14.4143 42.1306 13.9294 40.4889 14.2739 38.4538C14.5214 36.9928 13.948 35.6083 12.7401 34.7506C11.0573 33.5553 10.2393 32.0516 10.2393 30.1535L10.2395 30.1536ZM25.5051 47.6514C25.1401 47.3244 24.7981 46.9385 24.4788 46.4888C23.6208 45.2809 22.2366 44.7075 20.7755 44.955C20.5809 44.988 20.3908 45.011 20.2032 45.0288L16.749 52.3469L20.0611 52.0356C20.1983 52.0228 20.3365 52.0437 20.4639 52.0963C20.5912 52.1489 20.7038 52.2318 20.792 52.3377L22.9174 54.8969L25.5054 47.6513L25.5051 47.6514ZM41.4568 52.3214L38.0177 45.0353C37.8029 45.0174 37.5889 44.9906 37.3763 44.955C35.9156 44.7075 34.531 45.2808 33.673 46.4889C33.3676 46.9189 33.0418 47.2916 32.6946 47.6094L35.2886 54.8715L37.414 52.3123C37.5019 52.2062 37.6145 52.1232 37.7419 52.0706C37.8692 52.0179 38.0076 51.9972 38.1448 52.0102L41.4568 52.3214ZM11.9335 30.1536C11.9335 31.5178 12.4682 32.4797 13.7213 33.3697C15.4721 34.613 16.303 36.6194 15.9444 38.7367C15.6879 40.2522 15.99 41.3104 16.9546 42.2751C17.9064 43.2268 18.9977 43.5382 20.4927 43.285C20.8113 43.2307 21.1339 43.2032 21.4571 43.2029C23.2079 43.2029 24.8071 44.0259 25.8599 45.508C26.7498 46.7612 27.7117 47.2958 29.076 47.2958C30.4403 47.2958 31.4022 46.7612 32.2921 45.5082C33.5357 43.7573 35.5423 42.9264 37.6592 43.285C39.1745 43.5417 40.233 43.2395 41.1975 42.2749C42.1495 41.323 42.4609 40.2317 42.2075 38.7368C41.8487 36.6194 42.6797 34.6131 44.4306 33.3697C45.6837 32.4797 46.2184 31.5178 46.2184 30.1536C46.2184 28.7894 45.6837 27.8274 44.4306 26.9375C42.6798 25.694 41.8488 23.6876 42.2075 21.5704C42.464 20.0548 42.162 18.9966 41.1973 18.0322C40.2452 17.0801 39.1541 16.7683 37.6592 17.0221C35.5417 17.3803 33.5354 16.5496 32.292 14.799C31.402 13.5459 30.4401 13.0112 29.0759 13.0112C27.7117 13.0112 26.7498 13.5459 25.8598 14.799C24.6163 16.5496 22.61 17.3809 20.4925 17.022C18.9769 16.7654 17.9188 17.0675 16.9543 18.032C16.0024 18.984 15.6909 20.0754 15.9444 21.5702C16.3032 23.6875 15.4721 25.6939 13.7212 26.9375C12.4681 27.8274 11.9335 28.7893 11.9335 30.1536ZM16.9312 30.1536C16.9312 23.457 22.3793 18.0089 29.0759 18.0089C35.7725 18.0089 41.2205 23.457 41.2205 30.1536C41.2205 36.8502 35.7725 42.2982 29.0759 42.2982C22.3793 42.2982 16.9312 36.8502 16.9312 30.1536ZM18.6251 30.1536C18.6251 35.9161 23.3134 40.6043 29.0759 40.6043C34.8384 40.6043 39.5266 35.9161 39.5266 30.1536C39.5266 24.3911 34.8384 19.7028 29.0759 19.7028C23.3134 19.7028 18.6251 24.3911 18.6251 30.1536ZM24.3355 31.7281L21.5048 29.0731C21.101 28.6943 20.9563 28.132 21.1273 27.6055C21.2985 27.0787 21.746 26.7087 22.2954 26.6397L26.1462 26.1556L27.7965 22.643C28.0317 22.1418 28.522 21.8305 29.0759 21.8305C29.6298 21.8305 30.1196 22.1417 30.3551 22.6428L32.0055 26.1556L35.8563 26.6397C36.4056 26.7087 36.8532 27.0788 37.0243 27.6054C37.1953 28.1318 37.0509 28.694 36.6471 29.073L33.8161 31.7282L34.5456 35.5402C34.6498 36.0839 34.4362 36.624 33.9881 36.9494C33.7476 37.1257 33.4573 37.221 33.1591 37.2216C32.926 37.2216 32.6915 37.1629 32.4758 37.0441L29.0756 35.1721L25.6757 37.044C25.1903 37.3109 24.6108 37.2746 24.163 36.949C23.7153 36.6238 23.5017 36.0839 23.6058 35.5401L24.3354 31.7279L24.3355 31.7281ZM25.8344 30.8117C25.9386 30.9093 26.0163 31.0318 26.0605 31.1676C26.1046 31.3035 26.1136 31.4483 26.0868 31.5886L25.3817 35.2724L28.6673 33.4636C28.7924 33.3946 28.9329 33.3585 29.0758 33.3585C29.2186 33.3585 29.3591 33.3946 29.4842 33.4636L32.7698 35.2724L32.0648 31.5886C32.0379 31.4483 32.047 31.3035 32.0911 31.1677C32.1352 31.0318 32.213 30.9094 32.3172 30.8117L35.0528 28.2459L31.3314 27.7781C31.1897 27.7603 31.0548 27.7069 30.9393 27.623C30.8237 27.539 30.7313 27.4272 30.6706 27.2979L29.0756 23.9032L27.4808 27.2979C27.4201 27.4272 27.3277 27.539 27.2121 27.6229C27.0966 27.7069 26.9617 27.7603 26.82 27.7781L23.0986 28.2459L25.8342 30.8117H25.8344Z" fill="white"/>
</svg>
