<svg width="60" height="60" viewBox="0 0 60 60" fill="none" xmlns="http://www.w3.org/2000/svg">
<g clip-path="url(#clip0_106_15505)">
<path d="M6 52H6.01C6.014 54.011 6.798 55.932 8.249 57.43C9.03375 58.2392 9.97232 58.8834 11.0096 59.3247C12.0468 59.7661 13.1618 59.9957 14.289 60H52C53.103 60 54 59.103 54 58V56C54 55.263 53.595 54.625 53 54.278V49.721C53.595 49.374 54 48.736 54 47.999V3C54 1.346 52.654 0 51 0H14C9.589 0 6 3.589 6 8V52ZM52 58H14.289C13.4296 57.9962 12.5796 57.8207 11.789 57.4837C10.9983 57.1468 10.283 56.6553 9.685 56.038C8.551 54.867 7.954 53.363 8.003 51.804C8.04936 50.2807 8.67653 48.8328 9.756 47.757C10.3121 47.1983 10.9734 46.7554 11.7016 46.4538C12.4299 46.1522 13.2108 45.998 13.999 46H51.999V48H14C13.4575 47.9975 12.9203 48.1065 12.4216 48.3201C11.9229 48.5338 11.4734 48.8475 11.101 49.242C10.7252 49.6347 10.434 50.1004 10.2455 50.6103C10.0569 51.1201 9.97509 51.6632 10.005 52.206C10.112 54.334 11.94 56 14.165 56H52V58ZM14.165 54C13.025 54 12.056 53.15 12.003 52.106C11.9876 51.8341 12.0282 51.5618 12.1222 51.3062C12.2163 51.0506 12.3619 50.817 12.55 50.62C12.93 50.221 13.446 50 14 50H51V54H14.165ZM52 3V44H15V2H51C51.2652 2 51.5196 2.10536 51.7071 2.29289C51.8946 2.48043 52 2.73478 52 3ZM13 2.09V44.069C11.237 44.2847 9.59725 45.0854 8.343 46.343C8.222 46.464 8.112 46.593 8 46.72V8C8 5.033 10.167 2.569 13 2.09Z" fill="white"/>
<path d="M34.5 12C36.43 12 38 10.43 38 8.5C38 6.57 36.43 5 34.5 5C32.57 5 31 6.57 31 8.5C31 10.43 32.57 12 34.5 12ZM34.5 7C35.327 7 36 7.673 36 8.5C36 9.327 35.327 10 34.5 10C33.673 10 33 9.327 33 8.5C33 7.673 33.673 7 34.5 7ZM26.516 17.456C26.644 17.84 26.928 18.157 27.293 18.328C27.66 18.498 28.087 18.511 28.464 18.363C28.7927 18.2279 29.1365 18.1328 29.488 18.08C29.5092 18.0957 29.525 18.1176 29.533 18.1428C29.5411 18.1679 29.5411 18.1949 29.533 18.22L29.522 18.254L27.5 25.141C27.3237 25.8377 27.3087 26.5655 27.4561 27.2689C27.6036 27.9723 27.9097 28.6328 28.351 29.2C29.223 30.33 30.534 30.986 32.043 31.001C34.52 31.001 36.524 30.039 37.271 29.627C37.5745 29.4599 37.8096 29.1916 37.9353 28.8688C38.0611 28.546 38.0695 28.1893 37.959 27.861L37.521 26.545C37.457 26.3547 37.3552 26.1794 37.2217 26.0295C37.0882 25.8797 36.9257 25.7584 36.744 25.673C36.5614 25.5881 36.3634 25.5412 36.1621 25.5351C35.9608 25.5291 35.7604 25.5641 35.573 25.638C35.2443 25.7732 34.9005 25.8682 34.549 25.921C34.529 25.906 34.498 25.873 34.515 25.747L36.537 18.859C36.7131 18.1622 36.7279 17.4344 36.5803 16.731C36.4326 16.0276 36.1264 15.3672 35.685 14.8C34.813 13.671 33.502 13.015 31.994 13C29.517 13 27.513 13.962 26.766 14.374C26.4625 14.5411 26.2274 14.8094 26.1017 15.1322C25.9759 15.455 25.9675 15.8117 26.078 16.14L26.516 17.456ZM32.07 15C32.4642 15.0048 32.8522 15.0993 33.2044 15.2764C33.5567 15.4535 33.864 15.7085 34.103 16.022C34.622 16.694 34.802 17.551 34.608 18.334L32.607 25.147C32.4681 25.5632 32.4615 26.0121 32.5881 26.4322C32.7147 26.8523 32.9683 27.2229 33.314 27.493C33.824 27.894 34.476 28.038 35.104 27.882C35.331 27.826 35.561 27.76 35.792 27.683L35.922 28.073C35.142 28.451 33.71 29.001 31.967 29.001C31.5725 28.9964 31.1842 28.9019 30.8318 28.7246C30.4793 28.5473 30.1719 28.292 29.933 27.978C29.6807 27.6555 29.5043 27.2802 29.4171 26.8801C29.3298 26.48 29.3339 26.0653 29.429 25.667L31.437 18.834C31.5713 18.42 31.5749 17.9747 31.4474 17.5585C31.3198 17.1424 31.0672 16.7756 30.724 16.508C30.4752 16.3107 30.1845 16.1731 29.8742 16.1056C29.5639 16.0382 29.2423 16.0428 28.934 16.119C28.7021 16.1762 28.4726 16.2425 28.246 16.318L28.116 15.928C28.896 15.55 30.327 15 32.07 15ZM24 35H42C42.2652 35 42.5196 34.8946 42.7071 34.7071C42.8946 34.5196 43 34.2652 43 34C43 33.7348 42.8946 33.4804 42.7071 33.2929C42.5196 33.1054 42.2652 33 42 33H24C23.7348 33 23.4804 33.1054 23.2929 33.2929C23.1054 33.4804 23 33.7348 23 34C23 34.2652 23.1054 34.5196 23.2929 34.7071C23.4804 34.8946 23.7348 35 24 35ZM38 38H28C27.7348 38 27.4804 38.1054 27.2929 38.2929C27.1054 38.4804 27 38.7348 27 39C27 39.2652 27.1054 39.5196 27.2929 39.7071C27.4804 39.8946 27.7348 40 28 40H38C38.2652 40 38.5196 39.8946 38.7071 39.7071C38.8946 39.5196 39 39.2652 39 39C39 38.7348 38.8946 38.4804 38.7071 38.2929C38.5196 38.1054 38.2652 38 38 38Z" fill="white"/>
</g>
<defs>
<clipPath id="clip0_106_15505">
<rect width="60" height="60" fill="white"/>
</clipPath>
</defs>
</svg>
