<svg width="61" height="53" viewBox="0 0 61 53" fill="none" xmlns="http://www.w3.org/2000/svg">
<path d="M56.7718 39.0743L55.7754 38.7421C55.507 38.6565 55.2157 38.68 54.9645 38.8076C54.7134 38.9352 54.5225 39.1565 54.4334 39.4237C54.3442 39.691 54.3639 39.9825 54.4881 40.2354C54.6123 40.4882 54.8311 40.6819 55.0971 40.7746L56.0904 41.1068C56.8227 41.3522 57.4596 41.8213 57.9111 42.448C58.3627 43.0746 58.6061 43.8272 58.6071 44.5996V47.0532C58.6052 47.1265 58.5753 47.1962 58.5234 47.2481C58.4716 47.2999 58.4019 47.3299 58.3286 47.3318H45.225C45.364 46.103 45.1898 44.8591 44.7187 43.7157C44.2475 42.5724 43.4947 41.5669 42.5304 40.7928L46.7111 39.4021C47.4081 39.1741 48.1366 39.0573 48.87 39.0561C50.4669 39.0523 52.0101 38.4796 53.2229 37.4408C54.4357 36.402 55.2386 34.965 55.4877 33.3876C55.7367 31.8103 55.4155 30.1959 54.5817 28.8339C53.748 27.472 52.4562 26.4518 50.9382 25.9562C49.4201 25.4607 47.7752 25.5222 46.2985 26.1299C44.8217 26.7376 43.6099 27.8516 42.8803 29.2721C42.1507 30.6925 41.9512 32.3265 42.3174 33.8808C42.6837 35.4351 43.5919 36.808 44.8789 37.7532C44.0936 38.0489 40.5857 39.0828 39.9504 39.5103L35.0711 37.885C41.7696 33.6636 38.7643 23.0339 30.7339 23.0403C22.7046 23.0403 19.6982 33.6582 26.3989 37.885L21.5357 39.5071C20.8907 39.0936 17.3829 38.0296 16.62 37.7543C17.9046 36.8093 18.8103 35.4375 19.1746 33.8849C19.5389 32.3324 19.3379 30.7009 18.6078 29.2832C17.8776 27.8655 16.666 26.7544 15.1906 26.1494C13.7151 25.5445 12.0723 25.4852 10.557 25.9822C9.04177 26.4793 7.75328 27.5001 6.92283 28.8615C6.09237 30.2229 5.77433 31.8357 6.02579 33.4105C6.27725 34.9852 7.08173 36.4188 8.29486 37.4539C9.50798 38.4889 11.0503 39.0578 12.645 39.0582C13.3736 39.0611 14.0973 39.1775 14.79 39.4032L18.9471 40.7853C18.1061 41.432 17.4248 42.2633 16.9559 43.215C16.4871 44.1667 16.2431 45.2133 16.2429 46.2743V47.3328H3.17143C3.09815 47.3309 3.02839 47.301 2.97655 47.2492C2.92471 47.1973 2.89475 47.1276 2.89286 47.0543V44.6007C2.89343 43.8279 3.13667 43.0749 3.58825 42.4478C4.03982 41.8207 4.67693 41.3512 5.40964 41.1057L6.39536 40.7736C6.6612 40.6801 6.87953 40.4857 7.00305 40.2324C7.12658 39.9792 7.14535 39.6874 7.05532 39.4204C6.96528 39.1534 6.77367 38.9326 6.522 38.8058C6.27033 38.6791 5.97886 38.6566 5.71071 38.7432C4.3369 39.0013 3.09382 39.7245 2.19042 40.7912C1.28702 41.8579 0.778382 43.2031 0.75 44.6007V47.0543C0.750567 47.6963 1.00586 48.3119 1.45985 48.7659C1.91383 49.2198 2.5294 49.4751 3.17143 49.4757H16.26C16.3004 50.1736 16.6056 50.8297 17.1134 51.3102C17.6211 51.7907 18.2931 52.0592 18.9921 52.0611H42.4757C43.1748 52.0592 43.8467 51.7907 44.3545 51.3102C44.8622 50.8297 45.1675 50.1736 45.2079 49.4757H58.3286C58.9706 49.4751 59.5862 49.2198 60.0401 48.7659C60.4941 48.3119 60.7494 47.6963 60.75 47.0543V44.6007C60.7494 43.3789 60.365 42.1882 59.6512 41.1966C58.9374 40.205 57.9302 39.4626 56.7718 39.0743ZM48.84 27.7686C50.0531 27.7686 51.2165 28.2505 52.0743 29.1082C52.932 29.966 53.4139 31.1294 53.4139 32.3425C53.4139 33.5556 52.932 34.719 52.0743 35.5767C51.2165 36.4345 50.0531 36.9164 48.84 36.9164C47.6269 36.9164 46.4635 36.4345 45.6057 35.5767C44.748 34.719 44.2661 33.5556 44.2661 32.3425C44.2661 31.1294 44.748 29.966 45.6057 29.1082C46.4635 28.2505 47.6269 27.7686 48.84 27.7686ZM8.08607 32.3425C8.11196 31.1466 8.60522 30.0083 9.46018 29.1717C10.3151 28.335 11.4638 27.8665 12.66 27.8665C13.8562 27.8665 15.0049 28.335 15.8598 29.1717C16.7148 30.0083 17.208 31.1466 17.2339 32.3425C17.208 33.5384 16.7148 34.6767 15.8598 35.5133C15.0049 36.35 13.8562 36.8185 12.66 36.8185C11.4638 36.8185 10.3151 36.35 9.46018 35.5133C8.60522 34.6767 8.11196 33.5384 8.08607 32.3425ZM24.8175 31.1018C25.0661 23.2803 36.405 23.2836 36.6525 31.1018C36.4039 38.9232 25.065 38.9211 24.8175 31.1018ZM42.4768 49.9182H18.9932C18.8324 49.9182 18.6781 49.8543 18.5644 49.7406C18.4507 49.6269 18.3868 49.4726 18.3868 49.3118V46.2753C18.3856 45.2677 18.7022 44.2853 19.2913 43.4679C19.8805 42.6504 20.7123 42.0394 21.6686 41.7218C31.3779 38.3682 30.1039 38.3757 39.8004 41.7228C40.7566 42.0405 41.5885 42.6515 42.1776 43.4689C42.7668 44.2864 43.0833 45.2688 43.0821 46.2764V48.4032C43.0554 48.9089 43.2739 49.9107 42.4768 49.9182ZM22.6575 9.66892L25.3254 11.6061L24.3064 14.7421C24.1458 15.2351 24.1454 15.7664 24.3054 16.2596C24.4654 16.7528 24.7776 17.1826 25.1971 17.4874C25.6166 17.7922 26.1219 17.9562 26.6404 17.956C27.1589 17.9557 27.664 17.7912 28.0832 17.4861L30.75 15.5478L33.4168 17.4871C33.8361 17.7925 34.3413 17.9571 34.86 17.9574C35.3787 17.9576 35.8842 17.7935 36.3037 17.4885C36.7233 17.1836 37.0355 16.7535 37.1953 16.2601C37.3552 15.7666 37.3546 15.2352 37.1936 14.7421L36.1746 11.6061L38.8425 9.66892C39.2624 9.36451 39.575 8.93488 39.7355 8.44172C39.896 7.94856 39.896 7.41723 39.7357 6.92402C39.5754 6.43081 39.2629 6.00108 38.8432 5.69653C38.4234 5.39198 37.9179 5.22827 37.3993 5.22892H34.1036L33.0846 2.09284C32.9243 1.60014 32.6121 1.17082 32.1928 0.866367C31.7735 0.561916 31.2687 0.397949 30.7505 0.397949C30.2324 0.397949 29.7275 0.561916 29.3083 0.866367C28.889 1.17082 28.5768 1.60014 28.4164 2.09284L27.3964 5.22892H24.0986C23.584 5.23659 23.0847 5.40503 22.6707 5.71063C22.2566 6.01623 21.9485 6.44369 21.7896 6.93314C21.6306 7.42259 21.6287 7.94951 21.7841 8.44009C21.9396 8.93067 22.2446 9.36034 22.6564 9.66892H22.6575ZM23.8039 7.58713C23.8205 7.52255 23.8591 7.46579 23.9131 7.42666C23.9671 7.38754 24.0331 7.3685 24.0996 7.37285H28.1754C28.4019 7.37298 28.6227 7.3013 28.806 7.16808C28.9893 7.03486 29.1256 6.84697 29.1954 6.63142L30.4543 2.75499C30.4748 2.69257 30.5144 2.63822 30.5676 2.59968C30.6208 2.56114 30.6848 2.54039 30.7505 2.54039C30.8162 2.54039 30.8802 2.56114 30.9334 2.59968C30.9866 2.63822 31.0263 2.69257 31.0468 2.75499L32.3057 6.63142C32.3756 6.8466 32.5119 7.03413 32.6949 7.16712C32.8779 7.30012 33.0984 7.37176 33.3246 7.37177H37.4004C37.466 7.37176 37.53 7.39256 37.5832 7.43118C37.6363 7.46981 37.6758 7.52428 37.696 7.58677C37.7163 7.64926 37.7162 7.71655 37.6958 7.77899C37.6754 7.84142 37.6357 7.89579 37.5825 7.93427L34.2868 10.33C34.1036 10.4629 33.9672 10.6504 33.8971 10.8655C33.8271 11.0807 33.827 11.3126 33.8968 11.5278L35.1568 15.4053C35.1772 15.4679 35.1772 15.5352 35.1569 15.5978C35.1366 15.6603 35.097 15.7148 35.0438 15.7534C34.9905 15.792 34.9264 15.8127 34.8607 15.8125C34.7949 15.8123 34.7309 15.7913 34.6779 15.7525L31.38 13.3568C31.1969 13.2237 30.9764 13.152 30.75 13.152C30.5236 13.152 30.3031 13.2237 30.12 13.3568L26.8232 15.7525C26.7702 15.7913 26.7062 15.8123 26.6404 15.8125C26.5746 15.8127 26.5105 15.792 26.4573 15.7534C26.4041 15.7148 26.3644 15.6603 26.3441 15.5978C26.3238 15.5352 26.3239 15.4679 26.3443 15.4053L27.6032 11.5278C27.6732 11.3127 27.6732 11.0809 27.6033 10.8657C27.5335 10.6506 27.3973 10.463 27.2143 10.33L23.9175 7.93427C23.8611 7.89872 23.8188 7.84457 23.7981 7.78119C23.7774 7.7178 23.7794 7.64916 23.8039 7.58713ZM4.86429 16.1725L6.87214 17.6318L6.10714 19.9921C5.96576 20.4293 5.96624 20.9 6.10852 21.3369C6.2508 21.7738 6.52759 22.1545 6.89931 22.4246C7.27103 22.6947 7.71863 22.8403 8.17811 22.8406C8.63758 22.8409 9.08539 22.696 9.4575 22.4264L11.4643 20.9682L13.4721 22.4275C13.8442 22.6975 14.2922 22.8428 14.7519 22.8427C15.2116 22.8426 15.6595 22.697 16.0315 22.4269C16.4034 22.1567 16.6804 21.7758 16.8226 21.3386C16.9649 20.9015 16.9652 20.4305 16.8236 19.9932L16.0575 17.6328L18.0654 16.1736C18.4379 15.9034 18.7152 15.5222 18.8576 15.0847C18.9999 14.6472 19 14.1757 18.8578 13.7381C18.7156 13.3005 18.4384 12.9193 18.066 12.649C17.6936 12.3788 17.2451 12.2334 16.785 12.2339H14.3036L13.5375 9.87356C13.3954 9.43608 13.1184 9.05483 12.7462 8.78445C12.3741 8.51407 11.9259 8.36844 11.4659 8.36844C11.0059 8.36844 10.5577 8.51407 10.1856 8.78445C9.81342 9.05483 9.53643 9.43608 9.39429 9.87356L8.62821 12.2339H6.14464C5.68782 12.2402 5.24442 12.3893 4.87665 12.6604C4.50888 12.9315 4.2352 13.3108 4.09399 13.7453C3.95278 14.1798 3.95113 14.6476 4.08928 15.0831C4.22743 15.5186 4.49844 15.8988 4.86429 16.1725ZM9.405 14.3757C9.63112 14.3758 9.85147 14.3043 10.0345 14.1715C10.2175 14.0387 10.3538 13.8514 10.4239 13.6364L11.4879 10.5132C11.5029 10.5153 12.495 13.6257 12.5057 13.6353C12.5756 13.8504 12.7116 14.0378 12.8945 14.1707C13.0773 14.3037 13.2975 14.3755 13.5236 14.3757L16.8054 14.4389L14.1675 16.3557C13.9845 16.4887 13.8483 16.6763 13.7785 16.8915C13.7086 17.1066 13.7086 17.3384 13.7786 17.5536L14.7321 20.6928C14.0464 20.2728 11.9411 18.4439 11.4643 18.5714C11.0014 18.4493 8.72143 20.3286 8.14286 20.6543L9.15107 17.5536C9.22101 17.3384 9.22105 17.1066 9.15119 16.8915C9.08132 16.6763 8.94513 16.4887 8.76214 16.3557L6.14464 14.3757H9.405ZM43.4357 16.1725L45.4436 17.6318L44.6764 19.9921C44.5348 20.4295 44.5351 20.9004 44.6774 21.3376C44.8196 21.7747 45.0966 22.1556 45.4685 22.4258C45.8405 22.696 46.2884 22.8415 46.7481 22.8416C47.2078 22.8417 47.6558 22.6964 48.0279 22.4264L50.0357 20.9682L52.0436 22.4275C52.4157 22.6975 52.8636 22.8428 53.3233 22.8427C53.7831 22.8426 54.2309 22.697 54.6029 22.4269C54.9748 22.1567 55.2518 21.7758 55.3941 21.3386C55.5363 20.9015 55.5367 20.4305 55.395 19.9932L54.6279 17.6328L56.6357 16.1736C57.0081 15.9035 57.2854 15.5224 57.4278 15.085C57.5702 14.6475 57.5704 14.1762 57.4283 13.7387C57.2862 13.3011 57.0092 12.9198 56.637 12.6495C56.2648 12.3791 55.8165 12.2337 55.3564 12.2339H52.8739L52.1068 9.87356C51.9644 9.43647 51.6873 9.05564 51.3153 8.78559C50.9433 8.51553 50.4954 8.37009 50.0357 8.37009C49.576 8.37009 49.1281 8.51553 48.7561 8.78559C48.3841 9.05564 48.107 9.43647 47.9646 9.87356L47.1975 12.2339H44.715C44.2583 12.2404 43.815 12.3897 43.4474 12.6608C43.0798 12.932 42.8063 13.3114 42.6652 13.7458C42.5242 14.1803 42.5226 14.648 42.6608 15.0834C42.7989 15.5188 43.0699 15.8989 43.4357 16.1725ZM47.9764 14.3757C48.2024 14.3755 48.4225 14.304 48.6053 14.1712C48.7881 14.0384 48.9242 13.8512 48.9943 13.6364L50.0593 10.5132C50.0743 10.5153 51.0654 13.6257 51.0771 13.6353C51.147 13.8504 51.2831 14.0378 51.4659 14.1707C51.6487 14.3037 51.8689 14.3755 52.095 14.3757L55.3757 14.4389L52.7389 16.3557C52.5557 16.4886 52.4193 16.6761 52.3493 16.8913C52.2792 17.1064 52.2791 17.3383 52.3489 17.5536L53.3025 20.6928C52.6168 20.2728 50.5114 18.4439 50.0357 18.5714C49.5718 18.4493 47.2929 20.3286 46.7143 20.6543L47.7225 17.5536C47.7924 17.3384 47.7925 17.1066 47.7226 16.8915C47.6527 16.6763 47.5166 16.4887 47.3336 16.3557L44.715 14.3757H47.9764Z" fill="white"/>
</svg>
