<svg width="60" height="60" viewBox="0 0 60 60" fill="none" xmlns="http://www.w3.org/2000/svg">
<path d="M30 9.375C27.4041 9.375 24.8665 10.1448 22.7081 11.587C20.5498 13.0292 18.8675 15.079 17.8741 17.4773C16.8807 19.8756 16.6208 22.5146 17.1272 25.0606C17.6336 27.6066 18.8837 29.9452 20.7192 31.7808C22.5548 33.6163 24.8934 34.8664 27.4394 35.3728C29.9854 35.8792 32.6244 35.6193 35.0227 34.6259C37.421 33.6325 39.4709 31.9503 40.913 29.7919C42.3552 27.6335 43.125 25.0959 43.125 22.5C43.1213 19.0202 41.7373 15.6839 39.2767 13.2233C36.8161 10.7627 33.4798 9.37872 30 9.375ZM30 33.75C27.775 33.75 25.5999 33.0902 23.7498 31.854C21.8998 30.6179 20.4578 28.8609 19.6064 26.8052C18.7549 24.7495 18.5321 22.4875 18.9662 20.3052C19.4003 18.1229 20.4717 16.1184 22.0451 14.545C23.6184 12.9717 25.623 11.9002 27.8052 11.4662C29.9875 11.0321 32.2495 11.2549 34.3052 12.1064C36.3609 12.9578 38.1179 14.3998 39.354 16.2498C40.5902 18.0999 41.25 20.275 41.25 22.5C41.2468 25.4827 40.0605 28.3423 37.9514 30.4514C35.8423 32.5605 32.9827 33.7468 30 33.75Z" fill="white"/>
<path d="M35.625 19.6875H33.75V18.75C33.7485 17.5073 33.2542 16.3158 32.3754 15.4371C31.4967 14.5583 30.3052 14.064 29.0625 14.0625C28.8139 14.0625 28.5754 14.1613 28.3996 14.3371C28.2238 14.5129 28.125 14.7514 28.125 15V19.1859L27.1875 19.8112V19.6875C27.1875 19.4389 27.0887 19.2004 26.9129 19.0246C26.7371 18.8488 26.4986 18.75 26.25 18.75H22.5C22.2514 18.75 22.0129 18.8488 21.8371 19.0246C21.6613 19.2004 21.5625 19.4389 21.5625 19.6875V27.1875C21.5625 27.4361 21.6613 27.6746 21.8371 27.8504C22.0129 28.0262 22.2514 28.125 22.5 28.125H26.25C26.4986 28.125 26.7371 28.0262 26.9129 27.8504C27.0887 27.6746 27.1875 27.4361 27.1875 27.1875V27.0638L28.5422 27.9675C28.6964 28.0699 28.8774 28.1247 29.0625 28.125H35.625C36.3709 28.125 37.0863 27.8287 37.6137 27.3012C38.1412 26.7738 38.4375 26.0584 38.4375 25.3125V22.5C38.4375 21.7541 38.1412 21.0387 37.6137 20.5113C37.0863 19.9838 36.3709 19.6875 35.625 19.6875ZM25.3125 26.25H23.4375V20.625H25.3125V26.25ZM36.5625 25.3125C36.5625 25.5611 36.4637 25.7996 36.2879 25.9754C36.1121 26.1512 35.8736 26.25 35.625 26.25H29.3437L27.1875 24.8109V22.0641L29.5828 20.4703C29.7116 20.3844 29.8171 20.268 29.8898 20.1314C29.9626 19.9948 30.0005 19.8423 30 19.6875V16.0978C30.548 16.2924 31.0223 16.6518 31.358 17.1266C31.6937 17.6014 31.8743 18.1685 31.875 18.75V20.625C31.875 20.8736 31.9738 21.1121 32.1496 21.2879C32.3254 21.4637 32.5639 21.5625 32.8125 21.5625H35.625C35.8736 21.5625 36.1121 21.6613 36.2879 21.8371C36.4637 22.0129 36.5625 22.2514 36.5625 22.5V25.3125Z" fill="white"/>
<path d="M30 4.6875C26.4306 4.68236 22.9422 5.75125 19.9883 7.75519C17.0345 9.75913 14.7519 12.6054 13.4374 15.924C12.1228 19.2425 11.8371 22.8798 12.6174 26.3629C13.3976 29.846 15.2078 33.0138 17.8125 35.4544V55.3125C17.8125 55.4979 17.8674 55.6792 17.9703 55.8334C18.0733 55.9875 18.2197 56.1077 18.3909 56.1787C18.5047 56.2262 18.6268 56.2504 18.75 56.25C18.9986 56.2499 19.237 56.1511 19.4128 55.9753L21.5625 53.8256V58.125C21.5625 58.3104 21.6175 58.4916 21.7206 58.6457C21.8236 58.7999 21.97 58.92 22.1413 58.9909C22.3125 59.0619 22.501 59.0805 22.6828 59.0443C22.8647 59.0081 23.0317 58.9189 23.1628 58.7878L30 51.9506L36.8372 58.7878C37.013 58.9636 37.2514 59.0624 37.5 59.0625C37.6232 59.0629 37.7453 59.0387 37.8591 58.9912C38.0303 58.9202 38.1767 58.8 38.2797 58.6459C38.3826 58.4917 38.4375 58.3104 38.4375 58.125V53.8256L40.5872 55.9753C40.763 56.1511 41.0014 56.2499 41.25 56.25C41.3732 56.2504 41.4953 56.2262 41.6091 56.1787C41.7803 56.1077 41.9267 55.9875 42.0297 55.8334C42.1326 55.6792 42.1875 55.4979 42.1875 55.3125V35.4544C44.7922 33.0138 46.6024 29.846 47.3826 26.3629C48.1629 22.8798 47.8772 19.2425 46.5626 15.924C45.2481 12.6054 42.9655 9.75913 40.0117 7.75519C37.0578 5.75125 33.5694 4.68236 30 4.6875ZM19.6875 53.0494V36.9966C20.287 37.4305 20.9133 37.8263 21.5625 38.1816V51.1744L19.6875 53.0494ZM30.6628 49.9622C30.487 49.7864 30.2486 49.6877 30 49.6877C29.7514 49.6877 29.513 49.7864 29.3372 49.9622L23.4375 55.8619V39.0441C27.649 40.7354 32.351 40.7354 36.5625 39.0441V55.8619L30.6628 49.9622ZM40.3125 53.0494L38.4375 51.1744V38.1816C39.0867 37.8263 39.713 37.4305 40.3125 36.9966V53.0494ZM30 38.4375C26.8479 38.4375 23.7665 37.5028 21.1456 35.7515C18.5247 34.0003 16.4819 31.5112 15.2757 28.599C14.0694 25.6868 13.7538 22.4823 14.3687 19.3907C14.9837 16.2992 16.5016 13.4594 18.7305 11.2305C20.9594 9.00159 23.7992 7.48369 26.8907 6.86873C29.9823 6.25378 33.1868 6.5694 36.099 7.77567C39.0112 8.98194 41.5003 11.0247 43.2515 13.6456C45.0028 16.2665 45.9375 19.3479 45.9375 22.5C45.9328 26.7254 44.2521 30.7765 41.2643 33.7643C38.2765 36.7521 34.2254 38.4328 30 38.4375ZM58.125 4.6875C57.3791 4.6875 56.6637 4.39118 56.1363 3.86374C55.6088 3.33629 55.3125 2.62092 55.3125 1.875C55.3125 1.62636 55.2137 1.3879 55.0379 1.21209C54.8621 1.03627 54.6236 0.9375 54.375 0.9375C54.1264 0.9375 53.8879 1.03627 53.7121 1.21209C53.5363 1.3879 53.4375 1.62636 53.4375 1.875C53.4375 2.62092 53.1412 3.33629 52.6137 3.86374C52.0863 4.39118 51.3709 4.6875 50.625 4.6875C50.3764 4.6875 50.1379 4.78627 49.9621 4.96209C49.7863 5.1379 49.6875 5.37636 49.6875 5.625C49.6875 5.87364 49.7863 6.1121 49.9621 6.28791C50.1379 6.46373 50.3764 6.5625 50.625 6.5625C51.3709 6.5625 52.0863 6.85882 52.6137 7.38626C53.1412 7.91371 53.4375 8.62908 53.4375 9.375C53.4375 9.62364 53.5363 9.8621 53.7121 10.0379C53.8879 10.2137 54.1264 10.3125 54.375 10.3125C54.6236 10.3125 54.8621 10.2137 55.0379 10.0379C55.2137 9.8621 55.3125 9.62364 55.3125 9.375C55.3125 8.62908 55.6088 7.91371 56.1363 7.38626C56.6637 6.85882 57.3791 6.5625 58.125 6.5625C58.3736 6.5625 58.6121 6.46373 58.7879 6.28791C58.9637 6.1121 59.0625 5.87364 59.0625 5.625C59.0625 5.37636 58.9637 5.1379 58.7879 4.96209C58.6121 4.78627 58.3736 4.6875 58.125 4.6875ZM54.375 6.5625C54.1078 6.20774 53.7923 5.89217 53.4375 5.625C53.7923 5.35783 54.1078 5.04226 54.375 4.6875C54.6422 5.04226 54.9577 5.35783 55.3125 5.625C54.9577 5.89217 54.6422 6.20774 54.375 6.5625ZM9.375 15C8.62908 15 7.91371 14.7037 7.38626 14.1762C6.85882 13.6488 6.5625 12.9334 6.5625 12.1875C6.5625 11.9389 6.46373 11.7004 6.28791 11.5246C6.1121 11.3488 5.87364 11.25 5.625 11.25C5.37636 11.25 5.1379 11.3488 4.96209 11.5246C4.78627 11.7004 4.6875 11.9389 4.6875 12.1875C4.6875 12.9334 4.39118 13.6488 3.86374 14.1762C3.33629 14.7037 2.62092 15 1.875 15C1.62636 15 1.3879 15.0988 1.21209 15.2746C1.03627 15.4504 0.9375 15.6889 0.9375 15.9375C0.9375 16.1861 1.03627 16.4246 1.21209 16.6004C1.3879 16.7762 1.62636 16.875 1.875 16.875C2.62092 16.875 3.33629 17.1713 3.86374 17.6988C4.39118 18.2262 4.6875 18.9416 4.6875 19.6875C4.6875 19.9361 4.78627 20.1746 4.96209 20.3504C5.1379 20.5262 5.37636 20.625 5.625 20.625C5.87364 20.625 6.1121 20.5262 6.28791 20.3504C6.46373 20.1746 6.5625 19.9361 6.5625 19.6875C6.5625 18.9416 6.85882 18.2262 7.38626 17.6988C7.91371 17.1713 8.62908 16.875 9.375 16.875C9.62364 16.875 9.8621 16.7762 10.0379 16.6004C10.2137 16.4246 10.3125 16.1861 10.3125 15.9375C10.3125 15.6889 10.2137 15.4504 10.0379 15.2746C9.8621 15.0988 9.62364 15 9.375 15ZM5.625 16.875C5.35783 16.5202 5.04226 16.2047 4.6875 15.9375C5.04226 15.6703 5.35783 15.3548 5.625 15C5.89217 15.3548 6.20774 15.6703 6.5625 15.9375C6.20774 16.2047 5.89217 16.5202 5.625 16.875Z" fill="white"/>
</svg>
