<svg width="50" height="62" viewBox="0 0 50 62" fill="none" xmlns="http://www.w3.org/2000/svg">
<path d="M22.2699 47.8521L30.0705 50.6167L43.7336 43.5282C45.5019 42.6109 47.6991 43.3069 48.6165 45.0752C49.0751 45.9593 48.7268 47.058 47.8429 47.5165L39.404 51.8946M37.7964 52.7286L29.3575 57.1067L15.3293 55.7673L3.7163 61.0001H1V48.4041H3.71642L15.3315 41.9429L27.9237 41.2037C29.415 41.116 30.8679 41.6546 31.2679 43.0939C31.6678 44.5333 30.7954 45.9681 29.3777 46.4381L17.5077 48.7997" stroke="white" stroke-width="1.8" stroke-miterlimit="22.9256"/>
<path d="M31.3648 43.8249L36.8556 40.9763C38.6239 40.0589 40.8209 40.7551 41.7383 42.5233C42.1969 43.4073 41.8487 44.506 40.9648 44.9645M3.17871 9.14877V29.0683C3.17871 30.0625 3.99529 30.8792 4.98958 30.8792H28.3112L32.1527 34.7206L35.9941 30.8792H44.829C45.8233 30.8792 46.6398 30.0643 46.6398 29.0683V2.81087C46.6398 1.81489 45.825 1 44.829 1H4.98958C3.9936 1 3.17871 1.8173 3.17871 2.81087V7.33803" stroke="white" stroke-width="1.8" stroke-miterlimit="22.9256"/>
<path d="M9.51758 23.6107H40.302M21.2881 16.3674H40.302M24.0043 12.7458H40.3019M9.51758 19.9891H24.0044M25.8152 19.9891H40.302M43.0186 5.52717V3.71631M43.0186 9.1489V7.33804M11.1119 12.6381L14.313 15.8392C15.0173 16.5435 16.1696 16.5435 16.8739 15.8392L21.3556 11.3576C22.0599 10.6532 22.0599 9.50094 21.3556 8.79663C20.6513 8.09245 19.4988 8.09245 18.7946 8.79663L15.5935 11.9978L13.6728 10.077C12.9686 9.37285 11.8162 9.37285 11.1119 10.077C10.4077 10.7813 10.4076 11.9338 11.1119 12.6381Z" stroke="white" stroke-width="1.8" stroke-miterlimit="22.9256"/>
</svg>
