<svg width="19.000000" height="19.000000" viewBox="0 0 19 19" fill="none" xmlns="http://www.w3.org/2000/svg" xmlns:xlink="http://www.w3.org/1999/xlink">
	<desc>
			Created with Pixso.
	</desc>
	<defs/>
	<path id="Vector" d="M14.68 0L6.04 0C5.2 0 4.38 0.22 3.68 0.64C2.98 1.06 2.42 1.66 2.09 2.37L0.86 2.37C0.63 2.37 0.41 2.45 0.25 2.6C0.09 2.75 0 2.95 0 3.16C0 3.37 0.09 3.57 0.25 3.72C0.41 3.87 0.63 3.95 0.86 3.95L1.72 3.95L1.72 5.54L0.86 5.54C0.63 5.54 0.41 5.62 0.25 5.77C0.09 5.92 0 6.12 0 6.33C0 6.54 0.09 6.74 0.25 6.89C0.41 7.04 0.63 7.12 0.86 7.12L1.72 7.12L1.72 8.7L0.86 8.7C0.63 8.7 0.41 8.79 0.25 8.94C0.09 9.08 0 9.29 0 9.5C0 9.7 0.09 9.91 0.25 10.05C0.41 10.2 0.63 10.29 0.86 10.29L1.72 10.29L1.72 11.87L0.86 11.87C0.63 11.87 0.41 11.95 0.25 12.1C0.09 12.25 0 12.45 0 12.66C0 12.87 0.09 13.07 0.25 13.22C0.41 13.37 0.63 13.45 0.86 13.45L1.72 13.45L1.72 15.04L0.86 15.04C0.63 15.04 0.41 15.12 0.25 15.27C0.09 15.42 0 15.62 0 15.83C0 16.04 0.09 16.24 0.25 16.39C0.41 16.54 0.63 16.62 0.86 16.62L2.09 16.62C2.42 17.33 2.98 17.93 3.68 18.35C4.38 18.77 5.2 18.99 6.04 19L14.68 19C15.82 18.99 16.92 18.58 17.73 17.83C18.54 17.09 18.99 16.09 19 15.04L19 3.95C18.99 2.9 18.54 1.9 17.73 1.16C16.92 0.41 15.82 0 14.68 0L14.68 0ZM17.27 15.04C17.27 15.67 17 16.27 16.51 16.72C16.02 17.16 15.36 17.41 14.68 17.41L6.04 17.41C5.35 17.41 4.69 17.16 4.21 16.72C3.72 16.27 3.45 15.67 3.45 15.04L3.45 3.95C3.45 3.32 3.72 2.72 4.21 2.27C4.69 1.83 5.35 1.58 6.04 1.58L14.68 1.58C15.36 1.58 16.02 1.83 16.51 2.27C17 2.72 17.27 3.32 17.27 3.95L17.27 15.04ZM10.36 9.5C11.05 9.5 11.7 9.24 12.19 8.8C12.68 8.35 12.95 7.75 12.95 7.12C12.95 6.49 12.68 5.89 12.19 5.44C11.7 5 11.05 4.75 10.36 4.75C9.67 4.75 9.01 5 8.53 5.44C8.04 5.89 7.77 6.49 7.77 7.12C7.77 7.75 8.04 8.35 8.53 8.8C9.01 9.24 9.67 9.5 10.36 9.5ZM14.68 14.25C14.68 14.46 14.59 14.66 14.42 14.8C14.26 14.95 14.04 15.04 13.81 15.04C13.58 15.04 13.36 14.95 13.2 14.8C13.04 14.66 12.95 14.46 12.95 14.25C12.95 13.62 12.68 13.01 12.19 12.57C11.7 12.12 11.05 11.87 10.36 11.87C9.67 11.87 9.01 12.12 8.53 12.57C8.04 13.01 7.77 13.62 7.77 14.25C7.77 14.46 7.68 14.66 7.51 14.8C7.35 14.95 7.13 15.04 6.9 15.04C6.67 15.04 6.46 14.95 6.29 14.8C6.13 14.66 6.04 14.46 6.04 14.25C6.22 9.01 14.5 9.02 14.68 14.25Z" fill="#FFFFFF" fill-opacity="1.000000" fill-rule="nonzero"/>
</svg>
