<svg width="19.000000" height="19.000000" viewBox="0 0 19 19" fill="none" xmlns="http://www.w3.org/2000/svg" xmlns:xlink="http://www.w3.org/1999/xlink">
	<desc>
			Created with Pixso.
	</desc>
	<defs/>
	<path id="Vector" d="M17.77 6.4L12.29 1.15C11.55 0.41 10.55 0 9.5 0C8.46 -0.01 7.45 0.4 6.71 1.13L1.21 6.4C0.83 6.77 0.52 7.22 0.32 7.71C0.1 8.2 0 8.73 0 9.26L0 15.03C0 16.08 0.41 17.09 1.16 17.83C1.9 18.58 2.9 18.99 3.95 19L15.04 19C16.09 18.99 17.09 18.58 17.83 17.83C18.58 17.09 18.99 16.08 19 15.03L19 9.26C18.99 8.73 18.89 8.2 18.67 7.71C18.47 7.22 18.16 6.77 17.77 6.4ZM7.82 2.27C8.26 1.82 8.87 1.57 9.5 1.57C10.14 1.58 10.74 1.83 11.19 2.28L16.53 7.4L11.17 12.76C10.72 13.19 10.12 13.43 9.5 13.43C8.87 13.43 8.27 13.19 7.82 12.76L2.46 7.4L7.82 2.27ZM17.41 15.03C17.41 15.67 17.16 16.27 16.72 16.72C16.27 17.16 15.67 17.41 15.04 17.41L3.95 17.41C3.32 17.41 2.72 17.16 2.27 16.72C1.83 16.27 1.58 15.67 1.58 15.03L1.58 9.26C1.58 9.11 1.59 8.95 1.63 8.8L6.7 13.88C7.44 14.61 8.45 15.03 9.5 15.03C10.54 15.03 11.55 14.61 12.29 13.88L17.36 8.8C17.4 8.95 17.41 9.11 17.41 9.26L17.41 15.03Z" fill="#FFFFFF" fill-opacity="1.000000" fill-rule="nonzero"/>
</svg>
