<svg width="7.435547" height="16.099121" viewBox="0 0 7.43555 16.0991" fill="none" xmlns="http://www.w3.org/2000/svg" xmlns:xlink="http://www.w3.org/1999/xlink">
	<desc>
			Created with Pixso.
	</desc>
	<defs/>
	<path id="XMLID_10_" d="M1.68 16.09L4.91 16.09L4.91 7.95L7.17 7.95L7.43 5.23L4.91 5.23C4.91 5.23 4.91 4.2 4.91 3.68C4.91 3.03 5.04 2.78 5.68 2.78C6.2 2.78 7.43 2.78 7.43 2.78L7.43 0C7.43 0 5.56 0 5.17 0C2.77 0 1.68 1.03 1.68 3.1C1.68 4.84 1.68 5.3 1.68 5.3L0 5.3L0 8.08L1.68 8.08L1.68 16.09Z" fill="#FFFFFF" fill-opacity="1.000000" fill-rule="nonzero"/>
</svg>
