<svg width="14.611328" height="14.612061" viewBox="0 0 14.6113 14.6121" fill="none" xmlns="http://www.w3.org/2000/svg" xmlns:xlink="http://www.w3.org/1999/xlink">
	<desc>
			Created with Pixso.
	</desc>
	<defs/>
	<path id="XMLID_6_" d="M7.3 1.35C9.24 1.35 9.5 1.35 10.27 1.42C10.99 1.48 11.37 1.55 11.63 1.68C11.96 1.81 12.22 1.93 12.47 2.19C12.73 2.45 12.86 2.71 12.99 3.03C13.12 3.29 13.18 3.68 13.25 4.39C13.31 5.17 13.31 5.36 13.31 7.37C13.31 9.31 13.31 9.56 13.25 10.34C13.18 11.05 13.12 11.44 12.99 11.7C12.86 12.02 12.73 12.28 12.47 12.54C12.22 12.8 11.96 12.93 11.63 13.06C11.37 13.18 10.99 13.25 10.27 13.31C9.5 13.38 9.31 13.38 7.3 13.38C5.36 13.38 5.1 13.38 4.33 13.31C3.62 13.25 3.23 13.18 2.97 13.06C2.65 12.93 2.39 12.8 2.13 12.54C1.87 12.28 1.74 12.02 1.61 11.7C1.48 11.44 1.42 11.05 1.35 10.34C1.29 9.56 1.29 9.37 1.29 7.37C1.29 5.43 1.29 5.17 1.35 4.39C1.42 3.68 1.48 3.29 1.61 3.03C1.74 2.71 1.87 2.45 2.13 2.19C2.39 1.93 2.65 1.81 2.97 1.68C3.23 1.55 3.62 1.48 4.33 1.42C5.17 1.35 5.36 1.35 7.3 1.35ZM7.3 0C5.3 0 5.04 0 4.26 0.06C3.49 0.12 2.97 0.19 2.52 0.38C2.06 0.58 1.61 0.84 1.22 1.22C0.83 1.61 0.58 2.06 0.38 2.52C0.19 2.97 0.06 3.49 0.06 4.26C0 5.04 0 5.3 0 7.3C0 9.31 0 9.56 0.06 10.34C0.12 11.12 0.19 11.63 0.38 12.09C0.58 12.54 0.83 12.99 1.22 13.38C1.61 13.77 2.06 14.03 2.52 14.22C2.97 14.41 3.49 14.54 4.26 14.54C5.04 14.61 5.3 14.61 7.3 14.61C9.31 14.61 9.56 14.61 10.34 14.54C11.12 14.48 11.63 14.41 12.08 14.22C12.54 14.03 12.99 13.77 13.38 13.38C13.77 12.99 14.02 12.54 14.22 12.09C14.41 11.63 14.54 11.12 14.54 10.34C14.61 9.56 14.61 9.31 14.61 7.3C14.61 5.3 14.61 5.04 14.54 4.26C14.48 3.49 14.41 2.97 14.22 2.52C14.02 2.06 13.77 1.61 13.38 1.22C12.99 0.84 12.54 0.58 12.08 0.38C11.63 0.19 11.12 0.06 10.34 0.06C9.56 0 9.31 0 7.3 0Z" fill="#FFFFFF" fill-opacity="1.000000" fill-rule="nonzero"/>
	<path id="XMLID_3_" d="M7.3 3.55C5.23 3.55 3.55 5.23 3.55 7.3C3.55 9.37 5.23 11.05 7.3 11.05C9.37 11.05 11.05 9.37 11.05 7.3C11.05 5.23 9.43 3.55 7.3 3.55ZM7.3 9.75C5.94 9.75 4.84 8.66 4.84 7.3C4.84 5.94 5.94 4.84 7.3 4.84C8.66 4.84 9.76 5.94 9.76 7.3C9.76 8.66 8.66 9.75 7.3 9.75Z" fill="#FFFFFF" fill-opacity="1.000000" fill-rule="nonzero"/>
	<path id="XMLID_2_" d="M12.09 3.42C12.09 3.87 11.7 4.32 11.18 4.32C10.73 4.32 10.28 3.94 10.28 3.42C10.28 2.97 10.66 2.51 11.18 2.51C11.7 2.51 12.09 2.9 12.09 3.42Z" fill="#FFFFFF" fill-opacity="1.000000" fill-rule="nonzero"/>
</svg>
