<svg width="13.318359" height="13.317871" viewBox="0 0 13.3184 13.3179" fill="none" xmlns="http://www.w3.org/2000/svg" xmlns:xlink="http://www.w3.org/1999/xlink">
	<desc>
			Created with Pixso.
	</desc>
	<defs/>
	<path id="XMLID_16_" d="M0.25 4.39L3.03 4.39L3.03 13.31L0.25 13.31L0.25 4.39Z" fill="#FFFFFF" fill-opacity="1.000000" fill-rule="evenodd"/>
	<path id="XMLID_15_" d="M3.23 1.61C3.23 2.5 2.5 3.23 1.61 3.23C0.72 3.23 0 2.5 0 1.61C0 0.72 0.72 0 1.61 0C2.5 0 3.23 0.72 3.23 1.61Z" fill="#FFFFFF" fill-opacity="1.000000" fill-rule="evenodd"/>
	<path id="XMLID_13_" d="M7.43 8.59C7.43 7.36 8.01 6.59 9.11 6.59C10.15 6.59 10.6 7.3 10.6 8.59C10.6 9.88 10.6 13.25 10.6 13.25L13.31 13.25C13.31 13.25 13.31 10.01 13.31 7.62C13.31 5.23 11.96 4.07 10.08 4.07C8.21 4.07 7.36 5.55 7.36 5.55L7.36 4.32L4.71 4.32L4.71 13.25L7.36 13.25C7.43 13.31 7.43 10.01 7.43 8.59Z" fill="#FFFFFF" fill-opacity="1.000000" fill-rule="nonzero"/>
</svg>
