<svg width="19.000000" height="19.000000" viewBox="0 0 19 19" fill="none" xmlns="http://www.w3.org/2000/svg" xmlns:xlink="http://www.w3.org/1999/xlink">
	<desc>
			Created with Pixso.
	</desc>
	<defs/>
	<path id="Vector" d="M10.27 0.79C10.27 0.58 10.36 0.38 10.5 0.23C10.65 0.08 10.85 0 11.07 0C13.17 0 15.18 0.83 16.67 2.32C18.16 3.81 18.99 5.82 19 7.93C19 8.14 18.91 8.34 18.76 8.49C18.61 8.64 18.41 8.72 18.2 8.72C17.99 8.72 17.79 8.64 17.64 8.49C17.49 8.34 17.41 8.14 17.41 7.93C17.41 6.24 16.74 4.63 15.55 3.44C14.36 2.25 12.75 1.58 11.07 1.58C10.85 1.58 10.65 1.5 10.5 1.35C10.36 1.2 10.27 1 10.27 0.79ZM11.07 4.75C11.91 4.75 12.71 5.09 13.31 5.68C13.9 6.28 14.24 7.08 14.24 7.93C14.24 8.14 14.32 8.34 14.47 8.49C14.62 8.64 14.82 8.72 15.03 8.72C15.24 8.72 15.44 8.64 15.59 8.49C15.74 8.34 15.82 8.14 15.82 7.93C15.82 6.66 15.32 5.46 14.43 4.56C13.54 3.67 12.33 3.17 11.07 3.17C10.85 3.17 10.65 3.25 10.5 3.4C10.36 3.55 10.27 3.75 10.27 3.96C10.27 4.17 10.36 4.37 10.5 4.52C10.65 4.67 10.85 4.75 11.07 4.75ZM18.28 13.27C18.74 13.73 18.99 14.35 18.99 15.01C18.99 15.66 18.74 16.28 18.28 16.74L17.55 17.57C11.06 23.79 -4.74 7.99 1.38 1.48L2.29 0.68C2.75 0.24 3.37 -0.01 4.01 0C4.65 0 5.27 0.26 5.72 0.71C5.75 0.74 7.22 2.65 7.22 2.65C7.65 3.11 7.89 3.71 7.89 4.35C7.89 4.98 7.65 5.59 7.21 6.04L6.29 7.2C6.8 8.43 7.55 9.55 8.49 10.5C9.43 11.45 10.55 12.19 11.79 12.71L12.95 11.78C13.41 11.34 14.01 11.1 14.65 11.1C15.28 11.1 15.89 11.34 16.34 11.78C16.34 11.78 18.25 13.25 18.28 13.27ZM17.18 14.42C17.18 14.42 15.29 12.96 15.26 12.94C15.1 12.78 14.88 12.69 14.65 12.69C14.42 12.69 14.2 12.78 14.03 12.94C14.01 12.96 12.41 14.23 12.41 14.23C12.31 14.32 12.18 14.38 12.04 14.4C11.91 14.42 11.77 14.4 11.64 14.36C10.04 13.76 8.59 12.83 7.38 11.62C6.17 10.42 5.24 8.97 4.64 7.37C4.59 7.24 4.57 7.1 4.59 6.96C4.61 6.82 4.67 6.69 4.76 6.58C4.76 6.58 6.03 4.98 6.05 4.96C6.22 4.79 6.31 4.57 6.31 4.34C6.31 4.11 6.22 3.89 6.05 3.73C6.03 3.7 4.57 1.81 4.57 1.81C4.4 1.66 4.19 1.58 3.96 1.58C3.74 1.59 3.53 1.68 3.37 1.84L2.46 2.63C-2.01 8.01 11.68 20.95 16.4 16.49L17.12 15.66C17.29 15.5 17.39 15.28 17.4 15.05C17.41 14.82 17.34 14.6 17.18 14.42Z" fill="#FFFFFF" fill-opacity="1.000000" fill-rule="nonzero"/>
</svg>
