<svg width="14.160156" height="11.508667" viewBox="0 0 14.1602 11.5087" fill="none" xmlns="http://www.w3.org/2000/svg" xmlns:xlink="http://www.w3.org/1999/xlink">
	<desc>
			Created with Pixso.
	</desc>
	<defs/>
	<path id="XMLID_1_" d="M0 10.21C1.29 11.05 2.84 11.5 4.46 11.5C9.89 11.5 12.93 6.91 12.73 2.84C13.31 2.45 13.77 1.93 14.16 1.35C13.64 1.61 13.06 1.74 12.47 1.81C13.06 1.42 13.51 0.9 13.77 0.19C13.18 0.51 12.6 0.77 11.89 0.9C11.37 0.32 10.6 0 9.76 0C7.88 0 6.52 1.74 6.91 3.55C4.52 3.42 2.32 2.26 0.9 0.51C0.12 1.81 0.51 3.55 1.81 4.39C1.35 4.39 0.9 4.26 0.51 4C0.51 5.36 1.42 6.59 2.84 6.91C2.45 7.04 2 7.04 1.55 6.98C1.93 8.14 2.97 8.98 4.26 8.98C3.03 9.95 1.55 10.4 0 10.21Z" fill="#FFFFFF" fill-opacity="1.000000" fill-rule="nonzero"/>
</svg>
