<svg width="219" height="314" viewBox="0 0 219 314" fill="none" xmlns="http://www.w3.org/2000/svg">
<path opacity="0.2" fill-rule="evenodd" clip-rule="evenodd" d="M127.442 301.464C126.593 300.978 125.865 300.674 125.198 300.31C121.803 298.67 118.528 296.787 115.86 294.115C113.07 291.321 110.463 288.345 107.795 285.43C106.521 284.094 105.369 282.636 104.095 281.3C101.003 277.899 97.243 275.348 93.0588 273.404C92.0481 272.919 91.0172 272.473 89.9661 272.068C86.0245 270.489 82.3254 268.485 78.7476 266.298C76.0794 264.659 73.2899 263.079 70.5005 261.683C65.2854 259.071 59.8277 258.524 54.1275 259.678C47.457 261.014 41.0897 263.262 35.2076 266.663C31.1446 269.092 27.203 271.643 23.1401 274.194C22.6549 274.498 22.1092 274.801 21.624 275.226C20.5931 276.077 19.5622 276.198 18.2888 275.591C15.1961 274.194 11.9215 273.587 8.58628 273.404C8.04051 273.344 7.55539 273.283 7.00962 273.222C6.94898 273.222 6.88834 273.161 6.8277 273.101C7.49475 272.129 7.49475 272.129 8.40436 271.704C10.9513 270.489 13.5588 269.396 15.9845 267.999C19.6835 265.752 23.322 263.262 26.9604 260.772C27.9913 260.043 28.8403 258.949 29.7499 258.038C30.8414 256.884 31.8723 255.73 33.0851 254.637C37.0268 251.054 41.7568 249.475 47.0325 249.718C50.5497 249.839 54.0062 250.629 57.4021 251.54C64.6385 253.524 71.9154 253.605 79.2327 251.783C80.8094 251.358 82.4467 250.932 84.0234 250.507C89.1172 249.05 93.8472 246.802 98.8197 244.98C99.0016 244.92 99.1835 244.677 99.5474 244.434C99.1835 244.252 98.941 244.009 98.6378 243.948C95.9696 243.28 93.544 242.126 91.2396 240.607C90.8758 240.365 90.5119 240.122 90.1481 239.879C84.3872 236.235 78.2625 235.506 71.7739 237.267C67.0439 238.542 62.7385 240.668 58.6149 243.158C56.4318 244.495 54.2488 245.81 52.0657 247.106C51.3986 247.531 50.6709 247.835 49.822 247.653C44.425 246.742 39.3918 247.896 34.6618 250.447C34.6012 250.507 34.4799 250.447 34.2373 250.447C34.2979 250.082 34.2979 249.778 34.4799 249.475C38.2396 243.098 40.8471 236.235 43.0302 229.189C44.4856 224.695 46.1229 220.201 47.6995 215.767C48.1847 214.188 49.0943 212.912 50.2465 211.819C58.1904 204.166 67.5291 200.036 78.7476 200.705C81.9616 200.887 85.1755 201.373 88.3288 202.162C91.7247 202.952 95.1206 203.924 98.5165 204.652C101.852 205.381 105.248 206.11 108.583 206.535C111.008 206.9 113.495 206.9 115.92 206.839C121.58 206.758 126.775 205.118 131.505 201.919C134.295 200.097 137.023 198.275 139.873 196.514C143.815 194.206 148.06 192.87 152.547 192.445C154.549 192.202 156.55 192.08 158.551 191.898C162.614 191.473 166.495 190.623 170.194 188.922C173.044 187.586 175.591 185.885 177.895 183.881C180.745 181.391 183.474 178.84 186.264 176.289C189.356 173.495 192.692 171.127 196.209 168.94C202.333 165.114 208.883 162.259 215.735 159.951C216.523 159.708 217.372 159.344 218.161 159.04C218.221 159.04 218.282 158.919 218.403 158.737C217.615 158.676 216.948 158.554 216.281 158.554C212.521 158.494 208.761 158.372 204.941 158.372C197.664 158.372 190.751 156.854 184.202 153.453C181.048 151.752 177.774 150.234 174.439 148.898C166.555 145.679 158.308 145.132 149.94 146.529C147.332 146.954 144.846 147.987 142.481 149.08C141.147 149.748 139.813 150.355 138.418 150.963C134.658 152.663 130.717 153.756 126.593 154.364C123.319 154.789 120.044 155.396 116.769 156.064C112.949 156.793 109.371 158.19 105.915 159.891C101.488 162.138 97.7888 165.357 94.3323 168.879C87.8437 175.378 82.8712 183.031 78.6263 191.169C77.3529 193.477 76.2007 195.846 74.9272 198.275C70.8037 198.761 66.6195 199.186 62.6778 200.826C58.8574 202.466 55.3403 204.652 51.6412 207.264C51.6412 205.989 52.1263 205.32 52.4295 204.652C56.735 195.664 62.1927 187.404 68.9238 180.055C72.1378 176.471 75.473 173.009 78.5657 169.305C80.8094 166.632 82.8712 163.717 84.751 160.802C88.9352 154.364 94.6961 149.991 101.67 147.197C105.611 145.618 109.674 144.646 113.919 144.282C117.133 144.039 120.347 143.674 123.622 143.371C124.713 143.31 125.865 143.128 127.018 143.067C132.415 142.52 137.145 140.334 141.208 136.811C145.816 132.924 150.304 128.855 154.852 124.847C156.388 123.51 157.904 122.174 159.4 120.838C159.642 120.656 159.824 120.352 160.188 119.927C159.703 119.745 159.4 119.563 159.157 119.563C154.67 119.198 150.182 119.259 145.816 120.291C142.481 121.081 139.085 121.506 135.689 121.749C133.688 121.931 131.687 122.235 129.686 122.539C124.956 123.328 121.014 125.636 117.436 128.794C112.828 132.924 109.007 137.662 106.036 143.31C100.032 145.071 94.2716 147.501 89.2385 152.117C89.2991 151.448 89.2385 151.084 89.2991 150.78C90.6332 147.136 91.9066 143.492 93.362 139.97C95.2419 135.475 98.2133 131.831 101.973 128.794C104.56 126.729 107.208 124.725 109.917 122.782C114.95 119.077 119.923 115.372 124.41 110.999C130.232 105.411 135.083 99.2164 138.418 91.8067C141.996 84.0933 143.027 76.0763 141.329 67.6949C140.177 61.8643 138.418 56.2767 136.538 50.7498C134.537 44.7371 132.475 38.785 130.595 32.7723C128.109 24.573 126.896 16.1916 126.593 7.62796C126.472 5.07709 126.29 2.58696 126.169 0.0968208C125.441 -0.206854 125.259 0.279026 125.016 0.521966C119.68 6.71694 115.435 13.5193 112.343 21.0504C110.948 24.4516 109.492 27.8527 108.219 31.3146C105.854 37.9955 101.973 43.5831 96.8185 48.4419C94.2716 50.8106 91.7854 53.3007 89.481 55.973C83.5989 62.8361 79.8391 70.7316 79.0508 79.9026C78.505 86.0369 79.9604 91.746 82.8712 97.0906C85.0542 101.038 87.5405 104.743 90.2693 108.327C92.3918 111.181 94.3929 114.157 96.0302 117.376C97.0611 119.32 97.9101 121.385 98.2739 123.51C98.5165 124.725 98.5165 125.94 98.5771 127.215C98.6175 128.187 98.2739 129.037 97.5462 129.766C93.9078 133.289 91.6641 137.601 89.9055 142.217C89.2384 144.039 88.5108 145.8 87.965 147.683C85.3574 156.429 80.5668 163.899 74.4421 170.58C71.2888 174.103 68.0748 177.565 64.9215 181.148C57.3414 189.894 51.7018 199.854 47.2751 210.544C44.7888 216.435 42.6664 222.508 40.7865 228.643C39.2098 233.805 37.3906 238.968 34.9044 243.826C31.9936 249.657 28.4158 255.002 23.6858 259.618C20.7144 262.472 17.3185 264.841 13.6195 266.663C9.25333 268.849 4.70527 270.793 0.217858 272.797C-0.0247035 272.919 -0.388549 272.979 -0.994956 273.222C-0.752395 272.676 -0.752395 272.311 -0.570472 272.129C3.73502 267.817 6.22129 262.594 7.91923 256.884C8.7682 254.091 9.67781 251.358 10.5268 248.564C12.2854 243.098 14.8929 238.057 18.4707 233.501C22.5336 228.4 26.7179 223.298 30.8414 218.136C33.0851 215.342 35.2682 212.487 37.0268 209.329C38.4215 206.839 39.7556 204.227 40.8471 201.555C44.243 193.173 44.4856 184.671 41.1503 176.168C39.513 171.977 37.6938 167.908 35.9352 163.778C34.9044 161.288 33.8128 158.797 32.8426 156.247C31.0233 151.448 30.0531 146.468 29.9925 141.366C29.9925 139.18 30.0531 136.994 30.0531 134.807C30.0531 131.77 30.0531 128.794 29.9318 125.818C29.8105 119.259 27.6881 113.307 24.5348 107.598C21.9879 103.103 19.441 98.609 17.2579 93.9324C15.8025 90.8349 14.2865 87.7374 12.4066 84.8829C11.9822 84.1541 11.4364 83.486 10.9513 82.8179C10.6481 83.0001 10.4055 83.0608 10.4055 83.1823C9.6778 88.3448 7.4341 92.8999 4.64462 97.2121C3.00732 99.7022 1.1881 102.071 -0.509841 104.5C-2.63227 107.598 -4.87597 110.635 -6.81647 113.853C-11.6677 121.871 -13.9721 130.616 -13.6082 139.97C-13.3657 145.132 -12.0316 149.991 -10.2124 154.789C-9.12082 157.583 -8.15057 160.377 -7.54416 163.292C-6.69519 167.3 -6.57391 171.309 -7.6048 175.317C-8.45377 178.638 -9.30275 181.958 -10.1517 185.278C-12.3348 193.477 -11.4252 201.433 -7.66544 209.025C-6.57391 211.272 -5.42173 213.459 -4.08763 215.463C-0.145986 221.294 3.91694 227.003 7.85859 232.773C8.82884 234.17 9.79909 235.506 10.6481 236.963C11.5577 238.482 11.679 239.879 10.83 241.64C9.43525 244.859 8.34372 248.199 7.19154 251.479C6.46386 253.544 5.85744 255.67 5.25104 257.795C3.49245 263.748 -0.0247037 268.606 -4.51212 272.858C-7.30159 275.409 -10.273 277.656 -13.6689 279.356C-15.4881 280.207 -17.1254 281.361 -18.8233 282.332C-19.3691 282.029 -19.1872 281.664 -19.0053 281.361C-18.884 281.057 -18.7021 280.753 -18.5201 280.45C-16.3977 276.38 -15.1242 272.007 -14.9423 267.392C-14.7604 263.383 -14.4572 259.496 -13.5476 255.609C-12.8805 252.815 -12.1529 250.021 -11.3645 247.228C-10.6975 244.677 -9.96979 242.126 -9.30274 239.575C-8.02928 234.534 -7.66544 229.372 -7.96864 224.148C-8.02929 222.569 -8.33249 221.051 -8.81762 219.532C-9.36338 217.71 -9.84851 215.828 -10.3943 214.006C-10.5156 213.52 -10.8794 213.095 -11.1826 212.548C-11.6071 213.034 -11.8497 213.337 -12.0922 213.702C-13.5476 215.949 -15.3668 217.832 -17.3073 219.654C-21.5522 223.541 -24.2204 228.46 -25.6757 233.987C-27.0705 239.454 -27.313 245.041 -26.3428 250.689C-25.6151 254.637 -24.7661 258.585 -23.4927 262.411C-22.8256 264.598 -22.2192 266.784 -21.6128 268.971C-20.5213 272.858 -20.7638 276.623 -22.3405 280.328C-24.0991 284.58 -26.5853 288.345 -29.9206 291.503C-35.4995 296.909 -40.4114 302.8 -44.535 309.42C-45.0808 310.21 -45.5053 311.06 -45.9297 311.91C-46.1117 312.396 -45.9297 312.882 -45.5053 313.064C-45.2627 313.186 -44.7776 313.125 -44.535 312.943C-44.1712 312.639 -43.8073 312.153 -43.5648 311.728C-39.1582 305.047 -34.1048 298.893 -28.4046 293.265C-22.0373 286.948 -14.821 282.029 -6.63455 278.324C-5.42173 277.838 -4.20892 277.352 -3.05674 276.745C-1.66201 276.016 -0.267269 275.712 1.24875 275.712C3.31054 275.712 5.31168 275.652 7.31282 275.652C12.8311 275.712 17.8037 277.352 22.4124 280.389C24.4135 281.786 26.354 283.243 28.4158 284.64C31.2659 286.462 34.116 288.345 37.0874 290.046C41.6355 292.718 46.6687 293.811 51.9444 293.69C54.2487 293.629 56.4925 293.447 58.7968 293.325C61.5863 293.143 64.3758 292.961 67.1652 292.779C72.3803 292.414 77.4741 293.204 82.386 295.087C86.5096 296.605 90.5726 298.184 94.6961 299.642C99.3655 301.403 104.217 302.739 109.189 303.347C112.767 303.772 116.345 303.833 119.923 303.225C121.803 302.922 123.682 302.557 125.623 302.254C126.229 302.132 126.775 301.95 127.442 301.464ZM-17.2467 262.533C-17.2467 262.492 -17.2669 262.432 -17.3073 262.351C-17.3073 262.351 -17.2871 262.33 -17.2467 262.29C-17.2467 262.33 -17.2467 262.371 -17.2467 262.411C-17.2467 262.452 -17.2467 262.492 -17.2467 262.533ZM-17.6105 261.743C-18.3989 256.277 -18.5808 250.75 -18.1563 245.223C-18.0956 244.373 -17.7318 243.705 -17.0648 243.219C-15.1849 241.761 -13.5476 240.061 -12.1529 238.178C-12.0316 237.935 -11.7284 237.814 -11.3645 237.571C-11.4858 238.239 -11.4858 238.785 -11.6071 239.211C-12.0922 241.276 -12.638 243.341 -13.2444 245.345C-14.821 250.568 -16.1551 255.791 -16.8222 261.257C-16.8828 261.622 -17.1254 261.986 -17.2467 262.29C-17.4286 262.108 -17.6105 261.925 -17.6105 261.743ZM-17.1254 262.958C-17.2062 262.958 -17.2871 262.938 -17.368 262.897C-17.3275 262.776 -17.2871 262.654 -17.2467 262.533C-17.2063 262.654 -17.1658 262.796 -17.1254 262.958ZM25.0806 115.372C26.4753 117.558 26.9604 119.38 27.3849 122.66C27.8094 126.486 27.87 130.313 27.8094 134.2C27.769 137.601 27.7892 141.022 27.87 144.464C27.9307 145.618 27.8094 146.65 27.203 147.683C23.9284 153.392 22.0485 159.587 20.957 166.025C20.3506 169.183 19.6229 172.341 18.8952 175.5C18.2888 178.172 17.2579 180.723 15.7419 182.97C15.4993 183.274 15.1355 183.456 14.711 183.82C13.9833 181.512 13.4375 179.387 12.7098 177.322C11.1938 172.949 9.67781 168.576 8.04051 164.203C7.55539 162.927 7.4341 161.652 7.67666 160.377C7.91922 159.223 8.10115 158.069 8.46499 157.036C9.49588 154.303 10.4661 151.57 11.7396 149.019C13.3163 145.739 15.2568 142.581 17.076 139.362C18.8952 136.204 20.8357 133.046 22.2304 129.645C23.989 125.454 25.0805 121.142 25.0199 116.587C25.0199 116.161 25.0806 115.797 25.0806 115.372ZM34.116 165.478C34.7831 166.997 35.2682 167.968 35.7533 169.001C37.33 172.524 38.7854 176.107 39.9375 179.812C41.6355 185.521 41.6355 191.169 39.9982 196.878C38.9471 200.522 37.4715 203.984 35.5714 207.264C33.7522 210.483 31.6298 213.52 29.3254 216.374C24.1709 222.812 18.7133 229.007 13.9833 235.749C13.9227 235.749 13.6801 235.688 13.3769 235.627C14.8929 226.942 17.3185 218.378 17.6824 209.633C17.8037 209.39 17.8643 209.329 17.9249 209.268C18.4505 208.823 18.9963 208.377 19.5622 207.932C25.4444 203.316 29.4467 197.364 31.2659 190.015C32.2968 185.824 32.9639 181.634 33.0245 177.261C33.0851 174.831 33.0851 172.402 33.1458 169.912C33.2064 168.636 33.2671 167.3 34.116 165.478ZM15.1961 185.703C18.8346 180.055 19.259 179.022 20.7751 172.098C21.4421 169.122 21.9879 166.086 22.5943 163.11C23.5039 158.494 25.0199 154.121 27.1423 149.991C27.3849 149.566 27.6881 149.141 28.1732 148.412C28.4158 149.201 28.5371 149.566 28.5977 149.991C29.285 153.271 30.2957 156.429 31.6298 159.466C32.1149 160.619 32.4787 161.773 33.0245 162.867C33.3883 163.656 33.3883 164.385 33.0851 165.175C32.3574 166.814 32.1755 168.515 32.1149 170.276C32.0745 172.665 32.034 175.034 31.9936 177.382C31.933 181.634 31.2659 185.764 30.235 189.833C28.5371 196.757 24.838 202.344 19.3803 206.778C19.0165 207.082 18.6526 207.568 17.8643 207.325C17.6217 205.563 17.8037 203.741 17.6217 201.919C17.5005 200.097 17.3792 198.275 17.1366 196.453C16.8941 194.631 16.5909 192.809 16.2877 190.987C15.9238 189.165 15.56 187.404 15.1961 185.703ZM111.918 91.8674C110.948 90.4098 110.281 89.3773 109.553 88.4055C107.309 85.4295 104.399 83.1823 101.488 80.9351C99.5474 79.4775 97.6069 77.9591 95.7876 76.3193C94.2716 74.9831 92.8163 73.5862 91.9066 71.7641C90.1481 68.2415 89.481 64.4759 89.6023 60.5889C89.6023 59.6171 89.9055 58.8883 90.5725 58.2202C92.2705 56.4589 93.9078 54.6369 95.6057 52.8755C96.2121 52.2682 96.8185 51.6608 97.5462 51.0535C97.9101 51.3572 98.2133 51.6001 98.3952 51.8431C99.7293 53.7866 101.427 55.4264 103.246 56.9448C104.217 57.8356 105.187 58.7263 106.157 59.6171C109.129 62.5324 111.008 65.9943 111.312 70.2458C111.433 71.7034 111.494 73.2218 111.676 74.6794C111.979 78.0198 112.403 81.2995 114.041 84.2756C114.283 84.7007 114.404 85.3688 114.283 85.7939C113.737 87.6767 113.131 89.5595 111.918 91.8674ZM99.7293 182.848C102.337 181.512 104.581 180.176 106.946 179.022C109.796 177.686 112.706 176.411 115.557 175.074C117.073 174.406 118.589 174.346 120.105 174.892C121.439 175.317 122.773 175.742 124.046 176.411C125.805 177.261 127.624 178.233 129.261 179.387C131.505 180.905 133.688 182.545 135.811 184.245C139.024 186.675 142.238 189.104 146.119 190.38C146.362 190.44 146.544 190.623 146.968 190.926C146.362 191.169 145.877 191.412 145.452 191.594C144.058 192.141 142.602 192.566 141.268 193.234C139.752 193.963 138.176 194.449 136.478 194.449C134.598 194.449 132.657 194.388 130.777 194.145C127.563 193.72 124.653 192.566 121.803 191.169C119.316 189.954 116.83 188.618 114.283 187.404C109.917 185.339 105.43 183.699 100.518 183.334C100.396 183.334 100.275 183.152 99.7293 182.848ZM111.251 98.9127C111.069 98.7912 110.948 98.6697 111.008 98.609C111.13 98.1231 111.251 97.6372 111.433 97.1514C114.344 90.1061 116.951 82.9394 118.892 75.5297C119.195 74.3757 119.862 73.7684 120.893 73.3432C123.076 72.4322 124.956 71.0353 126.714 69.3955C128.049 68.0593 129.504 66.7839 130.899 65.4477C132.415 64.0508 134.052 62.9576 135.932 62.168C136.356 61.9858 136.841 61.9251 137.327 61.8036C138.357 64.3545 139.692 70.2458 139.631 72.6752C139.631 73.2218 139.51 73.8899 139.328 74.4365C137.327 80.0848 133.749 84.5185 128.655 87.616C126.593 88.8307 124.531 89.9846 122.47 91.1386C119.074 93.0214 115.738 95.1471 112.828 97.8195C112.343 98.3053 111.736 98.609 111.251 98.9127ZM122.651 7.14208C122.813 7.18257 122.975 7.24331 123.137 7.32429C123.015 7.81017 122.894 8.29605 122.773 8.78193C119.983 17.5278 118.831 26.3951 119.923 35.5661C120.347 38.8458 120.529 42.1862 120.772 45.5266C121.681 56.8841 119.983 67.9378 116.587 78.7487C116.466 79.1131 116.284 79.4775 115.86 80.3885C115.678 79.2953 115.557 78.8094 115.557 78.3843C115.678 76.38 115.799 74.315 115.981 72.3107C116.163 69.6991 116.466 67.0875 116.587 64.4759C116.648 61.1962 115.92 58.038 114.586 55.0013C113.737 53.0173 112.828 51.0332 111.857 49.0492C110.341 45.8303 109.129 42.6113 108.765 39.028C108.643 37.7525 108.583 36.4771 109.129 35.2017C110.948 30.8287 112.646 26.3951 114.465 22.0222C115.981 18.2566 117.8 14.6732 119.923 11.2113C120.772 9.81442 121.742 8.47825 122.651 7.14208ZM203.971 160.923C202.94 161.47 201.97 161.53 201.06 161.713C195.299 162.745 189.659 164.324 184.262 166.693C180.988 168.151 177.713 169.79 174.499 171.248C166.616 174.892 158.43 175.196 150.061 173.556C149.819 173.495 149.576 173.374 149.333 173.192C149.273 172.159 149.879 171.37 150.425 170.58C153.154 166.511 157.095 164.203 161.704 162.988C163.887 162.442 166.192 162.259 168.435 161.956C171.225 161.591 174.014 161.409 176.743 160.984C179.351 160.619 181.655 159.587 183.717 158.069C184.323 157.583 184.99 157.158 185.415 156.915C188.629 157.886 191.479 158.919 194.45 159.587C197.543 160.255 200.635 160.498 203.971 160.923ZM110.038 96.9692C109.432 98.609 108.825 100.188 108.219 101.767C107.552 103.346 107.249 105.108 106.278 106.626C105.793 106.626 105.369 106.747 104.944 106.687C104.156 106.626 103.368 106.565 102.64 106.383C96.8185 104.925 91.6034 102.496 87.2373 98.3053C85.5394 96.6857 84.2457 94.8232 83.3563 92.7177C81.4764 88.4663 80.87 83.9719 81.4158 79.356C81.4764 78.9309 81.4764 78.5057 82.0828 78.3843C82.4467 78.9309 82.8712 79.5382 83.235 80.0848C84.8723 82.7572 87.116 84.8222 89.7842 86.4013C91.1789 87.1301 92.6343 87.8589 94.0897 88.4055C96.5153 89.3773 99.0016 90.2276 101.427 91.1386C102.943 91.6852 104.399 92.2318 105.793 92.9607C107.491 93.8109 109.129 94.9042 110.038 96.9692ZM3.91694 149.262C3.79566 148.412 3.67438 147.804 3.61373 147.258C3.00733 141.913 3.31053 136.69 4.64462 131.588C5.43295 128.308 6.52449 125.15 7.49474 121.992C8.7682 117.862 10.1629 113.793 11.3757 109.663C12.8918 104.44 13.862 99.0949 13.7407 93.6287C13.6801 93.3251 13.862 93.0214 13.9833 92.4748C15.2568 95.1471 16.4696 97.5765 17.5611 100.067C17.9856 100.978 18.4101 102.01 18.6526 102.982C19.6835 107.78 19.5016 112.578 18.7133 117.376C17.5611 124.239 14.7716 130.434 10.9513 136.204C8.34371 140.152 5.85744 144.221 4.46271 148.776C4.40206 148.837 4.34142 148.898 3.91694 149.262ZM-8.6357 190.137C-8.21121 190.744 -7.96865 190.987 -7.84737 191.23C-6.63455 193.963 -4.87596 196.392 -3.17802 198.822C1.43067 205.381 7.25218 210.604 14.1652 214.552C14.711 214.856 15.1961 215.16 15.6812 215.402C15.4993 218.682 14.0439 226.517 12.4066 233.38C12.346 233.562 12.1641 233.744 12.0428 234.048C11.7396 233.805 11.5577 233.744 11.3758 233.562C6.40322 227.185 1.9158 220.504 -2.45034 213.763C-4.08764 211.272 -5.42174 208.6 -6.57391 205.867C-8.51441 201.494 -9.2421 196.818 -8.9389 192.019C-8.87826 191.534 -8.75698 191.048 -8.6357 190.137ZM140.662 171.491C138.054 171.187 135.447 170.884 132.839 170.701C130.232 170.519 127.563 170.641 125.016 171.127C122.47 171.673 119.983 172.281 117.315 172.827C117.436 172.463 117.436 172.159 117.558 171.977C119.134 169.365 120.711 166.693 122.288 164.142C123.197 162.684 124.046 161.227 125.077 159.951C126.654 158.069 128.594 156.489 131.02 155.943C135.083 154.971 138.843 153.392 142.542 151.57C144.664 150.598 146.847 149.566 149.151 149.08C149.515 149.019 149.879 149.141 150.304 149.201C150.061 149.505 150 149.687 149.879 149.809C149.758 149.93 149.576 149.991 149.455 150.112C147.029 152.299 145.473 154.991 144.785 158.19C144.482 159.708 144.24 161.288 143.936 162.806C143.633 164.446 143.33 166.086 142.905 167.665C142.481 169.122 141.935 170.519 140.662 171.491ZM9.31396 172.038C9.67781 172.766 9.98101 173.313 10.1629 173.86C10.7693 175.56 11.3151 177.2 11.8002 178.901C13.4375 184.185 14.8323 189.469 15.6206 194.995C15.6812 195.542 16.0451 196.21 15.3174 196.635C7.79795 194.753 -1.90457 186.978 -6.08878 179.326C-5.6643 177.079 -5.05789 174.771 -4.75469 172.463C-4.51213 170.033 -4.63341 167.604 -4.57277 164.992C-4.14828 165.296 -3.78443 165.478 -3.48123 165.782C-2.63226 166.572 -1.90457 167.422 -1.0556 168.151C1.79451 170.823 4.94783 172.766 9.31396 172.038ZM35.814 277.838C40.4227 276.866 44.5462 276.198 48.6092 275.226C51.338 274.619 53.8243 274.862 56.3712 275.712C61.1618 277.291 65.6492 279.417 69.5909 282.575C72.8048 285.187 75.7762 287.981 78.8689 290.653C79.0508 290.835 79.0508 291.078 79.2327 291.503C78.5657 291.443 78.0199 291.382 77.5348 291.26C74.7453 290.592 71.8346 290.349 68.9238 290.41C67.2259 290.471 65.4673 290.592 63.7087 290.653C62.4959 290.653 61.2224 290.592 60.0703 290.41C56.735 289.985 53.5817 288.831 50.7316 287.009C48.973 285.916 47.2144 284.762 45.5165 283.547C42.7877 281.604 39.9982 279.782 36.9055 278.506C36.6629 278.445 36.481 278.263 35.814 277.838ZM-7.78673 121.202C-6.69519 121.628 -6.21007 122.417 -5.84622 123.207C-5.36109 124.239 -4.93661 125.272 -4.57277 126.365C-3.90572 128.126 -3.35995 130.009 -2.63227 131.77C-1.90458 133.592 -0.873686 135.171 0.702975 136.386C1.1881 136.751 1.61259 137.176 2.09772 137.601C2.09772 138.087 2.15836 138.512 2.09772 138.937C1.67323 144.95 2.40092 150.841 4.1595 156.55C5.25104 160.073 6.52449 163.535 7.67666 166.997C7.85859 167.665 8.04051 168.272 8.28307 169.244C7.61602 168.879 7.19154 168.697 6.88834 168.454C4.46271 166.511 2.40092 164.264 1.00618 161.47C-0.388558 158.676 -1.66201 155.761 -2.93547 152.906C-4.87597 148.412 -6.87712 143.917 -10.6368 140.516C-11.3645 139.97 -11.3039 139.18 -11.3039 138.39C-11.4252 132.681 -10.273 127.215 -8.27185 121.931C-8.15057 121.749 -7.96865 121.506 -7.78673 121.202ZM135.871 195.664C135.912 195.826 135.952 195.987 135.992 196.149C134.84 196.939 133.627 197.729 132.536 198.518C131.384 199.429 130.11 199.915 128.716 200.158C124.835 201.008 121.014 200.705 117.315 199.368C114.95 198.457 112.646 197.364 110.341 196.332C108.158 195.36 106.097 194.267 103.853 193.356C98.5771 191.23 93.1195 190.197 87.4192 191.534C87.2373 191.594 86.9947 191.412 86.5096 191.23C89.3597 189.104 92.0886 187.282 94.9387 185.582C96.3334 184.731 97.7888 184.367 99.4261 184.367C101.912 184.367 104.277 184.853 106.642 185.582C110.099 186.614 113.373 188.132 116.587 189.712C119.074 190.987 121.621 192.202 124.168 193.356C127.442 194.753 130.838 195.481 134.416 195.542C134.901 195.542 135.386 195.603 135.871 195.664ZM15.6812 214.006C15.1355 213.823 14.8323 213.702 14.5291 213.52C13.6801 213.034 12.8513 212.548 12.0428 212.062C3.24989 206.353 -3.17803 198.518 -7.84737 189.165C-8.27185 188.375 -8.39313 187.525 -8.15057 186.675C-7.72609 185.156 -7.36224 183.577 -6.93776 182.059C-6.87711 181.816 -6.63455 181.573 -6.27071 181.087C-3.54187 185.278 -0.388553 188.74 3.49246 191.534C7.31282 194.267 11.3151 196.757 15.8025 198.032C16.6515 202.162 16.5909 210.726 15.6812 214.006ZM123.804 10.0574C123.965 10.0979 124.127 10.1383 124.289 10.1788C124.41 11.0291 124.531 11.8794 124.592 12.7297C125.077 19.0461 126.108 25.2411 127.806 31.3146C128.897 35.2017 130.11 39.028 131.384 42.8543C131.687 43.8868 131.687 44.6763 131.081 45.5266C130.05 47.1057 129.565 48.867 129.14 50.6891C128.837 52.086 128.594 53.4222 128.23 54.7583C127.26 58.2202 125.562 61.257 122.773 63.5649C122.47 63.8078 122.227 64.233 121.56 63.9293C121.621 63.3827 121.621 62.7754 121.681 62.168C122.227 57.9773 122.47 53.7866 122.227 49.5959C121.984 44.6763 121.742 39.8175 121.196 34.9587C120.347 27.2454 121.196 19.7142 123.076 12.3046C123.319 11.515 123.561 10.7862 123.804 10.0574ZM174.257 151.448C173.287 152.481 172.559 153.271 171.831 153.939C169.587 155.943 166.98 157.036 164.19 157.886C161.462 158.676 158.793 159.465 156.186 160.498C151.335 162.381 147.757 165.721 145.877 170.701C145.634 171.248 145.392 171.795 145.149 172.341C144.058 172.463 143.148 172.22 142.299 171.795C144.24 167.179 144.24 167.179 145.21 161.652C145.452 160.194 145.756 158.737 146.119 157.279C146.726 154.971 147.999 152.967 149.758 151.266C151.456 149.626 153.457 148.29 155.943 148.169C161.583 147.987 167.162 148.594 172.498 150.537C172.923 150.72 173.347 151.023 174.257 151.448ZM120.893 173.677C121.075 173.495 121.135 173.313 121.317 173.313C125.016 172.281 128.837 171.795 132.718 172.038C135.143 172.159 137.387 172.827 139.449 174.042C141.268 175.135 142.966 176.35 144.664 177.625C146.423 178.901 148.121 180.298 149.819 181.634C153.275 184.367 157.217 186.007 161.522 186.675C162.917 186.918 164.312 187.039 165.706 187.221C166.07 187.221 166.434 187.404 167.222 187.586C164.372 188.679 161.886 189.165 159.4 189.469C156.853 189.772 154.367 189.894 151.82 190.197C150.546 190.38 149.394 190.258 148.181 189.894C145.351 189.165 142.744 187.95 140.359 186.25C138.479 184.974 136.72 183.517 134.901 182.12C130.777 178.901 126.472 175.925 121.439 174.163C121.257 174.042 121.075 173.86 120.893 173.677ZM135.811 91.4423C135.629 92.7785 134.962 93.6895 134.416 94.6612C130.535 101.646 125.198 107.416 119.256 112.639C114.283 116.951 108.765 120.595 103.55 124.543C103.307 124.725 103.004 124.786 102.579 124.907C102.579 124.421 102.579 124.178 102.64 123.936C104.095 119.927 105.308 115.797 106.4 111.606C106.582 110.817 107.067 110.027 107.552 109.298C109.553 106.201 112.403 104.075 115.738 102.557C117.982 101.524 120.287 100.674 122.591 99.8237C127.321 98.0624 131.626 95.6937 135.083 91.8674C135.204 91.6852 135.447 91.6245 135.811 91.4423ZM126.593 201.798C125.926 202.223 125.623 202.527 125.259 202.709C122.833 203.62 120.287 204.227 117.618 204.47C113.656 204.835 109.735 204.632 105.854 203.863C102.337 203.195 98.8197 202.344 95.3632 201.494C90.1481 200.219 84.9936 198.761 79.6572 198.457C79.354 198.397 79.0508 198.214 78.4444 198.032C79.5966 197 80.5668 196.089 81.4764 195.238C81.9009 194.874 82.3254 194.57 82.7499 194.267C82.952 194.145 83.1744 194.024 83.4169 193.902C87.1767 192.445 90.9364 191.594 94.9993 192.141C98.2133 192.566 101.367 193.356 104.338 194.692C106.097 195.481 107.795 196.332 109.553 197.121C111.554 198.093 113.495 199.004 115.557 199.854C118.589 201.069 121.742 201.798 125.016 201.676C125.441 201.676 125.865 201.737 126.593 201.798ZM88.3895 61.4999C88.5108 62.2287 88.5714 62.5932 88.632 63.0183C88.814 64.4759 88.9352 65.9943 89.2385 67.452C89.9661 70.6709 91.3609 73.5254 93.7865 75.8941C95.9089 77.9591 98.2739 79.7812 100.578 81.6032C102.701 83.3038 104.823 85.0044 106.824 86.8264C108.522 88.4663 109.917 90.4098 111.008 92.5355C111.494 93.5073 111.372 94.3576 110.341 95.1471C107.795 92.2318 104.338 90.9564 100.821 89.8024C100.093 89.5595 99.3655 89.3166 98.5771 89.0129C96.576 88.2233 94.5142 87.4945 92.5131 86.6442C88.3288 84.7007 85.0542 81.7854 82.8712 77.6554C82.2041 76.3193 82.0222 75.1046 82.4467 73.6469C83.5989 69.6384 85.2968 65.9336 87.5405 62.4109C87.6618 62.168 87.965 61.9251 88.3895 61.4999ZM67.8323 263.14C67.1652 263.383 66.9833 263.444 66.862 263.505C62.6778 263.687 58.9787 265.084 55.5828 267.452C53.1572 269.153 50.6709 270.853 48.2453 272.554C46.3048 273.89 44.1824 274.923 41.7568 275.287C40.0588 275.53 38.3609 275.955 36.6023 276.259C32.6606 276.927 28.6584 277.352 24.5954 277.231C24.2922 277.231 23.989 277.048 23.3826 276.866C24.1103 276.32 24.5348 275.895 25.0806 275.591C28.1126 273.708 31.1446 271.825 34.1767 269.882C38.2396 267.392 42.5451 265.387 47.0325 263.869C50.4284 262.776 53.8849 261.865 57.5233 261.5C60.9192 261.136 64.2545 261.561 67.8323 263.14ZM107.491 39.3316C108.098 42.5506 109.068 45.5266 110.463 48.3812C111.11 49.8388 111.777 51.2762 112.464 52.6933C114.708 57.2485 115.92 62.0465 115.496 67.1483C115.294 69.0918 115.071 71.0151 114.829 72.9181C114.344 75.8941 114.283 78.8701 115.011 81.7854C115.132 82.2106 115.132 82.6357 115.132 83.0608C114.586 82.7572 114.222 82.3928 114.101 81.9069C113.616 79.9634 113.131 78.0198 112.888 76.0156C112.585 73.9506 112.524 71.8249 112.343 69.7599C111.979 66.298 110.766 63.2612 108.462 60.7104C106.946 59.0098 105.248 57.4914 103.61 55.9123C102.337 54.6369 101.003 53.3614 99.7293 52.0253C99.1229 51.4786 98.6984 50.8106 98.759 49.7781C101.912 46.6806 104.884 43.2794 107.491 39.3316ZM82.568 277.838C85.3574 276.684 88.0256 276.259 90.7545 276.32C93.0588 276.32 95.2419 276.806 97.1217 278.324C98.2739 279.235 99.5474 280.085 100.578 281.118C102.883 283.486 105.126 285.977 107.309 288.406C111.069 292.536 114.829 296.544 119.559 299.52C119.741 299.642 119.862 299.824 120.226 300.188C119.619 300.188 119.316 300.189 119.013 300.128C114.283 299.095 109.796 297.455 105.733 294.722C103.186 293.022 100.7 291.26 98.3346 289.317C93.4227 285.491 88.632 281.543 83.235 278.445C83.1138 278.385 82.9925 278.202 82.568 277.838ZM20.2899 105.168C22.5336 108.327 23.8677 111.181 23.989 114.582C24.0497 118.287 23.7465 121.931 22.6549 125.454C21.5028 129.098 19.8654 132.499 17.9856 135.779C16.4696 138.33 14.9535 140.881 13.4375 143.431C10.8906 147.926 8.58628 152.602 7.19154 157.643C7.07026 158.008 6.88834 158.372 6.70641 158.797C6.46385 158.615 6.22129 158.494 6.16064 158.372C5.85744 157.401 5.55424 156.368 5.19039 155.396C4.4627 153.513 4.64463 151.631 5.25103 149.748C6.46385 145.861 8.22243 142.277 10.4661 138.876C11.9822 136.568 13.3769 134.26 14.711 131.892C18.9558 124.118 20.8357 115.736 20.2899 106.808C20.2293 106.505 20.2293 106.14 20.2899 105.168ZM151.335 124.664C151.335 124.786 151.355 124.907 151.395 125.029C148.848 127.276 146.301 129.523 143.694 131.71C142.057 133.167 140.359 134.503 138.6 135.9C134.84 138.937 130.474 140.516 125.623 140.881C120.893 141.306 116.224 141.792 111.494 142.217C111.19 142.277 110.887 142.156 110.341 142.035C112.161 139.909 114.162 138.33 116.345 137.115C119.256 135.475 122.227 134.018 125.38 133.046C130.232 131.527 135.143 130.07 139.934 128.551C142.966 127.64 145.938 126.547 148.909 125.575C149.697 125.272 150.486 124.968 151.335 124.664ZM114.404 159.101C113.98 159.83 113.859 160.134 113.677 160.437C112.888 161.956 111.918 163.413 111.19 165.053C110.463 166.693 109.978 168.515 109.311 170.216C108.522 172.22 107.673 174.285 106.824 176.289C106.278 177.504 105.369 178.415 104.095 179.022C101.791 180.237 99.4867 181.512 97.1217 182.727C96.6973 182.97 96.2728 183.395 95.6664 182.97C95.1813 181.877 95.06 180.662 95.1813 179.447C95.3025 177.261 95.5451 175.074 95.8483 172.888C96.1515 170.762 97.0005 168.879 98.941 167.665C99.3048 167.422 99.608 167.057 99.9112 166.814C104.035 163.231 108.643 160.68 114.404 159.101ZM148.545 175.196C153.578 175.5 158.369 176.107 163.16 175.682C168.132 175.196 172.68 173.495 177.046 171.673C178.138 172.038 179.047 172.402 179.957 172.645C180.927 172.827 181.897 172.949 182.807 173.07C183.717 173.252 184.748 173.009 185.778 173.556C183.353 175.803 180.927 177.807 178.744 180.055C177.531 181.269 176.197 181.877 174.56 181.998C173.165 182.059 171.77 182.18 170.376 182.12C166.01 181.937 161.704 181.209 157.459 179.872C154.609 178.961 151.941 177.686 149.455 175.985C149.151 175.803 148.848 175.439 148.545 175.196ZM116.769 301.1C112.585 301.403 108.462 301.16 104.459 300.189C104.055 300.067 103.651 299.925 103.246 299.763C98.0314 297.82 93.2407 295.148 89.1172 291.382C87.6618 290.005 86.2266 288.588 84.8117 287.13C81.3552 283.547 78.1412 279.782 74.1389 276.745C74.0176 276.623 73.957 276.441 73.7144 275.894C74.4421 276.137 74.9272 276.32 75.4124 276.502C78.1412 277.413 80.8094 278.628 83.2957 280.024C86.6309 281.968 89.7236 284.215 92.7556 286.645C95.4238 288.71 98.0314 290.896 100.76 292.961C105.43 296.423 110.402 299.338 116.102 300.796C116.345 300.857 116.527 300.978 116.769 301.1ZM2.88605 132.013C2.58284 131.406 2.27964 131.042 2.219 130.616C1.97643 129.159 1.67323 127.701 1.67323 126.243C1.73387 124.239 1.91579 122.235 2.15835 120.231C2.5222 117.68 3.06797 115.19 3.49245 112.7C3.97758 109.845 4.09886 106.99 3.49245 104.075C3.37117 103.771 3.43181 103.407 3.37117 103.225C4.94783 100.856 6.58513 98.609 7.91922 96.3011C9.25332 93.9932 10.3449 91.5637 11.679 88.7699C12.2854 90.7742 12.346 92.414 12.4066 94.0539C12.4673 98.1231 11.9822 102.132 10.9513 106.019C9.73845 110.392 8.34371 114.765 7.07025 119.077C5.85744 123.024 4.58398 126.972 3.37117 130.859C3.31053 131.163 3.12861 131.467 2.88605 132.013ZM139.328 77.291C139.631 80.2063 139.449 83.0608 138.176 85.6117C135.871 90.0454 132.536 93.568 128.17 96.1189C125.744 97.5158 123.137 98.5483 120.468 99.52C116.345 100.917 112.403 102.8 109.068 105.715C108.886 105.836 108.643 105.836 108.158 105.958C108.462 105.229 108.643 104.743 108.886 104.318C110.887 100.735 113.737 97.8802 117.133 95.6937C120.65 93.3858 124.289 91.2601 127.927 89.1951C132.597 86.5227 136.478 83.0608 138.782 78.1413C138.964 77.8376 139.146 77.534 139.328 77.291ZM94.0897 296.97C93.0588 296.605 92.4524 296.362 91.7854 296.18C89.7236 295.39 87.7224 294.54 85.6607 293.811C84.0234 293.265 82.6286 292.414 81.3552 291.382C79.7179 289.924 78.0199 288.467 76.4433 287.009C70.925 281.786 64.8002 277.474 57.5234 274.923C57.3414 274.862 57.2202 274.68 56.8563 274.315C57.4021 274.255 57.7053 274.133 58.0691 274.133C60.4947 274.214 62.9406 274.295 65.4066 274.376C67.1046 274.437 68.6812 274.923 70.1366 275.712C71.592 276.502 73.0474 277.352 74.3815 278.324C77.0497 280.328 79.2934 282.818 81.5977 285.248C85.2968 289.074 88.9353 293.022 93.362 295.998C93.5439 296.18 93.6652 296.423 94.0897 296.97ZM56.3712 291.139C49.3975 291.929 43.1515 291.078 37.2693 287.616C32.9639 285.126 28.9009 282.211 24.9593 279.235C24.838 279.174 24.838 278.931 24.7774 278.688C26.4753 278.567 28.1732 278.628 29.7499 278.385C31.933 278.081 33.9947 278.445 35.9353 279.296C37.3906 279.964 38.846 280.571 40.1801 281.361C42.1812 282.575 44.1824 283.912 46.1229 285.248C49.1549 287.313 52.187 289.378 55.7648 290.532C55.8861 290.592 56.0073 290.775 56.3712 291.139ZM49.1549 273.587C49.4581 273.161 49.5794 272.919 49.7613 272.797C52.4295 270.914 55.0371 269.031 57.7659 267.331C61.465 265.023 65.5279 264.173 69.8334 264.537C70.9856 264.659 72.0771 264.901 73.0474 265.509C75.1698 266.845 77.2316 268.06 79.354 269.396C79.5359 269.457 79.5966 269.76 79.7785 270.003C79.4147 270.064 79.1115 270.125 78.8689 270.125C74.6847 269.942 70.743 270.854 66.9227 272.676C66.2556 272.979 65.6492 273.04 64.9215 272.979C60.1309 272.554 55.3403 272.797 50.5497 273.587C50.1858 273.647 49.7613 273.587 49.1549 273.587ZM119.983 72.4322C119.983 72.0071 119.923 71.6427 119.983 71.339C120.226 70.1243 120.529 68.9703 120.772 67.7556C120.954 66.6624 121.439 65.8728 122.348 65.2048C126.047 62.6539 128.23 59.0098 129.322 54.6976C129.686 53.4829 129.868 52.1467 130.171 50.8713C130.494 49.6161 130.878 48.3609 131.323 47.1057C131.444 46.7413 131.808 46.4984 132.172 45.9518C133.567 48.3812 134.113 50.8713 134.901 53.24C135.689 55.6086 136.72 57.9165 136.963 60.4674C136.538 60.7711 136.174 61.014 135.75 61.1962C133.324 62.2287 131.202 63.6864 129.322 65.5692C127.806 67.0268 126.229 68.4237 124.653 69.8206C123.319 70.9746 121.863 71.8856 119.983 72.4322ZM112.343 137.905C112.888 137.054 113.131 136.69 113.373 136.325C115.314 133.835 117.679 131.77 120.044 129.645C122.712 127.276 125.805 125.697 129.322 125.029C131.687 124.543 134.173 124.239 136.599 123.996C139.752 123.693 142.845 123.328 145.938 122.599C147.817 122.235 149.697 122.053 151.638 121.81C152.002 121.749 152.426 121.871 153.214 121.992C152.305 122.539 151.82 122.903 151.274 123.146C147.393 124.786 143.451 126.243 139.449 127.397C134.881 128.693 130.353 130.07 125.865 131.527C123.804 132.135 121.742 132.985 119.801 133.896C117.436 135.05 115.193 136.386 112.343 137.905ZM-7.36224 119.806C-4.99725 114.582 -1.72265 110.209 1.37003 105.776C1.61259 105.472 1.97643 105.229 2.46156 104.804C2.64348 105.472 2.76476 105.897 2.8254 106.322C3.06796 108.509 2.76476 110.695 2.40092 112.821C1.85515 115.918 1.30938 119.016 0.884901 122.174C0.339136 126.122 0.521055 130.009 2.15835 133.775C2.34028 134.139 2.46156 134.564 2.46156 134.989C2.46156 135.354 2.27963 135.657 2.15835 136.022C0.15721 134.625 -0.752401 133.653 -1.60137 131.649C-2.04607 130.515 -2.45034 129.361 -2.81418 128.187C-3.78444 125.15 -4.81533 122.174 -7.36224 119.806ZM146.362 172.524C147.029 170.398 147.939 168.515 149.212 166.814C151.092 164.324 153.578 162.563 156.489 161.47C159.339 160.437 162.311 159.526 165.221 158.615C168.011 157.765 170.558 156.429 172.741 154.485C173.59 153.696 174.378 152.724 175.227 151.874C178.016 152.663 182.443 154.91 184.081 156.307C183.717 157.036 183.05 157.401 182.383 157.826C180.26 159.162 177.956 159.891 175.47 160.194C172.801 160.498 170.133 160.741 167.404 160.984C164.979 161.166 162.553 161.53 160.249 162.32C155.034 164.081 150.91 167.057 148.424 172.038C148.303 172.22 148.242 172.341 148.181 172.524C147.696 173.131 147.15 173.07 146.362 172.524ZM107.976 176.896C109.311 173.131 110.463 169.851 111.676 166.571C112.161 165.296 112.706 163.96 113.434 162.806C114.101 161.591 115.011 160.498 115.92 159.405C116.527 158.676 117.376 158.19 118.346 158.069C120.65 157.643 123.015 157.218 125.32 156.854C125.684 156.793 126.047 156.793 126.169 157.218C125.198 158.372 124.107 159.405 123.258 160.559C122.348 161.834 121.621 163.231 120.832 164.628C120.226 165.66 119.68 166.814 119.013 167.786C117.881 169.568 116.668 171.289 115.375 172.949C114.889 173.556 114.283 174.103 113.616 174.406C111.918 175.257 110.099 175.985 107.976 176.896ZM106.036 107.901C104.399 113.185 103.489 118.591 101.063 123.693C100.821 123.328 100.578 123.146 100.578 122.903C99.608 118.652 97.5462 114.886 95.1206 111.363C93.1195 108.387 91.0577 105.472 88.9959 102.496C88.6927 102.071 88.4501 101.524 88.2076 101.099C93.6046 104.743 99.4261 107.173 106.036 107.901ZM8.22243 170.884C6.22129 171.37 4.70526 170.884 3.37117 170.094C2.03707 169.305 0.763622 168.333 -0.449192 167.3C-1.78329 166.207 -2.93547 164.871 -4.26956 163.717C-4.93661 163.11 -5.30045 162.442 -5.60366 161.591C-6.37177 159.081 -7.18032 156.591 -8.02929 154.121C-9.2421 150.659 -10.3943 147.136 -10.94 143.492C-11.0007 143.067 -10.8794 142.581 -10.8794 141.974C-8.75698 143.857 -7.78672 145.071 -6.75583 147.258C-5.05789 150.902 -3.42059 154.607 -1.78329 158.251C-0.267274 161.531 1.37003 164.749 4.03822 167.24C5.25103 168.454 6.58513 169.548 8.22243 170.884ZM94.8174 184.063C89.6023 187.404 84.6904 190.744 80.1423 194.631C80.0817 194.692 80.0211 194.692 79.8998 194.692C79.8391 194.692 79.7785 194.631 79.7179 194.57C81.2339 189.286 90.8757 174.892 94.8174 172.281C94.1503 176.228 93.7259 180.055 94.8174 184.063ZM174.439 183.091C174.257 183.638 174.257 183.82 174.135 183.881C172.438 185.399 170.497 186.25 168.193 186.25C161.462 186.25 155.216 184.671 149.819 180.419C146.908 178.111 143.876 175.864 140.904 173.556C140.904 173.495 140.904 173.374 140.904 173.131C142.905 173.435 144.785 173.677 146.423 175.074C149.455 177.625 152.911 179.508 156.671 180.723C161.947 182.423 167.344 183.395 172.923 183.152C173.347 183.091 173.772 183.091 174.439 183.091ZM-19.7936 248.928C-22.3405 246.256 -23.614 243.158 -24.2204 239.757C-24.281 239.332 -24.281 238.846 -24.2204 238.421C-23.7959 235.202 -22.9469 232.044 -21.4309 229.129C-21.249 228.886 -21.1277 228.46 -20.5213 228.643C-20.2181 229.614 -19.9755 230.708 -19.6117 231.801C-19.2478 232.955 -18.7627 234.109 -18.3382 235.202C-18.035 235.931 -18.1563 236.599 -18.3382 237.267C-19.1265 240.607 -19.4904 244.009 -19.6117 247.41C-19.6723 247.956 -19.7329 248.442 -19.7936 248.928ZM-10.8188 219.35C-10.273 222.934 -10.273 225.97 -10.1517 229.007C-10.0304 232.651 -11.3039 235.627 -13.6082 238.3C-14.5178 239.393 -15.4881 240.365 -16.4583 241.397C-16.7615 241.64 -17.0041 242.065 -17.7318 241.761C-17.6712 241.215 -17.6712 240.607 -17.5499 240.061C-16.8828 237.449 -16.3977 234.777 -15.4881 232.226C-14.154 228.096 -12.5167 224.027 -10.8188 219.35ZM68.7419 273.101C71.6526 271.765 74.2602 271.339 76.989 271.157C81.2339 270.854 85.1149 272.19 88.814 274.072C89.2991 274.315 89.9662 274.315 90.1481 275.166C87.2373 275.348 84.5085 275.894 81.8403 276.866C81.052 277.17 80.3243 277.048 79.5966 276.684C76.4433 275.307 73.1889 274.295 69.8334 273.647C69.5909 273.587 69.4089 273.404 68.7419 273.101ZM201.666 163.595C200.656 164.081 199.625 164.547 198.574 164.992C195.178 166.632 192.024 168.758 188.992 171.005C188.265 171.552 187.476 172.098 186.446 172.159C184.262 172.22 182.079 172.159 179.957 171.552C179.593 171.43 179.351 171.127 178.987 170.884C184.808 167.3 196.512 163.231 201.666 163.595ZM67.711 246.256C71.6526 244.92 87.116 244.737 90.0874 245.891C89.8449 246.074 89.6023 246.256 89.4204 246.377C86.6309 247.228 83.9021 248.078 81.1126 248.867C80.4456 249.05 79.7179 249.11 79.0508 249.11C75.4124 248.989 71.8952 248.26 68.56 246.863C68.3174 246.742 68.0748 246.499 67.711 246.256ZM-24.3416 243.948C-24.0384 244.495 -23.9172 244.798 -23.7352 245.041C-22.7043 246.863 -21.7341 248.746 -20.6426 250.507C-20.0362 251.418 -19.7329 252.329 -19.6723 253.423C-19.4297 256.581 -19.1265 259.739 -18.884 262.836C-18.7223 264.78 -18.5808 266.703 -18.4595 268.606C-18.4595 269.031 -18.2776 269.517 -18.884 269.76C-19.9755 266.157 -21.067 262.553 -22.1586 258.949C-22.4011 258.038 -22.7043 257.067 -22.8863 256.156C-23.432 253.119 -23.9778 250.143 -24.4629 247.106C-24.6448 246.195 -24.7661 245.223 -24.3416 243.948ZM-17.6712 233.562C-17.9137 233.137 -18.2776 232.833 -18.3382 232.469C-18.7425 231.052 -19.1063 229.614 -19.4297 228.157C-19.7936 226.699 -19.4904 225.363 -18.4595 224.27C-16.519 222.205 -14.6998 220.079 -12.8199 218.014C-12.7593 217.953 -12.5167 218.075 -12.3954 218.075C-12.638 221.172 -15.1849 228.582 -17.6712 233.562ZM74.624 249.839C74.1996 250.629 73.5325 250.507 72.9867 250.568C68.2568 251.054 63.5268 250.75 58.9181 249.596C58.0691 249.353 57.1595 249.293 56.1286 248.442C59.1 247.531 61.8288 246.924 64.5577 246.499C65.1034 246.438 65.7705 246.742 66.2556 246.985C68.6206 248.139 71.1069 248.989 73.7144 249.475C74.0176 249.536 74.2602 249.718 74.624 249.839ZM71.592 243.887C71.9559 243.098 72.1378 242.551 72.3803 242.004C73.5931 239.575 75.473 238.36 78.2625 238.664C80.1423 238.846 82.0828 238.907 83.9021 239.575C83.4776 240.425 82.8105 240.304 82.2041 240.425C80.4455 240.972 78.687 241.519 77.1709 242.612C75.5943 243.826 73.8964 244.13 71.592 243.887ZM70.076 244.191C68.0748 244.555 66.2556 244.859 64.4364 245.102C62.6172 245.406 60.7979 246.074 58.433 245.952C63.1023 243.158 67.4078 240.79 72.6229 239.514C71.7133 241.276 70.925 242.672 70.076 244.191ZM78.3231 243.766C80.6881 241.701 83.4169 241.033 86.3277 240.79C86.6915 240.729 87.1767 240.85 87.5405 241.033C88.814 241.761 90.0874 242.49 91.3609 243.28C91.5428 243.401 91.7247 243.583 91.9067 243.705C91.7247 243.887 91.6641 244.069 91.5428 244.069C87.1362 243.988 82.7297 243.887 78.3231 243.766Z" fill="#BD9BD8"/>
</svg>
